<svg width="38" height="29" viewBox="0 0 38 29" fill="none" xmlns="http://www.w3.org/2000/svg">
<path d="M2.43098 26.8472C0.767676 25.4542 0 23.5546 0 21.1485C0 18.7424 0.767676 16.083 2.30303 13.1703C3.83838 10.3843 5.88552 7.72489 8.3165 5.31878C10.6195 2.91266 13.0505 1.13974 15.3535 0L16.8889 2.65939C15.3535 3.67249 13.6902 5.31878 11.899 7.85153C10.1077 10.3843 9.21212 12.7904 9.21212 15.3231C9.21212 16.083 9.34007 16.7162 9.85185 17.0961C10.3636 17.6026 11.0034 17.9825 12.0269 18.3624C12.9226 18.869 13.5623 19.2489 13.9461 19.5022C14.33 19.8821 14.5859 20.3886 14.5859 20.8952C14.5859 22.6681 13.8182 24.5677 12.4108 26.3406C10.8754 28.1135 9.34007 29 7.67677 29C5.75758 29 3.96633 28.3668 2.43098 26.8472ZM23.5421 26.8472C21.8788 25.4542 21.1111 23.5546 21.1111 21.1485C21.1111 18.7424 21.8788 16.083 23.5421 13.1703C25.0774 10.3843 27.1246 7.72489 29.5556 5.31878C31.8586 2.91266 34.2896 1.13974 36.5926 0L38 2.65939C36.4646 3.67249 34.8013 5.31878 33.1381 7.85153C31.3468 10.3843 30.5791 12.7904 30.5791 15.3231C30.5791 16.083 30.7071 16.7162 31.2189 17.0961C31.7306 17.6026 32.3704 17.9825 33.3939 18.3624C34.1616 18.869 34.8013 19.2489 35.1852 19.5022C35.569 19.8821 35.8249 20.3886 35.8249 20.8952C35.8249 22.6681 35.0572 24.5677 33.6498 26.3406C32.1145 28.1135 30.5791 29 28.9158 29C26.8687 29 25.0774 28.3668 23.5421 26.8472Z" fill="#721444"/>
</svg>
