<svg width="1905" height="1905" viewBox="0 0 1905 1905" fill="none" xmlns="http://www.w3.org/2000/svg">
<path d="M0.957031 952.957C0.956985 427.182 427.182 0.957504 952.957 0.957458C1478.73 0.957413 1904.96 427.182 1904.96 952.957C1904.96 1478.73 1478.73 1904.96 952.957 1904.96C427.182 1904.96 0.957077 1478.73 0.957031 952.957Z" fill="white"/>
<path d="M111.91 946.749C111.608 946.1 110.855 944.319 109.965 941.734C109.368 940.118 108.923 938.825 108.621 938.177C108.175 936.884 106.757 936.046 104.211 935.497C101.185 934.935 96.7157 934.494 90.7978 934.334L37.0574 932.882C28.4206 932.648 22.9653 933.141 21.02 934.049C19.7665 938.977 18.5518 942.465 17.3717 944.674L12.4437 943.42L13.3039 911.592L18.288 910.766C18.9018 911.743 19.4941 913.52 20.0733 915.776C20.6526 918.033 21.0805 919.965 21.3615 921.413C23.8903 922.602 28.9955 923.22 36.6727 923.428L94.0917 924.979C99.2099 925.118 104.172 925.092 108.988 924.582C109.342 923.311 109.878 921.245 110.587 918.703C111.456 916.165 112.152 914.103 112.826 912.841L117.599 913.93L116.739 945.759L111.91 946.749Z" fill="#1A1417"/>
<path d="M47.0662 876.964L50.4671 874.334L56.356 876.216L55.2762 872.045C52.131 861.32 50.562 854.667 50.5489 852.246C51.4823 844.945 55.3666 839.796 62.0229 836.937C60.9025 833.084 59.5864 828.238 58.0544 822.558C56.6811 816.898 55.8781 813.085 55.8448 810.823C56.7375 803.84 59.3319 798.687 63.6076 795.524C67.8833 792.361 73.5228 791.146 80.506 792.039L105.899 795.285C111.93 796.056 117.347 796.587 122.169 796.72C122.49 795.471 123.23 793.468 124.189 791.01C125.149 788.552 126.186 786.749 127.003 785.402L131.126 787.219L127.19 818.009L123.1 818.454C122.469 817.083 121.899 815.235 121.548 812.932C121.177 810.788 120.863 809.457 120.765 808.961C120.232 808.086 119.202 807.309 117.655 806.789C115.515 805.87 111.132 804.826 104.783 804.014L80.3423 800.889C77.4855 800.524 75.044 800.696 73.0381 801.246C71.0118 801.955 69.0834 803.16 67.5703 804.902C65.6585 807.239 64.5976 810.49 64.3875 814.657C64.7382 816.96 66.1282 823.751 68.6959 835.21C70.3236 835.095 72.8832 835.261 76.3748 835.707L100.34 838.771C107.323 839.664 112.739 840.195 116.788 840.068C117.129 838.66 117.869 836.657 118.849 834.04C119.829 831.424 120.886 829.462 121.862 828.135L125.688 829.753L121.67 861.177L117.581 861.622C117.088 860.43 116.498 858.742 116.147 856.439C115.776 854.294 115.482 852.805 115.246 852.13C114.416 851.056 113.068 850.238 111.245 849.36C109.381 848.799 105.295 847.954 99.2643 847.183L74.8232 844.058C69.1097 843.328 64.8986 844.725 62.0512 848.071C60.3388 850.11 59.3387 852.886 59.0713 856.239C59.2061 857.708 59.7932 860.686 60.6737 865.154C61.5542 869.622 62.4753 873.772 63.2986 877.426L95.3577 881.525C102.023 882.377 107.281 882.888 111.33 882.76C111.671 881.352 112.411 879.35 113.391 876.733C114.371 874.116 115.428 872.154 116.384 870.986L120.23 872.446L116.293 903.235L112.163 903.997C111.691 902.647 110.787 899.627 109.768 894.981C109.096 893.927 107.749 893.11 105.588 892.349C103.724 891.788 99.7965 890.964 93.7656 890.193L71.7051 887.372C65.3568 886.561 60.4165 886.09 57.0431 885.982C56.7996 887.886 56.2184 889.909 55.4582 892.07C54.698 894.231 53.9987 895.916 53.3806 896.966L49.0179 895.763L47.0662 876.964Z" fill="#1A1417"/>
<path d="M96.1892 726.482L121.09 732.424C128.716 734.244 134.119 735.04 137.217 734.463L139.483 724.97L142.899 725.127C143.699 727.292 144.387 729.923 144.771 733.14C145.273 736.55 145.345 739.692 145.144 742.605C143.365 743.168 139.955 743.67 134.678 743.727L135.491 747.211C138.325 758.085 139.522 764.786 139.276 767.195C137.791 773.42 134.772 777.799 130.138 779.983C126.899 781.842 123.059 782.077 118.39 780.963C115.744 780.332 113.247 779.078 111.054 777.239C108.861 775.399 107.284 773.049 106.403 770.536C105.968 766.155 105.462 755.178 104.804 737.256L92.0421 734.211C87.9957 733.245 84.8973 733.822 82.5098 735.555C80.2779 737.325 78.6385 740.059 77.8215 743.483C76.8188 747.685 76.9427 751.992 78.1559 756.558C80.1119 758.012 83.1131 759.221 87.0853 760.498C87.485 761.58 87.6176 763.092 87.676 764.916C87.7344 766.739 87.7486 768.059 87.5257 768.992L84.4415 770.888C79.2986 769.003 75.6678 766.985 73.4306 764.642C72.5798 761.314 71.7963 757.014 70.8873 751.863C70.1338 746.748 69.8614 743.064 70.0329 740.967C73.1524 727.894 81.8712 723.066 96.1892 726.482ZM111.029 738.741C111.933 754.255 112.58 763.95 113.008 767.671C114.653 769.05 116.876 770.074 119.678 770.743C122.79 771.485 125.273 771.42 127.512 770.309C129.751 769.199 131.086 767.05 131.903 763.626C131.963 761.995 131.698 758.971 131.033 754.865C130.368 750.758 129.51 746.77 128.771 742.975L111.029 738.741Z" fill="#1A1417"/>
<path d="M179.209 729.533C173.697 734.152 166.065 734.899 156.618 731.873C153.913 725.63 151.983 720.643 150.875 716.76C147.441 721.708 143.211 723.377 138.03 721.717L131.852 712.682L128.812 708.011C125.751 710.223 122.124 711.581 118.083 712.134C114.145 712.889 110.091 712.43 106.13 711.161C101.711 709.745 97.9385 707.361 94.965 704.056C91.9915 700.751 90.0728 696.776 88.8064 692.338C87.2235 686.791 87.1095 681.378 88.2574 675.697C88.8432 673.869 89.7337 672.138 90.6731 670.255C91.7648 668.421 92.9112 666.94 94.0089 665.611L97.6433 643.254L101.679 642.195C102.904 643.091 103.824 643.89 104.391 644.744C105.11 645.646 105.578 646.804 106.151 648.164L101.587 660.311C107.172 657.564 113.188 657.139 119.588 659.189C124.464 660.751 128.34 663.337 131.618 666.74C134.847 670.294 137.071 674.367 138.337 678.805C139.822 684.657 139.784 690.021 138.124 695.202C137.538 697.03 136.898 698.505 136.203 699.626C135.459 700.9 134.464 702.43 133.22 704.215C135.292 708.239 137.442 710.44 139.576 711.124C141.252 711.661 142.617 711.594 143.721 710.772C144.824 709.949 145.818 708.419 146.703 706.183C147.74 703.995 148.863 700.49 150.327 695.919L152.329 689.672C158.284 671.083 166.949 663.442 178.072 667.005C185.385 669.348 190.102 674.556 191.964 682.377C193.827 690.198 194.074 698.342 192.602 706.607C189.185 717.273 184.72 724.915 179.209 729.533ZM132.392 685.301C132.52 683.326 132.448 681.454 131.973 679.79C131.035 677.474 129.39 675.266 127.038 673.169C124.686 671.071 121.834 669.485 118.329 668.363C112.996 666.654 108.29 666.658 104.364 668.425C100.438 670.191 97.3952 673.921 95.589 679.558C95.0032 681.387 94.7221 683.313 94.5446 685.44C94.3183 687.72 94.4397 689.439 94.6586 690.853C95.5965 693.17 97.394 695.426 99.7461 697.523C102.251 699.67 105.103 701.256 108.15 702.232C113.331 703.892 118.085 703.735 122.414 701.761C126.742 699.788 129.584 696.162 131.244 690.981C131.781 689.305 132.214 687.428 132.392 685.301ZM181.359 679.819C180.335 678.819 179.11 677.923 177.282 677.337C173.93 676.263 171.199 676.396 169.089 677.736C166.98 679.077 165.181 681.021 163.796 683.769C162.564 686.567 161.039 690.278 159.526 695.002L154.546 710.544C155.094 714.079 156.294 717.152 157.939 719.359C159.736 721.615 161.625 723.06 163.606 723.695C168.33 725.208 172.42 724.502 175.773 721.376C179.231 718.452 181.957 713.613 184.007 707.213C186.936 698.071 187.25 690.275 184.545 684.032C183.412 682.325 182.383 680.819 181.359 679.819Z" fill="#1A1417"/>
<path d="M169.908 650.639C165.139 653.885 159.961 655.584 153.958 655.913C148.103 656.301 142.196 655.115 136.117 652.65C130.186 650.245 125.329 646.895 121.458 642.39C117.587 637.886 114.818 632.792 113.151 627.109C111.339 620.505 111.011 614.501 112.462 609.22C115.468 601.806 119.949 596.716 125.904 593.951C131.859 591.186 138.455 591.099 145.633 593.836C147.765 595.391 149.656 597.539 151.039 600.517L136.702 641.838C145.006 645.204 152.191 646.218 158.467 644.792C164.683 643.514 169.219 639.138 172.105 632.021C174.57 625.941 174.903 618.307 173.104 609.118L179.079 608.433C180.009 612.953 180.786 618.275 181.174 624.13C181.711 630.045 181.483 634.441 180.28 637.407C177.996 643.041 174.617 647.542 169.908 650.639ZM142.767 603.033C137.666 601.137 133.001 601.145 129.13 603.029C125.198 605.06 122.361 608.226 120.617 612.526C118.934 616.678 118.409 620.954 119.014 624.997C120.22 627.558 122.139 630.063 124.504 632.748C126.868 635.433 129.413 637.674 132.258 639.173L142.767 603.033Z" fill="#1A1417"/>
<path d="M149.382 536.909L153.954 535.944C155.608 536.933 157.838 538.562 160.717 540.686C163.739 542.881 165.899 544.654 167.054 545.933C166.848 547.079 166.358 548.443 165.512 550.166C160.991 548.484 156.4 546.945 151.738 545.549C150.529 546.56 149.323 547.929 147.906 549.729C146.632 551.599 145.429 553.326 144.584 555.05C142.188 559.934 141.432 564.018 142.102 567.376C143.127 570.374 144.859 572.293 147.445 573.561C150.461 575.04 153.253 575.162 155.817 573.568C158.381 571.974 161.866 569.228 166.056 565.046C169.465 561.728 172.592 558.985 175.153 557.033C177.714 555.082 180.639 553.843 183.997 553.173C187.284 552.647 190.938 553.192 194.673 555.023C200.85 558.053 204.534 562.533 205.58 568.392C206.627 574.252 205.459 580.629 202.148 587.381C199.259 593.271 195.151 598.741 189.465 603.793C188.246 603.373 185.302 602.108 180.922 600.138C176.542 598.168 173.382 596.618 171.441 595.488C171.43 594.057 171.918 592.336 172.904 590.324C180.363 592.557 185.166 593.665 187.456 593.719C189.023 592.705 190.586 591.334 192.288 589.317C193.99 587.301 195.261 585.073 196.459 582.63C198.713 578.034 199.542 574.163 199.016 570.876C198.65 569.805 197.926 568.737 196.701 567.602C195.62 566.537 194.468 565.615 193.175 564.981C190.589 563.713 187.938 563.304 185.51 563.895C183.082 564.486 181.014 565.432 179.022 566.95C177.174 568.539 174.615 570.848 171.631 573.662C168.366 577.05 165.593 579.432 163.317 581.167C161.04 582.902 158.474 584.138 155.544 584.661C152.614 585.185 149.533 584.564 146.085 582.873C140.626 580.196 137.441 575.426 136.383 568.136C135.7 562.989 136.019 557.977 137.699 553.099C141.433 545.485 145.328 540.089 149.382 536.909Z" fill="#1A1417"/>
<path d="M208.27 374.292L229.074 351.256L233.399 353.868C233.23 355.009 232.752 356.733 231.833 358.705C230.913 360.678 230.09 362.306 229.136 363.601C234.078 367.201 240.493 370.839 248.158 374.527L303.958 402.499L264.694 336.641L256.578 332.976C255.505 334.164 253.862 335.267 251.66 336.512C249.576 337.864 247.922 338.741 246.696 339.143L243.873 334.869L265.642 310.764L269.967 313.376C269.798 314.517 269.201 316.134 267.96 318.463C266.719 320.792 265.681 322.657 264.739 324.178C271.059 328.161 277.69 331.561 284.868 334.594L342.135 360.226L308.521 307.448C302.971 298.555 298.592 292.66 295.719 289.635C292.23 292.304 289.04 294.166 286.16 295.446L282.907 291.646L302.103 270.391L306.761 272.873C306.473 273.907 305.876 275.523 304.957 277.496C304.038 279.469 303.322 280.978 302.583 282.035C302.901 283.831 303.801 285.938 305.272 288.129C306.861 290.427 307.608 291.748 307.846 291.962L347.248 353.848C347.508 354.515 348.244 355.61 349.347 357.253C350.343 359.015 351.435 360.432 352.408 361.742C353.381 363.052 354.568 364.124 355.993 365.411L350.291 375.784L277.242 342.799L308.845 396.133C310.577 398.99 311.822 401.192 313.032 402.716C314.135 404.359 315.691 405.98 317.709 407.803L311.685 418.531L235.875 380.25C227.973 376.348 222.756 374.008 220.117 373.349C219.259 374.299 217.723 375.284 215.961 376.28C214.092 377.394 212.426 378.045 211.093 378.566L208.27 374.292Z" fill="#1A1417"/>
<path d="M373.023 260.047C378.76 259.083 384.387 259.699 389.906 261.895C395.529 264.212 400.608 267.852 405.125 273.041C409.328 277.868 412.024 283.158 413.44 288.926C414.855 294.695 415.021 300.49 413.954 306.086C412.567 313.022 409.557 318.824 405.15 323.509C400.082 327.922 394.792 330.618 389.055 331.582C383.303 332.772 377.675 332.156 372.051 329.839C366.533 327.643 361.575 323.898 356.952 318.588C352.855 313.882 350.038 308.697 348.623 302.929C347.207 297.16 347.041 291.365 348.124 285.543C349.495 278.833 352.4 272.91 356.927 268.12C361.875 263.812 367.27 261.237 373.023 260.047ZM354.413 286.431C354.164 290.043 354.906 294.064 356.521 298.598C358.135 303.133 360.683 307.278 363.94 311.019C369.298 317.174 375.28 320.876 381.884 322.127C388.594 323.498 394.498 321.752 400.049 316.919C403.911 313.557 406.449 309.65 407.664 305.198C407.794 301.691 407.051 297.67 405.437 293.136C403.822 288.601 401.5 284.471 398.138 280.61C392.885 274.576 386.903 270.874 380.194 269.502C373.589 268.252 367.459 269.982 362.029 274.71C358.046 278.177 355.508 282.084 354.413 286.431Z" fill="#1A1417"/>
<path d="M430.69 294.454L433.802 287.69C434.085 286.473 433.855 284.842 432.76 282.862C432.147 281.52 431.021 279.764 429.477 277.722C427.934 275.68 425.939 272.775 423.238 269.201L413.013 255.67C409.154 250.564 405.94 246.576 403.562 243.96C402.03 245.118 400.178 246.117 398.102 247.084C396.025 248.052 394.332 248.73 393.149 249.022L390.51 245L402.713 230.363L407.099 230.859L412.348 239.928C415.756 226.924 418.13 219.715 419.372 218.174C422.947 215.473 426.91 214.083 431.389 213.907L434.725 216.199C435.052 217.957 435.123 219.909 434.746 221.799C434.337 223.912 433.895 225.45 433.291 226.508C431.37 226.355 429.291 226.522 427.084 226.786C424.846 227.275 423.056 227.825 421.779 228.79C420.758 229.562 419.836 231.261 419.173 233.567C418.478 236.098 417.814 238.404 417.278 240.614C416.711 243.048 416.396 244.49 416.303 245.162L436.175 271.458C439.069 275.287 441.511 278.254 443.758 280.166C445.228 279.457 447.528 278.52 450.34 277.198C453.151 275.876 455.196 275.132 456.603 274.871L458.249 278.641L433.868 297.066L430.69 294.454Z" fill="#1A1417"/>
<path d="M483.344 257.478C478.018 257.492 472.803 255.91 467.921 252.779C463.125 249.783 458.97 245.42 455.321 239.777C451.759 234.268 449.533 228.468 448.91 222.201C448.375 216.069 449.08 210.088 451.112 204.391C453.327 198.387 457.082 193.291 462.377 189.105C468.423 185.195 473.695 182.739 478.152 181.382L467.292 164.587C463.643 158.944 460.989 155.134 459.551 153.206C457.718 154.201 455.529 155.235 453.032 156.088C450.534 156.941 448.575 157.446 447.286 157.516L445.431 153.762L461.325 140.627L465.789 141.932C466.982 145.543 468.964 149.787 471.823 154.798C474.681 159.808 478.417 165.586 482.761 172.304L510.476 215.164C514.646 221.613 517.916 225.786 520.468 227.375L528.664 222.076L531.025 224.55C529.705 226.928 528.116 229.48 526.258 232.205C524.4 234.931 522.551 237.079 520.709 238.651C517.533 237.275 514.499 235.236 511.916 232.714C509.046 238 506.587 242.448 504.587 245.837C502.587 249.226 500.824 251.509 499.212 252.552C494.106 255.853 488.756 257.598 483.344 257.478ZM501.231 238.29C503.223 235.477 505.271 231.867 507.682 227.64L483.009 189.482C477.129 190.998 471.684 193.185 466.579 196.486C461.473 199.788 458.406 203.295 456.935 206.914C456.176 210.454 456.34 214.539 457.208 219.122C458.076 223.706 459.837 227.902 462.443 231.933C466.787 238.651 471.25 243.195 475.746 245.433C479.182 247.212 482.588 248.059 486.096 247.886C489.557 247.934 492.948 246.695 496.172 244.61C497.611 243.298 499.326 241.237 501.231 238.29Z" fill="#1A1417"/>
<path d="M540.882 147.281L545.168 149.144C545.942 150.908 546.816 153.528 547.931 156.928C549.122 160.468 549.855 163.164 550.055 164.876C549.223 165.691 548.033 166.518 546.345 167.433C543.636 163.441 540.786 159.526 537.795 155.688C536.224 155.811 534.448 156.228 532.25 156.873C530.128 157.66 528.147 158.369 526.459 159.284C521.677 161.877 518.694 164.767 517.294 167.892C516.392 170.929 516.691 173.496 518.064 176.028C519.665 178.982 521.87 180.699 524.883 180.886C527.896 181.073 532.327 180.855 538.166 179.874C542.867 179.146 547.005 178.723 550.223 178.616C553.441 178.51 556.543 179.195 559.667 180.595C562.652 182.071 565.314 184.632 567.296 188.289C570.575 194.338 570.981 200.123 568.438 205.505C565.896 210.887 561.248 215.408 554.637 218.992C548.87 222.118 542.352 224.195 534.79 225.018C534.04 223.969 532.374 221.232 529.946 217.088C527.518 212.944 525.841 209.85 524.914 207.804C525.734 206.631 527.129 205.511 529.098 204.444C533.883 210.586 537.155 214.272 538.991 215.643C540.855 215.725 542.924 215.513 545.48 214.856C548.035 214.199 550.362 213.119 552.753 211.823C557.255 209.383 560.173 206.71 561.649 203.725C561.972 202.641 562 201.351 561.66 199.716C561.396 198.221 560.991 196.803 560.305 195.537C558.932 193.005 557.009 191.135 554.687 190.21C552.366 189.284 550.132 188.857 547.629 188.94C545.203 189.163 541.779 189.563 537.717 190.127C533.092 190.996 529.452 191.331 526.591 191.425C523.731 191.52 520.923 191.04 518.232 189.769C515.541 188.498 513.389 186.206 511.559 182.83C508.662 177.485 508.83 171.752 512.193 165.197C514.618 160.607 517.783 156.708 521.979 153.705C529.434 149.664 535.735 147.523 540.882 147.281Z" fill="#1A1417"/>
<path d="M716.002 145.258C716.543 144.79 718.051 143.58 720.295 142.018C721.688 141.002 722.81 140.221 723.351 139.753C724.473 138.972 724.892 137.379 724.725 134.78C724.44 131.715 723.644 127.295 722.183 121.558L708.911 69.4623C706.699 60.7796 704.775 55.821 703.41 54.3525C698.327 54.4916 694.64 54.2753 692.193 53.743L692.054 48.66L728.18 39.4566C736.552 37.3236 743.73 36.981 749.673 38.2738C754.257 39.4175 758.069 41.4184 761.498 44.5075C764.772 47.6362 767.118 51.6615 768.461 56.9331C770.001 62.98 770.144 68.7226 768.848 74.0061C767.552 79.2895 765.128 84.0347 761.498 87.9315C757.29 92.8011 751.872 96.1627 745.439 98.1318C740.168 99.4748 734.002 100.55 726.788 101.397L732.358 123.259C733.701 128.531 735.041 133.143 736.533 137.055C741.613 136.256 747.316 135.959 753.527 136.358L753.623 140.627L718.273 149.633L716.002 145.258ZM756.245 84.8117C760.913 78.5043 762.042 70.6216 759.632 61.1637C757.736 53.7214 754.067 49.0423 748.586 46.9713C743.106 44.9003 736.624 44.7352 729.027 46.6707C721.585 48.5667 717.207 50.1773 715.504 51.2715C715.087 53.5241 715.965 58.9142 718.138 67.4419L724.892 93.955C729.279 94.3234 734.864 93.5612 741.531 91.8627C748.043 90.2037 753.077 87.9304 756.245 84.8117Z" fill="#1A1417"/>
<path d="M790.012 128.298L795.885 123.723C796.696 122.773 797.242 121.218 797.18 118.956C797.253 117.483 797.06 115.406 796.628 112.882C796.197 110.359 795.761 106.863 795.006 102.447L792.148 85.7292C791.069 79.4207 790.049 74.401 789.14 70.9852C787.248 71.3088 785.143 71.344 782.854 71.2483C780.566 71.1527 778.75 70.9762 777.565 70.6919L777.071 65.9066L794.638 58.5203L798.304 60.9775L798.796 71.4445C807.802 61.4638 813.225 56.1539 815.037 55.3572C819.452 54.6021 823.611 55.1897 827.67 57.0928L829.579 60.6622C829.06 62.3741 828.225 64.14 827.022 65.6444C825.687 67.3334 824.587 68.4954 823.564 69.1573C821.929 68.1383 820.006 67.331 817.924 66.5506C815.712 65.9549 813.87 65.6207 812.293 65.8903C811.031 66.106 809.431 67.1912 807.781 68.9342C806 70.8619 804.351 72.6049 802.858 74.3209C801.236 76.2216 800.293 77.3566 799.901 77.9107L805.456 110.399C806.265 115.131 807.07 118.889 808.186 121.62C809.817 121.665 812.291 121.892 815.395 122.01C818.5 122.129 820.658 122.409 822.027 122.824L821.755 126.929L791.632 132.079L790.012 128.298Z" fill="#1A1417"/>
<path d="M882.854 52.0805C888.083 54.629 892.306 58.4001 895.522 63.3938C898.753 68.5468 900.771 74.4599 901.433 81.308C902.049 87.6783 901.17 93.5501 898.971 99.0674C896.772 104.585 893.54 109.398 889.42 113.333C884.262 118.172 878.441 121.146 872.132 122.399C865.443 123.046 859.572 122.167 854.342 119.618C848.969 117.245 844.746 113.473 841.515 108.32C838.299 103.327 836.44 97.3982 835.763 90.3909C835.162 84.1799 835.882 78.3234 838.081 72.8061C840.28 67.2889 843.512 62.4755 847.776 58.3659C852.79 53.7017 858.596 50.5683 865.064 49.2999C871.593 48.6685 877.48 49.7067 882.854 52.0805ZM852.379 62.7433C850.077 65.5378 848.345 69.2416 847.025 73.8702C845.704 78.4988 845.37 83.3535 845.847 88.2905C846.633 96.4126 849.35 102.901 853.999 107.756C858.663 112.771 864.483 114.78 871.809 114.071C876.905 113.579 881.241 111.873 884.817 108.956C886.96 106.177 888.691 102.473 890.012 97.8441C891.332 93.2155 891.841 88.5046 891.349 83.4084C890.579 75.4455 887.862 68.9569 883.197 63.9426C878.548 59.0875 872.553 56.9345 865.387 57.6275C860.131 58.1357 855.795 59.841 852.379 62.7433Z" fill="#1A1417"/>
<path d="M922.568 114.436C918.044 111.626 914.46 107.521 911.979 102.278C909.5 97.1961 908.289 91.2941 908.185 84.5749C908.084 78.0157 909.27 71.9167 912.063 66.2729C914.858 60.789 918.626 56.0903 923.369 52.3366C928.429 48.418 934.314 46.0869 941.023 45.3432C948.222 45.2321 953.994 45.943 958.493 47.1537L958.184 27.1561C958.081 20.4369 957.849 15.7999 957.652 13.4027C955.57 13.2748 953.165 12.9919 950.595 12.3915C948.026 11.7911 946.096 11.1808 944.966 10.5582L945.382 6.39128L965.823 3.67537L968.917 7.14802C968.014 10.8424 967.445 15.4917 967.214 21.256C966.983 27.0202 967.089 33.8994 967.213 41.8985L968.001 92.9324C968.12 100.611 968.681 105.883 970.003 108.583L979.762 108.433L980.454 111.782C978.074 113.099 975.374 114.421 972.354 115.748C969.334 117.075 966.627 117.917 964.232 118.274C962.268 115.424 960.776 112.086 959.922 108.579C954.687 111.54 950.244 114.009 946.752 115.823C943.259 117.637 940.555 118.639 938.635 118.669C932.556 118.763 927.094 117.407 922.568 114.436ZM947.906 107.644C951.086 106.315 954.736 104.339 959.02 102.032L958.319 56.5975C952.53 54.7667 946.753 53.7358 940.674 53.8296C934.595 53.9235 930.135 55.2725 926.97 57.5617C924.45 60.1609 922.424 63.7126 920.731 68.0592C919.038 72.4059 918.307 76.8977 918.382 81.6971C918.505 89.6962 919.881 95.9157 922.508 100.196C924.479 103.526 926.919 106.048 929.985 107.761C932.895 109.636 936.427 110.382 940.266 110.323C942.181 109.973 944.728 109.134 947.906 107.644Z" fill="#1A1417"/>
<path d="M1006.92 50.2243C1005.83 53.9912 1004.88 62.1023 1003.94 74.2261L1002.4 94.1666C1001.96 99.9095 1002.15 103.616 1002.96 105.604C1004.29 109.237 1007.66 111.263 1012.93 111.67C1014.04 111.756 1015 111.83 1015.81 111.732C1018.37 111.77 1025.06 110.361 1036.02 107.678L1038.73 72.5825C1039.33 64.9253 1039.54 60.1273 1039.5 58.5197C1034.91 57.6835 1030.84 56.4058 1027.44 54.6988L1028.13 49.9377L1047.11 49.319L1050.63 53.603C1049.33 57.9957 1048.43 65.4687 1047.61 76.1568L1046.02 96.7354C1045.67 101.202 1045.4 104.712 1045.39 106.957C1045.36 109.362 1045.69 111.314 1046.36 112.971L1056.26 113.735L1056.59 117.773C1054.57 118.901 1051.92 119.98 1048.47 120.997C1044.86 122.002 1041.93 122.578 1039.51 122.712C1038.1 120.195 1036.89 117.213 1035.86 113.924L1031.25 115.493C1027.61 116.817 1023.99 117.981 1020.38 118.986C1016.76 120.151 1014.15 120.751 1012.87 120.652C1004.26 119.986 998.394 116.965 995.12 111.577C993.673 109.539 993.072 106.925 992.988 103.87C992.89 100.974 993.039 96.9733 993.421 92.028L995.209 68.897C995.789 61.3994 995.987 56.7609 995.951 55.1533C991.865 54.0351 988.27 52.7943 985.178 51.2715L985.855 46.67L1003.56 45.9526L1006.92 50.2243Z" fill="#1A1417"/>
<path d="M1071.68 122.176C1067.56 118.46 1064.72 113.81 1063.19 108.066C1061.47 102.456 1061.27 96.4339 1062.3 89.7935C1063.23 83.7854 1065.36 78.4481 1068.88 73.4898C1072.24 68.5069 1076.57 64.6445 1081.72 61.7199C1087.89 58.4682 1094.13 56.8467 1100.42 57.0135C1109.43 58.4126 1116.01 60.8911 1120.36 64.1571L1121.27 67.6983C1120.23 69.1566 1118.9 70.4077 1117.28 71.4517C1115.64 72.6537 1114.25 73.2479 1113.12 73.2342C1109.13 68.7278 1103.73 65.9468 1096.93 64.8914C1095.03 64.5968 1093.06 64.7766 1091.07 65.1145C1089.07 65.4523 1087.21 65.9729 1085.82 66.567C1082.72 68.8375 1079.94 72.1303 1077.33 76.4209C1074.7 80.8695 1073.17 85.4899 1072.43 90.2331C1071.06 99.087 1071.92 106.022 1075.35 111.087C1078.75 116.31 1083.62 119.334 1090.1 120.34C1095.48 121.175 1102.46 119.992 1110.9 116.768L1112.35 122.013C1108.5 123.845 1103.87 125.554 1098.75 127.189C1093.64 128.824 1089.65 129.5 1086.94 129.241C1080.77 128.283 1075.62 126.026 1071.68 122.176Z" fill="#1A1417"/>
<path d="M1147.87 49.7432L1144.08 67.4208L1163.79 71.6506L1163.53 76.6681L1161.46 78.6789L1142.53 74.617L1133.3 117.638C1132.63 120.766 1132.25 123.303 1132.38 124.968C1132.52 126.633 1133.06 127.896 1134.03 128.757C1134.99 129.618 1136.48 130.266 1138.36 130.669C1140.39 131.105 1143.15 131.207 1146.52 130.783C1149.85 130.516 1151.86 130.293 1152.71 130.148L1154.22 134.562C1150.72 135.612 1146.91 136.594 1142.63 137.476C1138.35 138.357 1135.36 138.535 1133.64 138.166C1130.36 137.461 1127.83 136.265 1126.1 134.42C1124.21 132.542 1123.24 130.206 1123 127.536C1122.8 126.183 1122.85 124.395 1123.25 122.518C1123.5 120.607 1123.84 119.043 1124.1 117.791L1124.74 114.819L1130.52 87.9116C1132.2 80.0897 1132.96 75.0165 1133.15 72.6028L1122.98 70.4207L1122.54 65.5819L1134.61 64.2444C1135.82 63.1943 1137.26 61.0491 1139.03 58.1553C1140.64 55.228 1142.06 52.4235 1143.29 49.7419L1147.87 49.7432Z" fill="#1A1417"/>
<path d="M1217.6 87.5654L1219.39 91.8843C1218.72 93.6905 1217.52 96.1813 1215.96 99.3996C1214.36 102.772 1213.01 105.22 1211.96 106.589C1210.8 106.596 1209.37 106.363 1207.52 105.847C1208.35 101.094 1209.02 96.2989 1209.54 91.4606C1208.32 90.457 1206.76 89.5215 1204.73 88.4569C1202.66 87.5464 1200.74 86.6789 1198.89 86.1627C1193.65 84.7 1189.5 84.7033 1186.32 85.9753C1183.56 87.5306 1181.99 89.5841 1181.22 92.358C1180.31 95.5943 1180.7 98.3612 1182.74 100.591C1184.77 102.82 1188.11 105.745 1192.99 109.1C1196.87 111.845 1200.14 114.419 1202.53 116.58C1204.91 118.742 1206.67 121.39 1207.94 124.569C1209.06 127.705 1209.19 131.397 1208.07 135.404C1206.22 142.03 1202.49 146.471 1196.92 148.57C1191.35 150.67 1184.87 150.688 1177.62 148.666C1171.3 146.902 1165.18 143.862 1159.17 139.195C1159.36 137.92 1160.07 134.794 1161.2 130.128C1162.34 125.462 1163.29 122.072 1164.04 119.957C1165.45 119.685 1167.23 119.85 1169.39 120.452C1168.55 128.193 1168.34 133.118 1168.71 135.379C1169.99 136.734 1171.62 138.021 1173.92 139.326C1176.21 140.63 1178.63 141.473 1181.25 142.204C1186.19 143.581 1190.14 143.689 1193.28 142.571C1194.26 142.015 1195.18 141.108 1196.07 139.696C1196.92 138.439 1197.62 137.138 1198.01 135.751C1198.78 132.977 1198.7 130.296 1197.67 128.016C1196.65 125.737 1195.34 123.877 1193.48 122.196C1191.58 120.669 1188.85 118.575 1185.54 116.156C1181.61 113.565 1178.76 111.274 1176.64 109.353C1174.52 107.432 1172.83 105.134 1171.78 102.349C1170.73 99.5646 1170.78 96.4215 1171.81 92.7229C1173.45 86.8668 1177.55 82.8638 1184.53 80.4917C1189.46 78.8793 1194.45 78.2776 1199.55 79.0377C1207.72 81.3178 1213.74 84.1603 1217.6 87.5654Z" fill="#1A1417"/>
<path d="M1431.1 141.585C1433.64 143.589 1436.86 146.346 1440.75 149.858L1442.97 154.997C1442.02 156.665 1440.16 159.285 1437.6 162.798C1434.82 166.371 1432.52 169.111 1430.4 171.215C1428.77 170.838 1427.16 170.104 1425.65 168.875C1426.47 167.128 1427.38 164.885 1428.69 161.948C1429.86 158.931 1430.79 156.331 1431.78 153.949C1430.23 152.143 1428.33 150.318 1426 148.255C1423.46 146.251 1421.12 144.545 1418.76 143.196C1411.26 138.912 1404.37 137.743 1398.46 139.71C1394.57 141.358 1391.69 144.137 1389.55 147.889C1387.64 151.223 1386.97 154.339 1387.59 157.455C1388.12 160.709 1389.39 163.646 1391.38 166.622C1393.36 169.599 1396.18 173.051 1399.9 177.197C1404.18 182.594 1407.66 187.158 1410.18 190.808C1412.48 194.519 1413.97 198.686 1414.57 203.449C1415.03 208.132 1413.82 213.153 1410.8 218.433C1407.87 223.574 1403.8 227.148 1398.66 229.372C1393.52 231.596 1388.3 232.669 1382.86 232.512C1377.43 232.355 1372.96 231.463 1369.33 229.757C1360.99 224.997 1352.42 218.073 1343.74 209.066C1344.26 207.518 1345.94 204.243 1348.44 199.221C1350.86 194.339 1352.94 190.369 1354.67 187.669C1355.96 187.669 1357.87 188.204 1360.33 189.057C1359.3 192.153 1358.25 195.607 1357.39 199.358C1356.32 203.168 1355.81 206.006 1355.63 207.931C1357.16 210.094 1359.46 212.515 1362.4 215.114C1365.34 217.712 1368.23 219.736 1371.29 221.481C1376.57 224.496 1381.95 225.725 1387.57 225.247C1392.39 223.579 1396.85 219.311 1400.66 212.641C1402.72 209.029 1403.42 205.556 1402.96 202.162C1402.28 198.828 1401.09 195.753 1399.11 192.776C1397.12 189.8 1394.24 186.13 1390.47 181.765C1386.22 176.943 1383.01 172.896 1380.9 169.483C1378.66 165.991 1377.29 162.26 1376.73 158.073C1376.17 153.886 1377.34 149.579 1380.04 144.855C1381.94 141.52 1384.46 138.721 1387.74 136.537C1390.93 134.492 1394.44 133.182 1398.22 132.387C1405.16 131.194 1412.5 131.886 1420.24 134.464C1424.97 137.162 1428.56 139.582 1431.1 141.585Z" fill="#1A1417"/>
<path d="M1416.56 253.455C1414.43 248.097 1413.89 242.674 1414.87 236.742C1415.75 230.942 1418.19 225.431 1421.91 220.029C1425.54 214.759 1429.86 210.742 1435.1 207.938C1440.34 205.133 1445.91 203.532 1451.82 203.134C1458.66 202.795 1464.59 203.773 1469.43 206.333C1476.02 210.871 1480.02 216.347 1481.43 222.76C1482.84 229.172 1481.5 235.631 1477.27 242.046C1475.29 243.791 1472.79 245.173 1469.58 245.879L1432.34 222.941C1427.26 230.319 1424.71 237.115 1424.75 243.55C1424.65 249.895 1427.94 255.271 1434.26 259.629C1439.67 263.351 1447.05 265.328 1456.41 265.56L1455.78 271.542C1451.17 271.471 1445.81 271.078 1440.01 270.191C1434.11 269.435 1429.87 268.26 1427.24 266.445C1422.23 262.995 1418.57 258.723 1416.56 253.455ZM1468.91 237.258C1471.87 232.688 1472.87 228.132 1471.87 223.945C1470.74 219.667 1468.26 216.212 1464.44 213.579C1460.75 211.037 1456.69 209.599 1452.61 209.315C1449.85 209.938 1446.99 211.271 1443.85 212.998C1440.72 214.725 1437.98 216.725 1435.9 219.178L1468.91 237.258Z" fill="#1A1417"/>
<path d="M1457.3 280.741L1464.63 282.048C1465.88 282.016 1467.4 281.383 1469.04 279.824C1470.19 278.893 1471.6 277.361 1473.19 275.352C1474.78 273.344 1477.08 270.682 1479.86 267.168L1490.38 253.864C1494.35 248.844 1497.4 244.728 1499.33 241.769C1497.83 240.578 1496.39 239.037 1494.94 237.271C1493.48 235.505 1492.39 234.037 1491.81 232.966L1495.04 229.399L1512.28 237.522L1512.9 241.891L1505.45 249.255C1518.89 249.278 1526.47 249.76 1528.27 250.574C1531.78 253.352 1534.13 256.837 1535.43 261.128L1534.05 264.934C1532.43 265.693 1530.56 266.253 1528.64 266.364C1526.49 266.502 1524.89 266.461 1523.71 266.143C1523.38 264.245 1522.69 262.275 1521.88 260.206C1520.84 258.163 1519.86 256.569 1518.6 255.577C1517.6 254.783 1515.72 254.319 1513.32 254.258C1510.7 254.223 1508.3 254.161 1506.03 254.199C1503.53 254.264 1502.05 254.322 1501.38 254.401L1480.94 280.256C1477.96 284.021 1475.7 287.132 1474.42 289.789C1475.48 291.032 1476.96 293.022 1478.95 295.41C1480.94 297.797 1482.17 299.59 1482.78 300.885L1479.55 303.428L1455.57 284.474L1457.3 280.741Z" fill="#1A1417"/>
<path d="M1554.07 280.638C1551.21 279.98 1548.09 278.655 1544.84 276.997L1524.94 325.734L1572.3 301.976C1570.34 298.897 1568.85 296.023 1567.92 293.235L1571.21 291.04L1587.78 306.114L1586.03 309.708C1583.3 309.384 1580.88 308.705 1578.57 307.682C1576.99 307.757 1573.65 309.047 1568.33 311.564L1527.93 331.483C1526.6 331.999 1525.38 332.623 1524.29 333.354C1523.19 334.086 1522.32 334.807 1521.45 335.753C1520.81 336.464 1520.27 337.055 1519.96 337.636L1512.66 334.244L1531.06 287.389C1531.36 286.582 1531.95 284.742 1533.07 282.084C1534.19 279.425 1534.98 276.897 1535.78 274.594C1536.47 272.409 1536.73 270.698 1536.57 269.686C1535.53 267.016 1534.87 264.896 1534.78 263.088L1537.96 260.786L1556.07 277.259L1554.07 280.638Z" fill="#1A1417"/>
<path d="M1615.24 304.885C1615.03 303.75 1614.94 302.504 1615.07 301.262C1615.22 298.888 1615.92 297.088 1617.18 295.861C1617.76 295.304 1618.56 294.75 1619.69 294.54C1620.72 294.215 1621.85 294.232 1623.09 294.363C1625.46 294.511 1627.26 295.216 1628.49 296.478C1629.61 297.626 1630.14 299.557 1629.99 302.158C1629.73 304.869 1629.13 306.784 1627.99 307.899C1626.61 309.237 1624.57 309.66 1622.08 309.397C1619.48 309.246 1617.57 308.426 1616.45 307.279C1615.9 306.705 1615.45 306.02 1615.24 304.885ZM1544.79 356.589C1546.71 356.956 1549.52 358.241 1553.23 360.219C1553.68 360.225 1554.36 360.235 1555.38 359.911C1556.18 359.583 1557.09 359.143 1557.89 358.589C1560.18 356.812 1564.19 353.363 1569.58 348.123L1584.27 333.854L1593.46 324.483C1592.12 323.105 1590.9 321.39 1589.69 319.449C1588.36 317.62 1587.47 316.023 1586.93 314.77L1590.25 311.99L1605.61 321.604L1605.66 326.018C1602.23 328.231 1596.16 333.687 1587.32 342.271L1572.63 356.54C1567.58 361.446 1563.79 365.351 1561.36 368.597C1562.14 369.853 1563.24 371.679 1564.57 373.961C1565.89 376.244 1566.66 378.178 1567.09 379.542L1563.55 381.641L1542.59 360.064L1544.79 356.589Z" fill="#1A1417"/>
<path d="M1578.99 394.396C1578.24 388.9 1579.07 383.513 1581.59 378.131C1583.89 372.733 1587.62 368.002 1592.69 363.589C1597.28 359.597 1602.34 356.885 1608.23 355.364C1614.01 353.723 1619.81 353.557 1625.63 354.64C1632.45 356.132 1638.26 358.916 1642.96 363.097C1648.95 369.975 1652.38 376.11 1653.61 381.411L1652.02 384.703C1650.29 385.151 1648.46 385.251 1646.55 385.006C1644.52 384.865 1643.08 384.425 1642.22 383.686C1642.07 377.665 1639.74 372.06 1635.22 366.871C1633.96 365.423 1632.34 364.29 1630.59 363.262C1628.85 362.234 1627.09 361.432 1625.65 360.992C1621.81 360.726 1617.56 361.453 1612.8 363.052C1607.92 364.756 1603.77 367.304 1600.15 370.456C1593.4 376.339 1589.59 382.2 1588.94 388.279C1588.17 394.464 1589.95 399.917 1594.26 404.864C1597.83 408.967 1603.93 412.565 1612.46 415.536L1610.19 420.482C1606.07 419.403 1601.42 417.721 1596.46 415.677C1591.5 413.632 1588.01 411.577 1586.1 409.63C1582.01 404.924 1579.52 399.876 1578.99 394.396Z" fill="#1A1417"/>
<path d="M1614.67 437.07C1614.33 431.311 1615.53 425.995 1618.32 420.672C1620.99 415.447 1625.04 410.984 1630.27 407.029C1635.38 403.17 1640.75 400.718 1646.6 399.705C1652.45 398.692 1658.25 398.927 1663.98 400.41C1670.58 402.242 1675.9 405.038 1679.69 408.993C1684.51 415.375 1686.59 421.832 1685.9 428.362C1685.22 434.893 1681.92 440.601 1675.89 445.359C1673.46 446.392 1670.64 446.914 1667.38 446.574L1639.26 413.076C1632.11 418.478 1627.55 424.127 1625.56 430.246C1623.47 436.238 1624.9 442.376 1629.53 448.504C1633.48 453.737 1639.87 457.938 1648.68 461.106L1646.2 466.587C1641.85 465.067 1636.88 463.005 1631.65 460.336C1626.3 457.763 1622.64 455.313 1620.71 452.76C1617.05 447.909 1614.92 442.701 1614.67 437.07ZM1669.46 438.182C1673.7 434.775 1676.09 430.766 1676.46 426.477C1676.73 422.06 1675.47 418 1672.67 414.298C1669.97 410.724 1666.57 408.08 1662.79 406.526C1659.97 406.248 1656.83 406.612 1653.32 407.265C1649.8 407.918 1646.57 408.953 1643.82 410.627L1669.46 438.182Z" fill="#1A1417"/>
<path d="M1722.44 477.175L1720.93 481.597C1719.23 482.511 1716.69 483.595 1713.39 484.981C1709.96 486.454 1707.33 487.403 1705.64 487.741C1704.76 486.977 1703.84 485.858 1702.79 484.25C1706.55 481.226 1710.23 478.069 1713.81 474.778C1713.56 473.222 1713 471.486 1712.18 469.347C1711.22 467.296 1710.36 465.378 1709.31 463.77C1706.34 459.213 1703.22 456.473 1699.99 455.33C1696.89 454.677 1694.35 455.183 1691.94 456.756C1689.13 458.591 1687.59 460.927 1687.65 463.945C1687.71 466.964 1688.28 471.363 1689.73 477.103C1690.84 481.73 1691.6 485.82 1691.96 489.019C1692.33 492.218 1691.9 495.365 1690.75 498.593C1689.52 501.686 1687.19 504.547 1683.7 506.818C1677.94 510.575 1672.2 511.448 1666.63 509.349C1661.06 507.25 1656.18 502.984 1652.07 496.684C1648.49 491.188 1645.9 484.86 1644.46 477.389C1645.45 476.556 1648.04 474.675 1651.98 471.92C1655.91 469.165 1658.86 467.242 1660.82 466.153C1662.06 466.876 1663.29 468.176 1664.51 470.052C1658.77 475.318 1655.37 478.878 1654.15 480.818C1654.22 482.682 1654.59 484.728 1655.46 487.222C1656.32 489.716 1657.58 491.948 1659.07 494.227C1661.86 498.516 1664.76 501.209 1667.86 502.439C1668.97 502.672 1670.25 502.597 1671.86 502.125C1673.32 501.741 1674.71 501.223 1675.91 500.436C1678.32 498.864 1680.03 496.795 1680.77 494.407C1681.5 492.018 1681.75 489.757 1681.46 487.269C1681.04 484.868 1680.37 481.488 1679.48 477.485C1678.24 472.946 1677.61 469.344 1677.28 466.501C1676.96 463.657 1677.21 460.82 1678.26 458.035C1679.31 455.25 1681.42 452.919 1684.63 450.823C1689.73 447.502 1695.46 447.207 1702.26 450.028C1707.03 452.075 1711.17 454.913 1714.51 458.853C1719.14 465.957 1721.78 472.064 1722.44 477.175Z" fill="#1A1417"/>
<path d="M1738.55 651.034C1739.06 651.536 1740.39 652.943 1742.12 655.056C1743.24 656.364 1744.11 657.42 1744.62 657.922C1745.49 658.979 1747.11 659.271 1749.69 658.898C1752.72 658.37 1757.06 657.226 1762.67 655.314L1813.55 637.95C1822.03 635.056 1826.82 632.745 1828.17 631.268C1827.63 626.212 1827.55 622.519 1827.89 620.037L1832.94 619.495L1844.99 654.777C1847.78 662.954 1848.69 670.081 1847.87 676.108C1847.09 680.769 1845.4 684.728 1842.59 688.391C1839.74 691.902 1835.91 694.561 1830.76 696.318C1824.86 698.333 1819.14 698.931 1813.77 698.058C1808.4 697.186 1803.48 695.147 1799.31 691.837C1794.12 688.029 1790.34 682.895 1787.87 676.638C1786.11 671.49 1784.55 665.429 1783.13 658.305L1761.78 665.592C1756.63 667.349 1752.14 669.051 1748.36 670.849C1749.56 675.849 1750.31 681.511 1750.4 687.734L1746.15 688.169L1734.37 653.644L1738.55 651.034ZM1802 686.353C1808.66 690.505 1816.61 691.005 1825.84 687.853C1833.11 685.372 1837.48 681.344 1839.11 675.716C1840.74 670.088 1840.39 663.614 1837.86 656.194C1835.38 648.925 1833.43 644.689 1832.2 643.079C1829.92 642.842 1824.62 644.145 1816.29 646.987L1790.4 655.824C1790.38 660.227 1791.58 665.733 1793.8 672.244C1795.97 678.604 1798.64 683.443 1802 686.353Z" fill="#1A1417"/>
<path d="M1763.82 736.778C1765.78 731.351 1768.97 726.937 1773.64 723.149C1778.15 719.399 1783.63 716.894 1790 715.323C1796.22 713.79 1802.12 713.653 1807.89 715.029C1813.67 716.406 1818.9 718.906 1823.59 722.529C1828.93 726.815 1832.72 731.483 1834.64 736.611C1836.56 744.379 1835.91 751.129 1832.71 756.862C1829.51 762.595 1824.22 766.537 1816.81 768.532C1814.17 768.523 1811.38 767.894 1808.51 766.294L1795.87 724.422C1787.17 726.567 1780.76 729.962 1776.52 734.8C1772.23 739.482 1771.13 745.687 1772.97 753.144C1774.54 759.513 1778.75 765.89 1785.59 772.276L1781.16 776.337C1777.75 773.221 1774 769.368 1770.25 764.855C1766.35 760.38 1763.95 756.686 1763.18 753.579C1761.73 747.676 1761.82 742.049 1763.82 736.778ZM1813.73 759.403C1818.97 757.945 1822.75 755.201 1824.78 751.404C1826.77 747.452 1827.21 743.224 1826.1 738.719C1825.02 734.369 1822.94 730.599 1820.08 727.679C1817.6 726.313 1814.57 725.411 1811.08 724.624C1807.59 723.837 1804.22 723.516 1801.04 723.972L1813.73 759.403Z" fill="#1A1417"/>
<path d="M1846.53 819.947C1844.35 825.34 1840.88 829.813 1836.12 833.366C1831.2 836.945 1825.44 839.367 1818.65 840.501C1812.34 841.555 1806.42 841.084 1800.77 839.271C1795.11 837.458 1790.09 834.567 1785.88 830.728C1780.69 825.916 1777.32 820.315 1775.64 814.108C1774.53 807.479 1775 801.561 1777.18 796.168C1779.18 790.643 1782.65 786.17 1787.57 782.591C1792.33 779.038 1798.11 776.774 1805.06 775.614C1811.21 774.586 1817.1 774.9 1822.76 776.713C1828.42 778.525 1833.44 781.417 1837.84 785.387C1842.83 790.068 1846.36 795.643 1848.07 802.008C1849.15 808.478 1848.53 814.423 1846.53 819.947ZM1833.79 790.281C1830.84 788.178 1827.02 786.706 1822.32 785.709C1817.61 784.711 1812.74 784.713 1807.85 785.53C1799.8 786.874 1793.51 790.033 1788.99 795.006C1784.31 800.006 1782.71 805.951 1783.92 813.21C1784.77 818.26 1786.77 822.468 1789.92 825.834C1792.84 827.779 1796.66 829.251 1801.37 830.249C1806.08 831.247 1810.81 831.429 1815.86 830.585C1823.75 829.267 1830.04 826.109 1834.72 821.109C1839.24 816.136 1840.97 810.007 1839.79 802.905C1838.92 797.697 1836.92 793.489 1833.79 790.281Z" fill="#1A1417"/>
<path d="M1850.63 906.082C1844.7 912.022 1836.62 915.407 1826.1 916.261C1819.24 916.818 1812.9 915.887 1807.25 913.457C1801.43 911.039 1796.5 907.587 1792.6 903.088C1790.48 900.692 1788.83 898.097 1787.29 895.011C1785.76 891.925 1784.89 889.106 1784.49 886.249C1784.29 883.697 1784.2 880.654 1784.55 877.094C1784.89 873.374 1785.28 870.292 1785.73 867.849C1769.78 869.143 1760.38 870.066 1757.54 870.618C1757.15 877.713 1756.5 883.545 1755.43 888.126L1750.55 887.399L1747.85 854.068L1752.7 852.551C1753.76 853.749 1755.21 855.718 1756.7 858.326C1757.27 859.403 1758.77 860.084 1761.22 860.528C1762.84 860.717 1765.08 860.696 1768.28 860.596C1771.47 860.337 1776.43 860.095 1783.13 859.552L1829.54 855.785C1832.41 855.552 1837.5 854.978 1844.49 854.089C1844.5 850.236 1844.84 846.516 1845.8 842.585L1850.61 842.516L1856.42 860.665L1853.65 864.101L1846.7 863.541C1847.07 864.153 1848.17 865.83 1850.17 868.717C1852.01 871.618 1853.85 874.519 1855.36 877.286C1856.87 880.053 1857.7 882.393 1857.99 883.975C1858.7 892.746 1856.25 900.168 1850.63 906.082ZM1794.39 893.472C1795.21 895.653 1796.49 897.635 1797.92 899.445C1800.51 901.643 1804.19 903.432 1809.11 904.798C1814.03 906.004 1819.05 906.559 1824.47 906.119C1832.13 905.498 1838.35 903.066 1842.98 898.838C1847.46 894.622 1849.57 888.993 1849.02 882.295C1848.46 879.291 1845.4 873.278 1839.84 864.098L1795.83 867.671C1794.72 869.848 1793.98 872.636 1793.28 875.904C1792.59 879.171 1792.58 883.024 1792.92 887.17C1793.07 889.084 1793.57 891.291 1794.39 893.472Z" fill="#1A1417"/>
<path d="M1898.1 941.15C1894.4 940.261 1889.75 939.711 1884.31 939.656C1878.86 939.441 1871.82 939.577 1863.18 939.743L1811.19 940.747C1804.79 940.87 1799.84 941.126 1796.33 941.834C1796.04 943.12 1795.6 945.209 1795.01 947.781C1794.42 950.353 1793.65 952.288 1793.04 953.58L1789.02 952.537L1788.42 921.823L1792.41 920.786C1793.07 921.893 1793.9 923.478 1794.57 925.385C1795.25 927.292 1795.76 928.563 1796.09 929.196C1797.07 930.138 1798.36 930.913 1800.13 931.199C1802.69 931.469 1805.58 931.734 1809.1 931.666L1815.5 931.542L1878.05 930.335C1884.76 930.205 1889.4 929.956 1891.79 929.589C1892.33 923.978 1893.21 920.12 1894.77 917.85L1898.78 918.253L1901.56 937.883L1898.1 941.15Z" fill="#1A1417"/>
<path d="M1791.61 974.032C1795.01 969.372 1799.32 966.032 1804.86 963.705C1810.25 961.371 1816.21 960.504 1822.76 960.782C1829.16 961.054 1834.86 962.577 1840.02 965.519C1845.18 968.46 1849.5 972.327 1852.98 977.119C1856.9 982.731 1859.23 988.274 1859.64 993.737C1859.3 1001.73 1856.79 1008.03 1852.11 1012.63C1847.43 1017.24 1841.25 1019.54 1833.57 1019.37C1831.04 1018.63 1828.53 1017.24 1826.23 1014.9L1825.85 971.162C1816.89 970.782 1809.78 972.242 1804.35 975.694C1798.93 978.987 1796.13 984.633 1795.8 992.306C1795.52 998.86 1797.77 1006.16 1802.56 1014.21L1797.16 1016.87C1794.76 1012.92 1792.24 1008.17 1789.91 1002.79C1787.42 997.395 1786.16 993.178 1786.29 989.981C1786.55 983.906 1788.22 978.532 1791.61 974.032ZM1833.17 1009.75C1838.62 1009.82 1843.01 1008.24 1846.02 1005.17C1849.04 1001.93 1850.65 997.999 1850.85 993.363C1851.04 988.887 1850.09 984.683 1848.16 981.078C1846.17 979.072 1843.52 977.358 1840.39 975.623C1837.26 973.889 1834.11 972.634 1830.93 972.179L1833.17 1009.75Z" fill="#1A1417"/>
<path d="M1767.09 1165.96C1767.21 1166.66 1767.46 1168.58 1767.64 1171.31C1767.79 1173.03 1767.87 1174.39 1767.99 1175.1C1768.08 1176.46 1769.23 1177.64 1771.54 1178.85C1774.3 1180.19 1778.5 1181.8 1784.16 1183.52L1835.6 1199.15C1844.17 1201.75 1849.41 1202.67 1851.38 1202.27C1853.89 1197.85 1855.98 1194.8 1857.71 1192.99L1862.13 1195.5L1851.29 1231.17C1848.78 1239.44 1845.35 1245.75 1841.17 1250.17C1837.82 1253.5 1834.13 1255.72 1829.71 1257.06C1825.34 1258.24 1820.68 1258.16 1815.48 1256.58C1809.51 1254.76 1804.52 1251.91 1800.67 1248.07C1796.82 1244.22 1794.02 1239.69 1792.57 1234.57C1790.58 1228.45 1790.51 1222.07 1792.16 1215.55C1793.74 1210.34 1796.01 1204.51 1799.02 1197.9L1777.44 1191.34C1772.23 1189.76 1767.59 1188.52 1763.47 1187.77C1761.53 1192.53 1758.83 1197.56 1755.27 1202.67L1751.57 1200.54L1762.17 1165.64L1767.09 1165.96ZM1797.96 1231.69C1800.94 1238.95 1807.09 1244 1816.43 1246.83C1823.78 1249.07 1829.68 1248.35 1834.29 1244.73C1838.9 1241.12 1842.4 1235.66 1844.68 1228.16C1846.91 1220.81 1847.8 1216.23 1847.75 1214.21C1846.04 1212.68 1840.97 1210.64 1832.55 1208.09L1806.37 1200.13C1803.79 1203.69 1801.55 1208.87 1799.55 1215.45C1797.59 1221.88 1796.93 1227.36 1797.96 1231.69Z" fill="#1A1417"/>
<path d="M1833.21 1297.81C1830.12 1295.59 1826.02 1293.33 1820.99 1291.23C1816.03 1288.98 1809.46 1286.46 1801.39 1283.36L1752.84 1264.73C1746.87 1262.44 1742.18 1260.81 1738.67 1260.15C1737.91 1261.23 1736.71 1263 1735.2 1265.16C1733.69 1267.32 1732.25 1268.82 1731.19 1269.79L1727.86 1267.31L1738.87 1238.63L1742.95 1239.17C1743.14 1240.44 1743.32 1242.22 1743.23 1244.25C1743.14 1246.27 1743.13 1247.63 1743.19 1248.35C1743.75 1249.59 1744.66 1250.79 1746.18 1251.72C1748.46 1252.94 1751.03 1254.27 1754.32 1255.53L1760.29 1257.82L1818.7 1280.24C1824.97 1282.65 1829.36 1284.16 1831.72 1284.72C1834.32 1279.72 1836.6 1276.48 1838.89 1274.96L1842.45 1276.85L1837.64 1296.08L1833.21 1297.81Z" fill="#1A1417"/>
<path d="M1753.04 1333.24L1729.7 1322.74C1722.54 1319.52 1717.39 1317.73 1714.23 1317.72L1710.23 1326.62L1706.91 1325.83C1706.53 1323.55 1706.34 1320.84 1706.57 1317.6C1706.71 1314.16 1707.23 1311.06 1707.97 1308.24C1709.83 1308.02 1713.27 1308.16 1718.46 1309.09L1718.32 1305.52C1717.57 1294.31 1717.65 1287.5 1718.34 1285.18C1720.96 1279.34 1724.75 1275.61 1729.71 1274.33C1733.24 1273.11 1737.05 1273.6 1741.43 1275.56C1743.91 1276.68 1746.13 1278.38 1747.94 1280.6C1749.75 1282.81 1750.86 1285.42 1751.26 1288.05C1750.86 1292.44 1749.31 1303.31 1746.6 1321.04L1758.56 1326.42C1762.36 1328.13 1765.51 1328.14 1768.18 1326.89C1770.7 1325.56 1772.83 1323.19 1774.27 1319.97C1776.04 1316.03 1776.72 1311.78 1776.39 1307.07C1774.74 1305.27 1772.02 1303.52 1768.35 1301.53C1768.16 1300.39 1768.32 1298.88 1768.6 1297.08C1768.88 1295.27 1769.12 1293.98 1769.51 1293.1L1772.9 1291.81C1777.59 1294.63 1780.78 1297.29 1782.54 1300.01C1782.76 1303.44 1782.72 1307.81 1782.65 1313.04C1782.43 1318.21 1782.01 1321.88 1781.45 1323.9C1775.94 1336.16 1766.47 1339.27 1753.04 1333.24ZM1740.76 1318.42C1742.78 1303.01 1743.96 1293.36 1744.23 1289.63C1742.87 1287.97 1740.88 1286.54 1738.25 1285.36C1735.34 1284.05 1732.89 1283.65 1730.48 1284.32C1728.07 1284.99 1726.36 1286.85 1724.91 1290.07C1724.55 1291.66 1724.24 1294.68 1724.13 1298.83C1724.01 1302.99 1724.11 1307.07 1724.13 1310.94L1740.76 1318.42Z" fill="#1A1417"/>
<path d="M1698.4 1337.96C1703.28 1335.31 1708.61 1334.18 1714.54 1334.64C1720.4 1334.89 1726.15 1336.7 1732.06 1339.88C1737.42 1342.76 1741.75 1346.54 1745.25 1351.51C1748.83 1356.34 1751.04 1361.7 1752.08 1367.53C1753.1 1374.43 1752.55 1380.86 1750.3 1386.73C1745.99 1394.77 1741.46 1400.15 1736.94 1403.16L1733.29 1402.84C1732.26 1401.38 1731.52 1399.71 1731.08 1397.84C1730.49 1395.89 1730.39 1394.38 1730.78 1393.32C1736.36 1391.05 1740.78 1386.88 1744.03 1380.82C1744.94 1379.13 1745.43 1377.21 1745.77 1375.22C1746.12 1373.22 1746.25 1371.29 1746.15 1369.79C1745.04 1366.1 1742.86 1362.39 1739.68 1358.5C1736.36 1354.54 1732.51 1351.56 1728.28 1349.29C1720.39 1345.05 1713.56 1343.56 1707.64 1345.11C1701.59 1346.57 1697.12 1350.16 1694.01 1355.94C1691.44 1360.74 1690.23 1367.72 1690.47 1376.74L1685.04 1376.37C1684.59 1372.13 1684.52 1367.19 1684.68 1361.83C1684.83 1356.46 1685.52 1352.47 1686.67 1350C1689.62 1344.5 1693.47 1340.39 1698.4 1337.96Z" fill="#1A1417"/>
<path d="M1671.11 1386.73C1676.38 1384.38 1681.77 1383.62 1687.74 1384.36C1693.57 1385.01 1699.17 1387.22 1704.72 1390.72C1710.13 1394.14 1714.32 1398.3 1717.34 1403.42C1720.35 1408.53 1722.17 1414.04 1722.81 1419.92C1723.42 1426.75 1722.69 1432.71 1720.32 1437.65C1716.05 1444.42 1710.74 1448.64 1704.39 1450.3C1698.04 1451.97 1691.53 1450.89 1684.95 1446.93C1683.13 1445.02 1681.65 1442.57 1680.82 1439.4L1702.23 1401.26C1694.66 1396.48 1687.76 1394.21 1681.33 1394.51C1674.99 1394.66 1669.75 1398.17 1665.65 1404.66C1662.15 1410.21 1660.47 1417.67 1660.62 1427.03L1654.62 1426.65C1654.5 1422.03 1654.68 1416.66 1655.33 1410.83C1655.85 1404.91 1656.85 1400.62 1658.56 1397.92C1661.8 1392.78 1665.93 1388.94 1671.11 1386.73ZM1689.4 1438.38C1694.09 1441.15 1698.68 1441.97 1702.82 1440.8C1707.05 1439.5 1710.4 1436.88 1712.88 1432.96C1715.27 1429.17 1716.55 1425.05 1716.66 1420.97C1715.93 1418.23 1714.48 1415.43 1712.63 1412.37C1710.78 1409.31 1708.67 1406.65 1706.14 1404.67L1689.4 1438.38Z" fill="#1A1417"/>
<path d="M1671.75 1501.8L1667.08 1501.95C1665.63 1500.68 1663.72 1498.69 1661.26 1496.09C1658.67 1493.4 1656.85 1491.28 1655.94 1489.81C1656.34 1488.72 1657.07 1487.47 1658.2 1485.92C1662.36 1488.37 1666.61 1490.69 1670.95 1492.88C1672.32 1492.1 1673.75 1490.96 1675.46 1489.44C1677.04 1487.82 1678.53 1486.33 1679.66 1484.79C1682.88 1480.4 1684.34 1476.51 1684.27 1473.09C1683.79 1469.96 1682.42 1467.76 1680.1 1466.06C1677.39 1464.07 1674.66 1463.46 1671.86 1464.58C1669.05 1465.7 1665.14 1467.79 1660.28 1471.17C1656.34 1473.84 1652.78 1475.99 1649.92 1477.46C1647.05 1478.93 1643.96 1479.64 1640.53 1479.71C1637.2 1479.65 1633.7 1478.47 1630.35 1476.01C1624.8 1471.95 1621.96 1466.89 1621.96 1460.94C1621.96 1454.98 1624.23 1448.91 1628.67 1442.85C1632.55 1437.56 1637.55 1432.89 1644.04 1428.92C1645.17 1429.54 1647.84 1431.31 1651.81 1434.02C1655.77 1436.72 1658.61 1438.81 1660.32 1440.26C1660.08 1441.67 1659.3 1443.28 1657.98 1445.09C1651.03 1441.58 1646.49 1439.64 1644.25 1439.19C1642.53 1439.91 1640.75 1440.99 1638.72 1442.67C1636.69 1444.36 1635.05 1446.33 1633.44 1448.52C1630.41 1452.65 1628.91 1456.32 1628.86 1459.65C1629.03 1460.76 1629.55 1461.94 1630.56 1463.27C1631.44 1464.51 1632.41 1465.62 1633.57 1466.47C1635.89 1468.18 1638.43 1469.04 1640.93 1468.89C1643.42 1468.73 1645.62 1468.17 1647.85 1467.02C1649.95 1465.78 1652.87 1463.96 1656.3 1461.71C1660.11 1458.95 1663.26 1457.09 1665.81 1455.78C1668.35 1454.48 1671.1 1453.71 1674.07 1453.71C1677.05 1453.71 1679.97 1454.86 1683.07 1457.13C1687.97 1460.73 1690.27 1465.98 1690.03 1473.34C1689.8 1478.53 1688.61 1483.41 1686.1 1487.92C1681.08 1494.75 1676.3 1499.38 1671.75 1501.8Z" fill="#1A1417"/>
</svg>
