<svg width="14" height="14" viewBox="0 0 14 14" fill="none" xmlns="http://www.w3.org/2000/svg">
<path d="M14 8C13.1642 7.94665 12.4802 7.90412 11.9508 7.87241C11.8367 7.87766 11.7035 7.88045 11.5493 7.88045C8.99296 7.88045 7.84302 8.32762 7.84302 11.4273L7.84175 11.4244C7.87422 11.9923 7.92705 12.8533 8.00024 14H6.00024C6.07678 12.8009 6.13106 11.9141 6.16307 11.3484C6.14356 8.32001 4.99153 7.88045 2.45698 7.88045C2.30354 7.88045 2.17085 7.87769 2.0571 7.87248C1.52904 7.90419 0.843821 7.9467 0 8V6C0.838951 6.05299 1.52113 6.09531 2.04794 6.12696C2.16371 6.12148 2.29941 6.11857 2.45698 6.11857C4.98965 6.11857 6.14185 5.67966 6.16302 2.65743C6.13101 2.09551 6.07675 1.21111 6.00024 0H8.00024C7.92745 1.15239 7.87479 2.00899 7.84228 2.57344L7.84302 2.57177C7.84302 5.6714 8.99296 6.11857 11.5493 6.11857C11.7077 6.11857 11.8439 6.12151 11.96 6.12704C12.4881 6.09538 13.169 6.05303 14 6V8Z" fill="black"/>
<path d="M11.2425 12.6568C10.6893 12.0281 10.2357 11.5144 9.88379 11.1177C9.79939 11.0407 9.70321 10.9485 9.5942 10.8394C7.78655 9.0318 6.65722 8.53486 4.46546 10.7266L4.46656 10.7237C4.08798 11.1482 3.51653 11.7944 2.75742 12.657L1.34321 11.2428C2.24528 10.449 2.91065 9.86035 3.33335 9.48292C5.4609 7.32778 4.95711 6.20235 3.16491 4.41016C3.05642 4.30166 2.96454 4.20588 2.88779 4.12177C2.49197 3.7708 1.97739 3.31632 1.34303 2.75734L2.75724 1.34313C3.313 1.97383 3.76545 2.48613 4.11558 2.88102C4.20132 2.959 4.29933 3.0529 4.41075 3.16432C6.20161 4.95519 7.3267 5.45956 9.47871 3.3375C9.85341 2.91752 10.4404 2.25378 11.2427 1.3433L12.6569 2.75752C11.7906 3.52091 11.1476 4.08939 10.7255 4.46551L10.7272 4.46487C8.53545 6.65663 9.03239 7.78596 10.84 9.59361C10.952 9.70555 11.0462 9.80396 11.1244 9.88998C11.5202 10.241 12.0317 10.6925 12.6567 11.2426L11.2425 12.6568Z" fill="black"/>
</svg>
