<svg width="14" height="14" viewBox="0 0 14 14" fill="none" xmlns="http://www.w3.org/2000/svg">
<path d="M13.9999 8.00014C13.1641 7.94679 12.4801 7.90426 11.9507 7.87255C11.8366 7.8778 11.7034 7.88059 11.5492 7.88059C8.99284 7.88059 7.8429 8.32776 7.8429 11.4274L7.84163 11.4245C7.8741 11.9924 7.92693 12.8534 8.00012 14.0001H6.00012C6.07666 12.801 6.13094 11.9142 6.16295 11.3485C6.14344 8.32015 4.99141 7.88059 2.45686 7.88059C2.30342 7.88059 2.17073 7.87783 2.05698 7.87262C1.52892 7.90433 0.843699 7.94684 -0.00012207 8.00014V6.00014C0.838829 6.05313 1.52101 6.09545 2.04782 6.1271C2.16359 6.12162 2.29929 6.11871 2.45686 6.11871C4.98953 6.11871 6.14173 5.6798 6.1629 2.65757C6.13089 2.09565 6.07663 1.21125 6.00012 0.000137329H8.00012C7.92733 1.15253 7.87467 2.00913 7.84216 2.57358L7.8429 2.57191C7.8429 5.67154 8.99284 6.11871 11.5492 6.11871C11.7076 6.11871 11.8438 6.12165 11.9599 6.12718C12.488 6.09552 13.1689 6.05317 13.9999 6.00014V8.00014Z" fill="white"/>
<path d="M11.2425 12.6568C10.6893 12.0281 10.2357 11.5144 9.88379 11.1177C9.79939 11.0407 9.70321 10.9485 9.5942 10.8394C7.78655 9.0318 6.65722 8.53486 4.46546 10.7266L4.46656 10.7237C4.08798 11.1482 3.51653 11.7944 2.75742 12.657L1.34321 11.2428C2.24528 10.449 2.91065 9.86035 3.33335 9.48292C5.4609 7.32778 4.95711 6.20235 3.16491 4.41016C3.05642 4.30166 2.96454 4.20588 2.88779 4.12177C2.49197 3.7708 1.97739 3.31632 1.34303 2.75734L2.75724 1.34313C3.313 1.97383 3.76545 2.48613 4.11558 2.88102C4.20132 2.959 4.29933 3.0529 4.41075 3.16432C6.20161 4.95519 7.3267 5.45956 9.47871 3.3375C9.85341 2.91752 10.4404 2.25378 11.2427 1.3433L12.6569 2.75752C11.7906 3.52091 11.1476 4.08939 10.7255 4.46551L10.7272 4.46487C8.53545 6.65663 9.03239 7.78596 10.84 9.59361C10.952 9.70555 11.0462 9.80396 11.1244 9.88998C11.5202 10.241 12.0317 10.6925 12.6567 11.2426L11.2425 12.6568Z" fill="white"/>
</svg>
