<svg width="26" height="22" viewBox="0 0 26 22" fill="none" xmlns="http://www.w3.org/2000/svg">
<path d="M21 11C21 5.47715 16.5228 1 11 1C5.47715 1 1 5.47715 1 11C1 16.5228 5.47715 21 11 21C13.1987 21 15.2316 20.2904 16.8824 19.0878" stroke="white" stroke-width="2"/>
<path d="M20 16.3779C20 14.6592 19.2625 12.2388 16.8018 12.2388L16.8036 12.238C16.4385 12.2598 16 12.3445 16 12.3445L16 11C16 11 17.3116 10.9783 18.1753 10.9998L24.2284 10.9998C24.5896 10.9783 26 11 26 11L26 12.3445C26 12.3445 25.5421 12.2602 25.1793 12.2383L25.1804 12.2388C22.7214 12.2388 22 14.6594 22 16.378L20 16.3779Z" fill="white"/>
</svg>
