<svg width="20" height="11" viewBox="0 0 20 11" fill="none" xmlns="http://www.w3.org/2000/svg">
<path d="M19.9999 6.18077C17.8517 6.18077 14.8262 7 14.8262 10.0022L14.8251 10C14.8524 10.4454 14.9583 10.9804 14.9583 10.9804H13.2776C13.3419 10.0399 13.3875 9.34443 13.4144 8.90068C13.398 6.52552 12.4299 6.18077 10.3001 6.18077C10.1711 6.18077 10.0596 6.1786 9.96402 6.17452C9.52027 6.19939 0.709278 6.23272 0.000183105 6.27453V4.7059C0.705186 4.74746 9.51362 4.78065 9.95633 4.80548C10.0536 4.80118 10.1676 4.79889 10.3001 4.79889C12.4284 4.79889 13.3966 4.45465 13.4144 2.08427C13.3875 1.64355 13.3419 0.949893 13.2776 0H14.9583C14.9583 0 14.8529 0.558602 14.8255 1.0013L14.8262 1C14.8262 4 17.8519 4.79889 20.0001 4.79889C20.0001 5.25952 19.9999 6 19.9999 6.18077Z" fill="#721444"/>
</svg>
