<svg width="14" height="14" viewBox="0 0 14 14" fill="none" xmlns="http://www.w3.org/2000/svg">
<path d="M14 8.00012C13.1642 7.94678 12.4802 7.90425 11.9509 7.87253C11.8368 7.87779 11.7035 7.88057 11.5494 7.88057C8.99296 7.88057 7.84302 8.32774 7.84302 11.4274L7.84175 11.4245C7.87422 11.9924 7.92706 12.8534 8.00025 14.0001H6.00025C6.07678 12.8009 6.13106 11.9142 6.16307 11.3485C6.14356 8.32013 4.99153 7.88057 2.45698 7.88057C2.30354 7.88057 2.17085 7.87782 2.0571 7.87261C1.52905 7.90432 0.843821 7.94682 0 8.00012V6.00012C0.838951 6.05312 1.52113 6.09544 2.04795 6.12709C2.16371 6.1216 2.29941 6.11869 2.45698 6.11869C4.98965 6.11869 6.14185 5.67979 6.16303 2.65756C6.13101 2.09564 6.07675 1.21123 6.00024 0.00012207H8.00025C7.92745 1.15252 7.8748 2.00912 7.84228 2.57356L7.84302 2.5719C7.84302 5.67152 8.99296 6.11869 11.5494 6.11869C11.7077 6.11869 11.8439 6.12163 11.96 6.12716C12.4881 6.09551 13.169 6.05316 14 6.00012V8.00012Z" fill="white"/>
</svg>
