<svg width="14" height="14" viewBox="0 0 14 14" fill="none" xmlns="http://www.w3.org/2000/svg">
<path d="M13.9999 8.00025C13.1641 7.9469 12.4801 7.90437 11.9507 7.87266C11.8366 7.87791 11.7034 7.8807 11.5492 7.8807C8.99284 7.8807 7.8429 8.32787 7.8429 11.4275L7.84163 11.4247C7.8741 11.9925 7.92693 12.8535 8.00012 14.0002H6.00012C6.07666 12.8011 6.13094 11.9144 6.16295 11.3486C6.14344 8.32025 4.99141 7.8807 2.45686 7.8807C2.30342 7.8807 2.17073 7.87794 2.05698 7.87273C1.52892 7.90444 0.843698 7.94694 -0.00012207 8.00024V6.00024C0.838829 6.05324 1.52101 6.09556 2.04782 6.12721C2.16359 6.12173 2.29929 6.11882 2.45686 6.11882C4.98953 6.11882 6.14173 5.67991 6.1629 2.65768C6.13089 2.09576 6.07662 1.21135 6.00012 0.000244141H8.00012C7.92733 1.15264 7.87467 2.00924 7.84216 2.57368L7.8429 2.57202C7.8429 5.67164 8.99284 6.11882 11.5492 6.11882C11.7076 6.11882 11.8438 6.12175 11.9599 6.12729C12.488 6.09563 13.1689 6.05328 13.9999 6.00024V8.00025Z" fill="#1A1417"/>
</svg>
