<svg width="20" height="11" viewBox="0 0 20 11" fill="none" xmlns="http://www.w3.org/2000/svg">
<path d="M19.9998 6.18077C17.8516 6.18077 14.826 7 14.826 10.0022L14.825 10C14.8522 10.4454 14.9582 10.9804 14.9582 10.9804H13.2775C13.3418 10.0399 13.3874 9.34443 13.4143 8.90068C13.3979 6.52552 12.4298 6.18077 10.2999 6.18077C10.171 6.18077 10.0595 6.1786 9.9639 6.17452C9.52015 6.19939 0.709156 6.23272 6.10352e-05 6.27453V4.7059C0.705064 4.74746 9.5135 4.78065 9.9562 4.80548C10.0535 4.80118 10.1675 4.79889 10.2999 4.79889C12.4282 4.79889 13.3965 4.45465 13.4143 2.08427C13.3874 1.64355 13.3418 0.949893 13.2775 0H14.9582C14.9582 0 14.8527 0.558602 14.8254 1.0013L14.826 1C14.826 4 17.8517 4.79889 20 4.79889C20 5.25952 19.9998 6 19.9998 6.18077Z" fill="#F26722"/>
</svg>
