<svg width="21" height="21" viewBox="0 0 21 21" fill="none" xmlns="http://www.w3.org/2000/svg">
<path d="M9.59387 0.459953C10.1764 0.119957 10.8885 0.119957 11.4711 0.459953C12.8297 1.25292 15.3408 2.80833 16.7987 4.26615C18.2565 5.72397 19.8119 8.2351 20.6049 9.59375C20.9449 10.1763 20.9449 10.8884 20.6049 11.4709C19.8119 12.8296 18.2565 15.3407 16.7987 16.7985C15.3408 18.2564 12.8297 19.8118 11.4711 20.6047C10.8885 20.9447 10.1764 20.9447 9.59387 20.6047C8.23522 19.8118 5.7241 18.2564 4.26628 16.7985C2.80845 15.3407 1.25304 12.8296 0.460075 11.4709C0.120079 10.8884 0.120079 10.1763 0.460075 9.59375C1.25304 8.2351 2.80846 5.72397 4.26628 4.26615C5.7241 2.80833 8.23522 1.25292 9.59387 0.459953Z" fill="#721444"/>
</svg>
