<svg width="30" height="26" viewBox="0 0 30 26" fill="none" xmlns="http://www.w3.org/2000/svg">
<path d="M25 13C25 7.47715 20.5228 3 15 3C9.47715 3 5 7.47715 5 13C5 18.5228 9.47715 23 15 23C17.1987 23 19.2316 22.2904 20.8824 21.0878" stroke="white" stroke-width="2"/>
<path d="M24 18.3778C24 16.6591 23.2625 14.2387 20.8018 14.2387L20.8036 14.2379C20.4385 14.2597 20 14.3444 20 14.3444V12.9999C20 12.9999 21.3116 12.9782 22.1753 12.9997H28.2284C28.5896 12.9782 30 12.9999 30 12.9999V14.3444C30 14.3444 29.5421 14.2601 29.1793 14.2382L29.1804 14.2387C26.7214 14.2387 26 16.6593 26 18.3779L24 18.3778Z" fill="white"/>
</svg>
