<svg width="12" height="12" viewBox="0 0 12 12" fill="none" xmlns="http://www.w3.org/2000/svg">
<path d="M5.16136 0.633282C5.738 0.283384 6.45535 0.283384 7.032 0.633282C7.82743 1.11593 8.94836 1.85168 9.64478 2.5481C10.3412 3.24451 11.0769 4.36544 11.5596 5.16087C11.9095 5.73752 11.9095 6.45487 11.5596 7.03152C11.0769 7.82694 10.3412 8.94787 9.64478 9.64429C8.94836 10.3407 7.82743 11.0765 7.032 11.5591C6.45535 11.909 5.738 11.909 5.16136 11.5591C4.36593 11.0765 3.245 10.3407 2.54858 9.64429C1.85217 8.94787 1.11642 7.82694 0.633771 7.03152C0.283872 6.45487 0.283872 5.73752 0.633771 5.16087C1.11642 4.36544 1.85217 3.24451 2.54858 2.5481C3.245 1.85168 4.36593 1.11593 5.16136 0.633282Z" fill="#99947E"/>
</svg>
