<svg width="12" height="12" viewBox="0 0 12 12" fill="none" xmlns="http://www.w3.org/2000/svg">
<path d="M4.79001 0.262424C5.36666 -0.0874746 6.08401 -0.0874746 6.66066 0.262424C7.45608 0.745071 8.57701 1.48082 9.27343 2.17724C9.96985 2.87365 10.7056 3.99458 11.1882 4.79001C11.5381 5.36666 11.5381 6.08401 11.1882 6.66066C10.7056 7.45608 9.96985 8.57701 9.27343 9.27343C8.57701 9.96985 7.45608 10.7056 6.66066 11.1882C6.08401 11.5381 5.36666 11.5381 4.79001 11.1882C3.99458 10.7056 2.87365 9.96985 2.17724 9.27343C1.48082 8.57701 0.745071 7.45608 0.262424 6.66066C-0.0874748 6.08401 -0.0874746 5.36666 0.262424 4.79001C0.745071 3.99458 1.48082 2.87365 2.17724 2.17724C2.87365 1.48082 3.99458 0.745071 4.79001 0.262424Z" fill="#F26722"/>
</svg>
