<svg width="23" height="16" viewBox="0 0 23 16" fill="none" xmlns="http://www.w3.org/2000/svg">
<path d="M1 0V7.84616C1 8.95072 1.89543 9.84615 3 9.84615H21.4444" stroke="#F26722" stroke-width="2"/>
<path d="M22.5511 11.0765C20.3551 11.0765 17.2623 11.9842 17.2623 15.0128L17.2612 15.0105C17.2891 15.4598 17.3974 15.9996 17.3974 15.9996H15.6794C15.7451 15.0508 15.7917 14.3492 15.8192 13.2862C15.8025 10.8901 14.8129 10.9819 12.6356 10.9819C12.5038 10.9819 12.3898 10.9797 12.2921 10.9756C11.8385 11.0007 4.16899 10.8122 3.44411 10.8543L3.44413 8.83712C4.16483 8.87905 11.8317 8.69038 12.2843 8.71542C12.3837 8.71108 12.5003 8.70878 12.6356 8.70878C14.8113 8.70878 15.801 8.1857 15.8192 5.79448C15.7917 5.34988 15.7451 4.65014 15.6794 3.69189H17.3974C17.3974 3.69189 17.2896 4.25541 17.2617 4.702L17.2623 4.70068C17.2623 7.72705 20.3552 8.61496 22.5513 8.61496C22.5513 9.07964 22.5511 10.8941 22.5511 11.0765Z" fill="#F26722"/>
</svg>
