<svg  viewBox="0 0 980 161" fill="none" xmlns="http://www.w3.org/2000/svg">
<path d="M909.232 154.346C902.02 150.415 898.414 144.027 898.414 134.855C899.725 133.545 901.528 132.398 903.987 131.088C906.446 129.778 910.216 127.976 915.461 125.683C907.593 123.39 903.659 118.804 903.659 111.925C906.282 109.141 910.544 104.882 916.445 99.1497C912.183 96.5291 908.741 93.4171 906.282 89.4862C903.823 85.7191 902.676 81.4607 902.676 76.5471C902.676 67.7026 907.265 60.0046 916.773 53.4531C919.395 51.6514 922.51 50.1773 925.952 48.867C929.394 47.5567 932.673 46.9016 935.951 46.574C941.852 46.574 946.934 47.5567 951.196 49.3584L976.767 44.9361L979.881 51.3238C978.898 56.2375 977.095 59.3494 974.636 60.8235L961.031 59.5132C966.276 63.7717 969.063 69.1766 969.063 75.5643C969.063 80.1504 967.587 84.4088 964.637 88.3397C961.686 92.2706 957.916 95.7102 953.326 98.4945C947.261 101.934 941.688 103.9 936.771 104.227C935.131 104.227 933.328 104.227 931.361 103.9C929.394 103.736 927.919 103.408 926.772 103.081C925.132 104.391 924.313 105.701 924.313 107.339C924.313 108.977 924.805 110.123 925.952 110.779C926.936 111.434 928.903 111.761 931.525 111.925C934.148 112.089 938.738 112.089 945.622 112.089C955.949 112.089 964.145 113.563 970.21 116.511C976.111 119.459 979.226 124.864 979.226 132.726C979.226 138.295 976.931 143.208 972.505 147.139C967.915 151.07 962.506 154.182 956.113 156.311C949.72 158.604 943.655 159.915 937.754 160.242C925.952 160.242 916.445 158.277 909.232 154.346ZM942.836 89.3224C943.819 87.6846 944.639 85.7191 945.294 83.0985C945.95 80.4779 946.442 77.8573 946.442 74.9092C946.442 70.6507 945.458 66.8836 943.655 63.7717C941.852 60.8235 939.066 59.1856 935.459 59.1856C932.837 59.1856 930.706 59.8408 928.903 60.8235C927.919 62.4614 926.936 64.5906 926.28 67.2112C925.46 69.8318 925.133 72.6162 925.133 75.2368C925.133 79.659 925.952 83.4261 927.919 86.5381C929.722 89.65 932.509 91.1241 936.279 91.1241C938.902 91.1241 941.033 90.6327 942.836 89.3224ZM946.77 145.993C949.884 145.338 952.179 144.519 953.818 143.536C955.293 141.407 956.113 138.95 956.113 136.166C956.113 132.89 954.802 130.761 952.179 129.778C949.556 128.795 945.786 128.14 941.196 128.14H925.788C924.641 129.123 923.657 130.269 923.001 131.743C922.346 133.381 922.018 135.019 922.018 136.657C922.018 143.536 927.263 146.976 938.082 146.976C940.705 146.976 943.655 146.648 946.77 145.993Z" fill="#1A1417"/>
<path d="M877.755 53.1251C882.017 57.5473 884.312 63.7712 884.312 71.633V93.4167C884.312 101.442 884.64 107.175 885.459 110.451C887.098 110.942 888.901 111.597 890.868 112.252C892.835 112.907 894.147 113.563 894.966 114.218L893.819 122.243H853.331L852.348 114.218C853.495 113.235 855.626 111.925 858.74 110.614C859.396 109.795 859.724 108.485 860.052 106.683C860.38 104.39 860.543 99.9682 860.543 93.4167V75.7277C860.543 71.4692 859.724 68.5211 858.249 67.047C856.773 66.0643 854.806 65.4091 852.348 65.4091C849.725 66.0643 845.463 67.8659 839.234 70.6503V91.7788C839.234 101.278 839.398 107.502 840.054 110.614C843.496 111.925 845.955 113.235 847.43 114.218L846.447 122.243H805.959L804.647 114.218C805.631 113.563 806.942 112.744 808.745 112.088C810.548 111.433 811.86 110.942 812.679 110.614C813.499 109.795 814.155 108.485 814.646 106.847C815.138 104.718 815.466 100.296 815.466 93.4167V79.9862C815.466 72.1244 815.138 67.047 814.482 64.5902C809.893 63.7712 806.123 62.6247 803.336 61.3144L804.156 52.4699L832.677 46.5736L838.906 50.5045L837.759 59.1852C840.873 56.8922 844.643 54.2716 849.233 51.4872C853.659 48.8666 856.937 47.2287 859.232 46.5736C867.1 46.5736 873.329 48.8666 877.755 53.1251Z" fill="#1A1417"/>
<path d="M753.453 114.218C754.437 113.235 756.076 112.416 758.043 111.761L761.485 110.614C762.469 109.795 763.288 108.157 763.616 105.701C763.944 101.934 764.272 96.6923 764.272 89.9771V79.6585C764.272 72.4518 763.944 67.2107 763.452 64.2625C761.485 64.0987 759.518 63.6073 757.223 62.9522C754.929 62.297 753.125 61.6419 752.142 60.9867L752.798 52.4698L782.303 46.5735L789.351 51.4871C788.04 56.2369 787.384 65.0814 787.384 77.8568V93.7442C787.384 101.606 787.712 107.175 788.532 110.45C790.007 110.778 791.646 111.269 793.613 111.925C795.416 112.743 796.892 113.562 797.875 114.218L796.728 122.243H754.765L753.453 114.218Z" fill="#1A1417"/>
<path d="M688.307 7.7551L694.864 12.8325C693.06 19.384 692.241 31.0129 692.241 48.0467V81.7869L706.993 67.7012C709.78 65.0806 712.075 62.7876 713.714 60.8221C710.108 59.8394 707.321 58.6929 705.518 57.5464L707.485 48.8657H742.728L744.531 57.5464C742.564 58.8567 739.122 59.8394 734.204 60.6583L717.156 76.7095L730.926 99.1483C734.204 104.717 736.991 108.648 739.449 110.613C740.269 111.105 741.58 111.596 743.383 112.251C745.187 112.906 746.826 113.562 748.301 114.38L747.154 122.242H717.648C715.845 118.475 713.222 113.562 709.616 107.665L700.437 92.5968L692.241 100.295C692.241 104.553 692.405 107.993 693.06 110.45C696.175 111.596 698.634 112.743 700.273 113.889L699.289 122.242H659.457L658.146 114.217C659.293 113.234 661.916 112.087 666.178 110.613C666.997 109.794 667.653 107.993 668.145 105.372C668.637 101.441 668.964 95.3812 668.964 87.0281V38.5471C668.964 31.668 668.8 26.9182 668.473 24.4614C666.178 24.2976 663.719 23.8062 660.932 23.1511C658.146 22.4959 656.179 21.677 654.867 20.8581L656.015 12.0136L688.307 7.7551Z" fill="#1A1417"/>
<path d="M637.16 53.1251C641.422 57.5473 643.717 63.7712 643.717 71.633V93.4167C643.717 101.442 644.045 107.175 644.865 110.451C646.504 110.942 648.307 111.597 650.274 112.252C652.241 112.907 653.552 113.563 654.372 114.218L653.224 122.243H612.737L611.753 114.218C612.9 113.235 615.031 111.925 618.146 110.614C618.802 109.795 619.129 108.485 619.457 106.683C619.785 104.39 619.949 99.9682 619.949 93.4167V75.7277C619.949 71.4692 619.129 68.5211 617.654 67.047C616.179 66.0643 614.212 65.4091 611.753 65.4091C609.13 66.0643 604.868 67.8659 598.64 70.6503V91.7788C598.64 101.278 598.803 107.502 599.459 110.614C602.901 111.925 605.36 113.235 606.835 114.218L605.852 122.243H565.364L564.053 114.218C565.036 113.563 566.348 112.744 568.151 112.088C569.954 111.433 571.265 110.942 572.085 110.614C572.904 109.795 573.56 108.485 574.052 106.847C574.544 104.718 574.871 100.296 574.871 93.4167V79.9862C574.871 72.1244 574.543 67.047 573.888 64.5902C569.298 63.7712 565.528 62.6247 562.741 61.3144L563.561 52.4699L592.083 46.5736L598.312 50.5045L597.164 59.1852C600.279 56.8922 604.049 54.2716 608.639 51.4872C613.064 48.8666 616.343 47.2287 618.638 46.5736C626.506 46.5736 632.735 48.8666 637.16 53.1251Z" fill="#1A1417"/>
<path d="M512.859 114.218C513.842 113.235 515.481 112.416 517.448 111.761L520.891 110.614C521.874 109.795 522.694 108.157 523.022 105.701C523.35 101.934 523.677 96.6923 523.677 89.9771V79.6585C523.677 72.4518 523.35 67.2107 522.858 64.2625C520.891 64.0987 518.924 63.6073 516.629 62.9522C514.334 62.297 512.531 61.6419 511.547 60.9867L512.203 52.4698L541.708 46.5735L548.757 51.4871C547.446 56.2369 546.79 65.0814 546.79 77.8568V93.7442C546.79 101.606 547.118 107.175 547.937 110.45C549.413 110.778 551.052 111.269 553.019 111.925C554.822 112.743 556.297 113.562 557.281 114.218L556.133 122.243H514.17L512.859 114.218Z" fill="#1A1417"/>
<path d="M528.812 2.52875C532.589 0.0184128 537.466 0.0184134 541.243 2.52875C543.395 3.95863 545.669 5.6322 547.282 7.24466C548.896 8.85712 550.571 11.129 552.002 13.2787C554.514 17.0527 554.514 21.9262 552.002 25.7002C550.571 27.8499 548.896 30.1218 547.282 31.7342C545.669 33.3467 543.395 35.0203 541.243 36.4502C537.466 38.9605 532.589 38.9605 528.812 36.4502C526.661 35.0203 524.387 33.3467 522.773 31.7342C521.159 30.1218 519.484 27.8499 518.053 25.7002C515.541 21.9262 515.541 17.0527 518.053 13.2787C519.484 11.129 521.159 8.85712 522.773 7.24466C524.387 5.6322 526.661 3.95863 528.812 2.52875Z" fill="#1A1417"/>
<path d="M770.926 2.52875C774.703 0.0184128 779.58 0.0184134 783.357 2.52875C785.509 3.95863 787.782 5.6322 789.396 7.24466C791.01 8.85712 792.685 11.129 794.116 13.2787C796.628 17.0527 796.628 21.9262 794.116 25.7002C792.685 27.8499 791.01 30.1218 789.396 31.7342C787.782 33.3467 785.509 35.0203 783.357 36.4502C779.58 38.9605 774.703 38.9605 770.926 36.4502C768.774 35.0203 766.501 33.3467 764.887 31.7342C763.273 30.1218 761.598 27.8499 760.167 25.7002C757.655 21.9262 757.655 17.0527 760.167 13.2787C761.598 11.129 763.273 8.85712 764.887 7.24466C766.501 5.6322 768.774 3.95863 770.926 2.52875Z" fill="#1A1417"/>
<path d="M416.434 114.217C417.253 113.562 418.565 112.743 420.532 112.087C422.335 111.432 423.646 110.941 424.302 110.613C425.285 109.794 426.105 108.157 426.433 105.7C426.761 102.588 427.088 97.1829 427.088 89.6487V38.5471C427.088 31.668 426.925 26.9182 426.597 24.4614C424.466 24.2976 422.007 23.8062 419.22 22.9873C416.27 22.3322 414.303 21.5132 412.991 20.8581L414.139 12.0136L446.431 7.7551L452.988 12.8325C451.84 16.7634 451.184 21.677 450.857 27.4095C450.529 33.3059 450.365 40.1849 450.365 48.0467V58.3653C460.364 51.4863 467.085 47.5554 470.527 46.5726C478.395 46.5726 484.624 48.8657 489.05 53.1241C493.475 57.5464 495.77 63.7703 495.77 71.6321V93.4158C495.77 101.278 496.098 106.846 496.754 110.45C498.393 110.777 500.196 111.432 502.163 112.087C503.966 112.743 505.441 113.562 506.425 114.217L505.278 122.242H464.79L463.806 114.217C464.79 113.234 466.921 112.087 470.035 110.613C470.691 109.958 471.182 108.32 471.674 105.7C471.838 104.062 472.002 99.9672 472.002 93.252V75.7267C472.002 71.4683 471.182 68.5201 469.543 67.2098C468.232 66.0633 466.429 65.4082 463.806 65.4082C460.692 66.2271 456.266 68.0287 450.365 70.6493V91.7779C450.365 101.278 450.529 107.501 451.184 110.613C454.463 111.924 456.922 113.07 458.725 114.217L457.577 122.242H417.581L416.434 114.217Z" fill="#1A1417"/>
<path d="M389.667 27.7368V48.8654H408.845L410.321 57.5461L408.026 61.9683H389.667V94.3982C389.667 99.9669 389.995 103.57 390.978 105.208C391.962 107.337 394.421 108.32 398.027 108.32C400.486 108.32 404.092 107.665 408.682 106.027L412.124 115.363C407.862 117.328 403.272 119.294 398.519 121.095C393.601 122.897 389.995 123.88 387.372 124.044C382.619 124.044 378.848 123.552 375.898 122.242C372.947 121.095 370.816 119.13 369.177 116.509C367.866 114.708 366.882 112.415 366.391 109.63C365.899 106.846 365.735 103.243 365.735 98.9842V76.3816C365.735 69.3388 365.407 64.5889 364.915 61.9683H354.425L352.621 51.6497L367.21 47.0637C368.522 45.4258 369.833 42.969 371.144 39.6933C372.456 36.5813 373.603 33.1418 374.586 29.5385L389.667 27.7368Z" fill="#1A1417"/>
<path d="M285.358 114.217C286.342 113.562 287.653 112.743 289.456 112.088C291.26 111.432 292.571 110.941 293.39 110.613C294.374 109.794 295.194 108.157 295.521 105.7C295.849 101.769 296.177 92.9244 296.177 79.0025C296.177 71.6321 295.849 66.8823 295.194 64.5892C290.276 63.7703 286.67 62.6238 284.047 61.3135L284.867 52.469L313.225 46.5727L319.945 50.5035L318.47 65.4082C323.06 59.8394 326.666 55.4172 329.453 52.1414C331.29 49.9815 338.957 45.5201 340.512 45.5201C342.812 45.5201 349.478 47.816 350.676 48.5745C353.026 50.0635 353.893 53.2412 355.213 56.3822C354.885 59.8217 359.926 61.9539 354.731 61.9539C345.576 61.9539 338.52 62.5695 329.616 68.6839C328.469 69.3391 326.666 70.9769 324.207 73.7613C321.584 76.5457 320.109 78.1836 319.617 78.6749V95.0536C319.617 101.441 319.781 106.683 320.437 110.613C322.896 110.941 325.846 111.432 329.453 112.088C332.895 112.743 335.354 113.562 336.665 114.217L335.354 122.242H286.67L285.358 114.217Z" fill="#1A1417"/>
<path d="M263.333 52.7975C267.759 57.056 270.053 63.2799 270.053 71.4692V90.9599C270.053 101.278 270.709 107.666 272.02 110.287H279.561L281.036 117.657C278.085 119.295 273.987 120.605 269.07 121.916C263.988 123.226 259.563 123.881 255.629 124.045C253.662 122.407 251.367 119.131 249.072 114.054L245.957 115.856C239.073 120.114 233.827 122.898 230.549 124.045C223.501 124.045 218.091 122.898 214.485 120.605C212.026 119.131 210.059 117.166 208.748 114.709C207.437 112.252 206.781 109.304 206.781 105.865C206.781 102.589 207.6 99.313 209.24 96.0373C210.879 92.7616 213.01 90.4685 215.632 88.8307C218.255 87.8479 222.517 86.5376 228.09 84.8998C233.663 83.4257 239.073 81.9516 244.318 80.6413L247.597 79.8224V71.1417C247.597 67.3745 246.941 64.5902 245.793 62.9523C244.646 61.3144 242.351 60.3317 239.073 60.3317C237.925 60.3317 236.778 60.6593 235.467 60.9869C234.155 61.3144 233.008 61.8058 232.352 62.1334C231.041 64.4264 230.221 68.5211 230.057 74.0898C228.418 75.0725 225.959 76.0553 223.009 76.8742C219.894 77.8569 217.108 78.3483 214.649 78.3483L209.895 72.6157C209.895 70.3227 210.387 67.5383 211.207 64.2626C211.862 60.9869 212.682 58.53 213.665 56.7284C216.944 55.4181 222.025 53.4526 229.238 50.9958C236.286 48.7028 241.204 47.2287 244.154 46.5736C252.514 46.5736 258.907 48.7028 263.333 52.7975ZM247.597 89.1582C240.056 91.4513 234.975 93.2529 232.352 94.3994C230.713 96.6924 230.057 99.313 230.057 102.261C230.057 104.718 230.549 106.52 231.86 107.83C233.008 109.14 234.811 109.959 237.106 109.959C239.073 109.304 242.679 107.83 247.597 105.373V89.1582Z" fill="#1A1417"/>
<path d="M94.7207 46.5736L101.114 50.5045L99.8022 59.1852C102.753 56.8922 106.523 54.2716 110.949 51.3234C115.374 48.539 118.489 46.9012 120.456 46.5736C126.357 46.5736 131.111 47.7201 134.717 49.8493C138.323 52.1423 141.11 55.2543 143.077 59.349C147.83 55.9094 151.928 52.9613 155.534 50.6683C159.141 48.3752 161.927 47.0649 164.058 46.5736C172.418 46.5736 178.811 48.7028 183.401 52.9613C187.99 57.2197 190.285 63.4437 190.285 71.633V93.4167C190.285 100.951 190.613 106.683 191.269 110.451C195.858 111.597 198.973 112.907 200.94 114.218L199.792 122.243H159.469L158.485 114.218C159.796 113.071 161.927 111.925 164.878 110.614C165.534 109.632 165.861 108.485 166.025 107.175C166.517 104.882 166.845 100.296 166.845 93.4167V76.5466C166.845 71.7968 165.861 68.6848 164.058 67.047C162.583 65.9005 160.616 65.2453 157.993 65.2453C156.026 65.5729 151.764 67.3746 145.372 70.4865C145.535 73.1071 145.699 75.5639 145.699 77.8569V93.4167C145.699 101.606 145.863 107.339 146.519 110.614C149.797 111.761 152.256 112.907 153.895 114.218L152.912 122.243H115.374L114.391 114.218C115.538 113.235 117.669 112.088 120.784 110.614C121.276 109.632 121.767 108.649 122.095 107.339C122.423 105.046 122.751 100.296 122.751 93.4167V76.5466C122.751 72.1244 121.931 69.0124 120.456 67.3745C118.817 66.0642 116.522 65.2453 113.735 65.2453C112.588 65.5729 110.785 66.228 108.162 67.3745C105.539 68.5211 103.081 69.6676 101.114 70.6503V91.7788C101.114 101.278 101.277 107.502 101.933 110.614C104.72 111.597 107.179 112.907 109.309 114.218L108.326 122.243H68.1659L66.8546 114.218C67.8381 113.563 69.1494 112.744 70.9525 112.088C72.7557 111.433 74.067 110.942 74.8866 110.614C75.5423 109.959 76.1979 108.649 76.8536 106.683C77.3454 104.554 77.6732 100.132 77.6732 93.4167V81.4602C77.6732 73.4347 77.3454 67.8659 76.6897 64.5902C71.7721 63.6074 68.002 62.6247 65.5432 61.3144L66.3628 52.4699L94.7207 46.5736Z" fill="#1A1417"/>
<path d="M53.7653 50.1769L57.2075 56.237C56.8797 58.53 56.3879 61.642 55.4044 65.5729C54.4209 69.5038 53.6013 72.6157 52.9457 74.745C51.3065 75.4001 49.3395 75.5639 47.0446 75.5639C46.0611 75.5639 44.9137 75.5639 43.6023 75.2363C42.9466 69.1762 42.127 64.5902 41.3075 61.642C39.0126 60.6593 36.0621 60.1679 32.4559 60.1679C28.6857 60.1679 25.5713 60.9869 23.1125 62.2972C22.129 63.2799 21.8012 64.754 21.8012 66.5556C21.8012 68.6848 22.7847 70.3227 24.9156 71.633C26.8826 72.9433 30.3249 74.4174 34.9146 76.0553C39.6683 77.8569 43.6023 79.4948 46.7168 81.1327C49.8312 82.7705 52.6178 85.2273 54.9127 88.1755C57.2075 91.1237 58.355 94.8908 58.355 99.4768C58.355 106.683 55.2405 112.252 49.1755 116.511C43.1106 120.769 35.8981 123.226 27.5383 124.045C23.2764 124.045 18.6867 123.717 13.4413 122.735C8.19592 121.752 3.77012 120.605 0.491756 119.131C0.163919 114.381 0 110.123 0 106.52C0 103.408 0.163919 99.8044 0.491756 95.7097C2.45878 94.727 4.91755 94.0718 8.19592 94.0718C9.01552 94.0718 9.99903 94.2356 11.1465 94.3994C12.2939 100.787 13.6052 105.373 14.9166 108.321C16.064 108.976 17.5393 109.468 19.3424 109.795C21.1455 110.123 22.9486 110.287 24.7517 110.287C28.3579 110.287 31.3084 109.632 33.9311 108.321C34.5868 107.339 35.0786 105.865 35.0786 103.899C35.0786 101.934 33.9311 100.46 31.9641 99.1493C29.9971 97.839 26.8826 96.5287 22.7847 94.8908C18.031 93.0891 14.097 91.2875 11.1465 89.6496C8.19592 88.0117 5.57323 85.8825 3.44229 82.9343C1.14743 79.9862 0.163918 76.3828 0.163918 71.7968C0.163918 68.1935 1.14743 64.9177 3.44229 61.8058C5.57323 58.6938 8.35984 56.0732 11.6382 53.7802C17.2114 50.0131 23.1125 47.5563 29.3414 46.5736C40.6518 46.5736 48.8477 47.8839 53.7653 50.1769Z" fill="#1A1417"/>
</svg>
