<svg width="158" height="25" viewBox="0 0 158 25" fill="none" xmlns="http://www.w3.org/2000/svg">
<path d="M135.194 23.7122C134.122 23.1273 133.585 22.1767 133.585 20.8118C133.78 20.6169 134.049 20.4462 134.414 20.2513C134.78 20.0563 135.34 19.7882 136.12 19.4469C134.95 19.1057 134.365 18.4233 134.365 17.3996C134.755 16.9853 135.389 16.3516 136.267 15.4985C135.633 15.1085 135.121 14.6454 134.755 14.0605C134.39 13.4999 134.219 12.8662 134.219 12.135C134.219 10.8189 134.902 9.67334 136.315 8.69841C136.705 8.43031 137.168 8.21095 137.68 8.01597C138.192 7.82098 138.679 7.72349 139.167 7.67474C140.044 7.67474 140.8 7.82098 141.434 8.08908L145.236 7.43101L145.699 8.38156C145.553 9.11275 145.285 9.57584 144.919 9.7952L142.896 9.60022C143.676 10.2339 144.09 11.0382 144.09 11.9888C144.09 12.6712 143.871 13.3049 143.432 13.8899C142.993 14.4748 142.433 14.9867 141.75 15.401C140.849 15.9128 140.02 16.2053 139.289 16.2541C139.045 16.2541 138.777 16.2541 138.484 16.2053C138.192 16.181 137.973 16.1322 137.802 16.0835C137.558 16.2784 137.436 16.4734 137.436 16.7172C137.436 16.9609 137.51 17.1315 137.68 17.229C137.826 17.3265 138.119 17.3752 138.509 17.3996C138.899 17.424 139.581 17.424 140.605 17.424C142.14 17.424 143.359 17.6433 144.261 18.0821C145.138 18.5208 145.601 19.3251 145.601 20.495C145.601 21.3237 145.26 22.0549 144.602 22.6398C143.92 23.2248 143.115 23.6879 142.165 24.0047C141.214 24.3459 140.312 24.5409 139.435 24.5897C137.68 24.5897 136.267 24.2972 135.194 23.7122ZM140.191 14.0361C140.337 13.7924 140.459 13.4999 140.556 13.1099C140.654 12.72 140.727 12.33 140.727 11.8913C140.727 11.2576 140.581 10.697 140.312 10.2339C140.044 9.7952 139.63 9.55147 139.094 9.55147C138.704 9.55147 138.387 9.64896 138.119 9.7952C137.973 10.0389 137.826 10.3558 137.729 10.7458C137.607 11.1357 137.558 11.5501 137.558 11.94C137.558 12.5981 137.68 13.1587 137.973 13.6218C138.241 14.0849 138.655 14.3042 139.216 14.3042C139.606 14.3042 139.922 14.2311 140.191 14.0361ZM140.776 22.4692C141.239 22.3717 141.58 22.2499 141.824 22.1036C142.043 21.7868 142.165 21.4212 142.165 21.0068C142.165 20.5194 141.97 20.2025 141.58 20.0563C141.19 19.91 140.629 19.8125 139.947 19.8125H137.656C137.485 19.9588 137.339 20.1294 137.241 20.3488C137.144 20.5925 137.095 20.8362 137.095 21.0799C137.095 22.1036 137.875 22.6155 139.484 22.6155C139.874 22.6155 140.312 22.5667 140.776 22.4692Z" fill="white"/>
<path d="M130.514 8.6496C131.147 9.30768 131.489 10.2339 131.489 11.4038V14.6454C131.489 15.8397 131.537 16.6927 131.659 17.1802C131.903 17.2533 132.171 17.3508 132.464 17.4483C132.756 17.5458 132.951 17.6433 133.073 17.7408L132.902 18.9351H126.882L126.736 17.7408C126.906 17.5945 127.223 17.3995 127.686 17.2046C127.784 17.0827 127.833 16.8877 127.881 16.6196C127.93 16.2784 127.955 15.6203 127.955 14.6454V12.0131C127.955 11.3794 127.833 10.9407 127.613 10.7213C127.394 10.5751 127.101 10.4776 126.736 10.4776C126.346 10.5751 125.712 10.8432 124.786 11.2575V14.4017C124.786 15.8153 124.81 16.7415 124.908 17.2046C125.42 17.3995 125.785 17.5945 126.005 17.7408L125.858 18.9351H119.838L119.643 17.7408C119.79 17.6433 119.985 17.5214 120.253 17.4239C120.521 17.3264 120.716 17.2533 120.838 17.2046C120.959 17.0827 121.057 16.8877 121.13 16.644C121.203 16.3271 121.252 15.6691 121.252 14.6454V12.6468C121.252 11.4769 121.203 10.7213 121.106 10.3557C120.423 10.2339 119.863 10.0632 119.448 9.86826L119.57 8.55211L123.811 7.67468L124.737 8.25963L124.567 9.55141C125.03 9.21018 125.59 8.82021 126.273 8.40587C126.931 8.0159 127.418 7.77217 127.76 7.67468C128.929 7.67468 129.856 8.0159 130.514 8.6496Z" fill="white"/>
<path d="M112.031 17.7408C112.178 17.5945 112.421 17.4726 112.714 17.3752L113.226 17.2045C113.372 17.0827 113.494 16.8389 113.542 16.4734C113.591 15.9128 113.64 15.1328 113.64 14.1335V12.598C113.64 11.5256 113.591 10.7457 113.518 10.307C113.226 10.2826 112.933 10.2095 112.592 10.112C112.251 10.0145 111.983 9.91699 111.836 9.8195L111.934 8.55209L116.321 7.67466L117.369 8.40586C117.174 9.11268 117.076 10.4288 117.076 12.3299V14.6941C117.076 15.864 117.125 16.6927 117.247 17.1802C117.466 17.2289 117.71 17.302 118.003 17.3995C118.271 17.5214 118.49 17.6433 118.636 17.7408L118.466 18.935H112.226L112.031 17.7408Z" fill="white"/>
<path d="M102.345 1.89811L103.32 2.65368C103.051 3.6286 102.93 5.35909 102.93 7.8939V12.9148L105.123 10.8187C105.537 10.4287 105.879 10.0875 106.122 9.795C105.586 9.64876 105.172 9.47815 104.904 9.30754L105.196 8.01576H110.436L110.705 9.30754C110.412 9.50252 109.9 9.64876 109.169 9.77062L106.634 12.1592L108.682 15.4983C109.169 16.327 109.583 16.9119 109.949 17.2044C110.071 17.2775 110.266 17.3507 110.534 17.4482C110.802 17.5456 111.046 17.6431 111.265 17.765L111.095 18.9349H106.707C106.439 18.3743 106.049 17.6431 105.513 16.7657L104.148 14.5234L102.93 15.6689C102.93 16.3026 102.954 16.8144 103.051 17.18C103.515 17.3507 103.88 17.5213 104.124 17.6919L103.978 18.9349H98.0549L97.8599 17.7406C98.0306 17.5944 98.4205 17.4238 99.0542 17.2044C99.1761 17.0826 99.2736 16.8144 99.3467 16.4245C99.4198 15.8395 99.4686 14.9377 99.4686 13.6947V6.48026C99.4686 5.45659 99.4442 4.74977 99.3954 4.38417C99.0542 4.3598 98.6886 4.28668 98.2743 4.18918C97.8599 4.09169 97.5675 3.96983 97.3725 3.84796L97.5431 2.53181L102.345 1.89811Z" fill="white"/>
<path d="M94.7396 8.6496C95.3733 9.30768 95.7145 10.2339 95.7145 11.4038V14.6454C95.7145 15.8397 95.7633 16.6927 95.8851 17.1802C96.1289 17.2533 96.397 17.3508 96.6895 17.4483C96.9819 17.5458 97.1769 17.6433 97.2988 17.7408L97.1282 18.9351H91.108L90.9618 17.7408C91.1324 17.5945 91.4492 17.3995 91.9123 17.2046C92.0098 17.0827 92.0586 16.8877 92.1073 16.6196C92.1561 16.2784 92.1804 15.6203 92.1804 14.6454V12.0131C92.1804 11.3794 92.0586 10.9407 91.8392 10.7213C91.6199 10.5751 91.3274 10.4776 90.9618 10.4776C90.5718 10.5751 89.9381 10.8432 89.0119 11.2575V14.4017C89.0119 15.8153 89.0363 16.7415 89.1338 17.2046C89.6456 17.3995 90.0112 17.5945 90.2306 17.7408L90.0844 18.9351H84.0642L83.8692 17.7408C84.0155 17.6433 84.2104 17.5214 84.4785 17.4239C84.7466 17.3264 84.9416 17.2533 85.0635 17.2046C85.1854 17.0827 85.2829 16.8877 85.356 16.644C85.4291 16.3271 85.4778 15.6691 85.4778 14.6454V12.6468C85.4778 11.4769 85.4291 10.7213 85.3316 10.3557C84.6491 10.2339 84.0886 10.0632 83.6742 9.86826L83.7961 8.55211L88.037 7.67468L88.9632 8.25963L88.7926 9.55141C89.2557 9.21018 89.8163 8.82021 90.4987 8.40587C91.1568 8.0159 91.6442 7.77217 91.9855 7.67468C93.1554 7.67468 94.0816 8.0159 94.7396 8.6496Z" fill="white"/>
<path d="M76.2572 17.7408C76.4034 17.5945 76.6471 17.4726 76.9396 17.3752L77.4514 17.2045C77.5977 17.0827 77.7195 16.8389 77.7683 16.4734C77.817 15.9128 77.8658 15.1328 77.8658 14.1335V12.598C77.8658 11.5256 77.817 10.7457 77.7439 10.307C77.4514 10.2826 77.159 10.2095 76.8177 10.112C76.4765 10.0145 76.2084 9.91699 76.0622 9.8195L76.1597 8.55209L80.5468 7.67466L81.5949 8.40586C81.3999 9.11268 81.3024 10.4288 81.3024 12.3299V14.6941C81.3024 15.864 81.3511 16.6927 81.473 17.1802C81.6924 17.2289 81.9361 17.302 82.2286 17.3995C82.4967 17.5214 82.716 17.6433 82.8623 17.7408L82.6917 18.935H76.4521L76.2572 17.7408Z" fill="white"/>
<path d="M78.6292 1.12038C79.1909 0.74682 79.9161 0.74682 80.4777 1.12038C80.7976 1.33316 81.1357 1.5822 81.3756 1.82215C81.6156 2.0621 81.8646 2.40019 82.0774 2.72008C82.4509 3.28169 82.4509 4.00691 82.0774 4.56852C81.8646 4.88841 81.6156 5.22649 81.3756 5.46644C81.1357 5.70639 80.7976 5.95543 80.4777 6.16821C79.9161 6.54178 79.1909 6.54178 78.6292 6.16821C78.3094 5.95543 77.9713 5.70639 77.7313 5.46644C77.4914 5.22649 77.2423 4.88841 77.0295 4.56852C76.656 4.00691 76.656 3.28169 77.0295 2.72008C77.2423 2.40019 77.4914 2.0621 77.7313 1.82215C77.9713 1.5822 78.3094 1.33316 78.6292 1.12038Z" fill="white"/>
<path d="M114.629 1.12038C115.191 0.74682 115.916 0.74682 116.478 1.12038C116.798 1.33316 117.136 1.5822 117.376 1.82215C117.616 2.0621 117.865 2.40019 118.077 2.72008C118.451 3.28169 118.451 4.00691 118.077 4.56852C117.865 4.88841 117.616 5.22649 117.376 5.46644C117.136 5.70639 116.798 5.95543 116.478 6.16821C115.916 6.54178 115.191 6.54178 114.629 6.16821C114.309 5.95543 113.971 5.70639 113.731 5.46644C113.491 5.22649 113.242 4.88841 113.03 4.56852C112.656 4.00691 112.656 3.28169 113.03 2.72008C113.242 2.40019 113.491 2.0621 113.731 1.82215C113.971 1.5822 114.309 1.33316 114.629 1.12038Z" fill="white"/>
<path d="M61.9197 17.7406C62.0415 17.6431 62.2365 17.5213 62.529 17.4238C62.7971 17.3263 62.9921 17.2532 63.0896 17.2044C63.2358 17.0826 63.3577 16.8388 63.4064 16.4732C63.4552 16.0101 63.5039 15.2058 63.5039 14.0847V6.48026C63.5039 5.45659 63.4796 4.74977 63.4308 4.38417C63.114 4.3598 62.7484 4.28668 62.334 4.16481C61.8953 4.06732 61.6028 3.94545 61.4078 3.84796L61.5785 2.53181L66.38 1.89811L67.3549 2.65368C67.1843 3.23863 67.0868 3.96983 67.038 4.82288C66.9893 5.70032 66.9649 6.72399 66.9649 7.8939V9.4294C68.4517 8.40573 69.451 7.82078 69.9628 7.67454C71.1327 7.67454 72.0589 8.01576 72.717 8.64946C73.375 9.30754 73.7163 10.2337 73.7163 11.4036V14.6452C73.7163 15.8152 73.765 16.6438 73.8625 17.18C74.1062 17.2288 74.3743 17.3263 74.6668 17.4238C74.9349 17.5213 75.1543 17.6431 75.3005 17.7406L75.1299 18.9349H69.1097L68.9635 17.7406C69.1098 17.5944 69.4266 17.4238 69.8897 17.2044C69.9872 17.1069 70.0603 16.8632 70.1334 16.4732C70.1578 16.2295 70.1822 15.6202 70.1822 14.6209V12.0129C70.1822 11.3792 70.0603 10.9405 69.8166 10.7455C69.6216 10.5749 69.3535 10.4774 68.9635 10.4774C68.5004 10.5993 67.8424 10.8674 66.9649 11.2574V14.4015C66.9649 15.8152 66.9893 16.7413 67.0868 17.2044C67.5742 17.3994 67.9398 17.57 68.2079 17.7406L68.0373 18.9349H62.0903L61.9197 17.7406Z" fill="white"/>
<path d="M57.9397 4.87159V8.01572H60.7914L61.0107 9.30749L60.6695 9.96556H57.9397V14.7914C57.9397 15.6201 57.9885 16.1563 58.1347 16.4001C58.281 16.7169 58.6466 16.8632 59.1828 16.8632C59.5484 16.8632 60.0846 16.7657 60.767 16.5219L61.2788 17.9112C60.6451 18.2037 59.9627 18.4962 59.2559 18.7643C58.5247 19.0324 57.9885 19.1786 57.5985 19.203C56.8917 19.203 56.3311 19.1298 55.8924 18.9349C55.4537 18.7643 55.1368 18.4718 54.8931 18.0818C54.6981 17.8137 54.5519 17.4725 54.4788 17.0581C54.4056 16.6438 54.3813 16.1076 54.3813 15.4739V12.1104C54.3813 11.0624 54.3325 10.3555 54.2594 9.96556H52.6995L52.4314 8.43006L54.6006 7.74761C54.7956 7.50388 54.9906 7.13829 55.1856 6.65082C55.3806 6.18773 55.5512 5.6759 55.6974 5.13969L57.9397 4.87159Z" fill="white"/>
<path d="M42.4301 17.7406C42.5763 17.6431 42.7713 17.5213 43.0394 17.4238C43.3075 17.3263 43.5025 17.2532 43.6243 17.2044C43.7706 17.0826 43.8924 16.8388 43.9412 16.4732C43.9899 15.8883 44.0387 14.5721 44.0387 12.5004C44.0387 11.4036 43.9899 10.6968 43.8924 10.3556C43.1613 10.2337 42.625 10.0631 42.2351 9.86812L42.3569 8.55197L46.5735 7.67454L47.5728 8.25949L47.3534 10.4774C48.0359 9.64876 48.5721 8.99069 48.9864 8.50322C49.2596 8.1818 50.3996 7.5179 50.6309 7.5179C50.9728 7.5179 51.9641 7.85956 52.1422 7.97244C52.4916 8.19401 52.6205 8.66688 52.8168 9.1343C52.768 9.64613 53.5175 9.96341 52.745 9.96341C51.3838 9.96341 50.3347 10.055 49.0108 10.9649C48.8402 11.0624 48.5721 11.3061 48.2065 11.7205C47.8165 12.1348 47.5972 12.3785 47.524 12.4517V14.889C47.524 15.8395 47.5484 16.6195 47.6459 17.2044C48.0115 17.2532 48.4502 17.3263 48.9864 17.4238C49.4983 17.5213 49.8639 17.6431 50.0588 17.7406L49.8639 18.9349H42.625L42.4301 17.7406Z" fill="white"/>
<path d="M39.155 8.60086C39.8131 9.23456 40.1543 10.1607 40.1543 11.3794V14.2798C40.1543 15.8153 40.2518 16.7658 40.4468 17.1558H41.568L41.7873 18.2526C41.3486 18.4963 40.7393 18.6913 40.0081 18.8863C39.2525 19.0813 38.5945 19.1788 38.0095 19.2032C37.717 18.9594 37.3758 18.472 37.0346 17.7164L36.5715 17.9845C35.5478 18.6182 34.7679 19.0325 34.2804 19.2032C33.2324 19.2032 32.4281 19.0325 31.8919 18.6913C31.5263 18.472 31.2338 18.1795 31.0388 17.8139C30.8438 17.4483 30.7463 17.0096 30.7463 16.4977C30.7463 16.0103 30.8682 15.5228 31.1119 15.0354C31.3557 14.5479 31.6725 14.2067 32.0625 13.9629C32.4524 13.8167 33.0861 13.6217 33.9148 13.378C34.7435 13.1586 35.5478 12.9393 36.3278 12.7443L36.8152 12.6224V11.3306C36.8152 10.7701 36.7177 10.3557 36.5471 10.112C36.3765 9.86826 36.0353 9.72202 35.5478 9.72202C35.3772 9.72202 35.2066 9.77076 35.0116 9.81951C34.8166 9.86826 34.646 9.94138 34.5485 9.99012C34.3535 10.3313 34.2317 10.9407 34.2073 11.7694C33.9636 11.9156 33.598 12.0618 33.1593 12.1837C32.6962 12.3299 32.2818 12.4031 31.9162 12.4031L31.2094 11.55C31.2094 11.2088 31.2825 10.7944 31.4044 10.307C31.5019 9.81951 31.6238 9.45391 31.77 9.18581C32.2575 8.99082 33.013 8.69835 34.0854 8.33275C35.1335 7.99153 35.8647 7.77217 36.3034 7.67468C37.5464 7.67468 38.497 7.99153 39.155 8.60086ZM36.8152 14.0117C35.6941 14.3529 34.9385 14.621 34.5485 14.7916C34.3048 15.1328 34.2073 15.5228 34.2073 15.9615C34.2073 16.3271 34.2804 16.5952 34.4754 16.7902C34.646 16.9852 34.9141 17.1071 35.2553 17.1071C35.5478 17.0096 36.084 16.7902 36.8152 16.4246V14.0117Z" fill="white"/>
<path d="M14.0841 7.67468L15.0346 8.25963L14.8396 9.55141C15.2783 9.21018 15.8389 8.82021 16.497 8.3815C17.1551 7.96716 17.6182 7.72342 17.9106 7.67468C18.7881 7.67468 19.4949 7.84529 20.0311 8.16214C20.5673 8.50336 20.9816 8.96645 21.2741 9.57578C21.9809 9.06394 22.5903 8.62523 23.1265 8.28401C23.6627 7.94278 24.077 7.7478 24.3939 7.67468C25.6369 7.67468 26.5875 7.99153 27.2699 8.62523C27.9524 9.25893 28.2936 10.1851 28.2936 11.4038V14.6454C28.2936 15.7665 28.3423 16.6196 28.4398 17.1802C29.1223 17.3508 29.5854 17.5458 29.8778 17.7408L29.7072 18.9351H23.7114L23.5652 17.7408C23.7602 17.5702 24.077 17.3995 24.5157 17.2046C24.6132 17.0583 24.662 16.8877 24.6864 16.6927C24.7595 16.3515 24.8082 15.6691 24.8082 14.6454V12.135C24.8082 11.4281 24.662 10.965 24.3939 10.7213C24.1745 10.5507 23.882 10.4532 23.4921 10.4532C23.1996 10.502 22.5659 10.7701 21.6153 11.2332C21.6397 11.6231 21.6641 11.9887 21.6641 12.3299V14.6454C21.6641 15.864 21.6885 16.7171 21.786 17.2046C22.2734 17.3752 22.639 17.5458 22.8827 17.7408L22.7365 18.9351H17.1551L17.0088 17.7408C17.1794 17.5945 17.4963 17.4239 17.9594 17.2046C18.0325 17.0583 18.1056 16.9121 18.1544 16.7171C18.2031 16.3759 18.2519 15.6691 18.2519 14.6454V12.135C18.2519 11.4769 18.13 11.0138 17.9106 10.7701C17.6669 10.5751 17.3257 10.4532 16.9113 10.4532C16.7407 10.502 16.4726 10.5994 16.0827 10.7701C15.6927 10.9407 15.3271 11.1113 15.0346 11.2575V14.4017C15.0346 15.8153 15.059 16.7415 15.1565 17.2046C15.5708 17.3508 15.9364 17.5458 16.2533 17.7408L16.107 18.9351H10.1356L9.94063 17.7408C10.0869 17.6433 10.2819 17.5214 10.55 17.4239C10.8181 17.3264 11.013 17.2533 11.1349 17.2046C11.2324 17.1071 11.3299 16.9121 11.4274 16.6196C11.5005 16.3028 11.5493 15.6447 11.5493 14.6454V12.8661C11.5493 11.6719 11.5005 10.8432 11.403 10.3557C10.6718 10.2095 10.1112 10.0632 9.74565 9.86826L9.86751 8.55211L14.0841 7.67468Z" fill="white"/>
<path d="M7.99438 8.21089L8.50621 9.11269C8.45746 9.45391 8.38435 9.917 8.23811 10.502C8.09187 11.0869 7.97 11.55 7.87251 11.8669C7.62878 11.9643 7.3363 11.9887 6.99508 11.9887C6.84884 11.9887 6.67823 11.9887 6.48324 11.94C6.38575 11.0382 6.26389 10.3557 6.14202 9.917C5.8008 9.77076 5.36208 9.69765 4.82587 9.69765C4.26529 9.69765 3.8022 9.81951 3.43661 10.0145C3.29037 10.1607 3.24162 10.3801 3.24162 10.6482C3.24162 10.965 3.38786 11.2088 3.70471 11.4038C3.99719 11.5987 4.50902 11.8181 5.19147 12.0618C5.89829 12.3299 6.48324 12.5737 6.94633 12.8174C7.40942 13.0611 7.82376 13.4267 8.16499 13.8654C8.50621 14.3042 8.67682 14.8647 8.67682 15.5472C8.67682 16.6196 8.21373 17.4483 7.31193 18.082C6.41012 18.7157 5.33771 19.0813 4.09468 19.2032C3.46098 19.2032 2.77853 19.1544 1.99859 19.0082C1.21865 18.8619 0.560581 18.6913 0.0731194 18.472C0.0243732 17.7651 0 17.1314 0 16.5952C0 16.1321 0.0243732 15.5959 0.0731194 14.9866C0.365596 14.8404 0.731193 14.7429 1.21865 14.7429C1.34052 14.7429 1.48676 14.7673 1.65737 14.7916C1.82798 15.7422 2.02297 16.4246 2.21795 16.8633C2.38856 16.9608 2.60792 17.0339 2.87603 17.0827C3.14413 17.1314 3.41223 17.1558 3.68034 17.1558C4.21655 17.1558 4.65526 17.0583 5.04523 16.8633C5.14272 16.7171 5.21584 16.4977 5.21584 16.2053C5.21584 15.9128 5.04523 15.6934 4.75275 15.4984C4.46028 15.3035 3.99719 15.1085 3.38786 14.8647C2.68104 14.5966 2.09609 14.3285 1.65737 14.0848C1.21865 13.8411 0.828685 13.5242 0.511835 13.0855C0.170612 12.6468 0.0243731 12.1106 0.0243731 11.4281C0.0243731 10.8919 0.170612 10.4045 0.511835 9.94138C0.828685 9.47829 1.24303 9.08832 1.73049 8.74709C2.55918 8.18651 3.43661 7.82092 4.36278 7.67468C6.04453 7.67468 7.26318 7.86966 7.99438 8.21089Z" fill="white"/>
<path d="M150.796 23.1131C151.02 23.349 151.144 23.6097 151.144 23.8828C151.144 24.1559 151.02 24.4166 150.784 24.6524C150.548 24.8759 150.287 25 150.014 25C149.84 25 149.679 24.938 149.505 24.8262C149.331 24.7145 149.182 24.5655 149.071 24.3918C148.959 24.218 148.909 24.0318 148.909 23.858C148.909 23.6842 148.959 23.5104 149.083 23.3366C149.195 23.1628 149.344 23.0262 149.518 22.9269C149.691 22.8152 149.865 22.7655 150.039 22.7655C150.312 22.7655 150.573 22.8773 150.796 23.1131Z" fill="white"/>
<path d="M153.266 19.2536C152.956 19.1419 152.472 19.0923 151.826 19.0923C151.255 19.0923 150.858 19.1916 150.61 19.3902C150.362 19.5888 150.237 19.8743 150.237 20.2716C150.237 20.4578 150.262 20.644 150.312 20.8426C150.362 21.0288 150.461 21.2771 150.585 21.575L149.567 21.8854C149.356 21.513 149.207 21.153 149.108 20.8178C149.008 20.4826 148.971 20.135 148.971 19.7874C148.971 19.2661 149.071 18.8068 149.282 18.4095C149.493 18.0123 149.803 17.6895 150.213 17.4661C150.61 17.2302 151.106 17.1185 151.69 17.1185C152.199 17.1185 152.695 17.255 153.192 17.5281C153.676 17.8012 154.073 18.1736 154.384 18.633C154.682 19.0799 154.843 19.564 154.843 20.073C154.843 20.6688 154.706 21.2895 154.446 21.935L152.993 21.4385C153.291 20.9295 153.49 20.5819 153.589 20.3833C153.688 20.1847 153.738 20.0109 153.738 19.8743C153.738 19.5764 153.577 19.3654 153.266 19.2536Z" fill="white"/>
<path d="M153.85 12.8217L154.135 13.1817C154.582 13.7279 154.818 14.0507 154.843 14.15C154.893 15.4534 154.322 16.1114 153.155 16.1114H150.796L149.741 16.1859L149.108 16.2355V14.1127C150.064 14.1872 150.622 14.2245 150.796 14.2245H152.435C152.72 14.2245 152.931 14.1748 153.055 14.1003C153.18 14.0134 153.229 13.8645 153.229 13.641L152.82 12.7472H150.796L150.014 12.7969L149.108 12.859V10.7486L150.014 10.8107L150.796 10.8603H152.621C152.745 10.8603 153.366 10.8231 154.495 10.7486L154.88 12.7721L153.85 12.7224V12.8217Z" fill="white"/>
<path d="M157.288 7.51265C157.462 7.63679 157.611 7.78576 157.735 7.97196C157.847 8.15817 157.909 8.34438 157.909 8.53058C157.909 8.70438 157.847 8.89058 157.723 9.07679C157.599 9.25058 157.45 9.39955 157.276 9.52369C157.09 9.63541 156.916 9.69748 156.755 9.69748C156.593 9.69748 156.432 9.63541 156.258 9.51127C156.084 9.38714 155.935 9.23817 155.811 9.05196C155.687 8.86576 155.637 8.67955 155.637 8.50576C155.637 8.31955 155.7 8.13334 155.824 7.95955C155.948 7.77334 156.097 7.62438 156.271 7.51265C156.444 7.38851 156.618 7.33886 156.78 7.33886C156.941 7.33886 157.115 7.38852 157.288 7.51265ZM154.88 9.54852C153.428 9.47403 152.621 9.43679 152.472 9.43679H150.796L150.014 9.48645L149.108 9.54852V7.47541L150.014 7.53748L150.796 7.58714H152.621C152.745 7.58714 153.366 7.54989 154.495 7.47541L154.88 9.54852Z" fill="white"/>
</svg>
