<svg width="2164" height="2172" viewBox="0 0 2164 2172" fill="none" xmlns="http://www.w3.org/2000/svg">
<path d="M2163.57 1086.82L2160.3 1125.29L2154.05 1125.96C2153.36 1124.7 2152.53 1122.63 2151.96 1119.99C2151.38 1117.34 2150.98 1115.11 2150.95 1113.11C2143.34 1113.26 2134.25 1114.49 2123.89 1116.6L2047.58 1130.88L2136.01 1166.57L2146.81 1164.09C2146.98 1162.11 2147.78 1159.78 2149.02 1156.89C2150.07 1153.98 2151.04 1151.87 2151.96 1150.55L2157.97 1152.66L2154.54 1192.91L2148.3 1193.57C2147.6 1192.32 2146.98 1190.27 2146.46 1187.03C2145.93 1183.79 2145.56 1181.16 2145.35 1178.94C2136.09 1179.75 2126.97 1181.37 2117.57 1183.77L2041.57 1201.47L2114.57 1228.45C2126.76 1233.08 2135.53 1235.63 2140.65 1236.46C2142.1 1231.19 2143.86 1226.95 2145.75 1223.51L2151.83 1224.83L2148.81 1260.32L2142.33 1261.37C2141.84 1260.13 2141.21 1258.08 2140.64 1255.43C2140.06 1252.79 2139.64 1250.76 2139.57 1249.15C2137.91 1247.61 2135.43 1246.2 2132.33 1245.14C2129.02 1244.06 2127.29 1243.31 2126.89 1243.28L2041.31 1211.64C2040.55 1211.17 2039 1210.64 2036.67 1209.84C2034.36 1208.85 2032.21 1208.27 2030.26 1207.7C2028.31 1207.13 2026.33 1206.97 2023.95 1206.76L2021.79 1192.2L2118.95 1169.91L2047.53 1140.87C2043.66 1139.34 2040.77 1138.09 2038.43 1137.49C2036.1 1136.7 2033.34 1136.26 2029.97 1135.98L2027.86 1120.82L2131.75 1101.69C2142.51 1099.61 2149.43 1098.01 2152.54 1096.67C2152.68 1095.09 2153.46 1092.96 2154.45 1090.64C2155.47 1088.13 2156.63 1086.23 2157.56 1084.72L2163.57 1086.82Z" fill="black"/>
<path d="M2084.5 1327.7C2079.47 1332.9 2073.38 1336.43 2066.24 1338.31C2058.9 1340.14 2051.13 1340.25 2042.78 1338.39C2035.01 1336.66 2028.4 1333.35 2022.73 1328.62C2017.05 1323.9 2012.61 1318.22 2009.54 1311.83C2005.81 1303.86 2004.54 1295.83 2005.49 1287.89C2007.31 1279.73 2010.61 1273.13 2015.65 1267.93C2020.53 1262.49 2026.61 1258.95 2033.95 1257.12C2041.1 1255.24 2048.83 1255.33 2057.37 1257.23C2064.95 1258.92 2071.59 1262.03 2077.27 1266.76C2082.95 1271.49 2087.39 1277.17 2090.6 1283.79C2094.18 1291.52 2095.65 1299.6 2094.65 1307.73C2092.88 1315.7 2089.38 1322.26 2084.5 1327.7ZM2083.65 1287.55C2081.24 1283.75 2077.52 1280.27 2072.56 1276.92C2067.6 1273.58 2061.99 1271.31 2055.97 1269.97C2046.06 1267.76 2037.34 1268.47 2029.8 1272.1C2022.08 1275.68 2017.45 1281.78 2015.47 1290.72C2014.08 1296.94 2014.43 1302.72 2016.5 1308.07C2018.95 1311.68 2022.67 1315.16 2027.63 1318.5C2032.59 1321.85 2037.97 1324.27 2044.18 1325.65C2053.89 1327.81 2062.62 1327.11 2070.34 1323.53C2077.88 1319.9 2082.74 1313.64 2084.68 1304.9C2086.11 1298.49 2085.77 1292.71 2083.65 1287.55Z" fill="black"/>
<path d="M2000.21 1339.77L2001.96 1348.86C2002.56 1350.29 2003.97 1351.78 2006.51 1352.99C2008.1 1353.9 2010.51 1354.86 2013.55 1355.81C2016.59 1356.76 2020.71 1358.25 2026.03 1359.91L2046.17 1366.2C2053.77 1368.57 2059.9 1370.28 2064.2 1371.2C2064.91 1368.92 2066.06 1366.57 2067.46 1364.09C2068.86 1361.61 2070.09 1359.69 2071.07 1358.54L2076.65 1360.7L2074.9 1384.34L2070.11 1387.01L2058.23 1381.64C2064.2 1397.26 2067.02 1406.27 2066.88 1408.72C2065.22 1414.04 2062.21 1418.32 2057.81 1421.74L2052.78 1421.84C2051.17 1420.29 2049.69 1418.37 2048.7 1416.19C2047.59 1413.75 2046.92 1411.88 2046.77 1410.37C2048.82 1409.13 2050.8 1407.46 2052.84 1405.6C2054.75 1403.48 2056.16 1401.63 2056.76 1399.73C2057.23 1398.21 2056.93 1395.82 2055.94 1393.01C2054.81 1389.95 2053.81 1387.14 2052.75 1384.51C2051.56 1381.64 2050.84 1379.95 2050.45 1379.21L2011.31 1366.99C2005.61 1365.22 2001 1363.98 1997.34 1363.68C1996.37 1365.46 1994.72 1368.07 1992.83 1371.44C1990.94 1374.81 1989.41 1377.05 1988.18 1378.33L1983.79 1375.71L1995.11 1339.42L2000.21 1339.77Z" fill="black"/>
<path d="M1973.54 1415.87C1978.95 1412.05 1985.39 1409.94 1992.6 1409.64C1999.62 1409.27 2006.97 1410.74 2014.71 1413.88C2022.28 1416.95 2028.69 1421.27 2033.79 1427.2C2038.72 1433.06 2042.27 1439.66 2044.27 1446.91C2046.3 1454.61 2046.12 1462.48 2043.72 1470.52C2040.35 1478.82 2036.74 1485.09 2033.17 1489.65L2056.22 1499C2063.97 1502.14 2069.39 1504.12 2072.23 1505.06C2073.39 1502.74 2074.88 1500.12 2076.81 1497.47C2078.75 1494.82 2080.38 1492.9 2081.64 1491.91L2086.21 1494.41L2079.41 1519.14L2073.93 1521C2070.14 1518.17 2065.09 1515.26 2058.6 1512.2C2052.11 1509.14 2044.18 1505.93 2034.96 1502.19L1976.13 1478.34C1967.28 1474.75 1960.97 1472.83 1957.23 1473.04L1952.67 1484.29L1948.5 1483.45C1948.15 1480.09 1947.94 1476.36 1947.89 1472.25C1947.83 1468.15 1948.18 1464.64 1948.93 1461.73C1953.15 1460.86 1957.7 1460.77 1962.13 1461.49C1961.28 1454.06 1960.6 1447.78 1960.22 1442.9C1959.84 1438.02 1960 1434.43 1960.9 1432.22C1963.74 1425.21 1967.94 1419.61 1973.54 1415.87ZM1969.03 1448.18C1969.01 1452.47 1969.5 1457.61 1970.06 1463.64L2022.44 1484.87C2027.34 1479.13 2031.33 1473.01 2034.17 1466.01C2037.01 1459 2037.63 1453.24 2036.54 1448.5C2034.79 1444.35 2031.7 1440.31 2027.54 1436.26C2023.39 1432.22 2018.6 1429.2 2013.06 1426.96C2003.84 1423.22 1996.05 1421.78 1989.88 1422.71C1985.11 1423.35 1981.04 1424.92 1977.59 1427.6C1974.03 1430.03 1971.46 1433.71 1969.67 1438.14C1969.14 1440.5 1968.86 1443.82 1969.03 1448.18Z" fill="black"/>
<path d="M1961.21 1622.21C1954.83 1625.63 1947.95 1627.13 1940.58 1626.73C1933.03 1626.23 1925.6 1623.95 1918.22 1619.63C1911.35 1615.61 1906.07 1610.44 1902.11 1604.2C1898.16 1597.96 1895.66 1591.2 1894.7 1584.18C1893.59 1575.45 1894.83 1567.42 1898.17 1560.15C1902.39 1552.93 1907.56 1547.66 1913.94 1544.25C1920.25 1540.56 1927.13 1539.06 1934.68 1539.56C1942.05 1539.96 1949.38 1542.41 1956.94 1546.83C1963.64 1550.75 1969.01 1555.75 1972.97 1561.99C1976.93 1568.23 1979.42 1574.99 1980.45 1582.28C1981.5 1590.74 1980.42 1598.87 1976.98 1606.31C1972.86 1613.35 1967.52 1618.53 1961.21 1622.21ZM1972.69 1583.73C1971.55 1579.37 1969.08 1574.93 1965.38 1570.22C1961.67 1565.52 1957.03 1561.64 1951.7 1558.52C1942.95 1553.39 1934.43 1551.4 1926.15 1552.55C1917.69 1553.59 1911.42 1557.99 1906.8 1565.89C1903.58 1571.39 1902.14 1577 1902.47 1582.73C1903.71 1586.91 1906.18 1591.36 1909.88 1596.06C1913.58 1600.77 1917.96 1604.72 1923.45 1607.94C1932.04 1612.96 1940.56 1614.96 1949.01 1613.91C1957.29 1612.77 1963.83 1608.3 1968.36 1600.57C1971.68 1594.9 1973.12 1589.29 1972.69 1583.73Z" fill="black"/>
<path d="M1898.44 1710.54C1891.89 1711.44 1885.01 1709.39 1877.93 1704.24L1852.18 1685.51C1848.64 1682.93 1843.05 1679.11 1835.42 1674.05C1834.32 1675.22 1832.43 1676.8 1829.91 1678.91C1827.4 1681.01 1825.19 1682.36 1823.37 1683.5L1819.85 1679.21L1842.79 1647.67L1847.4 1649.79C1847.11 1651.55 1846.62 1653.9 1845.75 1656.46C1844.99 1658.86 1844.53 1660.5 1844.39 1661.38C1844.65 1663.05 1845.35 1664.79 1847.05 1666.51C1848.63 1668.4 1852.58 1671.77 1858.85 1676.33L1883.64 1694.36C1889.43 1698.57 1894.86 1699.57 1899.96 1697.62C1903.45 1696.22 1906.55 1693.31 1909.27 1688.89C1910.38 1686.01 1913.05 1677.61 1917.26 1663.7L1884.59 1639.93C1877.83 1635.02 1872.41 1631.32 1867.92 1629.03C1866.82 1630.2 1864.81 1631.94 1862.18 1634.21C1859.38 1636.36 1857.06 1637.87 1855.48 1638.69L1852.04 1634.96L1874.98 1603.41L1879.83 1605.21C1879.69 1607.09 1878.71 1610.8 1877.16 1616.32C1877.22 1617.59 1878.2 1619.29 1879.83 1621.46C1881.52 1623.18 1885.47 1626.55 1891.75 1631.11L1913.47 1646.92C1916.37 1649.02 1921.64 1652.61 1928.95 1657.44C1930.36 1655.51 1932.2 1653.65 1934.32 1651.75C1936.44 1649.84 1938.21 1648.43 1939.52 1647.65L1944.11 1651.48L1934.88 1673.31L1929.48 1674.31L1924.18 1668.73L1922.98 1673.76C1919.53 1687.99 1917.26 1696.18 1916.06 1698.5C1910.91 1705.59 1905 1709.65 1898.44 1710.54Z" fill="black"/>
<path d="M1834.38 1855.66C1831.14 1858.06 1826.78 1861.01 1821.29 1864.53L1814.4 1865.51C1812.71 1863.82 1810.17 1860.73 1806.8 1856.51C1803.42 1852 1800.89 1848.35 1799.06 1845.11C1800.04 1843.28 1801.45 1841.59 1803.42 1840.18C1805.25 1841.73 1807.64 1843.56 1810.74 1846.09C1813.97 1848.49 1816.79 1850.46 1819.32 1852.43C1821.99 1851.16 1824.81 1849.47 1828.04 1847.36C1831.28 1844.97 1834.1 1842.72 1836.49 1840.33C1844.09 1832.73 1847.74 1824.85 1847.32 1817.11C1846.62 1811.9 1844.23 1807.54 1840.43 1803.74C1837.05 1800.36 1833.53 1798.53 1829.59 1798.25C1825.51 1797.83 1821.57 1798.39 1817.35 1799.8C1813.13 1801.21 1808.06 1803.46 1801.87 1806.55C1793.99 1809.93 1787.38 1812.6 1782.17 1814.43C1776.97 1815.98 1771.48 1816.4 1765.57 1815.56C1759.8 1814.57 1754.17 1811.48 1748.82 1806.13C1743.62 1800.93 1740.66 1794.87 1739.68 1787.98C1738.69 1781.08 1739.11 1774.47 1741.08 1768C1743.05 1761.53 1745.59 1756.46 1748.82 1752.66C1757.27 1744.22 1768.38 1736.2 1782.03 1728.74C1783.72 1729.86 1787.1 1732.96 1792.3 1737.6C1797.37 1742.11 1801.45 1745.91 1804.12 1748.86C1803.7 1750.41 1802.43 1752.52 1800.61 1755.19C1797.23 1752.94 1793.43 1750.55 1789.21 1748.3C1784.99 1745.77 1781.75 1744.22 1779.5 1743.37C1776.4 1744.5 1772.74 1746.47 1768.66 1749.14C1764.58 1751.82 1761.21 1754.63 1758.11 1757.73C1752.76 1763.07 1749.53 1769.12 1748.26 1776.02C1748.68 1782.35 1752.34 1789.11 1759.09 1795.86C1762.75 1799.52 1766.69 1801.49 1770.91 1802.05C1775.14 1802.33 1779.22 1801.91 1783.44 1800.5C1787.66 1799.1 1793.01 1796.84 1799.48 1793.75C1806.66 1790.23 1812.57 1787.7 1817.35 1786.29C1822.28 1784.74 1827.2 1784.32 1832.41 1785.02C1837.61 1785.73 1842.4 1788.54 1847.18 1793.33C1850.56 1796.7 1853.09 1800.64 1854.64 1805.29C1856.05 1809.79 1856.47 1814.43 1856.19 1819.22C1855.34 1827.94 1852.11 1836.53 1846.48 1844.97C1841.69 1849.75 1837.61 1853.27 1834.38 1855.66Z" fill="black"/>
<path d="M1767.8 1886.36L1753.22 1869.24L1734.13 1885.49L1729.37 1881.44L1728.95 1877.88L1747.28 1862.27L1711.8 1820.6C1709.22 1817.57 1707 1815.28 1705.26 1814.15C1703.51 1813.02 1701.85 1812.61 1700.28 1812.9C1698.7 1813.2 1696.93 1814.19 1695.11 1815.74C1693.14 1817.41 1690.95 1820.06 1688.82 1823.7C1686.57 1827.19 1685.27 1829.35 1684.77 1830.29L1679.27 1828.44C1680.88 1824.19 1682.79 1819.69 1685.16 1814.8C1687.53 1809.91 1689.61 1806.83 1691.28 1805.41C1694.46 1802.7 1697.55 1801.11 1700.68 1800.8C1703.96 1800.35 1707.01 1801.16 1709.83 1802.94C1711.31 1803.77 1713.04 1805.17 1714.58 1806.99C1716.28 1808.68 1717.57 1810.2 1718.61 1811.41L1721.06 1814.29L1743.25 1840.35C1749.7 1847.92 1754.13 1852.51 1756.37 1854.53L1766.22 1846.14L1771.32 1849.37L1763.51 1862.3C1763.64 1864.28 1764.66 1867.33 1766.18 1871.26C1767.85 1875.07 1769.55 1878.59 1771.26 1881.83L1767.8 1886.36Z" fill="black"/>
<path d="M1670.39 1832.09L1666.46 1840.47C1666.09 1841.98 1666.36 1844.01 1667.71 1846.49C1668.46 1848.16 1669.84 1850.35 1671.74 1852.91C1673.64 1855.46 1676.1 1859.09 1679.43 1863.56L1692.02 1880.48C1696.77 1886.87 1700.73 1891.86 1703.67 1895.13C1705.58 1893.71 1707.9 1892.48 1710.49 1891.3C1713.08 1890.11 1715.19 1889.29 1716.67 1888.93L1719.91 1893.96L1704.6 1912.05L1699.15 1911.4L1692.7 1900.07C1688.35 1916.21 1685.33 1925.16 1683.77 1927.06C1679.3 1930.39 1674.36 1932.08 1668.79 1932.26L1664.66 1929.38C1664.27 1927.19 1664.2 1924.76 1664.68 1922.41C1665.21 1919.79 1665.77 1917.88 1666.54 1916.57C1668.92 1916.78 1671.51 1916.59 1674.26 1916.28C1677.05 1915.69 1679.28 1915.02 1680.87 1913.84C1682.15 1912.89 1683.31 1910.78 1684.16 1907.92C1685.05 1904.78 1685.89 1901.91 1686.58 1899.17C1687.31 1896.15 1687.71 1894.36 1687.83 1893.52L1663.36 1860.64C1659.79 1855.85 1656.78 1852.14 1654 1849.74C1652.17 1850.61 1649.3 1851.75 1645.79 1853.37C1642.28 1854.99 1639.73 1855.9 1637.98 1856.21L1635.97 1851.5L1666.46 1828.81L1670.39 1832.09Z" fill="black"/>
<path d="M1602.29 1879.07C1609.47 1879.25 1615.93 1881.29 1622.23 1885.31C1628.43 1889.17 1633.54 1894.65 1637.89 1901.55C1642.14 1908.28 1644.62 1915.19 1645.26 1922.55C1645.91 1929.91 1645.01 1937.06 1642.57 1944.01C1639.61 1952 1635.59 1958.3 1630.29 1962.59C1621.88 1967.9 1613.66 1969.79 1605.64 1968.26C1597.61 1966.74 1590.89 1962.04 1585.62 1954.07C1584.59 1950.95 1584.24 1947.41 1585 1943.4L1629.46 1912.05C1623.51 1902.62 1616.99 1896.39 1609.61 1893.28C1602.4 1890.06 1594.65 1891.19 1586.57 1896.29C1579.67 1900.64 1573.8 1908.12 1568.95 1918.71L1562.41 1915.06C1564.75 1909.82 1567.83 1903.88 1571.68 1897.68C1575.43 1891.32 1578.85 1887.04 1582.22 1884.92C1588.61 1880.88 1595.29 1878.79 1602.29 1879.07ZM1595.19 1946.86C1598.97 1952.47 1603.68 1955.85 1608.96 1956.75C1614.41 1957.55 1619.57 1956.41 1624.45 1953.33C1629.16 1950.36 1632.8 1946.42 1635.12 1941.89C1635.76 1938.43 1635.63 1934.51 1635.19 1930.08C1634.75 1925.65 1633.8 1921.54 1632.02 1917.96L1595.19 1946.86Z" fill="black"/>
<path d="M1534.42 1919.66C1541.55 1920.44 1547.82 1923.02 1553.76 1927.57C1559.61 1931.93 1564.23 1937.83 1567.99 1945.07C1571.65 1952.14 1573.53 1959.23 1573.55 1966.62C1573.57 1974 1572.07 1981.06 1569.05 1987.78C1565.43 1995.48 1560.89 2001.42 1555.24 2005.24C1546.41 2009.82 1538.06 2011.01 1530.2 2008.81C1522.33 2006.61 1516.03 2001.37 1511.45 1992.98C1510.69 1989.78 1510.64 1986.22 1511.74 1982.29L1558.69 1954.82C1553.56 1944.92 1547.59 1938.16 1540.51 1934.43C1533.6 1930.62 1525.77 1931.09 1517.29 1935.48C1510.05 1939.24 1503.56 1946.19 1497.84 1956.33L1491.63 1952.15C1494.41 1947.12 1497.97 1941.46 1502.34 1935.61C1506.61 1929.59 1510.38 1925.62 1513.92 1923.78C1520.63 1920.3 1527.46 1918.78 1534.42 1919.66ZM1521.6 1986.6C1524.89 1992.51 1529.3 1996.28 1534.48 1997.63C1539.84 1998.88 1545.08 1998.18 1550.21 1995.53C1555.15 1992.96 1559.11 1989.35 1561.8 1985.03C1562.73 1981.64 1562.94 1977.72 1562.88 1973.27C1562.81 1968.82 1562.22 1964.65 1560.74 1960.93L1521.6 1986.6Z" fill="black"/>
<path d="M1501.2 2052.83L1492.28 2032.18L1469.26 2042.12L1465.91 2036.85L1466.55 2033.33L1488.66 2023.78L1466.96 1973.54C1465.38 1969.88 1463.94 1967.04 1462.6 1965.45C1461.27 1963.86 1459.8 1962.98 1458.21 1962.8C1456.61 1962.62 1454.63 1963.04 1452.43 1963.99C1450.06 1965.01 1447.19 1966.9 1444.09 1969.76C1440.91 1972.43 1439.03 1974.11 1438.27 1974.87L1433.56 1971.49C1436.35 1967.9 1439.5 1964.15 1443.2 1960.17C1446.9 1956.19 1449.79 1953.86 1451.8 1952.99C1455.64 1951.33 1459.06 1950.72 1462.15 1951.34C1465.41 1951.88 1468.08 1953.55 1470.26 1956.07C1471.44 1957.3 1472.67 1959.15 1473.62 1961.34C1474.75 1963.46 1475.54 1965.28 1476.17 1966.75L1477.67 1970.22L1491.23 2001.64C1495.18 2010.78 1498.07 2016.46 1499.62 2019.05L1511.49 2013.92L1515.42 2018.51L1504.16 2028.57C1503.7 2030.51 1503.79 2033.72 1504.08 2037.93C1504.57 2042.05 1505.15 2045.92 1505.84 2049.52L1501.2 2052.83Z" fill="black"/>
<path d="M1412.04 1972.92C1415.11 1974.34 1416.86 1976.23 1417.62 1978.29C1418.3 1980.16 1417.82 1982.88 1415.9 1986.34C1414.82 1988.01 1414.04 1989.35 1413.31 1990.25C1412.58 1991.16 1411.6 1991.94 1410.48 1992.35C1408.42 1993.11 1405.63 1992.43 1402.18 1990.52C1399.16 1988.66 1397.22 1986.83 1396.6 1985.15C1395.78 1982.91 1396.52 1980.3 1398.32 1977.1C1400.04 1973.71 1401.87 1971.77 1403.55 1971.15C1405.98 1970.26 1408.7 1970.75 1412.04 1972.92Z" fill="black"/>
<path d="M1414.98 2111.15L1377.43 2120.11L1374.83 2114.39C1375.81 2113.33 1377.51 2111.91 1379.85 2110.53C1382.18 2109.16 1384.17 2108.07 1386.06 2107.41C1383.53 2100.24 1379.51 2091.99 1374.25 2082.81L1336.76 2014.84L1330.62 2110L1336.36 2119.48C1338.29 2119.01 1340.75 2119.04 1343.89 2119.32C1346.98 2119.4 1349.29 2119.66 1350.83 2120.11L1350.71 2126.48L1311.42 2135.86L1308.83 2130.14C1309.8 2129.09 1311.55 2127.85 1314.47 2126.34C1317.38 2124.82 1319.76 2123.64 1321.79 2122.75C1318.12 2114.21 1313.72 2106.06 1308.5 2097.89L1267.85 2031.28L1265.13 2109.06C1264.56 2122.08 1264.89 2131.21 1265.71 2136.33C1271.16 2136.06 1275.74 2136.39 1279.6 2137.11L1280.26 2143.3L1245.61 2151.56L1242.58 2145.74C1243.6 2144.88 1245.35 2143.65 1247.69 2142.27C1250.02 2140.9 1251.81 2139.85 1253.32 2139.29C1254.26 2137.23 1254.82 2134.43 1254.85 2131.15C1254.84 2127.67 1255.01 2125.79 1254.91 2125.41L1258.11 2034.22C1258.32 2033.35 1258.33 2031.71 1258.36 2029.25C1258.58 2026.74 1258.46 2024.52 1258.38 2022.49C1258.31 2020.46 1257.85 2018.53 1257.29 2016.2L1270.44 2009.59L1322.09 2094.85L1327.26 2017.92C1327.5 2013.77 1327.78 2010.64 1327.61 2008.22C1327.63 2005.76 1327.18 2003 1326.4 1999.71L1340.13 1992.96L1390.88 2085.6C1396.23 2095.16 1399.93 2101.24 1402.17 2103.77C1403.72 2103.4 1405.99 2103.47 1408.49 2103.69C1411.19 2103.87 1413.36 2104.37 1415.09 2104.78L1414.98 2111.15Z" fill="black"/>
<path d="M1161.55 2111.4C1155.04 2108.25 1149.77 2103.58 1145.74 2097.39C1141.7 2090.99 1139.16 2083.65 1138.3 2075.13C1137.51 2067.21 1138.57 2059.91 1141.28 2053.03C1143.99 2046.16 1147.99 2040.16 1153.09 2035.25C1159.49 2029.2 1166.71 2025.48 1174.55 2023.89C1182.87 2023.05 1190.17 2024.12 1196.69 2027.26C1203.39 2030.19 1208.66 2034.86 1212.7 2041.25C1216.72 2047.45 1219.06 2054.81 1219.94 2063.52C1220.72 2071.25 1219.85 2078.53 1217.14 2085.4C1214.43 2092.28 1210.43 2098.28 1205.15 2103.41C1198.94 2109.24 1191.73 2113.16 1183.69 2114.77C1175.57 2115.59 1168.25 2114.32 1161.55 2111.4ZM1199.4 2097.99C1202.25 2094.5 1204.39 2089.89 1206.01 2084.12C1207.63 2078.36 1208.02 2072.32 1207.41 2066.18C1206.39 2056.09 1202.98 2048.03 1197.17 2042.01C1191.35 2035.8 1184.1 2033.33 1174.99 2034.24C1168.66 2034.88 1163.27 2037.02 1158.84 2040.67C1156.19 2044.13 1154.05 2048.75 1152.43 2054.51C1150.81 2060.28 1150.2 2066.14 1150.84 2072.47C1151.83 2082.37 1155.24 2090.43 1161.07 2096.64C1166.87 2102.66 1174.34 2105.31 1183.25 2104.41C1189.78 2103.76 1195.17 2101.62 1199.4 2097.99Z" fill="black"/>
<path d="M1124 2035L1115.92 2039.54C1114.75 2040.55 1113.79 2042.36 1113.44 2045.16C1113.08 2046.96 1112.93 2049.55 1112.99 2052.73C1113.06 2055.91 1112.94 2060.29 1113.05 2065.87L1113.46 2086.96C1113.61 2094.91 1113.93 2101.28 1114.41 2105.65C1116.8 2105.6 1119.4 2105.95 1122.19 2106.49C1124.99 2107.03 1127.19 2107.59 1128.59 2108.16L1128.31 2114.14L1105.33 2119.95L1101.28 2116.25L1102.62 2103.29C1089.69 2113.89 1082.04 2119.41 1079.66 2120.05C1074.09 2120.16 1069.09 2118.66 1064.45 2115.57L1062.76 2110.82C1063.72 2108.81 1065.07 2106.8 1066.83 2105.17C1068.79 2103.34 1070.36 2102.12 1071.74 2101.49C1073.56 2103.05 1075.78 2104.4 1078.19 2105.75C1080.8 2106.89 1083 2107.65 1084.99 2107.61C1086.59 2107.58 1088.75 2106.54 1091.11 2104.7C1093.66 2102.66 1096.01 2100.83 1098.16 2098.99C1100.51 2096.96 1101.88 2095.74 1102.47 2095.13L1101.68 2054.14C1101.56 2048.17 1101.27 2043.4 1100.4 2039.84C1098.41 2039.48 1095.41 2038.74 1091.61 2038.02C1087.82 2037.29 1085.21 2036.55 1083.61 2035.78L1084.71 2030.78L1122.71 2030.05L1124 2035Z" fill="black"/>
<path d="M1038.51 2033.41C1043.83 2037.35 1047.86 2042.8 1050.41 2049.55C1052.97 2056.1 1053.88 2063.54 1053.33 2071.88C1052.8 2080.02 1050.71 2087.46 1046.68 2094.17C1042.66 2100.69 1037.52 2106.14 1031.26 2110.31C1024.59 2114.66 1017.06 2116.96 1008.67 2117.2C999.737 2116.62 992.653 2115.16 987.198 2113.2L985.567 2138.02C985.019 2146.36 984.84 2152.13 984.843 2155.13C987.411 2155.49 990.364 2156.09 993.489 2157.09C996.614 2158.09 998.944 2159.04 1000.28 2159.93L999.347 2165.05L973.734 2166.36L970.249 2161.75C971.74 2157.26 972.912 2151.55 973.779 2144.43C974.646 2137.31 975.207 2128.77 975.859 2118.84L980.019 2055.49C980.645 2045.96 980.48 2039.37 979.113 2035.89L967 2035.09L966.48 2030.87C969.563 2029.48 973.043 2028.11 976.92 2026.77C980.797 2025.43 984.238 2024.66 987.243 2024.46C989.391 2028.19 990.904 2032.48 991.61 2036.91C998.398 2033.77 1004.15 2031.15 1008.67 2029.26C1013.18 2027.36 1016.63 2026.39 1019.01 2026.55C1026.56 2027.04 1033.19 2029.27 1038.51 2033.41ZM1006.41 2039.28C1002.34 2040.61 997.612 2042.69 992.068 2045.12L988.364 2101.51C995.356 2104.36 1002.41 2106.22 1009.96 2106.72C1017.51 2107.21 1023.17 2105.99 1027.32 2103.47C1030.71 2100.5 1033.58 2096.3 1036.11 2091.09C1038.65 2085.87 1040.01 2080.37 1040.4 2074.42C1041.05 2064.49 1039.97 2056.64 1037.15 2051.07C1035.04 2046.74 1032.27 2043.37 1028.64 2040.94C1025.22 2038.32 1020.92 2037.04 1016.15 2036.73C1013.74 2036.97 1010.5 2037.75 1006.41 2039.28Z" fill="black"/>
<path d="M839.017 2086.22C833.778 2081.23 830.194 2075.17 828.264 2068.03C826.376 2060.71 826.212 2052.94 828.007 2044.57C829.677 2036.79 832.931 2030.16 837.617 2024.45C842.302 2018.74 847.947 2014.25 854.313 2011.14C862.25 2007.35 870.27 2006.02 878.22 2006.91C886.392 2008.66 893.021 2011.92 898.259 2016.91C903.734 2021.75 907.318 2027.81 909.206 2035.13C911.136 2042.26 911.106 2049.99 909.269 2058.55C907.641 2066.14 904.581 2072.81 899.896 2078.52C895.21 2084.23 889.566 2088.72 882.963 2091.98C875.262 2095.62 867.2 2097.15 859.056 2096.22C851.078 2094.5 844.491 2091.06 839.017 2086.22ZM879.157 2085.06C882.938 2082.62 886.386 2078.88 889.695 2073.89C893.005 2068.9 895.23 2063.27 896.524 2057.24C898.654 2047.32 897.878 2038.6 894.197 2031.1C890.558 2023.4 884.416 2018.82 875.465 2016.9C869.239 2015.56 863.457 2015.95 858.119 2018.06C854.533 2020.55 851.085 2024.29 847.776 2029.28C844.466 2034.27 842.088 2039.66 840.752 2045.88C838.664 2055.61 839.44 2064.33 843.079 2072.03C846.76 2079.53 853.055 2084.35 861.811 2086.22C868.232 2087.6 874.014 2087.21 879.157 2085.06Z" fill="black"/>
<path d="M735.311 2053.96C732.432 2048.01 732.25 2040.84 734.952 2032.51L744.781 2002.22C746.133 1998.06 748.032 1991.56 750.479 1982.73C749.026 1982.05 746.939 1980.75 744.156 1979.01C741.374 1977.27 739.409 1975.58 737.762 1974.21L740.746 1969.53L777.845 1981.57L777.256 1986.61C775.496 1986.88 773.106 1987.15 770.4 1987.11C767.883 1987.12 766.184 1987.2 765.304 1987.33C763.8 1988.1 762.362 1989.31 761.247 1991.46C759.942 1993.54 757.966 1998.34 755.57 2005.72L746.11 2034.87C743.899 2041.69 744.634 2047.16 748.066 2051.41C750.48 2054.28 754.21 2056.33 759.254 2057.55C762.339 2057.71 771.149 2057.65 785.683 2057.34L798.154 2018.92C800.734 2010.97 802.571 2004.66 803.35 1999.68C801.897 1999 799.621 1997.63 796.649 1995.83C793.738 1993.84 791.585 1992.1 790.316 1990.85L792.798 1986.42L829.897 1998.46L829.687 2003.63C827.865 2004.08 824.028 2004.3 818.303 2004.53C817.111 2004.98 815.801 2006.44 814.245 2008.66C813.13 2010.81 811.154 2015.6 808.758 2022.99L800.465 2048.54C799.36 2051.95 797.583 2058.06 795.259 2066.52C797.53 2067.25 799.868 2068.43 802.334 2069.86C804.799 2071.29 806.697 2072.53 807.838 2073.53L805.616 2079.08L782.001 2077.07L779.383 2072.24L783.042 2065.48L777.885 2065.9C763.294 2067.02 754.801 2067.4 752.217 2066.98C743.889 2064.28 738.191 2059.92 735.311 2053.96Z" fill="black"/>
<path d="M579.035 2038.94C575.75 2036.62 571.578 2033.4 566.52 2029.29L563.426 2023.05C564.502 2020.91 566.649 2017.54 569.602 2013.01C572.822 2008.39 575.504 2004.84 578.005 2002.09C580.051 2002.46 582.095 2003.26 584.048 2004.69C583.15 2006.92 582.162 2009.76 580.725 2013.49C579.466 2017.32 578.475 2020.61 577.397 2023.63C579.436 2025.77 581.921 2027.92 584.938 2030.33C588.223 2032.65 591.242 2034.62 594.263 2036.15C603.858 2040.98 612.487 2041.99 619.705 2039.17C624.43 2036.87 627.824 2033.24 630.244 2028.44C632.394 2024.17 633.031 2020.26 632.065 2016.43C631.189 2012.42 629.422 2008.86 626.764 2005.29C624.107 2001.72 620.383 1997.61 615.505 1992.7C609.832 1986.27 605.223 1980.83 601.856 1976.46C598.756 1972 596.638 1966.91 595.591 1961.04C594.721 1955.25 595.899 1948.94 599.305 1942.18C602.62 1935.61 607.442 1930.91 613.683 1927.82C619.923 1924.72 626.337 1923.05 633.101 1922.9C639.865 1922.74 645.469 1923.56 650.09 1925.45C660.751 1930.83 671.848 1938.87 683.203 1949.5C682.662 1951.46 680.778 1955.64 677.997 1962.03C675.306 1968.26 672.975 1973.32 671.005 1976.78C669.402 1976.87 667.001 1976.33 663.89 1975.42C664.971 1971.51 666.054 1967.16 666.872 1962.44C667.956 1957.64 668.413 1954.08 668.511 1951.68C666.473 1949.09 663.457 1946.23 659.64 1943.19C655.824 1940.15 652.094 1937.83 648.185 1935.86C641.433 1932.45 634.674 1931.27 627.729 1932.23C621.847 1934.61 616.577 1940.2 612.275 1948.72C609.946 1953.34 609.307 1957.7 610.094 1961.89C611.148 1965.99 612.826 1969.73 615.483 1973.3C618.141 1976.87 621.952 1981.24 626.918 1986.42C632.505 1992.14 636.76 1996.96 639.594 2001.06C642.605 2005.25 644.548 2009.8 645.509 2014.96C646.47 2020.13 645.294 2025.55 642.247 2031.59C640.097 2035.86 637.147 2039.5 633.221 2042.42C629.385 2045.17 625.107 2047.02 620.475 2048.25C611.924 2050.18 602.759 2049.79 592.979 2047.09C586.938 2044.04 582.32 2041.27 579.035 2038.94Z" fill="black"/>
<path d="M528.362 1984.67L540.153 1965.52L518.803 1952.38L521.191 1946.6L524.45 1945.1L544.953 1957.73L573.649 1911.13C575.736 1907.74 577.236 1904.93 577.772 1902.92C578.307 1900.91 578.19 1899.2 577.421 1897.8C576.653 1896.39 575.167 1895.01 573.133 1893.75C570.931 1892.4 567.737 1891.13 563.618 1890.23C559.603 1889.16 557.152 1888.59 556.096 1888.4L556.163 1882.6C560.7 1882.82 565.575 1883.26 570.959 1884C576.343 1884.75 579.915 1885.78 581.779 1886.93C585.337 1889.12 587.801 1891.57 589.064 1894.45C590.497 1897.44 590.666 1900.58 589.844 1903.81C589.517 1905.48 588.708 1907.55 587.456 1909.59C586.373 1911.72 585.33 1913.42 584.495 1914.77L582.512 1917.99L564.564 1947.14C559.347 1955.61 556.346 1961.24 555.12 1963.99L566.134 1970.77L564.633 1976.63L549.929 1973.18C548.077 1973.91 545.495 1975.83 542.222 1978.48C539.118 1981.25 536.288 1983.94 533.732 1986.58L528.362 1984.67Z" fill="black"/>
<path d="M550.392 1875.59L541.201 1874.47C539.652 1874.59 537.807 1875.48 535.876 1877.53C534.518 1878.76 532.865 1880.76 531.029 1883.36C529.194 1885.97 526.508 1889.43 523.297 1893.98L511.139 1911.22C506.551 1917.72 503.043 1923.04 500.845 1926.85C502.797 1928.23 504.681 1930.04 506.614 1932.14C508.547 1934.23 509.991 1935.98 510.786 1937.27L507.019 1941.92L485.059 1933.01L483.985 1927.62L492.742 1917.97C476.044 1918.86 466.605 1918.77 464.31 1917.88C459.757 1914.67 456.609 1910.5 454.703 1905.26L456.155 1900.44C458.115 1899.39 460.401 1898.57 462.782 1898.3C465.44 1897.98 467.429 1897.92 468.912 1898.24C469.458 1900.57 470.444 1902.97 471.592 1905.49C473.018 1907.95 474.348 1909.87 475.975 1911.01C477.275 1911.93 479.638 1912.38 482.622 1912.29C485.883 1912.16 488.866 1912.07 491.687 1911.87C494.786 1911.62 496.612 1911.45 497.444 1911.3L521.072 1877.8C524.513 1872.92 527.103 1868.91 528.517 1865.52C527.12 1864.05 525.14 1861.68 522.509 1858.85C519.878 1856.02 518.222 1853.87 517.38 1852.31L521.223 1848.93L552.284 1870.84L550.392 1875.59Z" fill="black"/>
<path d="M484.805 1825.6C486.87 1832.47 486.948 1839.25 485.09 1846.5C483.359 1853.59 479.741 1860.15 474.542 1866.44C469.47 1872.57 463.678 1877.08 456.886 1879.98C450.094 1882.89 443.016 1884.27 435.652 1884.12C427.141 1883.79 419.898 1881.93 414.176 1878.24C406.507 1871.9 402.148 1864.68 401.098 1856.58C400.047 1848.48 402.412 1840.62 408.345 1833.13C410.987 1831.19 414.243 1829.75 418.292 1829.22L461.937 1861.69C469.038 1853.11 472.93 1844.96 473.588 1836.98C474.398 1829.13 470.906 1822.12 463.544 1816.03C457.256 1810.83 448.326 1807.58 436.753 1806.27L438.177 1798.93C443.886 1799.52 450.49 1800.59 457.58 1802.32C464.797 1803.9 469.925 1805.81 472.993 1808.35C478.821 1813.17 482.894 1818.86 484.805 1825.6ZM418.181 1839.98C414.023 1845.32 412.286 1850.85 413.071 1856.15C414.01 1861.57 416.702 1866.12 421.15 1869.8C425.444 1873.35 430.32 1875.58 435.342 1876.37C438.831 1875.9 442.52 1874.56 446.59 1872.76C450.66 1870.96 454.27 1868.78 457.112 1865.97L418.181 1839.98Z" fill="black"/>
<path d="M425.178 1773.72C426.662 1780.74 426.172 1787.5 423.716 1794.56C421.399 1801.48 417.246 1807.72 411.54 1813.55C405.973 1819.24 399.825 1823.25 392.814 1825.58C385.803 1827.9 378.635 1828.69 371.309 1827.92C362.854 1826.89 355.791 1824.43 350.399 1820.27C343.287 1813.31 339.545 1805.75 339.175 1797.59C338.805 1789.44 341.817 1781.8 348.355 1774.84C351.151 1773.12 354.516 1771.96 358.595 1771.77L399.375 1807.77C407.168 1799.81 411.727 1792.02 413.048 1784.12C414.512 1776.37 411.618 1769.08 404.79 1762.4C398.959 1756.7 390.331 1752.71 378.908 1750.44L380.94 1743.24C386.581 1744.31 393.072 1745.92 399.992 1748.24C407.052 1750.42 412.003 1752.75 414.848 1755.54C420.253 1760.83 423.836 1766.84 425.178 1773.72ZM357.586 1782.48C352.996 1787.45 350.803 1792.82 351.143 1798.17C351.625 1803.65 353.928 1808.41 358.053 1812.45C362.036 1816.34 366.708 1818.96 371.647 1820.18C375.163 1820 378.951 1818.97 383.157 1817.52C387.363 1816.07 391.142 1814.2 394.21 1811.63L357.586 1782.48Z" fill="black"/>
<path d="M288.009 1783.37L304.861 1768.48L288.26 1749.69L292.224 1744.86L295.779 1744.38L311.722 1762.42L352.733 1726.19C355.716 1723.55 357.97 1721.3 359.067 1719.53C360.163 1717.77 360.548 1716.1 360.222 1714.53C359.896 1712.96 358.877 1711.2 357.296 1709.41C355.583 1707.47 352.896 1705.33 349.217 1703.27C345.687 1701.08 343.509 1699.82 342.552 1699.34L344.304 1693.81C348.58 1695.34 353.119 1697.17 358.053 1699.45C362.988 1701.73 366.105 1703.75 367.554 1705.4C370.321 1708.53 371.964 1711.59 372.335 1714.71C372.837 1717.99 372.085 1721.04 370.357 1723.9C369.559 1725.4 368.182 1727.15 366.393 1728.73C364.735 1730.46 363.244 1731.77 362.051 1732.83L359.217 1735.33L333.566 1757.99C326.109 1764.58 321.601 1769.1 319.627 1771.37L328.191 1781.06L325.052 1786.23L311.987 1778.65C310.003 1778.81 306.975 1779.89 303.07 1781.48C299.297 1783.22 295.805 1784.98 292.593 1786.76L288.009 1783.37Z" fill="black"/>
<path d="M336.033 1673.65C335.629 1677.01 334.365 1679.26 332.643 1680.61C331.077 1681.84 328.339 1682.22 324.461 1681.47C322.538 1680.95 321.019 1680.63 319.935 1680.21C318.851 1679.8 317.801 1679.11 317.063 1678.17C315.712 1676.45 315.49 1673.58 316.241 1669.71C317.082 1666.26 318.223 1663.85 319.632 1662.75C321.511 1661.27 324.216 1661.17 327.814 1661.89C331.569 1662.48 333.983 1663.63 335.088 1665.03C336.686 1667.07 337.064 1669.81 336.033 1673.65Z" fill="black"/>
<path d="M205.749 1719.83L185.505 1686.96L190.132 1682.71C191.436 1683.31 193.326 1684.48 195.361 1686.27C197.395 1688.05 199.051 1689.6 200.264 1691.19C206.286 1686.55 212.867 1680.16 219.944 1672.3L272.804 1615.44L180.484 1639.34L173.277 1647.75C174.32 1649.44 175.064 1651.79 175.782 1654.85C176.67 1657.81 177.14 1660.09 177.192 1661.7L171.105 1663.58L149.922 1629.18L154.549 1624.93C155.853 1625.53 157.574 1626.8 159.921 1629.1C162.269 1631.39 164.133 1633.28 165.62 1634.94C172.58 1628.78 178.953 1622.05 185.078 1614.54L235.655 1555.11L160.921 1576.83C148.368 1580.36 139.804 1583.53 135.189 1585.9C137.16 1591 138.269 1595.46 138.792 1599.34L133.122 1601.9L114.443 1571.57L119.031 1566.87C120.165 1567.58 121.886 1568.85 123.921 1570.64C125.955 1572.42 127.507 1573.8 128.511 1575.06C130.767 1575.3 133.595 1574.96 136.724 1573.97C140.022 1572.87 141.86 1572.44 142.199 1572.24L229.825 1546.79C230.712 1546.71 232.276 1546.21 234.622 1545.47C237.073 1544.89 239.146 1544.08 241.049 1543.38C242.952 1542.67 244.646 1541.63 246.68 1540.38L257.074 1550.81L192.213 1626.51L266.908 1607.38C270.923 1606.31 273.987 1605.59 276.229 1604.68C278.575 1603.94 281.052 1602.65 283.932 1600.87L294.639 1611.81L222.491 1688.96C215.076 1697.03 210.463 1702.44 208.756 1705.36C209.59 1706.72 210.23 1708.89 210.804 1711.34C211.483 1713.96 211.679 1716.18 211.836 1717.95L205.749 1719.83Z" fill="black"/>
<path d="M126.514 1480.03C127.459 1472.86 130.244 1466.39 134.868 1460.63C139.673 1454.79 145.854 1450.07 153.671 1446.6C160.943 1443.36 168.216 1442.08 175.592 1442.5C182.967 1442.92 189.918 1444.84 196.184 1448.15C203.925 1452.32 209.727 1458.02 213.692 1464.97C217.09 1472.6 218.368 1479.88 217.422 1487.05C216.739 1494.32 213.955 1500.79 209.149 1506.63C204.525 1512.4 198.264 1516.92 190.265 1520.49C183.175 1523.64 175.982 1525.1 168.607 1524.68C161.232 1524.26 154.28 1522.34 147.752 1518.93C140.274 1514.86 134.29 1509.24 130.244 1502.11C126.926 1494.66 125.831 1487.3 126.514 1480.03ZM151.102 1511.78C155.306 1513.39 160.357 1513.98 166.338 1513.71C172.318 1513.44 178.177 1511.93 183.813 1509.42C193.085 1505.29 199.669 1499.53 203.564 1492.13C207.641 1484.65 207.718 1476.99 203.995 1468.63C201.405 1462.81 197.685 1458.37 192.834 1455.3C188.711 1453.87 183.66 1453.29 177.679 1453.55C171.698 1453.82 165.941 1455.07 160.123 1457.66C151.033 1461.71 144.449 1467.47 140.372 1474.95C136.477 1482.35 136.299 1490.27 139.941 1498.45C142.611 1504.45 146.332 1508.89 151.102 1511.78Z" fill="black"/>
<path d="M187.41 1420.98L180.584 1414.73C179.251 1413.93 177.232 1413.58 174.47 1414.12C172.648 1414.34 170.141 1415 167.135 1416.06C164.13 1417.11 159.931 1418.36 154.672 1420.2L134.76 1427.17C127.246 1429.79 121.301 1432.08 117.3 1433.91C118.088 1436.16 118.567 1438.73 118.923 1441.56C119.279 1444.39 119.438 1446.65 119.334 1448.16L113.568 1449.76L100.875 1429.74L103.131 1424.74L115.866 1421.97C101.762 1412.99 94.1287 1407.43 92.7768 1405.38C90.9375 1400.12 90.7979 1394.9 92.2925 1389.52L96.2752 1386.45C98.4821 1386.73 100.82 1387.39 102.914 1388.55C105.262 1389.84 106.915 1390.95 107.938 1392.06C107.026 1394.28 106.434 1396.81 105.907 1399.52C105.634 1402.36 105.606 1404.69 106.263 1406.56C106.788 1408.07 108.45 1409.8 110.929 1411.47C113.661 1413.25 116.14 1414.92 118.553 1416.39C121.22 1417.99 122.807 1418.91 123.568 1419.28L162.264 1405.74C167.899 1403.77 172.342 1402.01 175.46 1400.07C175.179 1398.06 174.945 1394.98 174.448 1391.15C173.951 1387.32 173.849 1384.62 174.074 1382.85L179.165 1382.33L191.712 1418.21L187.41 1420.98Z" fill="black"/>
<path d="M163.511 1344.11C161.44 1350.4 157.528 1355.94 151.918 1360.47C146.501 1364.96 139.722 1368.15 131.631 1370.25C123.732 1372.29 116.012 1372.64 108.372 1370.92C100.924 1369.15 94.1406 1365.97 88.2138 1361.34C81.9946 1356.37 77.4526 1349.94 74.5879 1342.05C72.3442 1333.38 71.5125 1326.19 71.6577 1320.4L47.5761 1326.63C39.4847 1328.73 33.9476 1330.37 31.1077 1331.31C31.5632 1333.86 31.9258 1336.85 31.953 1340.13C31.9801 1343.41 31.8078 1345.93 31.3862 1347.47L26.2277 1348.19L16.9558 1324.28L20.2468 1319.52C24.977 1319.53 30.7634 1318.86 37.7986 1317.45C44.8338 1316.04 53.1179 1313.89 62.7505 1311.4L124.207 1295.49C133.454 1293.1 139.662 1290.88 142.538 1288.49L139.497 1276.74L143.343 1274.92C145.632 1277.41 148.021 1280.29 150.509 1283.55C152.998 1286.81 154.809 1289.84 155.942 1292.63C153.073 1295.84 149.476 1298.62 145.487 1300.68C150.6 1306.14 154.886 1310.78 158.102 1314.47C161.318 1318.16 163.321 1321.14 163.92 1323.45C165.814 1330.77 165.776 1337.77 163.511 1344.11ZM147.878 1315.47C145.339 1312.02 141.881 1308.19 137.837 1303.68L83.1239 1317.84C82.607 1325.38 83.0534 1332.66 84.9481 1339.98C86.8428 1347.3 89.7801 1352.3 93.4744 1355.45C97.3546 1357.74 102.241 1359.15 107.991 1359.92C113.741 1360.69 119.385 1360.26 125.164 1358.76C134.797 1356.27 141.912 1352.79 146.315 1348.36C149.763 1345 152.097 1341.31 153.269 1337.1C154.684 1333.04 154.55 1328.55 153.353 1323.92C152.37 1321.71 150.609 1318.88 147.878 1315.47Z" fill="black"/>
<path d="M50.4917 1171.35C53.5861 1164.81 58.2155 1159.51 64.3798 1155.43C70.742 1151.34 78.067 1148.75 86.5742 1147.83C94.4879 1146.97 101.803 1147.98 108.696 1150.63C115.59 1153.29 121.622 1157.24 126.575 1162.31C132.667 1168.65 136.449 1175.85 138.098 1183.68C138.999 1191.99 137.99 1199.3 134.896 1205.84C132.02 1212.56 127.391 1217.86 121.029 1221.96C114.865 1226.03 107.518 1228.42 98.813 1229.37C91.0972 1230.2 83.8034 1229.39 76.9102 1226.74C70.0169 1224.08 63.9843 1220.13 58.8122 1214.89C52.9394 1208.72 48.9593 1201.54 47.2889 1193.52C46.4099 1185.4 47.6166 1178.07 50.4917 1171.35ZM64.19 1209.1C67.6985 1211.92 72.3298 1214.02 78.1051 1215.6C83.8805 1217.17 89.923 1217.52 96.0561 1216.86C106.146 1215.76 114.177 1212.29 120.148 1206.44C126.317 1200.57 128.732 1193.3 127.746 1184.2C127.06 1177.87 124.877 1172.5 121.197 1168.09C117.71 1165.47 113.079 1163.37 107.304 1161.79C101.528 1160.22 95.6621 1159.65 89.3312 1160.34C79.4391 1161.41 71.4084 1164.88 65.2392 1170.75C59.2678 1176.61 56.6763 1184.09 57.641 1193C58.3485 1199.52 60.5315 1204.89 64.19 1209.1Z" fill="black"/>
<path d="M48.2195 1061.85C52.9601 1057.24 59.7074 1054.8 68.4632 1054.73L100.302 1054.49C104.68 1054.45 111.444 1054.2 120.595 1053.73C120.782 1052.14 121.36 1049.75 122.132 1046.56C122.903 1043.37 123.88 1040.97 124.66 1038.97L130.044 1040.33L130.345 1079.33L125.378 1080.36C124.569 1078.78 123.558 1076.59 122.742 1074.01C121.927 1071.63 121.318 1070.05 120.914 1069.25C119.711 1068.07 118.111 1067.08 115.72 1066.71C113.327 1066.13 108.151 1065.77 100.39 1065.83L69.7447 1066.07C62.5809 1066.12 57.6245 1068.55 54.6749 1073.15C52.7096 1076.35 51.9458 1080.53 52.3838 1085.7C53.2028 1088.68 56.0532 1097.02 60.9351 1110.71L101.331 1110.4C109.689 1110.33 116.254 1110.08 121.223 1109.25C121.409 1107.66 121.986 1105.06 122.756 1101.68C123.725 1098.29 124.7 1095.69 125.484 1094.09L130.466 1095.05L130.767 1134.05L125.803 1135.48C124.796 1133.9 123.375 1130.33 121.344 1124.97C120.54 1123.98 118.743 1123.2 116.15 1122.42C113.759 1122.04 108.582 1121.69 100.821 1121.75L73.9573 1121.95C70.3754 1121.98 64.0091 1122.23 55.2565 1122.69C55.2749 1125.08 54.8969 1127.67 54.3214 1130.46C53.7459 1133.25 53.1658 1135.45 52.5796 1136.84L46.6067 1136.49L41.0557 1113.45L44.8058 1109.44L52.3784 1110.78L50.3515 1106.02C44.6752 1092.53 41.6289 1084.59 41.2109 1082.01C41.1433 1073.25 43.479 1066.47 48.2195 1061.85Z" fill="black"/>
<path d="M13.6468 903.237C14.8326 899.391 16.5906 894.424 18.9207 888.336L23.8863 883.452C26.2474 883.809 30.1231 884.798 35.3463 886.193C40.7365 887.813 44.9461 889.255 48.3389 890.775C48.6314 892.832 48.5007 895.026 47.7498 897.328C45.3589 897.167 42.348 897.114 38.3532 896.912C34.3287 896.907 30.8945 896.991 27.6868 896.908C26.2861 899.514 25.0227 902.543 23.6699 906.162C22.4842 910.008 21.5547 913.49 21.0485 916.835C19.4407 927.46 21.1713 935.974 26.1032 941.953C29.7587 945.727 34.2726 947.819 39.5851 948.623C44.3073 949.337 48.2244 948.722 51.5629 946.611C55.0981 944.53 57.9356 941.739 60.4987 938.101C63.0618 934.464 65.8036 929.646 68.9505 923.48C73.2896 916.086 77.0269 910.01 80.1323 905.448C83.4048 901.113 87.5718 897.517 92.83 894.69C98.0584 892.06 104.426 891.212 111.903 892.343C119.183 893.445 125.152 896.562 130.036 901.528C134.92 906.493 138.504 912.068 140.759 918.447C143.014 924.826 143.981 930.406 143.63 935.385C141.843 947.191 137.654 960.243 131.093 974.345C129.065 974.44 124.51 973.952 117.564 973.304C110.815 972.685 105.276 972.048 101.37 971.256C100.792 969.759 100.559 967.309 100.445 964.071C104.499 963.88 108.977 963.551 113.71 962.859C118.611 962.393 122.135 961.718 124.448 961.062C126.272 958.319 128.048 954.562 129.747 949.989C131.445 945.416 132.494 941.147 133.149 936.818C134.28 929.341 133.295 922.55 130.223 916.249C126.126 911.402 119.174 908.136 109.729 906.707C104.613 905.933 100.273 906.685 96.5411 908.736C92.9761 911.015 89.9418 913.776 87.3787 917.413C84.8156 921.051 81.8473 926.036 78.4739 932.368C74.7845 939.458 71.5302 945.003 68.514 948.975C65.4681 953.143 61.7542 956.405 57.1458 958.928C52.5375 961.451 47.0165 962.024 40.3267 961.012C35.6045 960.297 31.2279 958.629 27.2267 955.809C23.4222 953.02 20.3272 949.532 17.715 945.514C13.218 937.991 10.7301 929.161 10.2513 919.025C11.2636 912.336 12.4611 907.083 13.6468 903.237Z" fill="black"/>
<path d="M48.4485 841.539L70.3411 846.675L76.0681 822.264L82.3012 822.704L84.7528 825.323L79.2531 848.766L132.532 861.265C136.406 862.174 139.552 862.707 141.625 862.581C143.699 862.454 145.283 861.803 146.376 860.629C147.469 859.455 148.311 857.608 148.856 855.283C149.447 852.765 149.639 849.335 149.191 845.142C148.938 840.994 148.709 838.488 148.548 837.428L154.074 835.658C155.296 840.033 156.427 844.795 157.422 850.139C158.417 855.482 158.567 859.197 158.067 861.328C157.113 865.396 155.565 868.508 153.231 870.618C150.851 872.921 147.923 874.074 144.596 874.315C142.909 874.533 140.687 874.42 138.363 873.875C135.992 873.523 134.055 873.069 132.505 872.705L128.824 871.842L95.5006 864.024C85.8136 861.751 79.523 860.684 76.526 860.39L73.5716 872.983L67.5441 873.409L66.1669 858.368C64.8897 856.842 62.2563 854.998 58.6997 852.733C55.0976 850.661 51.6438 848.829 48.3383 847.236L48.4485 841.539Z" fill="black"/>
<path d="M159.425 825.603L157.642 816.517C157.042 815.083 155.624 813.605 153.078 812.405C151.483 811.498 149.07 810.546 146.027 809.609C142.984 808.672 138.858 807.193 133.533 805.554L113.373 799.346C105.765 797.003 99.6209 795.319 95.3196 794.411C94.6169 796.694 93.4752 799.049 92.0847 801.536C90.6942 804.023 89.4795 805.939 88.499 807.095L82.9105 804.958L84.5688 781.315L89.3537 778.624L101.247 783.952C95.2228 768.354 92.3717 759.355 92.5039 756.898C94.1437 751.572 97.1293 747.286 101.519 743.849L106.552 743.733C108.161 745.269 109.653 747.186 110.648 749.367C111.774 751.796 112.446 753.668 112.607 755.175C110.558 756.419 108.583 758.101 106.549 759.973C104.646 762.094 103.241 763.952 102.656 765.854C102.187 767.375 102.494 769.76 103.503 772.569C104.643 775.628 105.652 778.437 106.72 781.056C107.919 783.924 108.65 785.607 109.045 786.353L148.224 798.417C153.929 800.174 158.552 801.389 162.21 801.683C163.176 799.898 164.815 797.279 166.689 793.9C168.562 790.521 170.084 788.283 171.313 786.995L175.717 789.601L164.531 825.926L159.425 825.603Z" fill="black"/>
<path d="M185.353 750.333C179.467 754.436 173.051 756.622 165.59 757.114C158.314 757.679 150.951 756.286 143.355 753.305C135.946 750.397 129.858 746.298 124.981 740.75C120.104 735.202 116.589 728.906 114.436 721.862C112.092 713.673 111.599 706.212 113.33 699.622C116.965 690.36 122.466 683.968 129.834 680.446C137.202 676.924 145.404 676.723 154.369 680.027C157.042 681.931 159.424 684.576 161.185 688.26L143.933 739.85C154.306 743.921 163.257 745.082 171.042 743.22C178.754 741.544 184.335 736.038 187.825 727.146C190.805 719.551 191.113 710.052 188.747 698.649L196.169 697.713C197.388 703.322 198.429 709.93 198.994 717.206C199.744 724.555 199.521 730.026 198.067 733.731C195.305 740.77 191.166 746.415 185.353 750.333ZM150.933 691.505C144.562 689.219 138.761 689.294 133.972 691.69C129.111 694.272 125.627 698.249 123.519 703.621C121.483 708.808 120.89 714.133 121.699 719.153C123.234 722.321 125.657 725.41 128.635 728.716C131.613 732.023 134.809 734.773 138.368 736.598L150.933 691.505Z" fill="black"/>
<path d="M217.123 674.622C210.907 678.206 204.328 679.834 196.852 679.686C189.554 679.625 182.337 677.607 175.025 673.987C167.891 670.456 162.177 665.85 157.793 659.905C153.409 653.96 150.446 647.386 148.904 640.183C147.269 631.824 147.418 624.347 149.706 617.931C154.121 609.014 160.149 603.116 167.792 600.238C175.434 597.36 183.624 597.861 192.272 601.921C194.773 604.047 196.92 606.886 198.359 610.708L176.752 660.631C186.739 665.575 195.558 667.498 203.473 666.31C211.301 665.3 217.333 660.292 221.571 651.732C225.191 644.42 226.311 634.982 224.93 623.418L232.404 623.121C233.139 628.814 233.61 635.487 233.55 642.785C233.668 650.171 232.978 655.603 231.212 659.17C227.857 665.946 223.25 671.215 217.123 674.622ZM187.867 613.063C181.715 610.239 175.928 609.817 170.952 611.795C165.888 613.951 162.076 617.615 159.515 622.787C157.043 627.78 155.996 633.035 156.372 638.106C157.631 641.394 159.78 644.679 162.464 648.228C165.148 651.777 168.096 654.791 171.487 656.914L187.867 613.063Z" fill="black"/>
<path d="M163.684 550.001L183.087 561.367L195.761 539.732L201.587 541.992L203.157 545.217L190.986 565.994L238.206 593.655C241.64 595.667 244.488 597.104 246.507 597.595C248.526 598.086 250.23 597.931 251.621 597.132C253.012 596.332 254.362 594.816 255.569 592.756C256.876 590.523 258.071 587.303 258.881 583.164C259.862 579.127 260.382 576.664 260.542 575.604L266.343 575.543C266.22 580.084 265.896 584.968 265.271 590.367C264.645 595.766 263.693 599.36 262.586 601.248C260.474 604.854 258.077 607.371 255.224 608.698C252.271 610.197 249.133 610.434 245.883 609.684C244.208 609.394 242.118 608.631 240.057 607.424C237.896 606.389 236.179 605.383 234.805 604.578L231.543 602.667L202.009 585.367C193.424 580.337 187.728 577.462 184.951 576.297L178.413 587.458L172.528 586.086L175.649 571.309C174.879 569.474 172.907 566.935 170.177 563.722C167.346 560.68 164.587 557.91 161.898 555.413L163.684 550.001Z" fill="black"/>
<path d="M283.553 560.226C280.241 560.886 277.702 560.387 275.882 559.172C274.227 558.067 273.014 555.582 272.52 551.663C272.411 549.676 272.246 548.131 272.302 546.972C272.358 545.813 272.69 544.599 273.353 543.606C274.569 541.785 277.218 540.683 281.137 540.189C284.67 539.915 287.319 540.248 288.809 541.243C290.795 542.569 291.731 545.108 292.17 548.751C292.775 552.505 292.442 555.154 291.448 556.643C290.011 558.795 287.527 560.007 283.553 560.226Z" fill="black"/>
<path d="M198.315 451.58L223.238 422.097L228.72 425.168C228.557 426.593 228.032 428.755 226.97 431.245C225.908 433.734 224.951 435.792 223.818 437.44C230.107 441.714 238.23 445.975 247.908 450.248L318.411 482.748L266.922 402.48L256.683 398.254C255.398 399.774 253.401 401.212 250.714 402.849C248.179 404.615 246.158 405.773 244.651 406.323L240.967 401.124L267.047 370.274L272.529 373.345C272.366 374.77 271.689 376.804 270.242 379.749C268.794 382.695 267.58 385.056 266.47 386.985C274.489 391.678 282.869 395.636 291.916 399.114L364.147 428.645L320.214 364.406C312.952 353.577 307.27 346.428 303.575 342.784C299.347 346.245 295.456 348.689 291.928 350.396L287.731 345.806L310.727 318.603L316.618 321.498C316.303 322.795 315.627 324.829 314.564 327.318C313.502 329.808 312.673 331.713 311.797 333.057C312.266 335.277 313.471 337.859 315.388 340.523C317.458 343.315 318.44 344.927 318.744 345.184L370.243 420.509C370.594 421.327 371.553 422.659 372.991 424.656C374.301 426.806 375.716 428.523 376.979 430.112C378.241 431.7 379.761 432.985 381.585 434.527L374.918 447.653L282.771 409.624L324.227 474.635C326.495 478.117 328.133 480.804 329.699 482.649C331.138 484.647 333.137 486.597 335.72 488.781L328.669 502.363L232.872 457.862C222.89 453.333 216.31 450.636 213.003 449.925C211.975 451.141 210.106 452.427 207.956 453.737C205.678 455.199 203.634 456.076 201.998 456.778L198.315 451.58Z" fill="black"/>
<path d="M403.396 299.383C410.508 298.054 417.52 298.693 424.433 301.3C431.478 304.054 437.876 308.465 443.611 314.816C448.946 320.723 452.418 327.241 454.309 334.382C456.2 341.523 456.537 348.726 455.336 355.709C453.769 364.365 450.157 371.649 444.783 377.575C438.58 383.176 432.063 386.649 424.95 387.977C417.824 389.587 410.811 388.948 403.766 386.194C396.854 383.588 390.604 379.043 384.735 372.544C379.534 366.785 375.914 360.401 374.023 353.26C372.132 346.119 371.794 338.916 373.01 331.651C374.563 323.276 378.042 315.845 383.563 309.786C389.618 304.317 396.269 300.993 403.396 299.383ZM380.851 332.614C380.622 337.111 381.636 342.094 383.746 347.696C385.856 353.299 389.119 358.396 393.254 362.975C400.056 370.507 407.578 374.976 415.819 376.382C424.194 377.935 431.497 375.63 438.29 369.495C443.017 365.227 446.085 360.311 447.495 354.747C447.577 350.383 446.562 345.4 444.452 339.797C442.342 334.195 439.36 329.112 435.092 324.386C428.424 317.001 420.902 312.532 412.527 310.979C404.286 309.573 396.702 311.864 390.056 317.866C385.182 322.267 382.114 327.183 380.851 332.614Z" fill="black"/>
<path d="M476.233 340.483L480.041 332.043C480.383 330.527 480.082 328.5 478.702 326.047C477.928 324.384 476.511 322.211 474.573 319.684C472.634 317.158 470.127 313.564 466.736 309.143L453.895 292.407C449.05 286.092 445.016 281.161 442.035 277.929C440.14 279.383 437.846 280.642 435.272 281.864C432.698 283.086 430.598 283.945 429.129 284.32L425.811 279.341L440.855 261.026L446.314 261.603L452.925 272.835C457.046 256.63 459.933 247.643 461.465 245.716C465.885 242.324 470.801 240.559 476.371 240.299L480.541 243.119C480.963 245.304 481.069 247.73 480.617 250.084C480.129 252.716 479.593 254.632 478.851 255.954C476.461 255.781 473.876 256.008 471.133 256.357C468.354 256.984 466.133 257.685 464.554 258.896C463.291 259.865 462.16 261.987 461.356 264.862C460.514 268.016 459.71 270.89 459.063 273.644C458.38 276.676 458.002 278.471 457.892 279.308L482.845 311.833C486.479 316.569 489.544 320.237 492.356 322.595C494.177 321.699 497.03 320.513 500.515 318.843C503.999 317.173 506.536 316.23 508.283 315.893L510.365 320.567L480.209 343.703L476.233 340.483Z" fill="black"/>
<path d="M543.296 292.391C536.672 292.384 530.193 290.393 524.135 286.477C518.184 282.728 513.036 277.283 508.524 270.248C504.119 263.38 501.376 256.156 500.63 248.359C499.992 240.73 500.897 233.294 503.451 226.218C506.232 218.76 510.926 212.439 517.531 207.257C525.068 202.422 531.636 199.391 537.185 197.723L523.755 176.785C519.243 169.75 515.959 165 514.18 162.595C511.895 163.824 509.168 165.101 506.058 166.15C502.948 167.199 500.508 167.818 498.906 167.9L496.615 163.223L516.444 146.958L521.99 148.601C523.456 153.099 525.902 158.386 529.435 164.631C532.968 170.876 537.588 178.079 542.96 186.454L577.234 239.887C582.391 247.927 586.439 253.132 589.606 255.12L599.823 248.567L602.75 251.654C601.097 254.606 599.109 257.773 596.786 261.154C594.463 264.535 592.152 267.199 589.855 269.146C585.911 267.42 582.147 264.87 578.946 261.722C575.352 268.282 572.274 273.803 569.77 278.01C567.267 282.216 565.064 285.047 563.054 286.337C556.689 290.42 550.027 292.565 543.296 292.391ZM565.631 268.607C568.121 265.119 570.685 260.637 573.703 255.391L543.19 207.821C535.87 209.679 529.088 212.374 522.723 216.457C516.358 220.54 512.527 224.888 510.681 229.382C509.72 233.781 509.906 238.863 510.965 244.567C512.023 250.272 514.194 255.499 517.417 260.524C522.79 268.899 528.32 274.572 533.901 277.376C538.167 279.604 542.399 280.672 546.763 280.473C551.067 280.55 555.29 279.023 559.31 276.445C561.105 274.82 563.248 272.264 565.631 268.607Z" fill="black"/>
<path d="M670.898 131.207C678.078 132.099 684.566 134.836 690.362 139.417C696.239 144.178 700.997 150.323 704.535 158.115C707.826 165.362 709.157 172.626 708.792 180.004C708.427 187.382 706.563 194.348 703.3 200.638C699.179 208.41 693.528 214.255 686.609 218.27C678.999 221.726 671.736 223.057 664.555 222.165C657.276 221.537 650.788 218.8 644.911 214.038C639.115 209.458 634.539 203.231 630.919 195.258C627.71 188.191 626.198 181.01 626.563 173.632C626.928 166.254 628.791 159.288 632.154 152.735C636.175 145.226 641.744 139.2 648.844 135.102C656.273 131.729 663.619 130.579 670.898 131.207ZM639.333 156.031C637.75 160.247 637.205 165.303 637.516 171.281C637.826 177.26 639.389 183.107 641.939 188.724C646.135 197.965 651.947 204.505 659.373 208.346C666.881 212.367 674.54 212.386 682.875 208.601C688.673 205.969 693.088 202.215 696.12 197.341C697.522 193.208 698.067 188.152 697.756 182.174C697.446 176.195 696.147 170.447 693.514 164.649C689.4 155.589 683.589 149.049 676.08 145.027C668.654 141.187 660.733 141.069 652.579 144.771C646.599 147.486 642.184 151.24 639.333 156.031Z" fill="black"/>
<path d="M773.907 94.6646C779.77 97.7284 784.194 103.377 786.991 111.674L797.161 141.846C798.56 145.995 800.91 152.343 804.211 160.89C805.783 160.57 808.237 160.373 811.508 160.11C814.779 159.848 817.36 160.028 819.5 160.146L819.896 165.683L782.936 178.142L780.404 173.745C781.658 172.482 783.415 170.84 785.612 169.26C787.62 167.743 788.938 166.668 789.566 166.037C790.316 164.524 790.75 162.698 790.364 160.308C790.167 157.854 788.892 152.824 786.413 145.47L776.623 116.429C774.335 109.64 770.483 105.689 765.192 104.322C761.539 103.454 757.325 104.034 752.549 106.064C749.975 107.772 742.945 113.082 731.459 121.994L744.363 160.274C747.032 168.194 749.319 174.354 751.662 178.814C753.234 178.494 755.876 178.233 759.336 177.907C762.86 177.769 765.629 177.886 767.392 178.131L768.038 183.164L731.078 195.623L728.169 191.353C729.359 189.902 732.309 187.438 736.765 183.836C737.453 182.763 737.635 180.812 737.563 178.106C737.178 175.716 735.902 170.686 733.423 163.332L724.842 137.874C723.697 134.48 721.475 128.509 718.301 120.339C716.038 121.102 713.459 121.551 710.628 121.875C707.798 122.199 705.533 122.333 704.022 122.212L702.492 116.428L722.651 103.962L727.63 106.274L728.725 113.885L732.615 110.473C743.659 100.871 750.248 95.4996 752.572 94.2961C760.87 91.4992 768.044 91.6009 773.907 94.6646Z" fill="black"/>
<path d="M909.614 12.8911C913.638 12.8088 918.906 12.9175 925.418 13.2173L931.614 16.3975C932.017 18.7513 932.295 22.7415 932.612 28.1382C932.767 33.7647 932.72 38.2142 932.343 41.9127C930.482 42.8365 928.358 43.4016 925.937 43.4117C925.338 41.0914 924.443 38.2162 923.38 34.3602C922.12 30.5378 920.962 27.3038 920.033 24.2324C917.119 23.7212 913.846 23.4732 909.985 23.3258C905.962 23.4081 902.364 23.6195 899.029 24.1897C888.437 26.0008 880.898 30.3182 876.77 36.8786C874.336 41.5345 873.768 46.4769 874.674 51.7731C875.479 56.4808 877.293 60.0064 880.346 62.5127C883.432 65.2152 886.973 67.0324 891.232 68.3232C895.49 69.6139 900.926 70.7034 907.768 71.7543C916.15 73.5512 923.093 75.1906 928.399 76.706C933.543 78.451 938.266 81.2775 942.602 85.3815C946.741 89.519 949.546 95.2979 950.821 102.752C952.062 110.009 950.977 116.655 947.797 122.852C944.617 129.048 940.451 134.202 935.103 138.347C929.755 142.492 924.761 145.162 919.924 146.393C908.155 148.406 894.447 148.529 878.998 146.729C878.27 144.834 877.303 140.356 875.737 133.558C874.204 126.956 873.069 121.497 872.594 117.54C873.833 116.521 876.086 115.53 879.124 114.405C880.58 118.194 882.298 122.342 884.443 126.618C886.424 131.125 888.172 134.258 889.521 136.248C892.698 137.118 896.823 137.624 901.698 137.8C906.573 137.976 910.956 137.63 915.271 136.893C922.725 135.618 928.863 132.55 933.88 127.654C937.195 122.242 938.111 114.615 936.502 105.2C935.63 100.1 933.552 96.2156 930.432 93.317C927.149 90.6481 923.575 88.6347 919.316 87.344C915.058 86.0532 909.393 84.8011 902.321 83.5876C894.431 82.312 888.144 80.9644 883.426 79.3484C878.512 77.7659 874.249 75.2647 870.406 71.6821C866.563 68.0995 864.285 63.0381 863.144 56.3689C862.339 51.6613 862.549 46.982 863.969 42.2977C865.422 37.8096 867.761 33.7757 870.755 30.0336C876.485 23.401 884.086 18.2654 893.558 14.627C900.228 13.4866 905.591 12.9734 909.614 12.8911Z" fill="black"/>
<path d="M978.938 26.4132L980.93 48.8118L1005.91 46.5907L1007.44 52.6473L1005.72 55.7968L981.741 57.9298L986.588 112.44C986.941 116.404 987.421 119.558 988.192 121.487C988.963 123.416 990.078 124.716 991.536 125.385C992.994 126.055 995.011 126.275 997.39 126.063C999.967 125.834 1003.28 124.94 1007.12 123.2C1010.98 121.658 1013.29 120.654 1014.25 120.169L1017.66 124.86C1013.89 127.393 1009.72 129.961 1004.96 132.582C1000.2 135.203 996.721 136.512 994.54 136.706C990.378 137.076 986.937 136.583 984.202 135.028C981.268 133.491 979.255 131.073 977.982 127.989C977.246 126.456 976.656 124.311 976.444 121.933C976.035 119.572 975.858 117.589 975.717 116.004L975.382 112.238L972.35 78.1441C971.469 68.2332 970.508 61.9255 969.848 58.9875L956.963 60.1333L954.668 54.5437L968.517 48.5172C969.565 46.8257 970.49 43.7467 971.525 39.6589C972.362 35.5888 973.018 31.7345 973.493 28.0961L978.938 26.4132Z" fill="black"/>
<path d="M1027.41 126.677L1035.46 122.111C1036.63 121.089 1037.59 119.276 1037.92 116.481C1038.28 114.681 1038.41 112.09 1038.34 108.907C1038.27 105.724 1038.36 101.343 1038.24 95.7722L1037.75 74.6838C1037.56 66.726 1037.22 60.3643 1036.72 55.9967C1034.33 56.052 1031.73 55.714 1028.94 55.1817C1026.14 54.6493 1023.93 54.1032 1022.53 53.5386L1022.79 47.561L1045.74 41.6549L1049.81 45.3427L1048.52 58.3111C1061.41 47.6617 1069.04 42.1105 1071.41 41.4583C1076.98 41.3293 1082 42.8057 1086.64 45.8828L1088.35 50.6207C1087.4 52.6332 1086.05 54.6549 1084.3 56.2879C1082.35 58.1245 1080.79 59.3551 1079.41 59.9842C1077.58 58.4341 1075.36 57.0922 1072.94 55.7548C1070.33 54.6211 1068.12 53.876 1066.13 53.922C1064.54 53.9589 1062.37 55.0043 1060.03 56.8502C1057.49 58.8995 1055.14 60.7453 1052.99 62.5866C1050.65 64.6313 1049.29 65.8573 1048.7 66.4679L1049.65 107.451C1049.79 113.419 1050.1 118.189 1050.98 121.752C1052.98 122.104 1055.98 122.831 1059.78 123.539C1063.58 124.247 1066.18 124.983 1067.79 125.742L1066.71 130.743L1028.72 131.623L1027.41 126.677Z" fill="black"/>
<path d="M1117.02 127.601C1111.29 123.282 1107.22 117.863 1104.43 110.924C1101.63 104.184 1100.67 96.753 1101.14 88.6077C1101.6 80.661 1103.6 73.6011 1107.36 67.2407C1111.12 60.8804 1116.01 55.5825 1122.03 51.347C1129.09 46.573 1136.03 43.7857 1142.83 43.3824C1152.76 43.958 1160.55 47.1998 1166.18 53.1078C1171.82 59.0158 1174.56 66.7493 1174.21 76.2968C1173.23 79.4294 1171.46 82.516 1168.5 85.3349L1114.1 84.9737C1113.46 96.099 1115.14 104.967 1119.33 111.788C1123.32 118.597 1130.29 122.19 1139.82 122.743C1147.97 123.215 1157.09 120.554 1167.2 114.761L1170.39 121.524C1165.44 124.426 1159.48 127.47 1152.74 130.269C1145.99 133.266 1140.72 134.755 1136.75 134.524C1129.2 134.087 1122.55 131.908 1117.02 127.601ZM1162.23 76.5995C1162.42 69.8333 1160.55 64.3427 1156.78 60.5365C1152.82 56.7187 1147.96 54.6429 1142.19 54.3091C1136.63 53.9868 1131.39 55.0782 1126.86 57.4076C1124.33 59.8522 1122.15 63.1144 1119.93 66.9726C1117.72 70.8308 1116.09 74.7236 1115.47 78.6739L1162.23 76.5995Z" fill="black"/>
<path d="M1192.6 133.396C1187.23 128.629 1183.61 122.9 1181.39 115.759C1179.15 108.815 1178.79 101.33 1179.91 93.2491C1181.01 85.3655 1183.58 78.4904 1187.84 72.454C1192.1 66.4177 1197.4 61.5319 1203.75 57.7966C1211.17 53.6075 1218.31 51.3894 1225.12 51.5363C1234.97 52.9117 1242.47 56.7713 1247.61 63.1151C1252.76 69.4589 1254.86 77.3884 1253.74 86.8762C1252.51 89.9196 1250.5 92.853 1247.32 95.4242L1193.13 90.6737C1191.59 101.711 1192.55 110.685 1196.18 117.822C1199.6 124.931 1206.26 129.075 1215.72 130.395C1223.8 131.523 1233.11 129.607 1243.65 124.648L1246.29 131.648C1241.12 134.141 1234.93 136.694 1227.99 138.939C1221.02 141.382 1215.65 142.441 1211.7 141.89C1204.21 140.845 1197.76 138.136 1192.6 133.396ZM1241.78 86.2111C1242.52 79.4826 1241.09 73.8586 1237.64 69.7608C1234 65.6355 1229.32 63.174 1223.61 62.3763C1218.09 61.606 1212.77 62.2704 1208.08 64.2274C1205.35 66.4595 1202.91 69.5349 1200.39 73.2016C1197.87 76.8683 1195.94 80.6176 1195 84.5043L1241.78 86.2111Z" fill="black"/>
<path d="M1298.06 44.023L1293.35 66.0095L1317.86 71.2703L1317.54 77.5108L1314.97 80.0118L1291.43 74.9597L1279.94 128.467C1279.11 132.358 1278.64 135.513 1278.8 137.584C1278.97 139.655 1279.65 141.226 1280.84 142.296C1282.04 143.367 1283.9 144.173 1286.23 144.674C1288.76 145.217 1292.2 145.343 1296.38 144.816C1300.52 144.484 1303.02 144.207 1304.08 144.026L1305.96 149.517C1301.61 150.822 1296.87 152.044 1291.54 153.14C1286.22 154.237 1282.51 154.458 1280.37 153.999C1276.28 153.122 1273.14 151.634 1270.99 149.34C1268.64 147.004 1267.43 144.099 1267.13 140.777C1266.88 139.095 1266.95 136.872 1267.45 134.537C1267.75 132.16 1268.17 130.214 1268.5 128.658L1269.3 124.961L1276.48 91.4949C1278.57 81.7664 1279.51 75.4566 1279.75 72.4546L1267.1 69.7407L1266.56 63.7223L1281.58 62.0588C1283.08 60.7528 1284.87 58.0847 1287.07 54.4856C1289.07 50.8447 1290.84 47.3566 1292.37 44.0214L1298.06 44.023Z" fill="black"/>
<path d="M1322.54 160.093C1320.87 157.157 1320.54 154.59 1321.12 152.48C1321.65 150.561 1323.63 148.628 1327.19 146.925C1329.04 146.196 1330.46 145.554 1331.57 145.242C1332.69 144.93 1333.95 144.863 1335.1 145.18C1337.21 145.76 1339.09 147.929 1340.79 151.493C1342.17 154.76 1342.68 157.379 1342.21 159.106C1341.57 161.408 1339.46 163.097 1336.14 164.66C1332.77 166.416 1330.15 166.934 1328.42 166.459C1325.93 165.772 1323.99 163.796 1322.54 160.093Z" fill="black"/>
<path d="M1403.52 46.2914L1439.29 60.7972L1438.08 66.9628C1436.68 67.2518 1434.46 67.4262 1431.76 67.1918C1429.07 66.9575 1426.81 66.6882 1424.89 66.1249C1422.79 73.4319 1421.27 82.4784 1420.22 93.0054L1411.29 170.123L1471.54 96.2022L1472.36 85.1569C1470.52 84.4092 1468.53 82.9587 1466.14 80.915C1463.67 79.0557 1461.94 77.4956 1460.95 76.2345L1464.74 71.1157L1502.18 86.2944L1500.97 92.46C1499.56 92.7491 1497.42 92.739 1494.17 92.2804C1490.92 91.8217 1488.3 91.4029 1486.12 90.9492C1484.16 100.031 1483.01 109.227 1482.52 118.906L1476.94 196.742L1524.31 134.992C1532.34 124.72 1537.36 117.094 1539.68 112.449C1535.07 109.508 1531.54 106.572 1528.82 103.751L1531.87 98.3327L1564.88 111.717L1563.97 118.217C1562.64 118.321 1560.49 118.311 1557.8 118.077C1555.1 117.842 1553.03 117.648 1551.48 117.234C1549.52 118.37 1547.44 120.319 1545.5 122.971C1543.5 125.807 1542.27 127.242 1542.12 127.611L1486.57 200.002C1485.9 200.59 1484.94 201.916 1483.49 203.905C1481.85 205.819 1480.66 207.698 1479.54 209.392C1478.43 211.087 1477.68 212.931 1476.78 215.144L1462.23 212.896L1469.68 113.488L1420.81 173.124C1418.21 176.364 1416.16 178.756 1414.9 180.82C1413.45 182.808 1412.22 185.315 1410.94 188.45L1395.84 185.978L1408.31 81.0873C1409.5 70.1916 1410.02 63.0989 1409.66 59.7344C1408.19 59.1362 1406.38 57.7605 1404.47 56.1255C1402.37 54.4158 1400.9 52.746 1399.72 51.4102L1403.52 46.2914Z" fill="black"/>
<path d="M1608.81 192.012C1612.29 198.355 1613.88 205.216 1613.56 212.597C1613.14 220.15 1610.95 227.605 1606.7 235.035C1602.76 241.948 1597.65 247.281 1591.45 251.306C1585.26 255.331 1578.52 257.9 1571.51 258.939C1562.8 260.151 1554.75 258.993 1547.44 255.737C1540.19 251.593 1534.85 246.485 1531.37 240.142C1527.62 233.874 1526.04 227.013 1526.45 219.459C1526.77 212.079 1529.14 204.723 1533.48 197.119C1537.33 190.38 1542.27 184.948 1548.46 180.923C1554.65 176.898 1561.39 174.329 1568.67 173.216C1577.11 172.078 1585.26 173.063 1592.74 176.418C1599.82 180.463 1605.06 185.744 1608.81 192.012ZM1570.21 180.966C1565.86 182.152 1561.44 184.671 1556.78 188.424C1552.12 192.177 1548.29 196.868 1545.23 202.225C1540.2 211.039 1538.3 219.579 1539.54 227.848C1540.68 236.289 1545.15 242.508 1553.09 247.047C1558.62 250.205 1564.25 251.585 1569.98 251.189C1574.15 249.904 1578.57 247.385 1583.23 243.632C1587.9 239.879 1591.79 235.459 1594.95 229.929C1599.89 221.289 1601.78 212.748 1600.65 204.307C1599.41 196.039 1594.87 189.548 1587.09 185.108C1581.39 181.851 1575.76 180.471 1570.21 180.966Z" fill="black"/>
<path d="M1598.64 277.951L1607.84 278.975C1609.39 278.833 1611.22 277.923 1613.13 275.854C1614.48 274.605 1616.11 272.588 1617.91 269.966C1619.72 267.344 1622.37 263.852 1625.53 259.263L1637.5 241.893C1642.01 235.338 1645.46 229.982 1647.62 226.151C1645.65 224.796 1643.75 223 1641.79 220.928C1639.84 218.856 1638.37 217.122 1637.56 215.84L1641.28 211.15L1663.34 219.823L1664.47 225.194L1655.82 234.942C1672.51 233.873 1681.94 233.852 1684.25 234.715C1688.84 237.876 1692.03 242.01 1693.99 247.229L1692.6 252.065C1690.65 253.139 1688.37 253.987 1685.99 254.282C1683.34 254.628 1681.35 254.708 1679.86 254.409C1679.29 252.082 1678.28 249.693 1677.1 247.191C1675.65 244.74 1674.3 242.843 1672.66 241.714C1671.35 240.81 1668.98 240.388 1666 240.508C1662.74 240.679 1659.76 240.799 1656.94 241.032C1653.84 241.315 1652.02 241.508 1651.19 241.661L1627.93 275.418C1624.54 280.334 1622 284.38 1620.62 287.781C1622.03 289.238 1624.04 291.587 1626.7 294.388C1629.36 297.189 1631.04 299.312 1631.9 300.871L1628.1 304.29L1596.8 282.725L1598.64 277.951Z" fill="black"/>
<path d="M1664.95 327.058C1662.92 320.755 1662.82 313.978 1664.67 307.008C1666.41 300.192 1670 293.616 1675.3 287.155C1680.48 280.848 1686.51 276.013 1693.7 272.901C1700.76 269.944 1708.11 268.513 1715.63 268.762C1723.58 269.11 1731.04 271.627 1738.01 276.314C1744.93 281.995 1749.83 287.309 1753.13 292.075L1768.91 272.846C1774.21 266.386 1777.72 261.798 1779.46 259.365C1777.59 257.57 1775.53 255.368 1773.58 252.733C1771.62 250.098 1770.28 247.968 1769.71 246.469L1773.45 242.848L1795.04 256.7L1795.18 262.483C1791.35 265.263 1787.08 269.219 1782.23 274.505C1777.37 279.79 1771.94 286.405 1765.63 294.096L1725.36 343.167C1719.3 350.551 1715.6 356.006 1714.68 359.631L1724.06 367.332L1722.03 371.067C1718.71 370.404 1715.08 369.489 1711.15 368.321C1707.22 367.153 1703.97 365.775 1701.41 364.189C1701.84 359.906 1703.11 355.539 1705.11 351.524C1697.77 350.126 1691.57 348.899 1686.79 347.814C1682.02 346.728 1678.65 345.505 1676.8 343.99C1670.96 339.193 1666.86 333.516 1664.95 327.058ZM1694.46 340.978C1698.55 342.273 1703.6 343.33 1709.52 344.585L1745.38 300.898C1741.35 294.507 1736.7 288.886 1730.85 284.088C1725.01 279.291 1719.69 276.987 1714.85 276.616C1710.37 277.057 1705.59 278.8 1700.49 281.565C1695.39 284.329 1691.08 288.005 1687.3 292.62C1680.98 300.311 1677.29 307.321 1676.34 313.494C1675.54 318.239 1675.82 322.594 1677.36 326.685C1678.61 330.803 1681.37 334.35 1685.06 337.38C1687.16 338.587 1690.25 339.838 1694.46 340.978Z" fill="black"/>
<path d="M1856.39 397.644C1857.77 404.746 1857.18 411.763 1854.62 418.694C1851.92 425.759 1847.55 432.189 1841.25 437.97C1835.38 443.348 1828.88 446.867 1821.76 448.81C1814.63 450.753 1807.43 451.143 1800.44 449.992C1791.77 448.487 1784.46 444.929 1778.5 439.598C1772.85 433.436 1769.33 426.945 1767.95 419.842C1766.29 412.727 1766.88 405.71 1769.58 398.645C1772.14 391.714 1776.63 385.431 1783.09 379.516C1788.81 374.272 1795.17 370.606 1802.3 368.663C1809.42 366.721 1816.62 366.331 1823.9 367.493C1832.28 368.986 1839.74 372.41 1845.84 377.887C1851.35 383.903 1854.72 390.529 1856.39 397.644ZM1822.99 375.341C1818.49 375.145 1813.52 376.195 1807.93 378.346C1802.34 380.497 1797.27 383.796 1792.72 387.964C1785.24 394.821 1780.83 402.375 1779.48 410.626C1777.99 419.012 1780.34 426.298 1786.53 433.047C1790.83 437.742 1795.77 440.774 1801.34 442.144C1805.71 442.194 1810.68 441.143 1816.27 438.993C1821.86 436.842 1826.92 433.824 1831.61 429.521C1838.95 422.799 1843.36 415.245 1844.86 406.859C1846.2 398.608 1843.86 391.04 1837.81 384.438C1833.37 379.597 1828.43 376.564 1822.99 375.341Z" fill="black"/>
<path d="M1921.53 482.142C1920.46 488.669 1916.48 494.639 1909.48 499.893L1884 518.997C1880.5 521.624 1875.21 525.842 1868.12 531.653C1868.92 533.046 1869.87 535.315 1871.15 538.34C1872.42 541.364 1873.06 543.872 1873.62 545.941L1868.48 548.051L1845.08 516.847L1848.46 513.066C1850.05 513.862 1852.16 515.017 1854.35 516.609C1856.42 518.041 1857.85 518.957 1858.65 519.355C1860.32 519.594 1862.19 519.434 1864.34 518.32C1866.61 517.365 1870.99 514.579 1877.2 509.922L1901.71 491.535C1907.45 487.237 1909.99 482.341 1909.63 476.889C1909.32 473.147 1907.45 469.327 1904.02 465.426C1901.6 463.516 1894.35 458.501 1882.29 450.382L1849.97 474.62C1843.29 479.634 1838.15 483.734 1834.65 487.356C1835.45 488.749 1836.52 491.176 1837.92 494.36C1839.15 497.664 1839.91 500.33 1840.22 502.082L1835.65 504.271L1812.24 473.067L1815.39 468.968C1817.14 469.644 1820.4 471.674 1825.22 474.779C1826.45 475.097 1828.36 474.659 1830.91 473.744C1833.06 472.63 1837.44 469.844 1843.65 465.187L1865.14 449.068C1868 446.919 1872.98 442.939 1879.75 437.367C1878.31 435.457 1877.08 433.148 1875.88 430.561C1874.69 427.974 1873.85 425.865 1873.5 424.392L1878.51 421.129L1896.66 436.372L1896.02 441.825L1889.14 445.247L1893.6 447.874C1906.17 455.357 1913.34 459.934 1915.21 461.765C1920.46 468.769 1922.61 475.615 1921.53 482.142Z" fill="black"/>
<path d="M2041.48 584.904C2042.82 588.698 2044.37 593.732 2046.14 600.008L2045.07 606.89C2042.96 608.013 2039.26 609.532 2034.24 611.531C2028.95 613.447 2024.71 614.802 2021.08 615.607C2019.62 614.132 2018.41 612.293 2017.64 609.998C2019.65 608.7 2022.1 606.946 2025.43 604.724C2028.66 602.326 2031.37 600.209 2033.99 598.361C2033.56 595.435 2032.76 592.25 2031.69 588.539C2030.34 584.745 2029.01 581.396 2027.42 578.41C2022.37 568.925 2015.9 563.127 2008.38 561.272C2003.19 560.426 1998.32 561.441 1993.58 563.967C1989.36 566.212 1986.59 569.043 1985.17 572.729C1983.57 576.509 1982.96 580.442 1983.08 584.89C1983.19 589.339 1983.87 594.841 1985.02 601.666C1985.95 610.189 1986.58 617.294 1986.81 622.808C1986.77 628.24 1985.57 633.612 1983.04 639.018C1980.42 644.249 1975.81 648.73 1969.14 652.284C1962.64 655.745 1955.99 656.806 1949.11 655.736C1942.23 654.666 1936.02 652.333 1930.41 648.56C1924.79 644.787 1920.68 640.886 1917.99 636.682C1912.38 626.143 1907.95 613.17 1904.8 597.939C1906.37 596.652 1910.32 594.326 1916.28 590.701C1922.06 587.169 1926.89 584.374 1930.5 582.679C1931.85 583.535 1933.5 585.362 1935.53 587.892C1932.39 590.465 1928.99 593.401 1925.6 596.782C1921.95 600.081 1919.53 602.725 1918.06 604.632C1918.23 607.921 1919.05 611.995 1920.42 616.679C1921.78 621.362 1923.49 625.413 1925.55 629.277C1929.1 635.952 1933.95 640.813 1940.17 644.036C1946.35 645.48 1953.88 643.951 1962.31 639.462C1966.88 637.03 1969.91 633.836 1971.68 629.962C1973.18 626.007 1973.97 621.98 1973.85 617.532C1973.74 613.084 1973.15 607.312 1972.07 600.218C1970.8 592.327 1970.11 585.936 1970.16 580.949C1970.11 575.787 1971.15 570.953 1973.34 566.178C1975.53 561.403 1979.62 557.649 1985.59 554.468C1989.8 552.223 1994.31 550.95 1999.21 550.825C2003.92 550.793 2008.49 551.744 2012.98 553.409C2021.08 556.762 2028.35 562.362 2034.78 570.209C2037.96 576.181 2040.13 581.111 2041.48 584.904Z" fill="black"/>
<path d="M2053.43 661.958L2032.75 670.795L2042.6 693.852L2037.32 697.191L2033.79 696.534L2024.33 674.392L1974.01 695.899C1970.35 697.463 1967.5 698.897 1965.9 700.228C1964.31 701.559 1963.42 703.022 1963.24 704.615C1963.05 706.209 1963.47 708.195 1964.41 710.391C1965.42 712.77 1967.3 715.646 1970.15 718.759C1972.81 721.949 1974.48 723.832 1975.23 724.591L1971.83 729.291C1968.26 726.491 1964.52 723.326 1960.55 719.611C1956.59 715.897 1954.26 712.994 1953.4 710.981C1951.76 707.138 1951.16 703.715 1951.79 700.632C1952.35 697.366 1954.02 694.703 1956.56 692.536C1957.79 691.362 1959.64 690.136 1961.84 689.197C1963.96 688.076 1965.79 687.294 1967.25 686.668L1970.73 685.182L2002.2 671.731C2011.35 667.821 2017.05 664.952 2019.64 663.413L2014.56 651.519L2019.16 647.604L2029.18 658.902C2031.11 659.375 2034.33 659.299 2038.54 659.016C2042.66 658.55 2046.53 657.979 2050.14 657.303L2053.43 661.958Z" fill="black"/>
<path d="M1971.49 735.385L1978.34 741.616C1979.67 742.409 1981.69 742.75 1984.45 742.195C1986.27 741.973 1988.78 741.298 1991.78 740.235C1994.78 739.173 1998.98 737.9 2004.23 736.04L2024.11 729.002C2031.62 726.346 2037.55 724.034 2041.55 722.198C2040.75 719.947 2040.26 717.375 2039.9 714.55C2039.53 711.724 2039.36 709.462 2039.46 707.949L2045.22 706.332L2057.99 726.301L2055.75 731.314L2043.03 734.129C2057.17 743.058 2064.82 748.582 2066.18 750.633C2068.04 755.886 2068.2 761.107 2066.72 766.484L2062.75 769.579C2060.54 769.305 2058.2 768.655 2056.11 767.498C2053.75 766.22 2052.1 765.118 2051.07 764.004C2051.97 761.784 2052.55 759.256 2053.07 756.54C2053.33 753.703 2053.35 751.373 2052.69 749.497C2052.16 747.997 2050.49 746.265 2048 744.612C2045.27 742.837 2042.78 741.183 2040.36 739.717C2037.69 738.13 2036.1 737.215 2035.34 736.852L1996.69 750.53C1991.06 752.522 1986.63 754.303 1983.52 756.248C1983.81 758.257 1984.05 761.337 1984.56 765.167C1985.07 768.997 1985.19 771.701 1984.97 773.467L1979.88 774.002L1967.2 738.171L1971.49 735.385Z" fill="black"/>
<path d="M1997.1 816.511C1999.4 809.716 2003.27 804.152 2008.99 799.331C2014.51 794.561 2021.27 791.316 2029.15 789.212C2036.84 787.159 2044.17 786.85 2051.39 788.425C2058.61 790 2065.17 792.985 2071.08 797.38C2077.83 802.583 2082.65 808.299 2085.16 814.631C2087.73 824.244 2087.09 832.654 2083.24 839.859C2079.4 847.064 2072.92 852.09 2063.74 854.746C2060.46 854.798 2056.97 854.081 2053.37 852.159L2036.66 800.388C2025.9 803.262 2018 807.635 2012.84 813.751C2007.62 819.675 2006.39 827.417 2008.86 836.646C2010.96 844.529 2016.35 852.36 2025.01 860.139L2019.59 865.294C2015.28 861.5 2010.53 856.797 2005.76 851.273C2000.8 845.801 1997.73 841.264 1996.7 837.418C1994.75 830.112 1994.74 823.113 1997.1 816.511ZM2059.7 843.466C2066.18 841.529 2070.81 838.029 2073.24 833.259C2075.63 828.298 2076.07 823.029 2074.59 817.454C2073.15 812.07 2070.47 807.43 2066.84 803.868C2063.73 802.228 2059.94 801.177 2055.58 800.281C2051.23 799.385 2047.02 799.065 2043.07 799.707L2059.7 843.466Z" fill="black"/>
<path d="M2015.86 893.888C2018.73 887.31 2023.05 882.089 2029.15 877.764C2035.05 873.473 2042.06 870.806 2050.09 869.369C2057.92 867.967 2065.26 868.273 2072.32 870.447C2079.38 872.621 2085.67 876.145 2091.19 881.02C2097.47 886.769 2101.8 892.869 2103.77 899.389C2105.53 909.184 2104.19 917.51 2099.75 924.368C2095.32 931.226 2088.44 935.691 2079.07 937.569C2075.79 937.346 2072.38 936.34 2068.95 934.123L2056.64 881.135C2045.67 883.097 2037.44 886.794 2031.78 892.456C2026.09 897.922 2024.21 905.534 2025.89 914.937C2027.33 922.969 2032.04 931.223 2040.03 939.7L2034.19 944.383C2030.22 940.242 2025.87 935.157 2021.58 929.253C2017.1 923.384 2014.42 918.606 2013.72 914.689C2012.39 907.245 2012.96 900.269 2015.86 893.888ZM2075.99 925.991C2082.61 924.604 2087.51 921.503 2090.34 916.954C2093.13 912.21 2094.02 906.997 2093 901.316C2092.02 895.831 2089.74 890.983 2086.42 887.129C2083.45 885.234 2079.77 883.871 2075.5 882.613C2071.24 881.355 2067.07 880.684 2063.08 880.993L2075.99 925.991Z" fill="black"/>
<path d="M2132.86 961.956L2110.5 964.379L2113.2 989.307L2107.18 990.96L2103.99 989.304L2101.4 965.365L2046.99 971.26C2043.04 971.689 2039.89 972.23 2037.98 973.038C2036.06 973.846 2034.79 974.985 2034.15 976.456C2033.5 977.926 2033.32 979.948 2033.58 982.322C2033.86 984.894 2034.82 988.193 2036.63 991.999C2038.25 995.828 2039.3 998.116 2039.8 999.062L2035.17 1002.57C2032.57 998.845 2029.92 994.728 2027.21 990.018C2024.5 985.308 2023.12 981.854 2022.89 979.677C2022.43 975.523 2022.86 972.074 2024.36 969.309C2025.84 966.346 2028.22 964.287 2031.28 962.955C2032.8 962.19 2034.93 961.558 2037.31 961.301C2039.66 960.846 2041.64 960.631 2043.22 960.46L2046.98 960.052L2081.01 956.365C2090.9 955.293 2097.19 954.211 2100.11 953.494L2098.72 940.634L2104.26 938.232L2110.56 951.962C2112.27 952.978 2115.36 953.843 2119.47 954.799C2123.56 955.558 2127.42 956.14 2131.07 956.545L2132.86 961.956Z" fill="black"/>
<path d="M2030.37 1024.29C2032.63 1021.79 2034.97 1020.67 2037.15 1020.56C2039.14 1020.46 2041.6 1021.74 2044.33 1024.59C2045.6 1026.12 2046.66 1027.26 2047.3 1028.22C2047.95 1029.19 2048.41 1030.36 2048.47 1031.55C2048.57 1033.74 2047.1 1036.2 2044.25 1038.94C2041.58 1041.26 2039.26 1042.58 2037.47 1042.67C2035.08 1042.78 2032.82 1041.3 2030.29 1038.64C2027.57 1035.99 2026.25 1033.66 2026.17 1031.88C2026.04 1029.29 2027.31 1026.84 2030.37 1024.29Z" fill="black"/>
</svg>
