<svg width="1440" height="1440" viewBox="0 0 1440 1440" fill="none" xmlns="http://www.w3.org/2000/svg">
<path d="M720.5 322.5C941.415 322.5 1120.5 501.363 1120.5 722C1120.5 942.637 941.415 1121.5 720.5 1121.5C499.586 1121.5 320.5 942.637 320.5 722C320.5 501.363 499.586 322.5 720.5 322.5Z" fill="white" stroke="#1A1417"  vector-effect="non-scaling-stroke"/>
<line x1="719.5" y1="1122" x2="719.5" y2="322" stroke="#1A1417"  vector-effect="non-scaling-stroke"/>
<line x1="435.765" y1="1003.53" x2="1001.77" y2="437.526" stroke="#1A1417"  vector-effect="non-scaling-stroke"/>
<path d="M1003.65 1004.36L438.5 439" stroke="#1A1417"  vector-effect="non-scaling-stroke"/>
<path d="M1108 623.943C833.064 691.641 606.909 747.328 332 815.019L1108 623.943Z" stroke="#1A1417"  vector-effect="non-scaling-stroke"/>
<path d="M954.563 434.901C954.375 434.258 954.377 433.596 954.569 432.914C954.761 432.232 955.146 431.607 955.711 431.001C956.263 430.409 956.922 429.965 957.703 429.708C958.483 429.451 959.27 429.372 960.052 429.51C960.82 429.635 961.481 429.956 962.034 430.471C962.588 430.986 962.966 431.584 963.154 432.227C963.342 432.87 963.34 433.532 963.148 434.214C962.956 434.896 962.584 435.533 962.032 436.126C961.467 436.732 960.795 437.163 960.015 437.42C959.234 437.677 958.459 437.743 957.691 437.617C956.909 437.48 956.248 437.159 955.708 436.656C955.142 436.129 954.752 435.544 954.563 434.901ZM958.008 436.855C958.583 436.923 959.14 436.827 959.717 436.577C960.269 436.329 960.766 435.98 961.207 435.506C961.882 434.781 962.25 434.017 962.298 433.225C962.346 432.434 962.015 431.707 961.277 431.02C960.803 430.578 960.272 430.33 959.696 430.261C959.108 430.206 958.551 430.302 958 430.551C957.448 430.8 956.965 431.161 956.535 431.622C955.848 432.359 955.48 433.098 955.431 433.89C955.37 434.669 955.701 435.396 956.439 436.083C956.913 436.524 957.432 436.786 958.008 436.855Z" fill="#1A1417"/>
<path d="M968.061 435.985L966.033 438.057L963.395 440.889C963.273 441.02 962.844 441.507 962.123 442.36L961.333 441.624C962.12 440.832 962.588 440.383 962.71 440.251L966.182 436.523C966.219 436.484 966.23 436.445 966.229 436.394C966.215 436.356 966.174 436.294 966.107 436.207L964.951 434.835L965.159 434.611L968.061 435.985Z" fill="#1A1417"/>
<path d="M971.765 439.435L969.738 441.507L967.1 444.339C966.977 444.471 966.549 444.957 965.828 445.811L965.038 445.075C965.825 444.283 966.292 443.833 966.415 443.701L969.887 439.973C969.924 439.934 969.935 439.895 969.933 439.844C969.919 439.807 969.879 439.744 969.812 439.658L968.655 438.285L968.864 438.061L971.765 439.435Z" fill="#1A1417"/>
<path d="M731.242 341.899L738.996 342.21L739.186 343.458C738.94 343.608 738.532 343.792 738.006 343.931C737.48 344.07 737.036 344.173 736.635 344.197C736.734 345.722 737.061 347.536 737.579 349.599L741.133 364.793L747.503 346.714L746.908 344.568C746.508 344.552 746.034 344.413 745.442 344.189C744.849 344.005 744.416 343.828 744.142 343.657L744.512 342.431L752.625 342.756L752.815 344.005C752.569 344.155 752.163 344.299 751.517 344.433C750.871 344.567 750.347 344.666 749.904 344.729C750.15 346.58 750.558 348.398 751.123 350.262L755.362 365.364L760.123 350.462C760.943 347.973 761.375 346.189 761.496 345.153C760.425 344.91 759.557 344.595 758.851 344.247L759.06 343.014L766.214 343.301L766.483 344.593C766.238 344.703 765.832 344.847 765.306 344.986C764.78 345.125 764.376 345.229 764.054 345.256C763.76 345.604 763.499 346.114 763.314 346.747C763.127 347.42 762.993 347.775 762.989 347.855L757.405 365.326C757.319 365.482 757.226 365.799 757.087 366.274C756.908 366.747 756.81 367.183 756.714 367.58C756.618 367.976 756.602 368.376 756.583 368.855L753.678 369.42L748.327 350.11L743.138 364.714C742.866 365.503 742.642 366.095 742.543 366.571C742.404 367.046 742.342 367.604 742.314 368.283L739.29 368.843L734.514 348.155C734 346.012 733.615 344.636 733.319 344.024C732.999 344.011 732.564 343.873 732.091 343.694C731.578 343.513 731.186 343.298 730.873 343.125L731.242 341.899Z" fill="#1A1417"/>
<path d="M793.362 367.677C793.189 368.541 792.913 369.551 792.481 370.78C792.05 372.009 791.707 372.927 791.452 373.535C790.199 373.262 788.115 372.862 785.189 372.413L773.684 370.647L773.589 369.419C773.674 369.391 774.094 369.294 774.809 369.12L775.818 368.871C776.204 368.727 776.457 368.402 776.621 367.861C776.952 366.495 777.195 365.44 777.316 364.649L779.366 351.285C779.706 349.071 779.748 347.742 779.578 347.271C778.282 346.748 777.455 346.338 777.056 346.034L777.521 344.851L787.919 346.446C789.145 346.634 790.529 346.847 792.043 346.998C793.552 347.189 794.546 347.301 794.954 347.283L795.769 348.298C795.657 348.767 795.45 349.585 795.138 350.832C794.785 352.073 794.527 352.964 794.336 353.42C793.797 353.5 793.317 353.466 792.934 353.327C793.115 351.614 793.164 350.246 793.084 349.181C792.713 348.963 792.172 348.799 791.387 348.638C790.602 348.477 789.185 348.219 787.169 347.909C784.796 347.546 783.315 347.44 782.652 347.54C782.318 348.136 782.099 349.034 781.923 350.18L780.85 357.178C781.075 357.294 781.464 357.394 782.057 357.485C782.65 357.576 783.401 357.691 784.35 357.837C784.904 357.922 785.536 358.019 786.339 358.061C787.097 358.137 787.662 358.143 788.03 358.118C788.365 357.522 788.753 356.57 789.185 355.341C789.541 355.396 789.884 355.53 790.261 355.709C789.891 357.594 789.664 358.814 789.591 359.288C789.391 360.593 789.196 361.858 789.081 363.136C788.701 363.239 788.333 363.264 787.99 363.13C787.907 361.822 787.815 360.837 787.715 360.174C787.106 359.919 785.893 359.652 784.114 359.379C782.058 359.063 780.905 358.927 780.577 358.958L779.649 365.007C779.388 366.707 779.248 368.142 779.231 369.313C779.55 369.605 780.04 369.842 780.739 370.03C781.433 370.258 782.81 370.51 784.946 370.838C786.053 371.007 786.962 371.147 787.725 371.183C788.483 371.259 789.173 371.243 789.763 371.091C790.112 370.659 790.526 370.075 791.055 369.266C791.538 368.49 791.936 367.742 792.243 367.061C792.474 367.137 792.845 367.355 793.362 367.677Z" fill="#1A1417"/>
<path d="M802.105 374.286C802.493 374.218 802.969 374.131 803.522 374.063C803.609 374.043 803.735 374.034 803.9 374.034C804.065 374.034 804.201 373.985 804.375 373.947C804.55 373.908 804.734 373.83 804.899 373.665C805.025 373.491 805.161 373.277 805.258 373.054C805.715 371.725 806.064 370.658 806.258 369.882L809.54 356.766C810.084 354.593 810.249 353.274 810.123 352.789C809.755 352.614 809.357 352.391 808.852 352.1C808.348 351.809 807.96 351.547 807.727 351.324L808.3 350.189L816.914 352.344C818.855 352.83 820.368 353.538 821.503 354.441C823.423 355.993 824.121 357.982 823.539 360.311C822.937 362.716 821.2 364.385 818.376 365.286C819.734 366.121 820.782 367.208 821.461 368.45C822.14 369.692 822.314 371.137 821.925 372.689C821.557 374.164 820.877 375.396 819.946 376.317C818.975 377.229 817.879 377.82 816.618 378.082C815.841 378.218 815.162 378.295 814.541 378.305C813.882 378.305 813.203 378.217 812.485 378.12L802.085 375.518L802.105 374.286ZM818.037 363.841C818.784 363.492 819.434 363.036 819.978 362.512C820.482 361.979 820.89 361.173 821.152 360.126C821.56 358.496 821.23 357.176 820.26 356.109C819.252 355.032 817.836 354.265 816.012 353.809C815.43 353.663 814.877 353.566 814.324 353.469C813.761 353.411 813.402 353.362 813.16 353.343C812.82 353.711 812.471 354.778 812.024 356.563L810.499 362.655C811.256 362.927 812.061 363.17 812.993 363.403C814.933 363.888 816.621 364.063 818.037 363.841ZM813.572 376.578C814.367 376.694 815.027 376.694 815.59 376.588C816.288 376.433 817.016 375.996 817.753 375.356C818.491 374.716 819.015 373.775 819.335 372.495C819.762 370.787 819.443 369.264 818.415 367.935C817.348 366.596 815.844 365.683 813.826 365.179C812.274 364.79 811.013 364.557 810.062 364.402L808.616 370.183C808.101 372.24 807.8 373.773 807.703 374.82C808.799 375.383 810.011 375.81 811.331 376.141C812.029 376.315 812.776 376.461 813.572 376.578Z" fill="#1A1417"/>
<path d="M848.361 361.537C849.077 361.912 849.995 362.442 851.113 363.125L851.896 364.285C851.739 364.739 851.402 365.469 850.935 366.45C850.417 367.456 849.978 368.235 849.553 368.85C849.136 368.833 848.707 368.726 848.28 368.494C848.399 368.027 848.52 367.434 848.706 366.652C848.854 365.857 848.964 365.175 849.097 364.544C848.634 364.172 848.081 363.811 847.415 363.411C846.699 363.036 846.045 362.725 845.402 362.502C843.361 361.796 841.615 361.826 840.253 362.582C839.373 363.166 838.794 363.982 838.441 365.002C838.127 365.909 838.105 366.706 838.4 367.443C838.682 368.218 839.13 368.881 839.755 369.521C840.38 370.161 841.232 370.879 842.335 371.727C843.637 372.855 844.702 373.816 845.49 374.597C846.227 375.402 846.785 376.357 847.151 377.5C847.479 378.63 847.414 379.919 846.917 381.356C846.432 382.754 845.598 383.82 844.437 384.603C843.277 385.387 842.044 385.891 840.701 386.103C839.358 386.315 838.219 386.302 837.248 386.051C834.98 385.265 832.554 383.96 830.007 382.146C830.062 381.742 830.326 380.86 830.708 379.511C831.077 378.199 831.406 377.128 831.706 376.385C832.023 376.325 832.515 376.369 833.159 376.465C833.049 377.273 832.95 378.17 832.913 379.131C832.826 380.117 832.83 380.838 832.875 381.319C833.351 381.78 834.028 382.269 834.87 382.772C835.712 383.275 836.517 383.639 837.349 383.927C838.785 384.424 840.163 384.478 841.521 384.101C842.629 383.469 843.529 382.215 844.157 380.4C844.498 379.417 844.508 378.532 844.239 377.719C843.919 376.931 843.485 376.231 842.859 375.591C842.234 374.951 841.358 374.182 840.23 373.283C838.964 372.295 837.987 371.448 837.312 370.707C836.6 369.952 836.091 369.099 835.761 368.096C835.431 367.093 835.52 365.98 835.965 364.695C836.279 363.788 836.769 362.984 837.473 362.297C838.163 361.647 838.966 361.163 839.856 360.794C841.507 360.18 843.344 360.012 845.364 360.288C846.65 360.733 847.644 361.162 848.361 361.537Z" fill="#1A1417"/>
<path d="M854.378 390.779C854.556 390.769 855.04 390.758 855.722 390.79C856.153 390.801 856.495 390.817 856.673 390.807C857.014 390.823 857.34 390.571 857.703 390.03C858.113 389.379 858.628 388.381 859.212 387.021L864.513 374.671C865.365 372.686 865.755 371.373 865.723 370.837C864.694 370.091 863.996 369.487 863.592 369.008L864.338 367.979L871.653 371.119L871.385 372.353C871.101 372.406 870.633 372.379 870.056 372.305C869.478 372.231 868.99 372.152 868.627 372.084C868.118 372.561 867.502 373.69 866.745 375.455L861.081 388.65C860.576 389.827 860.124 390.982 859.797 392.148C860.06 392.347 860.49 392.663 861.015 393.062C861.525 393.498 861.939 393.851 862.17 394.124L861.476 395.132L854.162 391.992L854.378 390.779Z" fill="#1A1417"/>
<path d="M882.046 375.587C882.577 375.953 883.375 376.413 884.386 376.983C885.397 377.554 886.462 378.107 887.562 378.679L893.384 381.703C894.448 382.256 895.584 382.846 896.739 383.401C897.893 383.956 898.657 384.307 898.978 384.384L899.405 385.643C899.112 386.122 898.635 386.866 898.048 387.822C897.406 388.797 896.874 389.647 896.416 390.356C896.166 390.316 895.757 390.148 895.189 389.853C895.93 388.255 896.452 386.903 896.792 385.728C896.546 385.42 896.193 385.146 895.768 384.835C895.29 384.541 894.527 384.1 893.462 383.547L891.013 382.274C890.541 382.75 889.769 384.062 888.699 386.121L882.208 398.615C881.47 400.035 880.897 401.225 880.542 402.167C881.691 403.08 882.59 403.952 883.293 404.768L882.637 405.51L874.403 401.231L874.632 400.269C875.597 400.319 876.561 400.46 877.596 400.637C877.919 400.624 878.262 400.397 878.591 399.937C879.176 399.158 879.763 398.201 880.372 397.03L886.605 385.033C887.712 382.903 888.306 381.499 888.422 380.928C886.15 379.748 884.677 379.027 883.984 378.712C883.291 378.398 882.703 378.227 882.274 378.185C881.508 379.139 880.702 380.343 879.82 381.868C879.181 381.536 878.809 381.298 878.704 381.153C879.02 380.371 879.375 379.428 879.839 378.362C880.267 377.277 880.583 376.495 880.841 375.998L882.046 375.587Z" fill="#1A1417"/>
<path d="M914.176 417.671C913.668 418.391 913.007 419.203 912.115 420.152C911.223 421.101 910.538 421.802 910.058 422.255C909.023 421.498 907.28 420.288 904.786 418.694L894.979 412.423L895.39 411.261C895.479 411.271 895.902 411.351 896.626 411.482L897.65 411.662C898.061 411.687 898.424 411.492 898.793 411.063C899.648 409.948 900.297 409.081 900.728 408.408L908.012 397.017C909.218 395.13 909.795 393.932 909.83 393.432C908.856 392.429 908.266 391.719 908.024 391.28L908.928 390.386L917.791 396.054C918.836 396.722 920.015 397.476 921.339 398.227C922.641 399.013 923.505 399.518 923.885 399.666L924.22 400.924C923.928 401.307 923.408 401.972 922.617 402.985C921.793 403.978 921.196 404.688 920.836 405.028C920.312 404.882 919.886 404.658 919.592 404.375C920.451 402.882 921.049 401.65 921.407 400.645C921.156 400.295 920.728 399.926 920.075 399.461C919.423 398.996 918.231 398.187 916.513 397.088C914.491 395.795 913.179 395.099 912.532 394.922C911.985 395.332 911.422 396.064 910.797 397.042L906.983 403.006C907.142 403.203 907.458 403.452 907.963 403.776C908.469 404.099 909.109 404.508 909.918 405.025C910.39 405.327 910.929 405.672 911.646 406.035C912.308 406.411 912.823 406.645 913.169 406.772C913.716 406.362 914.457 405.649 915.349 404.7C915.652 404.894 915.912 405.155 916.184 405.472C915.083 407.046 914.381 408.069 914.122 408.474C913.411 409.586 912.722 410.664 912.1 411.786C911.71 411.726 911.364 411.6 911.103 411.339C911.557 410.109 911.872 409.171 912.048 408.524C911.595 408.045 910.594 407.309 909.077 406.34C907.325 405.219 906.326 404.628 906.013 404.523L902.716 409.679C901.79 411.128 901.082 412.384 900.591 413.448C900.765 413.844 901.117 414.259 901.681 414.714C902.223 415.203 903.381 415.991 905.2 417.155C906.144 417.758 906.919 418.254 907.603 418.596C908.264 418.971 908.902 419.237 909.503 419.336C909.997 419.082 910.612 418.716 911.423 418.19C912.179 417.676 912.846 417.153 913.402 416.654C913.583 416.817 913.833 417.167 914.176 417.671Z" fill="#1A1417"/>
<path d="M428.014 491.113C427.382 491.333 426.72 491.364 426.03 491.206C425.339 491.048 424.696 490.694 424.063 490.16C423.443 489.638 422.968 489.001 422.672 488.235C422.377 487.468 422.259 486.686 422.358 485.898C422.446 485.124 422.733 484.448 423.22 483.87C423.708 483.292 424.286 482.885 424.919 482.665C425.552 482.445 426.213 482.415 426.904 482.573C427.594 482.731 428.249 483.071 428.868 483.593C429.501 484.127 429.966 484.777 430.261 485.544C430.556 486.311 430.66 487.081 430.573 487.855C430.474 488.643 430.186 489.319 429.711 489.883C429.212 490.475 428.647 490.894 428.014 491.113ZM429.795 487.577C429.835 486.998 429.712 486.447 429.434 485.883C429.158 485.344 428.785 484.865 428.29 484.448C427.533 483.809 426.751 483.48 425.958 483.471C425.165 483.462 424.456 483.829 423.806 484.6C423.388 485.095 423.166 485.638 423.126 486.216C423.1 486.806 423.224 487.357 423.499 487.896C423.775 488.434 424.16 488.9 424.641 489.306C425.412 489.956 426.168 490.287 426.961 490.296C427.742 490.319 428.452 489.952 429.102 489.181C429.519 488.686 429.755 488.155 429.795 487.577Z" fill="#1A1417"/>
<path d="M434.404 483.533C433.772 483.753 433.11 483.784 432.42 483.626C431.729 483.468 431.086 483.114 430.453 482.58C429.833 482.058 429.358 481.421 429.062 480.654C428.767 479.888 428.649 479.106 428.748 478.318C428.836 477.544 429.123 476.868 429.61 476.29C430.098 475.712 430.676 475.305 431.309 475.085C431.942 474.865 432.603 474.834 433.294 474.993C433.984 475.151 434.639 475.491 435.258 476.013C435.891 476.547 436.356 477.197 436.651 477.964C436.946 478.731 437.05 479.501 436.963 480.275C436.864 481.063 436.576 481.739 436.101 482.303C435.602 482.895 435.037 483.313 434.404 483.533ZM436.185 479.997C436.225 479.418 436.102 478.867 435.824 478.303C435.548 477.764 435.175 477.285 434.68 476.868C433.923 476.229 433.141 475.9 432.348 475.891C431.555 475.882 430.846 476.249 430.196 477.02C429.778 477.515 429.556 478.058 429.516 478.636C429.49 479.226 429.614 479.777 429.889 480.316C430.165 480.854 430.55 481.32 431.031 481.726C431.802 482.376 432.558 482.707 433.351 482.716C434.132 482.739 434.842 482.372 435.492 481.601C435.909 481.106 436.145 480.575 436.185 479.997Z" fill="#1A1417"/>
<path d="M438.306 468.041C439.366 468.181 440.446 468.715 441.575 469.666C442.455 470.409 443.119 471.297 443.562 472.307C444.02 473.328 444.2 474.399 444.104 475.518C444.022 476.649 443.628 477.73 442.924 478.761L442.079 478.284C442.582 477.296 442.92 476.615 443.056 476.259C443.192 475.903 443.265 475.564 443.274 475.218C443.315 474.5 443.204 473.794 442.94 473.101C442.677 472.408 442.265 471.779 441.702 471.162C441.278 472.783 440.996 473.675 440.894 473.824C440.838 473.919 440.734 474.042 440.606 474.194C439.98 474.937 439.298 475.327 438.509 475.369C437.734 475.422 436.966 475.104 436.196 474.455C435.687 474.025 435.298 473.509 435.052 472.879C434.795 472.262 434.704 471.644 434.777 470.999C434.85 470.354 435.095 469.784 435.513 469.288C436.325 468.325 437.261 467.913 438.306 468.041ZM441.133 470.636L441.106 470.613C438.945 468.791 437.289 468.549 436.153 469.898C435.642 470.504 435.466 471.132 435.584 471.773C435.691 472.428 436.086 473.02 436.747 473.577C437.435 474.157 438.084 474.422 438.676 474.333C439.283 474.255 439.838 473.876 440.34 473.169L441.133 470.636Z" fill="#1A1417"/>
<path d="M347.69 772.219C348.162 772.125 348.992 771.969 350.255 771.731C351.519 771.493 352.436 771.354 352.919 771.299C353.051 771.469 353.156 771.688 353.234 771.957C353.349 772.216 353.416 772.446 353.432 772.649C353.29 772.732 352.724 772.936 351.823 773.278C350.923 773.62 350.176 773.918 349.605 774.249C349.562 774.677 349.64 775.238 349.811 775.979C349.994 776.759 350.342 778.116 350.894 780.038C351.502 782.152 352.004 783.465 352.373 784.025C353.054 784.078 353.96 783.901 355.037 783.592L362.187 781.537C362.209 781.323 362.093 780.774 361.839 779.889L361.397 778.352C361.242 777.813 361.055 777.16 360.768 776.452C360.519 775.732 360.288 775.216 360.112 774.892C359.315 774.871 358.337 774.944 357.156 775.034C357.067 774.726 357.034 774.32 357.039 773.902C358.253 773.637 359.406 773.305 360.559 772.974C361.866 772.598 363.096 772.245 364.228 771.836C364.47 772.1 364.619 772.473 364.729 772.858C363.576 773.48 362.72 773.976 362.111 774.318C362.144 774.724 362.26 775.273 362.382 775.988C362.554 776.729 362.703 777.394 362.858 777.932C363.377 779.739 363.714 780.766 363.879 781.051L370.338 779.195C371.337 778.908 372.48 778.538 373.704 778.02C373.649 777.828 373.609 777.256 373.537 776.278C373.513 775.328 373.501 774.707 373.528 774.366L374.759 774.304L377.112 782.493L376.036 783.093C375.854 782.896 375.59 782.555 375.194 782.045C374.929 781.705 374.726 781.43 374.605 781.299C374.362 781.035 373.923 780.953 373.351 780.993C372.588 781.087 371.489 781.32 370.067 781.729L357.15 785.44C354.997 786.059 353.772 786.577 353.416 786.93C353.484 788.325 353.458 789.248 353.348 789.737L352.079 789.811L349.251 779.969C348.909 778.777 348.533 777.47 348.048 776.07C347.6 774.658 347.297 773.747 347.109 773.384L347.69 772.219Z" fill="#1A1417"/>
<path d="M369.52 757.012C369.418 756.865 369.154 756.46 368.822 755.863C368.604 755.491 368.438 755.192 368.335 755.046C368.169 754.747 367.783 754.603 367.133 754.579C366.363 754.574 365.244 754.661 363.78 754.881L350.489 756.878C348.353 757.199 347.032 757.559 346.593 757.868C346.5 759.135 346.354 760.047 346.161 760.643L344.893 760.55L343.71 752.678L344.901 752.257C345.095 752.47 345.318 752.882 345.56 753.412C345.801 753.942 345.991 754.399 346.124 754.743C346.798 754.924 348.082 754.853 349.98 754.568L364.181 752.434C365.447 752.244 366.667 752.02 367.83 751.684C367.862 751.355 367.903 750.823 367.966 750.166C368.069 749.504 368.15 748.966 368.26 748.626L369.483 748.685L370.666 756.556L369.52 757.012Z" fill="#1A1417"/>
<path d="M342.272 738.625L342.096 730.347L343.332 730.12C343.798 731.351 344.098 732.305 344.234 733.022C344.637 733.173 345.119 733.283 345.76 733.31C346.402 733.376 347.241 733.358 348.361 733.334L361.838 733.047C363.438 733.013 364.836 732.903 365.992 732.719C366.186 732.434 366.335 731.911 366.44 731.189C366.544 730.466 366.567 729.666 366.547 728.706C366.526 727.746 366.508 726.866 366.412 726.148C366.357 725.429 366.221 724.672 365.964 723.877C365.397 723.569 363.786 723.043 361.17 722.339C361.167 722.179 361.242 721.977 361.316 721.696C361.39 721.414 361.505 721.172 361.581 720.97C362.462 721.031 363.665 721.126 365.11 721.335C366.594 721.543 367.597 721.682 368.161 721.83C368.108 723.111 368.071 725.113 368.129 727.872L368.345 737.99L367.15 738.255C367.067 738.097 366.858 737.661 366.604 737.027C366.435 736.63 366.309 736.313 366.225 736.154C366.059 735.838 365.694 735.606 365.132 735.538C364.57 735.47 363.489 735.413 361.809 735.448L348.292 735.736C346.133 735.782 344.776 735.931 344.301 736.181C344.047 737.427 343.786 738.313 343.518 738.879L342.272 738.625Z" fill="#1A1417"/>
<path d="M343.35 702.312C344.764 702.107 346.614 701.733 348.852 701.222L366.603 697.07L350.702 687.051L349.679 686.39C348.216 685.45 347.147 684.821 346.398 684.45L347.253 679.443L348.483 679.369C348.684 680.093 348.805 681.047 348.853 682.191C349.228 682.377 349.773 682.51 350.496 682.553L366.759 684.03C368.554 684.214 369.882 684.279 370.783 684.23C370.916 683.928 371.122 683.435 371.394 682.792C371.705 682.155 371.95 681.67 372.162 681.381L373.298 681.859L371.952 689.745L370.729 689.78C370.533 689.259 370.399 688.384 370.272 687.226C369.76 686.896 368.913 686.629 367.716 686.506L350.717 684.822L366.947 695.059C367.675 695.548 368.265 695.892 368.685 696.045C369.099 696.238 369.644 696.371 370.314 696.486L370.438 698.617L347.44 704.025L362.702 707.563L366.658 708.4C366.79 708.098 366.996 707.606 367.268 706.962C367.573 706.365 367.818 705.88 368.03 705.591L369.166 706.069L367.901 713.482L366.671 713.556C366.482 712.996 366.327 712.239 366.166 711.279C366.063 710.936 365.788 710.646 365.262 710.394C364.658 710.128 363.47 709.723 361.604 709.242L348.99 706.115C348.366 705.968 347.624 705.801 346.756 705.653C345.889 705.505 345.297 705.404 344.903 705.336C344.757 705.717 344.551 706.21 344.253 706.767C343.988 707.371 343.763 707.739 343.611 707.916L342.468 707.477L343.35 702.312Z" fill="#1A1417"/>
<path d="M762.8 1095.57C763.388 1095.89 763.855 1096.36 764.201 1096.98C764.547 1097.6 764.716 1098.31 764.746 1099.14C764.775 1099.95 764.622 1100.73 764.252 1101.46C763.882 1102.2 763.381 1102.81 762.731 1103.27C762.099 1103.72 761.405 1103.96 760.65 1103.99C759.894 1104.01 759.204 1103.86 758.616 1103.54C758.028 1103.22 757.561 1102.75 757.215 1102.13C756.869 1101.51 756.682 1100.8 756.653 1099.99C756.623 1099.16 756.794 1098.38 757.164 1097.65C757.534 1096.91 758.035 1096.32 758.668 1095.86C759.318 1095.41 760.012 1095.17 760.749 1095.14C761.523 1095.11 762.212 1095.25 762.8 1095.57ZM758.983 1096.63C758.527 1096.98 758.202 1097.45 757.97 1098.03C757.756 1098.6 757.651 1099.2 757.674 1099.84C757.71 1100.83 757.99 1101.63 758.516 1102.23C759.041 1102.82 759.789 1103.1 760.797 1103.06C761.444 1103.04 761.996 1102.84 762.451 1102.48C762.906 1102.11 763.232 1101.64 763.446 1101.08C763.66 1100.51 763.747 1099.92 763.724 1099.29C763.689 1098.28 763.427 1097.49 762.901 1096.9C762.394 1096.31 761.645 1096.03 760.638 1096.06C759.99 1096.09 759.438 1096.27 758.983 1096.63Z" fill="#1A1417"/>
<path d="M752.892 1095.92C753.48 1096.25 753.947 1096.72 754.293 1097.33C754.639 1097.95 754.809 1098.67 754.838 1099.49C754.867 1100.3 754.715 1101.08 754.344 1101.82C753.974 1102.55 753.474 1103.16 752.823 1103.62C752.191 1104.07 751.497 1104.31 750.742 1104.34C749.986 1104.37 749.296 1104.21 748.708 1103.89C748.121 1103.57 747.654 1103.1 747.308 1102.48C746.961 1101.86 746.774 1101.15 746.745 1100.34C746.716 1099.51 746.886 1098.73 747.256 1098C747.626 1097.26 748.128 1096.67 748.76 1096.22C749.41 1095.76 750.104 1095.52 750.841 1095.49C751.615 1095.47 752.304 1095.6 752.892 1095.92ZM749.075 1096.98C748.62 1097.34 748.294 1097.8 748.062 1098.38C747.848 1098.95 747.744 1099.55 747.767 1100.2C747.802 1101.18 748.082 1101.99 748.608 1102.58C749.133 1103.17 749.882 1103.45 750.889 1103.42C751.537 1103.39 752.088 1103.19 752.543 1102.84C752.998 1102.46 753.324 1102 753.538 1101.43C753.752 1100.86 753.839 1100.27 753.817 1099.64C753.781 1098.63 753.519 1097.85 752.993 1097.25C752.486 1096.66 751.738 1096.38 750.73 1096.42C750.083 1096.44 749.531 1096.62 749.075 1096.98Z" fill="#1A1417"/>
<path d="M739.073 1101.26C738.723 1101.06 738.425 1100.78 738.179 1100.45C737.951 1100.11 737.811 1099.7 737.793 1099.2C737.769 1098.53 737.929 1097.95 738.271 1097.45C738.613 1096.94 739.067 1096.54 739.634 1096.27C740.201 1096 740.79 1095.85 741.401 1095.83C742.067 1095.8 742.665 1095.91 743.178 1096.14C743.708 1096.38 744.117 1096.72 744.421 1097.16C744.724 1097.58 744.868 1098.08 744.887 1098.62C744.909 1099.23 744.731 1099.82 744.355 1100.37C743.978 1100.92 743.399 1101.36 742.619 1101.71C743.223 1101.98 743.703 1102.32 744.043 1102.74C744.382 1103.16 744.564 1103.71 744.588 1104.41C744.609 1104.99 744.484 1105.52 744.176 1106C743.869 1106.48 743.468 1106.85 742.974 1107.12C742.479 1107.39 741.962 1107.53 741.404 1107.55C740.846 1107.57 740.338 1107.47 739.899 1107.27C739.459 1107.05 739.123 1106.73 738.858 1106.35C738.61 1105.96 738.468 1105.51 738.45 1105.03C738.429 1104.42 738.589 1103.85 738.929 1103.3C739.27 1102.75 739.758 1102.3 740.429 1101.91C739.88 1101.68 739.44 1101.46 739.073 1101.26ZM743.087 1103.21C742.714 1102.86 742.163 1102.56 741.451 1102.29L741.341 1102.24C740.667 1102.52 740.158 1102.92 739.815 1103.4C739.472 1103.88 739.309 1104.37 739.329 1104.91C739.349 1105.48 739.563 1105.93 739.97 1106.24C740.378 1106.55 740.905 1106.69 741.553 1106.67C742.2 1106.64 742.733 1106.44 743.136 1106.11C743.538 1105.77 743.718 1105.27 743.696 1104.64C743.674 1104.01 743.477 1103.54 743.087 1103.21ZM739.455 1097.32C739 1097.7 738.786 1098.26 738.813 1099.02C738.826 1099.4 738.946 1099.72 739.171 1099.98C739.397 1100.24 739.674 1100.45 740.005 1100.62C740.335 1100.78 740.791 1100.97 741.358 1101.2L741.742 1101.35C742.453 1101.09 742.998 1100.72 743.36 1100.26C743.722 1099.8 743.884 1099.29 743.865 1098.75C743.843 1098.14 743.609 1097.62 743.127 1097.24C742.645 1096.87 742.044 1096.69 741.307 1096.71C740.533 1096.74 739.91 1096.94 739.455 1097.32Z" fill="#1A1417"/>
<path d="M956.139 990.135C956.085 990.305 955.922 990.76 955.648 991.386C955.483 991.785 955.346 992.098 955.292 992.268C955.155 992.581 955.274 992.976 955.649 993.508C956.111 994.124 956.858 994.962 957.919 995.993L967.556 1005.36C969.162 1006.92 970.22 1007.73 970.702 1007.86C971.768 1007.17 972.582 1006.73 973.173 1006.53L973.867 1007.59L967.37 1014.27C965.864 1015.82 964.38 1016.83 962.944 1017.34C961.817 1017.69 960.744 1017.76 959.609 1017.55C958.503 1017.31 957.476 1016.76 956.501 1015.81C955.383 1014.73 954.602 1013.52 954.188 1012.23C953.773 1010.93 953.67 1009.6 953.934 1008.3C954.195 1006.71 954.91 1005.29 956.024 1004.03C956.972 1003.05 958.145 1002.02 959.572 1000.89L955.528 996.961C954.553 996.013 953.665 995.205 952.835 994.566C951.857 995.4 950.681 996.209 949.305 996.935L948.726 996.038L955.084 989.499L956.139 990.135ZM955.462 1008.28C955.291 1010.23 956.081 1012.06 957.83 1013.76C959.207 1015.1 960.6 1015.62 962.039 1015.34C963.478 1015.07 964.881 1014.25 966.247 1012.85C967.585 1011.47 968.308 1010.56 968.528 1010.1C968.322 1009.57 967.431 1008.53 965.853 1007L960.949 1002.23C959.966 1002.73 958.875 1003.62 957.676 1004.85C956.505 1006.06 955.729 1007.2 955.462 1008.28Z" fill="#1A1417"/>
<path d="M945.237 1034.15C943.445 1035.56 941.863 1036.4 940.549 1036.67C939.435 1036.93 938.361 1036.86 937.321 1036.51C936.312 1036.13 935.393 1035.48 934.626 1034.5C933.613 1033.22 933.075 1031.76 932.926 1030.14C932.809 1028.5 933.078 1026.97 933.765 1025.51L925.723 1022.73C925.206 1022.52 924.571 1022.36 923.798 1022.16C923.025 1021.95 922.414 1021.82 921.989 1021.8C921.25 1022.02 920.605 1022.17 920.03 1022.22L919.589 1021.14L922.577 1018.79C923.248 1019.13 924.749 1019.68 927.041 1020.52C926.904 1020.48 927.783 1020.75 929.614 1021.4C931.146 1021.92 932.485 1022.4 933.582 1022.76C934.678 1023.12 935.395 1023.32 935.651 1023.32C937.059 1022.26 938.335 1021.36 939.416 1020.66L935.93 1016.23C934.792 1014.78 933.895 1013.71 933.201 1013.08C932.9 1013.22 932.449 1013.42 931.815 1013.72C931.157 1013.98 930.649 1014.17 930.299 1014.25L929.777 1013.13L936.035 1008.21L936.996 1008.98C936.92 1009.14 936.698 1009.57 936.343 1010.16C936.103 1010.5 935.957 1010.76 935.842 1011.01C935.721 1011.31 935.786 1011.71 936.063 1012.26C936.438 1012.93 937.043 1013.83 937.933 1014.96L946.29 1025.59C947.674 1027.35 948.616 1028.29 949.077 1028.49C950.281 1027.95 951.145 1027.62 951.671 1027.51L952.249 1028.64L945.237 1034.15ZM934.862 1027.3C934.725 1027.96 934.743 1028.76 934.91 1029.75C935.052 1030.71 935.506 1031.68 936.248 1032.62C937.311 1033.97 938.58 1034.55 940.018 1034.44C941.487 1034.3 942.992 1033.63 944.502 1032.44C945.697 1031.5 946.377 1030.81 946.655 1030.39C946.572 1029.89 945.918 1028.93 944.731 1027.42L940.726 1022.33C939.861 1022.65 938.875 1023.28 937.68 1024.22C936.234 1025.35 935.288 1026.35 934.862 1027.3Z" fill="#1A1417"/>
<path d="M912.911 1026.76C912.817 1026.91 912.547 1027.31 912.127 1027.85C911.871 1028.2 911.661 1028.47 911.567 1028.62C911.357 1028.89 911.376 1029.3 911.609 1029.91C911.905 1030.62 912.424 1031.61 913.2 1032.88L920.246 1044.32C921.379 1046.16 922.228 1047.23 922.684 1047.52C923.887 1047.11 924.783 1046.88 925.406 1046.83L925.818 1048.03L919.04 1052.2L918.185 1051.27C918.306 1051.01 918.596 1050.64 918.989 1050.21C919.382 1049.78 919.728 1049.43 919.993 1049.17C919.896 1048.48 919.327 1047.33 918.32 1045.69L910.792 1033.47C910.121 1032.38 909.437 1031.34 908.672 1030.4C908.357 1030.5 907.851 1030.67 907.222 1030.87C906.573 1031.04 906.046 1031.17 905.69 1031.2L905.265 1030.06L912.043 1025.88L912.911 1026.76Z" fill="#1A1417"/>
<path d="M902.252 1061.36L878.97 1047.49L885.576 1062.06C886.485 1064.07 887.209 1065.28 887.659 1065.69C888.831 1065.46 889.711 1065.37 890.281 1065.47L890.558 1066.66L884.073 1069.6L883.395 1068.59C883.7 1068.1 884.313 1067.51 885.291 1066.76C885.308 1066.32 885.202 1065.79 884.974 1065.19C884.766 1064.54 884.403 1063.74 883.974 1062.79L878.82 1051.43C877.334 1048.15 876.23 1046.1 875.542 1045.36L877.093 1043.64L900.931 1057.47L894.341 1042.94C893.647 1041.41 893.066 1040.22 892.524 1039.42C891.044 1039.73 890.017 1039.89 889.464 1039.84L889.151 1038.66L895.963 1035.57L896.714 1036.55C896.601 1036.69 896.452 1036.84 896.247 1037.07C896.041 1037.29 895.856 1037.47 895.743 1037.6C895.485 1037.81 895.263 1038 895.11 1038.24C894.921 1038.5 894.888 1038.91 895.01 1039.47C895.165 1040.11 895.62 1041.3 896.397 1043.02L901.699 1054.71C901.963 1055.29 902.33 1056.01 902.766 1056.77C903.202 1057.54 903.523 1058.06 903.797 1058.37C905.241 1058.07 906.211 1057.98 906.638 1058.05L906.951 1059.23L902.252 1061.36Z" fill="#1A1417"/>
<path d="M872.789 1073.72C872.152 1073.82 871.257 1074.03 870.131 1074.32C869.005 1074.6 867.852 1074.93 866.661 1075.27L860.358 1077.09C859.205 1077.42 857.975 1077.78 856.756 1078.17C855.538 1078.57 854.742 1078.84 854.456 1079L853.279 1078.38C853.162 1077.84 852.995 1076.97 852.762 1075.87C852.555 1074.72 852.355 1073.74 852.199 1072.91C852.408 1072.77 852.819 1072.61 853.434 1072.43C853.999 1074.1 854.552 1075.44 855.115 1076.52C855.505 1076.58 855.95 1076.53 856.472 1076.46C857.021 1076.35 857.878 1076.14 859.031 1075.81L861.682 1075.05C861.697 1074.37 861.353 1072.89 860.71 1070.66L856.808 1057.13C856.364 1055.6 855.96 1054.34 855.568 1053.41C854.107 1053.54 852.854 1053.53 851.782 1053.42L851.747 1052.43L860.663 1049.86L861.16 1050.72C860.425 1051.35 859.63 1051.91 858.758 1052.49C858.533 1052.72 858.441 1053.12 858.519 1053.69C858.631 1054.65 858.865 1055.75 859.231 1057.02L862.977 1070.01C863.643 1072.31 864.179 1073.74 864.488 1074.24C866.948 1073.53 868.512 1073.03 869.232 1072.78C869.951 1072.54 870.494 1072.25 870.834 1071.99C870.732 1070.77 870.487 1069.34 870.076 1067.63C870.768 1067.43 871.201 1067.35 871.377 1067.38C871.687 1068.16 872.079 1069.09 872.478 1070.18C872.915 1071.26 873.224 1072.05 873.379 1072.59L872.789 1073.72Z" fill="#1A1417"/>
</svg>
