<svg width="1440" height="1440" viewBox="0 0 1440 1440" fill="none" xmlns="http://www.w3.org/2000/svg">
<path d="M720.5 322.5C941.414 322.5 1120.5 501.363 1120.5 722C1120.5 942.637 941.414 1121.5 720.5 1121.5C499.586 1121.5 320.5 942.637 320.5 722C320.5 501.363 499.586 322.5 720.5 322.5Z" fill="white" stroke="#1A1417" vector-effect="non-scaling-stroke"/>
      <line x1="719.5" y1="1122" x2="719.5" y2="322" stroke="#1A1417" vector-effect="non-scaling-stroke"/>
      <line x1="435.765" y1="1003.53" x2="1001.77" y2="437.526" stroke="#1A1417" vector-effect="non-scaling-stroke"/>
      <path d="M1003.65 1004.36L438.5 439" stroke="#1A1417" vector-effect="non-scaling-stroke"/>
      <path d="M1108 623.943C833.064 691.641 606.909 747.328 332 815.019L1108 623.943Z" stroke="#1A1417" vector-effect="non-scaling-stroke"/>
      <path d="M743.759 341.966C744.032 343.369 744.495 345.199 745.113 347.409L750.118 364.94L759.357 348.574L759.968 347.52C760.836 346.013 761.413 344.915 761.747 344.149L766.79 344.762L766.924 345.987C766.21 346.222 765.263 346.389 764.122 346.493C763.955 346.875 763.848 347.426 763.84 348.151L763.15 364.466C763.052 366.268 763.052 367.597 763.144 368.495C763.452 368.613 763.954 368.795 764.61 369.036C765.261 369.316 765.758 369.538 766.056 369.735L765.633 370.893L757.692 369.929L757.598 368.708C758.108 368.488 758.976 368.312 760.126 368.129C760.432 367.602 760.657 366.743 760.722 365.542L761.584 348.481L752.143 365.186C751.689 365.936 751.374 366.543 751.241 366.97C751.069 367.392 750.962 367.943 750.88 368.618L748.757 368.844L742.246 346.134L739.448 361.55L738.803 365.541C739.111 365.659 739.613 365.841 740.268 366.081C740.88 366.357 741.377 366.579 741.675 366.776L741.252 367.933L733.787 367.027L733.654 365.802C734.204 365.587 734.952 365.396 735.904 365.189C736.241 365.069 736.518 364.78 736.744 364.243C736.98 363.627 737.328 362.42 737.718 360.534L740.233 347.784C740.35 347.153 740.481 346.404 740.587 345.53C740.693 344.656 740.765 344.061 740.813 343.664C740.426 343.536 739.924 343.354 739.353 343.083C738.737 342.848 738.359 342.641 738.175 342.497L738.557 341.335L743.759 341.966Z" fill="#1A1417"/>
      <path d="M778.931 346.235C779.204 347.638 779.667 349.467 780.285 351.678L785.289 369.208L794.528 352.842L795.14 351.788C796.008 350.282 796.584 349.183 796.919 348.418L801.962 349.03L802.095 350.255C801.382 350.491 800.435 350.658 799.294 350.761C799.127 351.144 799.019 351.695 799.012 352.42L798.321 368.735C798.223 370.537 798.223 371.866 798.316 372.764C798.624 372.882 799.126 373.064 799.781 373.304C800.432 373.585 800.929 373.806 801.228 374.004L800.805 375.161L792.863 374.197L792.77 372.977C793.28 372.757 794.148 372.58 795.298 372.398C795.604 371.871 795.829 371.011 795.894 369.811L796.756 352.75L787.314 369.454C786.861 370.205 786.545 370.811 786.413 371.239C786.241 371.661 786.134 372.212 786.052 372.887L783.929 373.113L777.418 350.403L774.62 365.818L773.974 369.81C774.282 369.928 774.784 370.109 775.44 370.35C776.051 370.626 776.548 370.847 776.847 371.045L776.424 372.202L768.959 371.296L768.825 370.071C769.375 369.856 770.124 369.665 771.076 369.458C771.413 369.337 771.689 369.049 771.916 368.512C772.152 367.896 772.5 366.689 772.89 364.802L775.404 352.052C775.521 351.422 775.652 350.672 775.758 349.799C775.864 348.925 775.937 348.33 775.985 347.932C775.597 347.805 775.096 347.623 774.524 347.352C773.908 347.116 773.53 346.909 773.346 346.766L773.729 345.604L778.931 346.235Z" fill="#1A1417"/>
      <path d="M954.563 434.901C954.375 434.258 954.377 433.596 954.569 432.914C954.761 432.232 955.146 431.607 955.711 431.001C956.263 430.409 956.922 429.965 957.703 429.708C958.483 429.451 959.27 429.372 960.052 429.51C960.82 429.635 961.481 429.956 962.034 430.471C962.588 430.986 962.966 431.584 963.154 432.227C963.342 432.87 963.34 433.532 963.148 434.214C962.956 434.896 962.584 435.533 962.032 436.126C961.467 436.732 960.795 437.163 960.015 437.42C959.234 437.677 958.459 437.743 957.691 437.617C956.909 437.48 956.248 437.159 955.708 436.656C955.142 436.129 954.752 435.544 954.563 434.901ZM958.008 436.855C958.583 436.923 959.14 436.827 959.717 436.577C960.269 436.329 960.766 435.98 961.207 435.506C961.882 434.781 962.25 434.017 962.298 433.225C962.346 432.434 962.015 431.707 961.277 431.02C960.803 430.578 960.272 430.33 959.696 430.261C959.108 430.206 958.552 430.302 958 430.551C957.448 430.8 956.965 431.161 956.535 431.622C955.848 432.359 955.48 433.098 955.431 433.89C955.37 434.669 955.701 435.396 956.439 436.083C956.913 436.524 957.432 436.786 958.008 436.855Z" fill="#1A1417"/>
      <path d="M968.061 435.985L966.033 438.057L963.395 440.889C963.273 441.02 962.844 441.507 962.123 442.36L961.333 441.624C962.12 440.832 962.588 440.383 962.711 440.251L966.182 436.523C966.219 436.484 966.23 436.445 966.229 436.394C966.215 436.356 966.174 436.294 966.107 436.207L964.951 434.835L965.159 434.611L968.061 435.985Z" fill="#1A1417"/>
      <path d="M971.765 439.435L969.738 441.507L967.1 444.339C966.977 444.471 966.549 444.957 965.828 445.811L965.038 445.075C965.825 444.283 966.293 443.833 966.415 443.701L969.887 439.973C969.924 439.934 969.935 439.895 969.933 439.844C969.919 439.807 969.879 439.744 969.812 439.658L968.655 438.285L968.864 438.061L971.765 439.435Z" fill="#1A1417"/>
      <path d="M958.195 989.3C958.118 989.462 957.895 989.89 957.539 990.474C957.323 990.847 957.145 991.139 957.069 991.3C956.891 991.592 956.956 991.999 957.256 992.577C957.63 993.249 958.258 994.18 959.171 995.345L967.46 1005.92C968.841 1007.69 969.782 1008.63 970.242 1008.83C971.391 1008.28 972.256 1007.96 972.869 1007.83L973.414 1008.98L966.078 1014.73C964.377 1016.06 962.77 1016.87 961.28 1017.17C960.116 1017.37 959.042 1017.3 957.946 1016.94C956.882 1016.55 955.939 1015.87 955.101 1014.79C954.138 1013.57 953.527 1012.27 953.29 1010.93C953.054 1009.59 953.13 1008.26 953.568 1007C954.039 1005.46 954.94 1004.15 956.213 1003.05C957.283 1002.21 958.585 1001.34 960.15 1000.42L956.672 995.982C955.833 994.911 955.061 993.991 954.325 993.247C953.244 993.942 951.969 994.585 950.508 995.12L950.055 994.153L957.234 988.528L958.195 989.3ZM955.084 1007.19C954.652 1009.1 955.189 1011.02 956.694 1012.94C957.878 1014.45 959.189 1015.15 960.652 1015.07C962.114 1014.99 963.614 1014.38 965.156 1013.17C966.668 1011.98 967.507 1011.17 967.786 1010.75C967.654 1010.19 966.91 1009.05 965.553 1007.32L961.334 1001.93C960.294 1002.29 959.093 1003.03 957.739 1004.09C956.417 1005.13 955.494 1006.15 955.084 1007.19Z" fill="#1A1417"/>
      <path d="M949.267 1027.9C947.472 1029.31 945.889 1030.14 944.574 1030.41C943.46 1030.67 942.386 1030.6 941.346 1030.25C940.338 1029.87 939.42 1029.22 938.655 1028.24C937.644 1026.95 937.109 1025.49 936.963 1023.87C936.848 1022.24 937.12 1020.7 937.809 1019.25L929.772 1016.45C929.256 1016.24 928.62 1016.08 927.848 1015.87C927.075 1015.67 926.464 1015.53 926.04 1015.51C925.3 1015.73 924.655 1015.88 924.08 1015.93L923.641 1014.85L926.632 1012.51C927.304 1012.84 928.804 1013.4 931.094 1014.24C930.957 1014.2 931.835 1014.48 933.665 1015.13C935.197 1015.65 936.535 1016.13 937.631 1016.49C938.727 1016.85 939.443 1017.05 939.699 1017.05C941.109 1016 942.387 1015.1 943.468 1014.41L939.99 1009.97C938.855 1008.52 937.96 1007.44 937.267 1006.82C936.965 1006.95 936.513 1007.15 935.88 1007.45C935.221 1007.71 934.713 1007.9 934.362 1007.97L933.843 1006.86L940.108 1001.95L941.069 1002.72C940.992 1002.88 940.769 1003.31 940.414 1003.89C940.173 1004.23 940.026 1004.5 939.911 1004.74C939.79 1005.04 939.854 1005.45 940.13 1006C940.504 1006.67 941.107 1007.57 941.995 1008.7L950.334 1019.34C951.716 1021.11 952.656 1022.05 953.116 1022.24C954.321 1021.71 955.186 1021.38 955.712 1021.28L956.288 1022.4L949.267 1027.9ZM938.903 1021.03C938.765 1021.7 938.782 1022.5 938.947 1023.49C939.087 1024.45 939.54 1025.41 940.28 1026.36C941.341 1027.71 942.609 1028.29 944.047 1028.18C945.517 1028.05 947.023 1027.37 948.534 1026.19C949.731 1025.25 950.412 1024.57 950.691 1024.14C950.609 1023.65 949.957 1022.69 948.772 1021.18L944.776 1016.08C943.91 1016.4 942.923 1017.02 941.727 1017.96C940.278 1019.09 939.331 1020.09 938.903 1021.03Z" fill="#1A1417"/>
      <path d="M762.8 1095.57C763.388 1095.89 763.855 1096.36 764.201 1096.98C764.547 1097.6 764.716 1098.31 764.746 1099.14C764.775 1099.95 764.622 1100.73 764.252 1101.46C763.882 1102.2 763.381 1102.81 762.731 1103.27C762.099 1103.72 761.405 1103.96 760.65 1103.99C759.894 1104.01 759.204 1103.86 758.616 1103.54C758.028 1103.22 757.561 1102.75 757.215 1102.13C756.869 1101.51 756.682 1100.8 756.653 1099.99C756.623 1099.16 756.794 1098.38 757.164 1097.65C757.534 1096.91 758.035 1096.32 758.668 1095.86C759.318 1095.41 760.012 1095.17 760.749 1095.14C761.523 1095.11 762.212 1095.25 762.8 1095.57ZM758.983 1096.63C758.527 1096.98 758.202 1097.45 757.97 1098.03C757.756 1098.6 757.651 1099.2 757.674 1099.84C757.71 1100.83 757.99 1101.63 758.516 1102.23C759.041 1102.82 759.789 1103.1 760.797 1103.06C761.444 1103.04 761.996 1102.84 762.451 1102.48C762.906 1102.11 763.232 1101.64 763.446 1101.08C763.66 1100.51 763.747 1099.92 763.724 1099.29C763.689 1098.28 763.427 1097.5 762.901 1096.9C762.394 1096.31 761.645 1096.03 760.638 1096.06C759.99 1096.09 759.438 1096.27 758.983 1096.63Z" fill="#1A1417"/>
      <path d="M752.892 1095.92C753.48 1096.25 753.947 1096.72 754.293 1097.33C754.639 1097.95 754.809 1098.67 754.838 1099.49C754.867 1100.3 754.715 1101.08 754.344 1101.82C753.974 1102.55 753.474 1103.16 752.823 1103.62C752.191 1104.07 751.497 1104.31 750.742 1104.34C749.986 1104.37 749.296 1104.21 748.708 1103.89C748.121 1103.57 747.654 1103.1 747.308 1102.48C746.961 1101.86 746.774 1101.15 746.745 1100.34C746.716 1099.51 746.886 1098.73 747.256 1098C747.626 1097.26 748.128 1096.67 748.76 1096.22C749.41 1095.76 750.104 1095.52 750.841 1095.49C751.615 1095.47 752.304 1095.6 752.892 1095.92ZM749.075 1096.98C748.62 1097.34 748.294 1097.8 748.062 1098.38C747.848 1098.95 747.744 1099.55 747.767 1100.2C747.802 1101.18 748.082 1101.99 748.608 1102.58C749.133 1103.17 749.882 1103.45 750.889 1103.42C751.537 1103.39 752.088 1103.19 752.543 1102.84C752.998 1102.46 753.324 1102 753.538 1101.43C753.752 1100.86 753.839 1100.27 753.817 1099.64C753.781 1098.63 753.519 1097.85 752.993 1097.25C752.486 1096.66 751.738 1096.38 750.73 1096.42C750.083 1096.44 749.531 1096.62 749.075 1096.98Z" fill="#1A1417"/>
      <path d="M739.073 1101.26C738.723 1101.06 738.425 1100.78 738.179 1100.45C737.951 1100.11 737.811 1099.7 737.793 1099.2C737.769 1098.53 737.929 1097.95 738.271 1097.45C738.613 1096.94 739.067 1096.54 739.634 1096.27C740.201 1096 740.79 1095.85 741.401 1095.83C742.067 1095.8 742.665 1095.91 743.178 1096.14C743.708 1096.38 744.117 1096.72 744.421 1097.16C744.724 1097.58 744.868 1098.08 744.887 1098.62C744.909 1099.23 744.731 1099.82 744.355 1100.37C743.978 1100.92 743.399 1101.36 742.619 1101.71C743.223 1101.98 743.703 1102.32 744.043 1102.74C744.382 1103.16 744.564 1103.71 744.588 1104.41C744.609 1104.99 744.484 1105.52 744.176 1106C743.869 1106.48 743.468 1106.85 742.974 1107.12C742.479 1107.39 741.962 1107.53 741.404 1107.55C740.846 1107.57 740.338 1107.47 739.899 1107.27C739.459 1107.05 739.123 1106.73 738.858 1106.35C738.61 1105.96 738.468 1105.51 738.45 1105.03C738.429 1104.42 738.589 1103.85 738.929 1103.3C739.27 1102.75 739.758 1102.3 740.429 1101.92C739.88 1101.68 739.44 1101.46 739.073 1101.26ZM743.087 1103.21C742.714 1102.86 742.163 1102.56 741.451 1102.29L741.341 1102.24C740.667 1102.52 740.158 1102.92 739.815 1103.4C739.472 1103.88 739.309 1104.37 739.329 1104.91C739.349 1105.48 739.563 1105.93 739.97 1106.24C740.378 1106.55 740.905 1106.69 741.553 1106.67C742.2 1106.64 742.733 1106.44 743.136 1106.11C743.538 1105.77 743.718 1105.27 743.696 1104.64C743.674 1104.02 743.477 1103.54 743.087 1103.21ZM739.455 1097.32C739 1097.7 738.786 1098.26 738.813 1099.02C738.826 1099.4 738.946 1099.72 739.171 1099.98C739.397 1100.24 739.674 1100.45 740.005 1100.62C740.335 1100.78 740.791 1100.97 741.358 1101.2L741.742 1101.35C742.453 1101.09 742.998 1100.72 743.36 1100.26C743.722 1099.8 743.884 1099.29 743.865 1098.75C743.843 1098.14 743.609 1097.62 743.127 1097.24C742.645 1096.87 742.044 1096.69 741.307 1096.71C740.533 1096.74 739.91 1096.94 739.455 1097.32Z" fill="#1A1417"/>
      <path d="M345.134 782.778C344.802 780.442 345.024 778.309 345.716 776.353C346.448 774.39 347.637 772.807 349.273 771.525C350.954 770.276 352.98 769.463 355.356 769.126C359.396 768.552 362.744 769.087 365.435 770.685C368.132 772.322 369.935 774.773 370.803 778.043L372.45 789.647L371.301 790.093C371.149 789.872 370.934 789.499 370.612 788.938C370.398 788.565 370.234 788.265 370.132 788.118C369.968 787.818 369.584 787.67 368.933 787.641C368.164 787.629 367.084 787.702 365.658 787.904L352.232 789.81C350.054 790.119 348.77 790.463 348.368 790.763C348.242 792.154 348.089 793.065 347.913 793.534L346.646 793.431L345.134 782.778ZM367.056 774.414C366.038 773.508 364.523 772.794 362.577 772.181C360.632 771.569 358.629 771.408 356.531 771.706C354.392 772.01 352.513 772.721 350.923 773.755C349.372 774.783 348.194 776.162 347.463 777.842C346.732 779.521 346.515 781.41 346.813 783.509C346.886 784.024 347.021 784.692 347.219 785.512C347.416 786.333 347.562 787.08 347.731 787.702C348.359 787.855 349.287 787.845 350.475 787.676L365.366 785.562C366.712 785.371 368.132 785.129 369.535 784.768C369.763 783.807 369.73 782.438 369.477 780.656C369.117 778.121 368.338 776.05 367.056 774.414Z" fill="#1A1417"/>
      <path d="M367.425 762.788C367.324 762.641 367.064 762.234 366.736 761.634C366.521 761.26 366.358 760.96 366.256 760.813C366.092 760.513 365.708 760.366 365.057 760.337C364.288 760.325 363.168 760.403 361.702 760.611L348.396 762.5C346.257 762.804 344.933 763.153 344.492 763.459C344.389 764.726 344.235 765.636 344.037 766.23L342.77 766.127L341.651 758.246L342.845 757.834C343.037 758.049 343.257 758.462 343.494 758.994C343.731 759.526 343.918 759.985 344.048 760.33C344.721 760.517 346.005 760.456 347.906 760.186L362.123 758.168C363.39 757.988 364.612 757.774 365.778 757.447C365.812 757.119 365.858 756.587 365.926 755.931C366.035 755.269 366.12 754.732 366.233 754.393L367.455 754.462L368.574 762.343L367.425 762.788Z" fill="#1A1417"/>
      <path d="M428.014 491.113C427.381 491.333 426.72 491.364 426.029 491.206C425.339 491.048 424.696 490.694 424.062 490.16C423.443 489.638 422.967 489.001 422.672 488.235C422.377 487.468 422.259 486.686 422.358 485.898C422.446 485.124 422.733 484.448 423.22 483.87C423.707 483.292 424.286 482.885 424.919 482.665C425.551 482.445 426.213 482.415 426.903 482.573C427.594 482.731 428.249 483.071 428.868 483.593C429.501 484.127 429.965 484.777 430.261 485.544C430.556 486.311 430.66 487.081 430.573 487.855C430.474 488.643 430.186 489.319 429.711 489.883C429.212 490.475 428.647 490.894 428.014 491.113ZM429.795 487.577C429.835 486.998 429.712 486.447 429.434 485.883C429.158 485.344 428.785 484.865 428.289 484.448C427.533 483.809 426.751 483.48 425.958 483.471C425.165 483.462 424.456 483.829 423.806 484.6C423.388 485.095 423.166 485.638 423.126 486.216C423.1 486.806 423.223 487.357 423.499 487.896C423.775 488.434 424.16 488.9 424.641 489.306C425.412 489.956 426.168 490.287 426.961 490.296C427.742 490.319 428.452 489.952 429.101 489.181C429.519 488.686 429.755 488.155 429.795 487.577Z" fill="#1A1417"/>
      <path d="M434.404 483.533C433.771 483.753 433.11 483.784 432.419 483.626C431.729 483.468 431.086 483.114 430.452 482.58C429.833 482.058 429.357 481.421 429.062 480.654C428.767 479.888 428.649 479.106 428.748 478.318C428.835 477.544 429.123 476.868 429.61 476.29C430.097 475.712 430.676 475.305 431.309 475.085C431.941 474.865 432.603 474.834 433.293 474.993C433.984 475.151 434.639 475.491 435.258 476.013C435.891 476.547 436.355 477.197 436.651 477.964C436.946 478.731 437.05 479.501 436.962 480.275C436.864 481.063 436.576 481.739 436.101 482.303C435.602 482.895 435.037 483.313 434.404 483.533ZM436.185 479.997C436.225 479.418 436.102 478.867 435.824 478.303C435.548 477.764 435.175 477.285 434.679 476.868C433.923 476.229 433.141 475.9 432.348 475.891C431.555 475.882 430.846 476.249 430.196 477.02C429.778 477.515 429.556 478.058 429.516 478.636C429.49 479.226 429.613 479.777 429.889 480.316C430.165 480.854 430.549 481.32 431.031 481.726C431.802 482.376 432.558 482.707 433.351 482.716C434.132 482.739 434.842 482.372 435.491 481.601C435.909 481.106 436.145 480.575 436.185 479.997Z" fill="#1A1417"/>
      <path d="M438.306 468.041C439.366 468.181 440.446 468.715 441.574 469.666C442.455 470.409 443.118 471.297 443.562 472.307C444.02 473.328 444.2 474.399 444.104 475.518C444.021 476.649 443.628 477.73 442.924 478.761L442.078 478.284C442.582 477.296 442.92 476.615 443.056 476.259C443.191 475.903 443.265 475.564 443.274 475.218C443.315 474.5 443.203 473.794 442.94 473.101C442.677 472.408 442.265 471.779 441.702 471.162C441.278 472.783 440.996 473.675 440.894 473.824C440.838 473.919 440.734 474.042 440.606 474.194C439.979 474.937 439.297 475.327 438.509 475.369C437.734 475.422 436.966 475.104 436.196 474.455C435.686 474.025 435.298 473.509 435.052 472.879C434.795 472.262 434.704 471.644 434.777 470.999C434.85 470.354 435.095 469.784 435.513 469.288C436.325 468.325 437.261 467.913 438.306 468.041ZM441.133 470.636L441.106 470.613C438.945 468.791 437.289 468.549 436.152 469.898C435.642 470.504 435.465 471.132 435.584 471.773C435.691 472.428 436.086 473.02 436.747 473.577C437.435 474.157 438.083 474.422 438.676 474.333C439.283 474.255 439.838 473.876 440.34 473.169L441.133 470.636Z" fill="#1A1417"/>
</svg>
