<svg width="1440" height="1440" viewBox="0 0 1440 1440" fill="none" xmlns="http://www.w3.org/2000/svg">
<mask id="mask0_2304_5362" style="mask-type:alpha" maskUnits="userSpaceOnUse" x="0" y="0" width="1440" height="1440">
<circle cx="720" cy="720" r="719.5" fill="#F4EBD0" stroke="#D3CAB3"/>
</mask>
<g mask="url(#mask0_2304_5362)">
<circle cx="720" cy="720" r="719.5" fill="white" stroke="#1A1417" vector-effect="non-scaling-stroke"/>
<line x1="719.5" y1="1285" x2="719.5" y2="-2.18556e-08" stroke="#1A1417" vector-effect="non-scaling-stroke"/>
<line x1="1415.34" y1="906.837" x2="24.4081" y2="534.138" stroke="#1A1417" vector-effect="non-scaling-stroke"/>
<line x1="210.531" y1="1228.76" x2="1228.77" y2="210.526" stroke="#1A1417" vector-effect="non-scaling-stroke"/>
<line x1="1228.76" y1="1229.47" x2="210.531" y2="211.24" stroke="#1A1417" vector-effect="non-scaling-stroke"/>
<line x1="20.7672" y1="891.655" x2="1419" y2="547.364" stroke="#1A1417" vector-effect="non-scaling-stroke"/>
</g>
<path d="M676.298 29.0639C675.578 28.3079 675.236 27.3179 675.236 26.0579C675.236 25.2659 675.434 24.5099 675.848 23.7899C676.262 23.0699 676.802 22.4759 677.486 22.0259C678.17 21.5759 678.872 21.3419 679.592 21.3419C680.798 21.3419 681.752 21.7199 682.472 22.4759C683.174 23.2319 683.534 24.2399 683.534 25.4819C683.534 26.2739 683.318 27.0479 682.904 27.7679C682.49 28.4879 681.95 29.0819 681.266 29.5319C680.582 29.9819 679.898 30.1979 679.178 30.1979C677.954 30.1979 677 29.8199 676.298 29.0639ZM680.87 28.5419C681.302 28.2359 681.626 27.8219 681.86 27.2999C682.076 26.7779 682.202 26.2199 682.202 25.6079C682.202 24.6539 681.968 23.8979 681.5 23.3579C681.032 22.8179 680.33 22.5299 679.412 22.5299C678.818 22.5299 678.314 22.6919 677.882 22.9979C677.45 23.3219 677.126 23.7359 676.91 24.2579C676.676 24.7799 676.568 25.3379 676.568 25.9319C676.568 26.9039 676.802 27.6599 677.27 28.1999C677.738 28.7399 678.422 29.0099 679.34 29.0099C679.916 29.0099 680.438 28.8659 680.87 28.5419Z" fill="#1A1417"/>
<path d="M686.388 29.0639C685.668 28.3079 685.326 27.3179 685.326 26.0579C685.326 25.2659 685.524 24.5099 685.938 23.7899C686.352 23.0699 686.892 22.4759 687.576 22.0259C688.26 21.5759 688.962 21.3419 689.682 21.3419C690.888 21.3419 691.842 21.7199 692.562 22.4759C693.264 23.2319 693.624 24.2399 693.624 25.4819C693.624 26.2739 693.408 27.0479 692.994 27.7679C692.58 28.4879 692.04 29.0819 691.356 29.5319C690.672 29.9819 689.988 30.1979 689.268 30.1979C688.044 30.1979 687.09 29.8199 686.388 29.0639ZM690.96 28.5419C691.392 28.2359 691.716 27.8219 691.95 27.2999C692.166 26.7779 692.292 26.2199 692.292 25.6079C692.292 24.6539 692.058 23.8979 691.59 23.3579C691.122 22.8179 690.42 22.5299 689.502 22.5299C688.908 22.5299 688.404 22.6919 687.972 22.9979C687.54 23.3219 687.216 23.7359 687 24.2579C686.766 24.7799 686.658 25.3379 686.658 25.9319C686.658 26.9039 686.892 27.6599 687.36 28.1999C687.828 28.7399 688.512 29.0099 689.43 29.0099C690.006 29.0099 690.528 28.8659 690.96 28.5419Z" fill="#1A1417"/>
<path d="M698.368 21.2339L698.278 24.2399V28.0559C698.278 28.2719 698.296 28.9199 698.368 29.9999H696.982C697.036 28.9199 697.072 28.2719 697.072 28.0559V23.3219C697.072 23.2679 697.036 23.2319 697 23.1959C696.946 23.1599 696.874 23.1419 696.766 23.1059L694.894 22.7999V22.4039L698.368 21.2339Z" fill="#1A1417"/>
<path d="M253.367 202.845C254.295 202.196 255.544 201.397 257.114 200.449L259.061 200.223C259.524 200.711 260.213 201.6 261.131 202.813C262.048 204.105 262.733 205.153 263.224 206.077C262.933 206.584 262.524 207.049 261.96 207.43C261.457 206.981 260.797 206.448 259.945 205.713C259.053 205.016 258.276 204.441 257.578 203.867C256.816 204.204 256.012 204.658 255.086 205.227C254.158 205.876 253.349 206.488 252.658 207.144C250.464 209.224 249.376 211.414 249.437 213.594C249.596 215.064 250.237 216.309 251.277 217.406C252.202 218.381 253.178 218.922 254.284 219.031C255.429 219.18 256.541 219.051 257.739 218.687C258.937 218.322 260.379 217.727 262.144 216.902C264.386 216.011 266.266 215.308 267.745 214.832C269.221 214.436 270.768 214.358 272.424 214.64C274.04 214.96 275.6 215.873 277.064 217.417C278.49 218.92 279.276 220.645 279.502 222.591C279.727 224.538 279.559 226.396 278.957 228.202C278.354 230.008 277.604 231.414 276.665 232.459C274.227 234.771 271.04 236.944 267.145 238.94C266.678 238.611 265.751 237.715 264.321 236.37C262.93 235.065 261.81 233.966 261.08 233.115C261.21 232.683 261.582 232.098 262.117 231.36C263.05 232.018 264.101 232.72 265.272 233.384C266.44 234.128 267.339 234.588 267.966 234.842C268.846 234.549 269.889 234.022 271.057 233.3C272.225 232.579 273.196 231.812 274.09 230.964C275.634 229.5 276.59 227.822 276.998 225.892C276.926 224.108 275.947 222.18 274.098 220.23C273.096 219.173 272.002 218.59 270.819 218.4C269.633 218.289 268.482 218.378 267.284 218.742C266.086 219.106 264.565 219.7 262.721 220.522C260.676 221.458 258.995 222.127 257.639 222.487C256.242 222.885 254.853 222.967 253.394 222.731C251.934 222.494 250.609 221.666 249.299 220.285C248.374 219.31 247.691 218.182 247.291 216.865C246.928 215.587 246.844 214.278 246.959 212.934C247.262 210.486 248.236 208.096 249.883 205.763C251.264 204.453 252.438 203.493 253.367 202.845Z" fill="#1A1417"/>
<path d="M268.221 189.323C268.978 188.831 269.998 188.042 271.275 187.037C272.551 186.032 273.835 184.948 275.161 183.828L282.177 177.902C283.461 176.818 284.83 175.661 286.162 174.462C287.495 173.263 288.358 172.461 288.628 172.087L290.485 172.203C290.949 172.839 291.658 173.852 292.584 175.122C293.504 176.471 294.322 177.613 294.995 178.584C294.81 178.886 294.376 179.326 293.692 179.904C292.016 178.094 290.544 176.699 289.203 175.632C288.674 175.786 288.131 176.098 287.502 176.482C286.867 176.945 285.89 177.698 284.607 178.782L281.655 181.275C282.019 182.14 283.306 183.838 285.402 186.32L298.122 201.379C299.567 203.09 300.803 204.465 301.834 205.427C303.627 204.425 305.236 203.726 306.667 203.251L307.278 204.494L297.352 212.878L296.228 212.068C296.808 210.845 297.503 209.671 298.283 208.426C298.438 208.002 298.327 207.436 297.907 206.765C297.211 205.594 296.284 204.323 295.092 202.912L282.878 188.451C280.71 185.885 279.209 184.367 278.532 183.913C275.794 186.226 274.076 187.75 273.299 188.479C272.522 189.209 271.989 189.879 271.706 190.411C272.533 191.912 273.663 193.596 275.167 195.551C274.397 196.201 273.89 196.556 273.647 196.615C272.803 195.789 271.771 194.828 270.637 193.66C269.461 192.527 268.617 191.701 268.111 191.102L268.221 189.323Z" fill="#1A1417"/>
<path d="M309.315 156.512C311.874 154.604 314.117 153.491 315.966 153.16C317.535 152.829 319.035 152.967 320.479 153.498C321.877 154.062 323.14 155.006 324.178 156.398C325.55 158.239 326.25 160.301 326.4 162.564C326.505 164.861 326.074 166.999 325.06 169.012L336.215 173.199C336.93 173.503 337.815 173.752 338.889 174.069C339.963 174.385 340.814 174.589 341.407 174.636C342.45 174.348 343.357 174.16 344.164 174.117L344.742 175.642L340.477 178.822C339.549 178.327 337.468 177.503 334.291 176.24C334.481 176.307 333.261 175.89 330.722 174.919C328.596 174.129 326.739 173.418 325.217 172.876C323.695 172.334 322.699 172.029 322.341 172.017C320.332 173.445 318.514 174.66 316.977 175.597L321.697 181.927C323.237 183.992 324.453 185.53 325.402 186.429C325.828 186.251 326.468 185.984 327.365 185.594C328.295 185.25 329.013 184.994 329.506 184.906L330.196 186.487L321.262 193.148L319.943 192.036C320.056 191.812 320.382 191.219 320.9 190.414C321.248 189.945 321.462 189.576 321.631 189.24C321.812 188.827 321.735 188.255 321.367 187.481C320.866 186.528 320.052 185.249 318.847 183.632L307.534 168.458C305.659 165.944 304.375 164.596 303.737 164.303C302.033 165.015 300.811 165.437 300.071 165.569L299.303 163.977L309.315 156.512ZM323.589 166.476C323.804 165.547 323.807 164.427 323.61 163.038C323.446 161.693 322.845 160.325 321.841 158.979C320.401 157.048 318.645 156.192 316.629 156.298C314.568 156.438 312.437 157.328 310.282 158.934C308.576 160.206 307.599 161.144 307.194 161.726C307.293 162.42 308.174 163.789 309.781 165.944L315.203 173.217C316.425 172.795 317.828 171.959 319.534 170.687C321.599 169.147 322.958 167.785 323.589 166.476Z" fill="#1A1417"/>
<path d="M369.821 149.802C371.916 151.379 373.412 152.343 374.463 152.728C376.13 152.312 377.189 152.091 377.562 152.049L378.103 153.701L369.465 159.319L368.361 158.033C368.582 157.756 368.976 157.233 369.511 156.617C370.046 156.002 370.487 155.448 370.896 155.049C369.698 153.824 366.974 151.587 362.6 148.353L350.394 156.292L350.824 158.083L351.21 159.703C351.948 163.098 352.606 165.342 353.121 166.544C354.557 165.876 355.991 165.411 357.47 165.117L358.058 166.739L349.655 172.205L348.333 170.994C348.572 170.437 349.14 169.667 349.959 168.667C350.274 168.329 350.238 167.35 349.852 165.73L343.766 138.091C343.336 136.3 342.824 134.896 342.182 133.91L344.402 131.263L369.821 149.802ZM345.744 136.203L349.816 153.863L360.519 146.901L345.744 136.203Z" fill="#1A1417"/>
<path d="M366.161 118.055C366.996 117.711 368.144 117.126 369.585 116.374C371.026 115.623 372.488 114.795 373.999 113.94L381.991 109.415C383.453 108.588 385.012 107.705 386.544 106.773C388.076 105.842 389.072 105.214 389.406 104.895L391.211 105.354C391.548 106.064 392.058 107.191 392.733 108.611C393.387 110.107 393.979 111.381 394.461 112.459C394.223 112.722 393.715 113.074 392.935 113.516C391.624 111.427 390.436 109.783 389.316 108.486C388.767 108.54 388.176 108.746 387.487 109.007C386.777 109.344 385.677 109.903 384.215 110.73L380.853 112.634C381.051 113.552 382.001 115.459 383.602 118.285L393.313 135.439C394.417 137.388 395.376 138.969 396.212 140.104C398.159 139.452 399.869 139.063 401.364 138.861L401.733 140.196L390.427 146.596L389.473 145.592C390.269 144.498 391.169 143.474 392.167 142.394C392.398 142.006 392.393 141.43 392.104 140.692C391.637 139.412 390.962 137.992 390.051 136.384L380.726 119.913C379.071 116.989 377.876 115.22 377.295 114.648C374.176 116.414 372.206 117.593 371.308 118.166C370.409 118.739 369.761 119.299 369.384 119.77C369.919 121.398 370.718 123.262 371.834 125.462C370.957 125.958 370.393 126.213 370.143 126.226C369.466 125.258 368.63 124.122 367.733 122.764C366.787 121.434 366.11 120.466 365.724 119.783L366.161 118.055Z" fill="#1A1417"/>
<path d="M437.89 112.488C438.38 113.62 438.868 115.001 439.353 116.759C439.838 118.517 440.176 119.847 440.368 120.751C438.709 121.437 435.993 122.639 432.269 124.458L417.627 131.611L416.537 130.273C416.613 130.174 417.018 129.727 417.702 128.957L418.663 127.863C418.993 127.391 419.024 126.815 418.78 126.061C418.071 124.226 417.508 122.819 417.016 121.812L408.708 104.805C407.331 101.987 406.319 100.425 405.747 100.019C403.839 100.453 402.56 100.641 401.859 100.61L401.45 98.8777L414.683 92.413C416.243 91.651 418.004 90.7907 419.867 89.756C421.754 88.7716 422.987 88.1068 423.441 87.7604L425.19 88.2774C425.435 88.9058 425.85 90.0116 426.486 91.6955C427.071 93.404 427.485 94.635 427.629 95.3125C427.074 95.8333 426.494 96.1786 425.942 96.3238C424.784 94.2093 423.747 92.5969 422.806 91.4361C422.205 91.4807 421.451 91.7242 420.42 92.1655C419.39 92.6067 417.554 93.4413 414.987 94.6949C411.968 96.1698 410.18 97.2302 409.498 97.8751C409.59 98.8276 410.054 100.034 410.767 101.493L415.118 110.399C415.469 110.353 415.997 110.157 416.751 109.788C417.506 109.42 418.462 108.953 419.67 108.363C420.374 108.019 421.179 107.625 422.137 107.033C423.068 106.516 423.723 106.071 424.127 105.749C424.036 104.796 423.723 103.391 423.238 101.633C423.691 101.412 424.193 101.292 424.77 101.197C425.849 103.661 426.561 105.246 426.856 105.849C427.667 107.51 428.454 109.12 429.341 110.681C428.986 111.103 428.583 111.425 428.081 111.546C426.942 110.108 426.05 109.048 425.405 108.366C424.502 108.558 422.893 109.219 420.629 110.325C418.012 111.603 416.577 112.366 416.224 112.664L419.985 120.362C421.042 122.526 422.027 124.288 422.941 125.649C423.542 125.73 424.294 125.611 425.249 125.269C426.229 124.978 428.014 124.168 430.731 122.841C432.14 122.152 433.298 121.587 434.204 121.019C435.136 120.502 435.917 119.933 436.474 119.287C436.532 118.511 436.541 117.51 436.503 116.157C436.44 114.879 436.301 113.7 436.11 112.672C436.436 112.575 437.038 112.53 437.89 112.488Z" fill="#1A1417"/>
<path d="M458.098 110.931C455.038 110.546 452.368 109.337 449.983 107.346C447.62 105.406 445.793 102.704 444.439 99.3858C443.086 96.0671 442.503 92.8577 442.732 89.8612C442.962 86.8647 443.952 84.1023 445.578 81.5644C446.546 80.0812 447.628 78.7324 448.827 77.5181C450.025 76.3038 451.298 75.4217 452.552 74.7893C454.367 74.0492 456.297 73.4435 458.352 72.8474C460.377 72.3243 462.038 71.9492 463.336 71.7221L465.286 72.4994C465.298 72.6761 465.596 73.7036 466.128 75.6031C466.682 77.5544 466.973 79.0083 467.104 79.9226C466.7 80.2685 466.151 80.5529 465.435 80.7241C464.066 78.2583 463.046 76.4973 462.343 75.5141C461.386 75.5413 460.191 75.7261 458.759 76.0684C457.326 76.4108 455.935 76.8569 454.691 77.3644C451.476 78.6755 449.17 80.5836 447.626 83.0273C446.785 84.8216 446.312 87.071 446.266 89.6295C446.19 92.261 446.675 94.7848 447.669 97.2219C448.811 100.022 450.366 102.351 452.333 104.21C454.301 106.069 456.597 107.249 459.117 107.794C461.637 108.339 464.194 108.082 466.89 106.983C469.483 105.925 471.503 104.799 472.805 103.542C473.112 102.812 472.767 101.078 471.668 98.3817C470.505 95.5297 469.557 93.7994 468.95 93.2003C468.234 93.3715 467.423 93.4602 466.509 93.5911C465.595 93.722 464.784 93.8106 464.129 93.8358L463.71 91.7692L474.392 87.4131L475.537 89.1837C475.207 89.5603 474.422 90.3039 473.202 91.4664C473.229 92.4229 473.708 94.042 474.596 96.2198L475.506 98.4496C476.225 100.213 476.859 101.768 477.513 103.074C474.329 105.945 471.078 108.057 467.655 109.453C464.285 110.827 461.106 111.337 458.098 110.931Z" fill="#1A1417"/>
<path d="M477.09 65.86L487.498 62.3736L488.315 63.9307C487.784 64.4628 486.758 65.1018 485.272 65.9541C485.503 66.2902 485.804 66.6616 486.301 67.0859C486.744 67.528 487.028 67.8463 487.188 67.97L497.988 78.526L500.604 63.4165C500.779 62.1767 500.849 61.3265 500.813 60.8662C499.361 61.1163 498.121 61.1181 497.129 60.9779L496.844 59.2429L506.083 56.1478L507.112 57.6338C506.847 57.8998 506.051 58.5208 504.653 59.4615C504.282 59.9401 504 60.5072 503.77 61.0566C503.559 61.659 503.347 62.4385 503.154 63.4482L500.116 80.4708L502.268 86.8959C503.158 89.5509 503.798 91.2854 504.277 92.1878C504.667 92.1164 505.41 92.0445 506.508 91.972C507.606 91.8995 508.527 91.8273 509.235 91.8263L509.397 93.5438L497.768 97.4393L496.863 95.9709C497.181 95.687 497.641 95.2968 498.26 94.8531C498.879 94.4095 499.445 93.9836 499.923 93.6464C500.188 93.3804 500.241 92.8314 500.168 91.9106C500.043 90.8306 499.615 89.202 498.904 87.078L497.41 82.6176L483.684 70.0295C482.337 68.8273 481.308 68.0496 480.511 67.6081C478.74 67.7878 477.625 67.8072 477.111 67.684L477.09 65.86Z" fill="#1A1417"/>
<path d="M41.945 581.053C41.0503 581.591 40.0096 581.71 38.7799 581.435C38.0069 581.263 37.3121 580.905 36.6996 580.344C36.087 579.783 35.6249 579.127 35.3347 578.361C35.0445 577.595 34.969 576.859 35.1258 576.157C35.3884 574.98 35.9651 574.131 36.8598 573.593C37.7505 573.072 38.8127 572.94 40.0249 573.211C40.7979 573.383 41.5063 573.763 42.1188 574.324C42.7314 574.885 43.1935 575.541 43.4838 576.307C43.774 577.072 43.8358 577.787 43.679 578.489C43.4124 579.684 42.8357 580.533 41.945 581.053ZM42.4313 576.477C42.2267 575.989 41.8932 575.583 41.4347 575.241C40.9723 574.916 40.4551 574.672 39.8578 574.538C38.9267 574.331 38.1379 574.394 37.5089 574.734C36.88 575.073 36.446 575.695 36.2461 576.591C36.1167 577.171 36.165 577.698 36.3696 578.186C36.5917 578.678 36.9252 579.085 37.3877 579.409C37.8462 579.751 38.3672 579.978 38.947 580.108C39.8957 580.319 40.6845 580.256 41.3134 579.917C41.9424 579.577 42.3549 578.969 42.5548 578.073C42.6803 577.51 42.6534 576.97 42.4313 576.477Z" fill="#1A1417"/>
<path d="M36.9121 567.656L39.8263 568.398L43.5507 569.229C43.7615 569.276 44.3979 569.4 45.4676 569.565L45.1658 570.918C44.1235 570.63 43.4989 570.453 43.288 570.406L38.6677 569.375C38.615 569.364 38.572 569.391 38.529 569.418C38.4821 569.463 38.4489 569.529 38.3902 569.627L37.6839 571.387L37.2974 571.301L36.9121 567.656Z" fill="#1A1417"/>
<path d="M43.2228 565.492C43.2275 564.645 43.1929 563.973 43.1543 563.485C43.1157 562.997 42.913 562.583 42.5463 562.243C42.1756 561.92 41.6584 561.676 41.026 561.534C40.0773 561.323 39.4796 561.687 39.2718 562.618C39.2169 562.864 39.2342 563.2 39.2924 563.6C39.3467 564.018 39.4828 564.731 39.679 565.752L38.4391 565.937C38.2565 564.937 38.1634 564.197 38.1209 563.726C38.0744 563.273 38.1061 562.801 38.2158 562.309C38.3923 561.518 38.7266 560.929 39.2229 560.523C39.7152 560.135 40.3674 560.023 41.1404 560.195C41.7729 560.336 42.2861 560.598 42.688 560.946C43.086 561.312 43.3862 561.784 43.6063 562.368L43.7547 562.365C44.0851 561.793 44.4896 561.385 44.9818 561.163C45.474 560.941 46.0715 560.908 46.7918 561.069C47.9864 561.336 48.8137 561.926 49.2815 562.805C49.7629 563.705 49.8596 564.76 49.5852 565.99C49.3852 566.885 49.0565 567.697 48.5775 568.439L47.4555 567.764L47.8544 567.134C48.1946 566.601 48.4077 566.225 48.5289 566.012C48.6502 565.799 48.7187 565.575 48.7657 565.364C48.9382 564.591 48.8256 563.939 48.3887 563.417C47.9479 562.913 47.3449 562.557 46.5368 562.377C45.2895 562.099 44.5277 562.537 44.2689 563.697C44.1709 564.136 44.1509 564.722 44.1873 565.467L43.2228 565.492Z" fill="#1A1417"/>
<path d="M72.5078 859.192C72.3375 859.008 71.896 858.496 71.3222 857.73C70.9502 857.255 70.6633 856.872 70.493 856.689C70.2061 856.306 69.6438 856.178 68.7366 856.268C67.6682 856.405 66.1317 856.738 64.1428 857.319L46.0818 862.595C43.0716 863.474 41.3606 864.208 40.8635 864.703C40.9741 866.479 40.9433 867.772 40.7868 868.634L39.0106 868.745L35.3516 856.22C34.5036 853.318 34.2964 850.811 34.6763 848.717C35.0206 847.099 35.6741 845.741 36.7129 844.504C37.7674 843.321 39.1468 842.452 40.9744 841.918C43.0708 841.305 45.0778 841.186 46.9417 841.575C48.8055 841.963 50.4948 842.753 51.9021 843.976C53.6566 845.389 54.8984 847.243 55.6655 849.469C56.1994 851.297 56.6506 853.44 57.0347 855.953L64.6139 853.739C66.4415 853.205 68.0384 852.68 69.3889 852.111C69.0476 850.343 68.8742 848.352 68.9382 846.175L70.43 846.089L74.0105 858.345L72.5078 859.192ZM50.8747 845.851C48.6117 844.295 45.8406 843.996 42.5617 844.954C39.9816 845.708 38.3895 847.048 37.7318 848.991C37.0741 850.933 37.0953 853.202 37.8647 855.836C38.6185 858.416 39.2352 859.928 39.6386 860.51C40.4316 860.629 42.3064 860.256 45.2628 859.392L54.4546 856.707C54.53 855.168 54.1954 853.224 53.5202 850.912C52.8606 848.655 52.0042 846.921 50.8747 845.851Z" fill="#1A1417"/>
<path d="M28.4652 830.926L26.3924 819.977L28.0252 819.269C28.3078 819.557 28.6424 820.121 29.0084 820.849C29.3847 821.633 29.6748 822.262 29.8785 822.736C30.8318 822.955 32.7338 822.766 35.595 822.224L42.9681 820.828L39.187 800.855L32.9695 802.032C31.2087 802.366 29.7886 802.691 28.6435 802.965C27.4984 803.239 26.7043 803.56 26.3058 803.864C26.3133 804.204 26.2524 804.786 26.199 805.708C26.1455 806.63 26.04 807.277 25.8482 807.769L24.0696 807.707L21.9864 796.702L23.6296 796.049C23.9985 796.492 24.3435 797.111 24.7303 797.949C25.117 798.788 25.3863 799.307 25.483 799.517C26.0302 799.698 26.7218 799.738 27.5575 799.637C28.3933 799.536 29.4387 799.338 30.7593 799.088L50.6225 795.328C52.9334 794.89 54.6287 794.512 55.6875 794.084C55.7142 793.623 55.7439 792.876 55.7869 791.899C55.8954 790.967 55.98 790.21 56.1168 789.728L57.83 789.746L59.9132 800.75L58.325 801.393C58.0112 800.939 57.6215 800.386 57.211 799.723L56.5729 798.761C56.2695 798.362 55.6671 798.191 54.8656 798.172C53.8439 798.195 52.1174 798.407 49.6414 798.876L41.553 800.407L45.3341 820.381L54.6879 818.61C56.5037 818.266 58.309 817.867 60.0831 817.303C60.1098 816.842 60.1395 816.096 60.1929 815.174C60.3014 814.241 60.3861 813.485 60.5124 812.948L62.236 813.02L64.3088 823.97L62.731 824.667C62.5793 824.468 62.1896 823.915 61.6928 823.097C61.3686 822.589 61.1202 822.18 60.9685 821.98C60.7201 821.572 60.1728 821.39 59.2612 821.392C58.1845 821.425 56.623 821.606 54.5872 821.992L36.0995 825.491C33.1283 826.054 31.2992 826.628 30.7014 827.083C30.6392 828.862 30.4832 830.145 30.2438 830.988L28.4652 830.926Z" fill="#1A1417"/>
<path d="M54.1137 769.805C52.7587 772.499 50.7959 774.624 48.1738 776.241C45.5563 777.914 42.5406 778.832 39.0799 779.113C35.4518 779.406 32.2205 779.05 29.4328 777.927C26.6496 776.861 24.2164 775.26 22.245 773.116C21.0156 771.811 20.0005 770.376 19.1996 768.812C18.3987 767.247 17.8769 765.66 17.5829 764.111C17.3207 760.873 17.8671 757.908 19.2221 755.214C20.577 752.519 22.5399 750.394 25.1574 748.721C27.7794 747.104 30.7906 746.13 34.1955 745.854C37.8794 745.556 41.1152 745.968 43.8984 747.035C46.6861 748.158 49.0635 749.763 51.0304 751.851C52.2643 753.212 53.2794 754.647 54.0803 756.211C54.8812 757.776 55.4588 759.358 55.697 760.912C55.9592 764.149 55.4686 767.111 54.1137 769.805ZM49.0872 753.525C47.6346 752.238 45.6977 751.215 43.272 750.401C40.9067 749.637 38.2984 749.343 35.3959 749.578C32.4934 749.813 29.9152 750.583 27.6568 751.834C25.4028 753.14 23.6829 754.796 22.506 756.914C21.3291 759.032 20.8537 761.486 21.0752 764.221C21.2831 766.789 22.3238 769.233 24.1882 771.442C25.7011 772.78 27.638 773.803 30.0034 774.566C32.429 775.381 35.0328 775.62 37.8795 775.389C40.782 775.154 43.3647 774.439 45.6186 773.133C47.8771 771.883 49.5925 770.171 50.7694 768.053C51.9463 765.935 52.4262 763.537 52.2002 760.746C51.9923 758.178 50.9561 755.79 49.0872 753.525Z" fill="#1A1417"/>
<path d="M16.5186 734.27C16.6401 733.376 16.7097 732.088 16.783 730.465C16.8562 728.842 16.8741 727.162 16.8925 725.426L16.9901 716.242C17.0079 714.562 17.027 712.771 16.99 710.978C16.953 709.186 16.9095 708.009 16.8023 707.56L18.1045 706.23C18.8879 706.294 20.1186 706.419 21.6853 706.548C23.3075 706.733 24.7062 706.86 25.8809 706.984C25.9894 707.321 26.0388 707.938 26.0293 708.834C23.5642 708.92 21.546 709.122 19.8625 709.44C19.6332 709.942 19.5146 710.557 19.3949 711.284C19.3306 712.067 19.2615 713.298 19.2436 714.978L19.2026 718.842C20.0956 719.131 22.2223 719.266 25.4701 719.301L45.181 719.51C47.4208 719.534 49.2693 719.497 50.671 719.344C51.0844 717.333 51.6062 715.658 52.1811 714.264L53.5214 714.614L53.3834 727.606L52.0359 727.927C51.4891 726.689 51.0548 725.397 50.6217 723.992C50.4018 723.598 49.9008 723.312 49.1181 723.192C47.7765 722.954 46.2098 722.825 44.3619 722.805L25.435 722.604C22.0752 722.569 19.9455 722.714 19.1592 722.93C19.1211 726.514 19.1527 728.81 19.1974 729.875C19.2421 730.939 19.4012 731.781 19.6192 732.343C21.2955 732.697 23.309 732.942 25.7717 733.081C25.761 734.089 25.6985 734.704 25.5841 734.927C24.407 735.026 23.0053 735.179 21.3802 735.274C19.7545 735.425 18.5774 735.524 17.7934 735.516L16.5186 734.27Z" fill="#1A1417"/>
<path d="M53.3312 690.203C51.5089 692.606 49.1923 694.339 46.3199 695.452C43.4419 696.621 40.3094 696.976 36.8555 696.622C33.2344 696.252 30.1218 695.314 27.5847 693.703C25.0419 692.148 22.9404 690.131 21.3916 687.664C20.4201 686.158 19.6828 684.562 19.1797 682.878C18.6767 681.194 18.4521 679.539 18.4448 677.962C18.7756 674.731 19.8522 671.914 21.6745 669.511C23.4968 667.108 25.8134 665.375 28.6914 664.206C31.5638 663.093 34.7019 662.682 38.1001 663.03C41.7769 663.407 44.8838 664.401 47.4266 665.956C49.9637 667.567 52.0095 669.577 53.564 671.988C54.5298 673.551 55.2672 675.146 55.7702 676.83C56.2733 678.514 56.5535 680.176 56.5052 681.747C56.1743 684.978 55.1534 687.801 53.3312 690.203ZM51.3487 673.281C50.1544 671.752 48.4358 670.394 46.1987 669.151C44.0116 667.97 41.5004 667.207 38.6035 666.91C35.7067 666.613 33.0313 666.902 30.5832 667.721C28.1293 668.596 26.1369 669.911 24.5945 671.78C23.0521 673.649 22.1383 675.976 21.8588 678.705C21.5963 681.268 22.1752 683.86 23.6069 686.371C24.8513 687.962 26.5699 689.321 28.7569 690.502C30.994 691.744 33.511 692.452 36.3521 692.743C39.249 693.04 41.9186 692.806 44.3725 691.932C46.8206 691.113 48.8187 689.741 50.3611 687.873C51.9035 686.004 52.8116 683.733 53.0969 680.947C53.3593 678.385 52.7747 675.848 51.3487 673.281Z" fill="#1A1417"/>
<path d="M1167.72 194.899C1167.52 194.257 1167.52 193.594 1167.71 192.912C1167.9 192.229 1168.28 191.602 1168.84 190.993C1169.39 190.398 1170.05 189.951 1170.83 189.69C1171.61 189.43 1172.4 189.347 1173.18 189.481C1173.95 189.603 1174.61 189.92 1175.17 190.432C1175.72 190.945 1176.1 191.541 1176.29 192.183C1176.49 192.825 1176.49 193.487 1176.3 194.17C1176.11 194.853 1175.74 195.492 1175.19 196.087C1174.63 196.696 1173.96 197.13 1173.18 197.391C1172.4 197.652 1171.63 197.722 1170.86 197.6C1170.07 197.466 1169.41 197.149 1168.87 196.648C1168.3 196.123 1167.91 195.541 1167.72 194.899ZM1171.17 196.836C1171.75 196.901 1172.3 196.803 1172.88 196.55C1173.43 196.298 1173.92 195.947 1174.36 195.471C1175.03 194.743 1175.4 193.977 1175.44 193.185C1175.49 192.394 1175.15 191.668 1174.41 190.985C1173.93 190.546 1173.4 190.3 1172.83 190.234C1172.24 190.181 1171.68 190.28 1171.13 190.532C1170.58 190.783 1170.1 191.147 1169.67 191.61C1168.99 192.351 1168.62 193.091 1168.58 193.883C1168.52 194.662 1168.86 195.388 1169.6 196.071C1170.07 196.51 1170.59 196.77 1171.17 196.836Z" fill="#1A1417"/>
<path d="M1175 201.62C1174.81 200.978 1174.81 200.316 1175 199.633C1175.19 198.951 1175.57 198.324 1176.13 197.715C1176.68 197.12 1177.34 196.673 1178.12 196.412C1178.9 196.151 1179.68 196.068 1180.47 196.202C1181.24 196.324 1181.9 196.641 1182.45 197.154C1183.01 197.666 1183.39 198.263 1183.58 198.904C1183.77 199.546 1183.77 200.209 1183.59 200.891C1183.4 201.574 1183.03 202.213 1182.48 202.809C1181.92 203.417 1181.25 203.852 1180.47 204.113C1179.69 204.374 1178.91 204.443 1178.14 204.321C1177.36 204.187 1176.7 203.87 1176.16 203.37C1175.59 202.845 1175.2 202.262 1175 201.62ZM1178.46 203.557C1179.03 203.623 1179.59 203.524 1180.17 203.272C1180.72 203.02 1181.21 202.669 1181.65 202.193C1182.32 201.465 1182.69 200.699 1182.73 199.907C1182.77 199.115 1182.44 198.39 1181.7 197.707C1181.22 197.267 1180.69 197.021 1180.11 196.955C1179.53 196.903 1178.97 197.002 1178.42 197.253C1177.87 197.505 1177.39 197.868 1176.96 198.331C1176.28 199.072 1175.91 199.813 1175.87 200.605C1175.81 201.384 1176.14 202.109 1176.89 202.793C1177.36 203.232 1177.88 203.491 1178.46 203.557Z" fill="#1A1417"/>
<path d="M1185.79 201.551C1186.65 201.86 1187.3 202.114 1187.72 202.301C1188.13 202.488 1188.52 202.753 1188.87 203.07C1189.44 203.595 1189.77 204.168 1189.85 204.763C1189.93 205.371 1189.72 205.965 1189.2 206.534C1188.55 207.236 1187.69 207.64 1186.61 207.772C1185.53 207.905 1184.11 207.836 1182.29 207.578L1182.24 207.733L1185.75 210.623L1185.06 211.313L1180.75 207.334L1181.01 206.648C1181.1 206.658 1181.22 206.666 1181.35 206.686C1181.47 206.706 1181.61 206.713 1181.79 206.732C1183.02 206.886 1184.01 206.961 1184.73 206.995C1185.46 207.029 1186.16 206.963 1186.79 206.81C1187.42 206.657 1187.97 206.355 1188.38 205.905C1188.71 205.548 1188.86 205.172 1188.85 204.791C1188.82 204.397 1188.63 204.022 1188.26 203.681C1188.06 203.498 1187.81 203.342 1187.51 203.214C1187.2 203.074 1186.68 202.891 1185.97 202.652C1185.87 202.605 1185.75 202.572 1185.67 202.549C1185.58 202.515 1185.51 202.493 1185.44 202.457L1185.79 201.551Z" fill="#1A1417"/>
<path d="M751.075 22.1468C754.379 22.1407 757.292 22.8634 759.871 24.2027C762.449 25.598 764.413 27.5545 765.873 30.0718C767.278 32.6453 768.011 35.6119 768.018 38.9719C768.028 44.6839 766.636 49.2225 763.898 52.6435C761.105 56.0645 757.356 58.0874 752.653 58.6559L736.245 58.6858L735.85 57.0066C736.186 56.838 736.746 56.6129 737.585 56.2754C738.145 56.0504 738.592 55.8816 738.816 55.7692C739.264 55.6003 739.543 55.0958 739.709 54.1995C739.875 53.1352 739.985 51.623 739.981 49.607L739.946 30.6231C739.941 27.5431 739.713 25.6955 739.376 25.0801C737.471 24.6356 736.239 24.2458 735.622 23.9109L736.011 22.1742L751.075 22.1468ZM758.413 54.1654C759.867 52.9308 761.151 50.9685 762.379 48.3902C763.606 45.812 764.217 43.0669 764.212 40.0989C764.206 37.0749 763.585 34.332 762.461 31.926C761.336 29.5761 759.653 27.6751 757.467 26.3351C755.28 24.9951 752.703 24.3278 749.735 24.3332C749.007 24.3345 748.055 24.3923 746.879 24.5064C745.703 24.6206 744.639 24.6785 743.744 24.7921C743.409 25.6327 743.244 26.921 743.247 28.601L743.285 49.657C743.288 51.561 743.348 53.5769 743.576 55.5925C744.865 56.0941 746.769 56.3147 749.289 56.3101C752.873 56.3035 755.896 55.626 758.413 54.1654Z" fill="#1A1417"/>
<path d="M807.18 53.2772C807.02 54.5001 806.729 55.9367 806.243 57.6938C805.757 59.451 805.364 60.7665 805.065 61.6404C803.289 61.3773 800.341 61.0148 796.212 60.6645L779.974 59.2869L779.726 57.5798C779.842 57.5335 780.419 57.3576 781.401 57.0475L782.787 56.6031C783.313 56.3667 783.635 55.8882 783.813 55.1165C784.146 53.1777 784.385 51.6805 784.48 50.5646L786.08 31.7043C786.345 28.5795 786.278 26.7192 785.995 26.077C784.136 25.4697 782.942 24.9749 782.356 24.5881L782.894 22.8914L797.569 24.1364C799.299 24.2832 801.252 24.4489 803.381 24.5172C805.507 24.6413 806.906 24.7038 807.474 24.6396L808.709 25.9808C808.596 26.6456 808.385 27.8079 808.066 29.5793C807.692 31.346 807.415 32.6152 807.191 33.2706C806.447 33.4322 805.772 33.4312 805.224 33.2723C805.316 30.8634 805.254 28.9473 805.042 27.4681C804.503 27.1976 803.731 27.0197 802.62 26.8692C801.509 26.7187 799.505 26.4925 796.659 26.2511C793.311 25.967 791.232 25.9593 790.316 26.1625C789.905 27.0269 789.685 28.3008 789.547 29.919L788.709 39.7956C789.035 39.9356 789.588 40.0387 790.425 40.1097C791.262 40.1807 792.322 40.2707 793.661 40.3843C794.443 40.4506 795.335 40.5263 796.461 40.5094C797.526 40.5435 798.316 40.4982 798.828 40.4292C799.239 39.5648 799.692 38.1982 800.178 36.4411C800.68 36.4837 801.173 36.6379 801.717 36.8526C801.378 39.5215 801.175 41.2466 801.119 41.9162C800.962 43.7575 800.811 45.5431 800.771 47.3382C800.25 47.5188 799.738 47.5878 799.245 47.4336C799.006 45.6148 798.785 44.2472 798.582 43.3308C797.708 43.0318 795.988 42.7735 793.477 42.5605C790.575 42.3143 788.952 42.2328 788.496 42.3065L787.772 50.8439C787.569 53.2432 787.51 55.2615 787.596 56.8986C788.069 57.276 788.776 57.5608 789.771 57.7576C790.761 58.0102 792.709 58.2317 795.722 58.4873C797.285 58.6199 798.568 58.7287 799.638 58.7071C800.703 58.7412 801.666 58.6543 802.475 58.3858C802.923 57.7493 803.445 56.8944 804.107 55.7142C804.708 54.585 805.194 53.5021 805.558 52.5214C805.888 52.6056 806.427 52.8761 807.18 53.2772Z" fill="#1A1417"/>
<path d="M838.855 29.0718C839.933 29.418 841.325 29.9288 843.031 30.6042L844.389 32.0173C844.281 32.6806 843.99 33.7679 843.58 35.2331C843.107 36.7446 842.687 37.9245 842.249 38.8742C841.669 38.9499 841.052 38.9059 840.407 38.6872C840.46 38.015 840.484 37.1679 840.554 36.0445C840.569 34.912 840.556 33.9454 840.59 33.0431C839.861 32.6405 839.013 32.2751 837.999 31.8827C836.921 31.5366 835.944 31.2637 835.004 31.1105C832.02 30.6235 829.618 31.0829 827.92 32.4513C826.846 33.4676 826.243 34.731 826 36.2233C825.783 37.5497 825.943 38.6539 826.527 39.6002C827.101 40.6017 827.877 41.4092 828.892 42.1423C829.907 42.8753 831.254 43.6624 832.979 44.5679C835.046 45.8129 836.743 46.8843 838.017 47.7729C839.226 48.7078 840.224 49.892 841.003 51.3808C841.726 52.8605 841.944 54.655 841.601 56.7553C841.268 58.8002 840.371 60.4697 838.958 61.8279C837.545 63.186 835.965 64.1765 834.162 64.7903C832.36 65.4041 830.787 65.6581 829.387 65.5432C826.071 65.0022 822.411 63.7811 818.465 61.8889C818.444 61.3182 818.596 60.038 818.801 58.0855C818.998 56.1883 819.195 54.6318 819.43 53.5354C819.853 53.3774 820.544 53.3198 821.455 53.2983C821.496 54.4398 821.574 55.7008 821.753 57.0351C821.868 58.4156 822.047 59.4093 822.224 60.0624C822.99 60.5845 824.041 61.0965 825.322 61.5892C826.604 62.082 827.802 62.3909 829.018 62.5892C831.118 62.9319 833.032 62.6768 834.815 61.8329C836.192 60.6957 837.134 58.75 837.566 56.097C837.801 54.66 837.603 53.4363 837.038 52.3795C836.409 51.3689 835.642 50.5062 834.626 49.7731C833.611 49.0401 832.218 48.1887 830.447 47.2189C828.464 46.1577 826.914 45.224 825.807 44.3624C824.644 43.4918 823.738 42.4361 823.043 41.1312C822.348 39.8263 822.204 38.2709 822.511 36.3917C822.727 35.0653 823.211 33.8392 824.017 32.7224C824.815 31.661 825.806 30.8014 826.945 30.0794C829.077 28.8384 831.569 28.167 834.423 28.0651C836.302 28.3717 837.776 28.7257 838.855 29.0718Z" fill="#1A1417"/>
<path d="M852.786 67.5926C853.029 67.5332 853.692 67.3972 854.64 67.2688C855.236 67.1749 855.71 67.1107 855.954 67.0514C856.428 66.9872 856.813 66.558 857.176 65.7218C857.576 64.7218 858.034 63.218 858.495 61.1978L862.678 42.8528C863.351 39.9045 863.556 37.9984 863.377 37.2685C861.772 36.5003 860.658 35.8442 859.981 35.2877L860.749 33.6823L871.614 36.1601L871.556 37.9274C871.178 38.0711 870.528 38.1525 869.714 38.1966C868.9 38.2406 868.207 38.255 867.691 38.2522C867.109 39.0386 866.547 40.7484 865.949 43.3691L861.479 62.9698C861.081 64.717 860.75 66.422 860.594 68.1097C861.006 68.3185 861.679 68.6442 862.502 69.0618C863.314 69.534 863.974 69.9143 864.361 70.2323L863.66 71.7955L852.795 69.3177L852.786 67.5926Z" fill="#1A1417"/>
<path d="M883.671 75.3207C881.541 73.0902 880.234 70.4666 879.642 67.4171C879.034 64.4213 879.322 61.1721 880.368 57.744C881.414 54.316 882.988 51.459 885.058 49.2801C887.128 47.1013 889.64 45.5842 892.503 44.6427C894.19 44.1034 895.881 43.7412 897.577 43.5559C899.273 43.3707 900.817 43.4905 902.189 43.7919C904.064 44.3638 905.943 45.1127 907.913 45.9479C909.813 46.8203 911.338 47.5783 912.488 48.2219L913.51 50.0557C913.407 50.2001 912.99 51.1851 912.203 52.9945C911.401 54.8574 910.708 56.1683 910.233 56.96C909.702 56.9736 909.096 56.8474 908.432 56.5279C908.928 53.7517 909.248 51.7417 909.324 50.5352C908.565 49.9524 907.522 49.3414 906.194 48.7023C904.867 48.0632 903.507 47.5312 902.222 47.1391C898.901 46.126 895.908 46.1497 893.168 47.0703C891.383 47.9309 889.595 49.3763 887.945 51.3318C886.225 53.3245 885.007 55.5878 884.239 58.1053C883.357 60.9977 883.092 63.7857 883.444 66.4693C883.796 69.1528 884.831 71.5177 886.442 73.5313C888.053 75.5449 890.197 76.9602 892.982 77.8098C895.66 78.6268 897.938 79.029 899.741 78.8764C900.44 78.5042 901.268 76.9418 902.118 74.1565C903.016 71.2105 903.374 69.2705 903.281 68.4225C902.618 68.103 901.933 67.66 901.142 67.1843C900.35 66.7086 899.665 66.2656 899.142 65.8716L900.121 64.0041L911.155 67.3702L910.926 69.4664C910.432 69.5499 909.353 69.6307 907.674 69.7624C907.091 70.5214 906.44 72.0793 905.754 74.3289L905.051 76.6321C904.495 78.4533 904.005 80.0602 903.688 81.4855C899.406 81.7016 895.551 81.2868 892.016 80.2084C888.535 79.1463 885.748 77.5349 883.671 75.3207Z" fill="#1A1417"/>
<path d="M938.859 57.1157L947.034 94.1604L955.568 73.45C956.742 70.6023 957.281 68.7048 957.27 67.8519C955.917 66.8707 954.979 66.0602 954.529 65.39L955.48 63.9647L964.696 67.7626L964.314 69.4226C963.522 69.5807 962.338 69.5164 960.635 69.2388C960.163 69.6498 959.73 70.2589 959.337 71.066C958.871 71.9035 958.401 73.0426 957.846 74.3888L951.189 90.5429C949.269 95.2027 948.239 98.2911 948.141 99.7044L944.906 99.7644L936.165 62.1835L927.652 82.8421C926.756 85.0167 926.104 86.7467 925.799 88.0746C927.544 89.2783 928.689 90.1741 929.161 90.7926L928.262 92.2392L918.58 88.2493L918.857 86.5467C919.107 86.5284 919.409 86.5316 919.835 86.5256C920.262 86.5196 920.615 86.5441 920.865 86.5259C921.322 86.593 921.727 86.6388 922.123 86.5597C922.57 86.502 923.021 86.1427 923.475 85.4818C923.972 84.7174 924.758 83.1033 925.761 80.6698L932.61 64.0497C932.952 63.2213 933.327 62.1644 933.692 60.9827C934.058 59.8009 934.275 58.9816 934.333 58.3999C932.64 57.2175 931.619 56.3126 931.281 55.8099L932.18 54.3633L938.859 57.1157Z" fill="#1A1417"/>
<path d="M254.138 1235.47C254.321 1236.11 254.314 1236.78 254.116 1237.46C253.918 1238.14 253.527 1238.76 252.958 1239.36C252.401 1239.95 251.738 1240.39 250.956 1240.64C250.173 1240.89 249.385 1240.96 248.605 1240.81C247.837 1240.68 247.179 1240.36 246.63 1239.84C246.081 1239.32 245.708 1238.72 245.525 1238.07C245.342 1237.43 245.35 1236.77 245.548 1236.08C245.746 1235.4 246.123 1234.77 246.68 1234.18C247.249 1233.58 247.925 1233.16 248.708 1232.9C249.49 1232.65 250.266 1232.59 251.033 1232.73C251.814 1232.87 252.472 1233.2 253.008 1233.7C253.57 1234.24 253.955 1234.82 254.138 1235.47ZM250.71 1233.49C250.135 1233.41 249.577 1233.51 248.998 1233.75C248.445 1233.99 247.945 1234.34 247.499 1234.81C246.818 1235.53 246.444 1236.29 246.39 1237.08C246.335 1237.87 246.66 1238.6 247.392 1239.29C247.863 1239.74 248.392 1239.99 248.966 1240.07C249.554 1240.13 250.112 1240.04 250.665 1239.79C251.219 1239.55 251.706 1239.19 252.139 1238.73C252.832 1238 253.207 1237.26 253.261 1236.47C253.329 1235.69 253.004 1234.97 252.272 1234.27C251.801 1233.83 251.285 1233.56 250.71 1233.49Z" fill="#1A1417"/>
<path d="M240.65 1234.27L242.695 1232.22L245.356 1229.41C245.48 1229.28 245.912 1228.79 246.64 1227.95L247.424 1228.69C246.631 1229.48 246.159 1229.92 246.035 1230.05L242.533 1233.75C242.496 1233.79 242.484 1233.83 242.485 1233.88C242.499 1233.92 242.539 1233.98 242.605 1234.07L243.75 1235.45L243.54 1235.67L240.65 1234.27Z" fill="#1A1417"/>
<path d="M243.264 1225.17C243.447 1225.82 243.439 1226.48 243.241 1227.16C243.044 1227.84 242.653 1228.46 242.084 1229.06C241.527 1229.65 240.864 1230.09 240.081 1230.34C239.299 1230.59 238.511 1230.66 237.731 1230.52C236.963 1230.38 236.305 1230.06 235.756 1229.54C235.207 1229.02 234.834 1228.42 234.651 1227.77C234.468 1227.13 234.475 1226.47 234.673 1225.79C234.871 1225.11 235.249 1224.47 235.806 1223.88C236.375 1223.28 237.051 1222.86 237.834 1222.61C238.616 1222.36 239.391 1222.3 240.159 1222.43C240.939 1222.57 241.598 1222.9 242.133 1223.41C242.695 1223.94 243.081 1224.53 243.264 1225.17ZM239.836 1223.19C239.261 1223.12 238.703 1223.21 238.124 1223.45C237.57 1223.7 237.07 1224.04 236.625 1224.51C235.944 1225.23 235.57 1225.99 235.515 1226.78C235.46 1227.57 235.786 1228.3 236.518 1229C236.988 1229.44 237.517 1229.69 238.092 1229.77C238.68 1229.83 239.237 1229.74 239.791 1229.49C240.344 1229.25 240.831 1228.89 241.264 1228.43C241.958 1227.7 242.332 1226.97 242.387 1226.18C242.455 1225.4 242.13 1224.67 241.398 1223.97C240.927 1223.53 240.411 1223.26 239.836 1223.19Z" fill="#1A1417"/>
<path d="M1155.35 1228.67C1152.96 1227.59 1151.29 1226.97 1150.18 1226.82C1148.64 1227.59 1147.66 1228.03 1147.3 1228.15L1146.42 1226.66L1153.64 1219.3L1154.99 1220.32C1154.84 1220.64 1154.57 1221.24 1154.18 1221.95C1153.79 1222.67 1153.48 1223.31 1153.16 1223.78C1154.6 1224.72 1157.74 1226.32 1162.71 1228.53L1172.91 1218.14L1172.11 1216.48L1171.38 1214.99C1169.93 1211.83 1168.8 1209.78 1168.04 1208.72C1166.78 1209.68 1165.48 1210.45 1164.1 1211.05L1163.17 1209.6L1170.2 1202.44L1171.75 1203.34C1171.64 1203.94 1171.25 1204.81 1170.66 1205.96C1170.43 1206.36 1170.68 1207.31 1171.4 1208.81L1183.32 1234.48C1184.12 1236.14 1184.93 1237.4 1185.77 1238.22L1184.17 1241.28L1155.35 1228.67ZM1181.79 1236.75L1174 1220.39L1165.06 1229.5L1181.79 1236.75Z" fill="#1A1417"/>
<path d="M1152.41 1270.36C1151.45 1270.96 1150.17 1271.7 1148.55 1272.57L1146.6 1272.7C1146.16 1272.19 1145.51 1271.27 1144.65 1270.01C1143.8 1268.68 1143.17 1267.6 1142.72 1266.65C1143.04 1266.16 1143.47 1265.72 1144.05 1265.36C1144.53 1265.84 1145.16 1266.4 1145.98 1267.17C1146.84 1267.91 1147.59 1268.53 1148.25 1269.13C1149.03 1268.83 1149.86 1268.42 1150.81 1267.89C1151.77 1267.29 1152.61 1266.72 1153.33 1266.1C1155.62 1264.12 1156.81 1261.99 1156.86 1259.81C1156.77 1258.33 1156.19 1257.06 1155.2 1255.91C1154.32 1254.89 1153.38 1254.31 1152.28 1254.15C1151.14 1253.94 1150.02 1254.02 1148.81 1254.32C1147.59 1254.63 1146.12 1255.15 1144.32 1255.89C1142.04 1256.67 1140.13 1257.29 1138.63 1257.69C1137.14 1258.01 1135.59 1258.02 1133.95 1257.66C1132.35 1257.26 1130.83 1256.27 1129.44 1254.66C1128.09 1253.09 1127.39 1251.33 1127.26 1249.37C1127.13 1247.42 1127.39 1245.57 1128.07 1243.8C1128.76 1242.02 1129.58 1240.65 1130.57 1239.65C1133.11 1237.46 1136.4 1235.44 1140.39 1233.64C1140.84 1233.99 1141.72 1234.93 1143.09 1236.34C1144.41 1237.71 1145.48 1238.86 1146.17 1239.75C1146.02 1240.18 1145.62 1240.74 1145.05 1241.45C1144.15 1240.75 1143.13 1240 1141.99 1239.28C1140.86 1238.48 1139.99 1237.98 1139.37 1237.69C1138.48 1237.94 1137.41 1238.42 1136.21 1239.08C1135.01 1239.75 1134 1240.47 1133.07 1241.27C1131.45 1242.66 1130.42 1244.29 1129.92 1246.2C1129.9 1247.98 1130.79 1249.96 1132.54 1251.99C1133.49 1253.1 1134.56 1253.73 1135.73 1253.98C1136.91 1254.15 1138.06 1254.11 1139.28 1253.81C1140.49 1253.5 1142.04 1252.98 1143.92 1252.25C1146.01 1251.41 1147.72 1250.83 1149.09 1250.53C1150.51 1250.2 1151.9 1250.19 1153.34 1250.49C1154.79 1250.8 1156.07 1251.69 1157.32 1253.13C1158.19 1254.15 1158.82 1255.31 1159.16 1256.65C1159.46 1257.94 1159.48 1259.25 1159.3 1260.59C1158.88 1263.02 1157.79 1265.36 1156.03 1267.61C1154.59 1268.85 1153.37 1269.75 1152.41 1270.36Z" fill="#1A1417"/>
<path d="M1122.76 1293.54C1121.76 1294.07 1120.42 1294.7 1118.74 1295.44L1116.78 1295.42C1116.39 1294.88 1115.82 1293.91 1115.06 1292.59C1114.31 1291.19 1113.76 1290.07 1113.39 1289.09C1113.75 1288.62 1114.21 1288.21 1114.82 1287.91C1115.26 1288.42 1115.85 1289.03 1116.6 1289.86C1117.4 1290.67 1118.1 1291.34 1118.72 1291.99C1119.51 1291.76 1120.37 1291.41 1121.36 1290.96C1122.36 1290.43 1123.24 1289.93 1124.01 1289.36C1126.45 1287.58 1127.8 1285.54 1128.02 1283.37C1128.05 1281.89 1127.57 1280.58 1126.67 1279.36C1125.88 1278.27 1124.98 1277.61 1123.9 1277.37C1122.78 1277.07 1121.66 1277.06 1120.42 1277.27C1119.19 1277.48 1117.68 1277.89 1115.83 1278.49C1113.49 1279.09 1111.54 1279.55 1110.01 1279.83C1108.5 1280.04 1106.95 1279.92 1105.35 1279.44C1103.78 1278.91 1102.35 1277.81 1101.09 1276.1C1099.87 1274.42 1099.31 1272.61 1099.33 1270.65C1099.35 1268.69 1099.75 1266.87 1100.58 1265.16C1101.4 1263.44 1102.32 1262.14 1103.39 1261.22C1106.1 1259.24 1109.53 1257.48 1113.65 1255.99C1114.07 1256.38 1114.88 1257.39 1116.12 1258.9C1117.34 1260.37 1118.31 1261.6 1118.93 1262.54C1118.75 1262.95 1118.3 1263.48 1117.68 1264.15C1116.84 1263.38 1115.88 1262.55 1114.8 1261.74C1113.74 1260.86 1112.91 1260.29 1112.32 1259.96C1111.41 1260.14 1110.3 1260.53 1109.05 1261.1C1107.81 1261.66 1106.75 1262.3 1105.75 1263.03C1104.04 1264.29 1102.88 1265.83 1102.23 1267.7C1102.07 1269.48 1102.8 1271.51 1104.39 1273.68C1105.25 1274.85 1106.26 1275.57 1107.41 1275.91C1108.57 1276.17 1109.73 1276.22 1110.96 1276.01C1112.2 1275.8 1113.78 1275.41 1115.71 1274.82C1117.86 1274.15 1119.61 1273.7 1121 1273.52C1122.44 1273.3 1123.83 1273.39 1125.24 1273.81C1126.66 1274.23 1127.87 1275.22 1129 1276.75C1129.79 1277.83 1130.33 1279.04 1130.56 1280.4C1130.76 1281.71 1130.68 1283.02 1130.39 1284.34C1129.78 1286.73 1128.52 1288.98 1126.59 1291.08C1125.05 1292.21 1123.77 1293.01 1122.76 1293.54Z" fill="#1A1417"/>
<path d="M1066.04 1296.29C1065.45 1295.21 1064.83 1293.88 1064.18 1292.18C1063.53 1290.48 1063.07 1289.19 1062.79 1288.3C1064.38 1287.46 1066.96 1286.01 1070.5 1283.84L1084.39 1275.33L1085.61 1276.56C1085.54 1276.66 1085.18 1277.15 1084.57 1277.98L1083.72 1279.16C1083.43 1279.66 1083.46 1280.24 1083.77 1280.96C1084.65 1282.72 1085.35 1284.07 1085.93 1285.02L1095.82 1301.16C1097.46 1303.84 1098.62 1305.3 1099.23 1305.65C1101.08 1305.03 1102.34 1304.72 1103.04 1304.69L1103.61 1306.37L1091.06 1314.07C1089.58 1314.98 1087.9 1316 1086.15 1317.21C1084.36 1318.37 1083.2 1319.15 1082.78 1319.53L1080.99 1319.19C1080.69 1318.58 1080.17 1317.52 1079.37 1315.91C1078.63 1314.26 1078.1 1313.08 1077.89 1312.41C1078.4 1311.84 1078.94 1311.44 1079.48 1311.25C1080.83 1313.24 1082.01 1314.75 1083.06 1315.81C1083.66 1315.71 1084.38 1315.4 1085.37 1314.86C1086.35 1314.32 1088.1 1313.32 1090.54 1311.83C1093.4 1310.07 1095.08 1308.84 1095.7 1308.14C1095.51 1307.2 1094.94 1306.04 1094.09 1304.66L1088.91 1296.2C1088.57 1296.29 1088.06 1296.53 1087.34 1296.97C1086.63 1297.41 1085.72 1297.96 1084.57 1298.67C1083.9 1299.08 1083.14 1299.54 1082.24 1300.22C1081.37 1300.83 1080.76 1301.33 1080.38 1301.69C1080.57 1302.63 1081.01 1304 1081.66 1305.7C1081.23 1305.97 1080.74 1306.14 1080.18 1306.28C1078.87 1303.93 1078.01 1302.42 1077.66 1301.85C1076.69 1300.28 1075.76 1298.75 1074.72 1297.28C1075.04 1296.82 1075.41 1296.47 1075.9 1296.3C1077.17 1297.62 1078.16 1298.59 1078.86 1299.21C1079.74 1298.93 1081.28 1298.12 1083.43 1296.8C1085.91 1295.28 1087.27 1294.39 1087.59 1294.06L1083.12 1286.75C1081.86 1284.7 1080.71 1283.04 1079.67 1281.77C1079.06 1281.75 1078.33 1281.94 1077.41 1282.37C1076.46 1282.75 1074.76 1283.73 1072.18 1285.31C1070.85 1286.13 1069.75 1286.8 1068.9 1287.45C1068.02 1288.05 1067.3 1288.69 1066.8 1289.39C1066.82 1290.17 1066.91 1291.17 1067.07 1292.51C1067.26 1293.78 1067.51 1294.94 1067.8 1295.94C1067.48 1296.07 1066.89 1296.17 1066.04 1296.29Z" fill="#1A1417"/>
<path d="M1069.62 1326.88C1068.77 1327.18 1067.6 1327.71 1066.12 1328.39C1064.64 1329.07 1063.14 1329.82 1061.59 1330.6L1053.39 1334.73C1051.89 1335.49 1050.29 1336.29 1048.71 1337.15C1047.13 1338 1046.11 1338.58 1045.76 1338.88L1043.98 1338.33C1043.68 1337.61 1043.22 1336.46 1042.62 1335.01C1042.04 1333.48 1041.51 1332.18 1041.08 1331.08C1041.33 1330.83 1041.86 1330.5 1042.66 1330.1C1043.87 1332.25 1044.97 1333.95 1046.03 1335.3C1046.58 1335.27 1047.18 1335.1 1047.88 1334.87C1048.6 1334.57 1049.73 1334.06 1051.23 1333.31L1054.68 1331.57C1054.53 1330.65 1053.67 1328.69 1052.21 1325.79L1043.36 1308.18C1042.35 1306.18 1041.47 1304.55 1040.69 1303.38C1038.72 1303.94 1036.99 1304.24 1035.49 1304.37L1035.18 1303.02L1046.79 1297.18L1047.69 1298.23C1046.84 1299.28 1045.89 1300.26 1044.85 1301.29C1044.6 1301.67 1044.57 1302.24 1044.82 1302.99C1045.23 1304.3 1045.83 1305.75 1046.66 1307.4L1055.17 1324.31C1056.68 1327.31 1057.78 1329.14 1058.33 1329.73C1061.54 1328.12 1063.56 1327.04 1064.49 1326.52C1065.41 1325.99 1066.09 1325.46 1066.49 1325.01C1066.03 1323.36 1065.33 1321.45 1064.32 1319.2C1065.22 1318.75 1065.8 1318.52 1066.05 1318.52C1066.68 1319.52 1067.45 1320.7 1068.28 1322.1C1069.16 1323.47 1069.79 1324.47 1070.15 1325.17L1069.62 1326.88Z" fill="#1A1417"/>
<path d="M1019.29 1350.29C1018.19 1350.55 1016.73 1350.84 1014.92 1351.15L1013.03 1350.66C1012.78 1350.03 1012.46 1348.95 1012.04 1347.49C1011.66 1345.95 1011.4 1344.73 1011.28 1343.69C1011.74 1343.32 1012.29 1343.04 1012.95 1342.89C1013.26 1343.49 1013.68 1344.23 1014.2 1345.22C1014.78 1346.19 1015.29 1347.01 1015.74 1347.8C1016.57 1347.76 1017.48 1347.63 1018.55 1347.44C1019.65 1347.17 1020.63 1346.9 1021.51 1346.54C1024.31 1345.4 1026.12 1343.75 1026.86 1341.7C1027.24 1340.27 1027.1 1338.88 1026.53 1337.48C1026.02 1336.24 1025.31 1335.38 1024.32 1334.87C1023.31 1334.32 1022.22 1334.03 1020.98 1333.94C1019.73 1333.84 1018.17 1333.87 1016.22 1334C1013.81 1334.01 1011.8 1333.98 1010.25 1333.89C1008.73 1333.72 1007.27 1333.23 1005.82 1332.37C1004.44 1331.48 1003.31 1330.06 1002.51 1328.09C1001.73 1326.17 1001.63 1324.28 1002.12 1322.39C1002.62 1320.49 1003.45 1318.82 1004.67 1317.36C1005.89 1315.89 1007.1 1314.86 1008.35 1314.23C1011.47 1312.96 1015.23 1312.09 1019.58 1311.65C1019.9 1312.13 1020.43 1313.3 1021.28 1315.07C1022.1 1316.79 1022.74 1318.22 1023.11 1319.28C1022.83 1319.64 1022.27 1320.05 1021.51 1320.54C1020.88 1319.59 1020.15 1318.55 1019.3 1317.51C1018.49 1316.39 1017.82 1315.63 1017.32 1315.17C1016.4 1315.12 1015.23 1315.23 1013.88 1315.48C1012.53 1315.73 1011.35 1316.09 1010.21 1316.55C1008.24 1317.36 1006.74 1318.57 1005.66 1320.22C1005.07 1321.91 1005.29 1324.06 1006.3 1326.55C1006.85 1327.9 1007.65 1328.84 1008.69 1329.45C1009.75 1329.98 1010.86 1330.32 1012.1 1330.42C1013.35 1330.51 1014.99 1330.51 1017 1330.42C1019.25 1330.29 1021.06 1330.28 1022.45 1330.43C1023.9 1330.57 1025.22 1331 1026.49 1331.75C1027.77 1332.5 1028.7 1333.76 1029.42 1335.52C1029.93 1336.76 1030.15 1338.06 1030.05 1339.44C1029.92 1340.76 1029.52 1342.01 1028.93 1343.22C1027.75 1345.39 1025.98 1347.26 1023.59 1348.83C1021.83 1349.55 1020.39 1350.02 1019.29 1350.29Z" fill="#1A1417"/>
<path d="M1378.59 511.348C1378.74 510.695 1379.06 510.117 1379.56 509.614C1380.06 509.111 1380.7 508.752 1381.49 508.496C1382.26 508.246 1383.05 508.178 1383.86 508.332C1384.66 508.486 1385.39 508.799 1386.01 509.299C1386.62 509.782 1387.04 510.383 1387.27 511.102C1387.51 511.821 1387.55 512.527 1387.4 513.18C1387.25 513.834 1386.93 514.412 1386.43 514.915C1385.93 515.418 1385.3 515.794 1384.53 516.044C1383.74 516.3 1382.94 516.351 1382.13 516.197C1381.33 516.042 1380.62 515.724 1380.01 515.241C1379.39 514.741 1378.97 514.14 1378.74 513.438C1378.5 512.702 1378.44 512.002 1378.59 511.348ZM1380.65 514.728C1381.12 515.068 1381.66 515.254 1382.28 515.316C1382.89 515.366 1383.49 515.302 1384.11 515.102C1385.05 514.796 1385.74 514.306 1386.17 513.638C1386.59 512.969 1386.66 512.173 1386.34 511.214C1386.14 510.598 1385.8 510.123 1385.33 509.783C1384.84 509.449 1384.31 509.263 1383.71 509.213C1383.1 509.163 1382.51 509.244 1381.91 509.438C1380.95 509.75 1380.27 510.217 1379.84 510.885C1379.41 511.537 1379.35 512.333 1379.66 513.292C1379.86 513.908 1380.18 514.389 1380.65 514.728Z" fill="#1A1417"/>
<path d="M1381.65 520.777C1381.8 520.124 1382.12 519.546 1382.62 519.043C1383.12 518.54 1383.76 518.181 1384.55 517.925C1385.32 517.675 1386.11 517.607 1386.92 517.761C1387.73 517.915 1388.45 518.228 1389.07 518.728C1389.68 519.211 1390.1 519.812 1390.34 520.531C1390.57 521.25 1390.61 521.956 1390.46 522.609C1390.31 523.263 1389.99 523.841 1389.49 524.344C1388.99 524.847 1388.36 525.223 1387.59 525.473C1386.8 525.729 1386 525.78 1385.2 525.626C1384.39 525.472 1383.68 525.153 1383.07 524.67C1382.45 524.17 1382.03 523.569 1381.8 522.867C1381.56 522.131 1381.51 521.431 1381.65 520.777ZM1383.72 524.157C1384.19 524.497 1384.72 524.683 1385.35 524.745C1385.95 524.795 1386.55 524.731 1387.17 524.531C1388.11 524.225 1388.8 523.735 1389.23 523.067C1389.66 522.398 1389.72 521.602 1389.41 520.643C1389.21 520.027 1388.86 519.552 1388.39 519.212C1387.91 518.878 1387.37 518.692 1386.77 518.642C1386.17 518.592 1385.57 518.673 1384.97 518.867C1384.01 519.179 1383.33 519.646 1382.9 520.314C1382.47 520.966 1382.41 521.762 1382.72 522.721C1382.92 523.337 1383.25 523.818 1383.72 524.157Z" fill="#1A1417"/>
<path d="M1385.86 534.711L1385.32 533.068L1384.33 533.39C1384.16 533.446 1383.55 533.663 1382.5 534.06L1381.95 533.122C1383.03 532.811 1383.65 532.645 1383.82 532.59L1385.04 532.195L1383.63 527.846L1384.06 527.252L1390.81 528.522C1390.86 528.545 1391.19 528.571 1391.8 528.638L1393.66 528.846L1393.49 529.943L1384.69 528.259L1384.57 528.372L1385.81 531.945L1386.77 531.633C1386.94 531.578 1387.61 531.321 1388.8 530.897L1389.37 531.83C1387.79 532.284 1386.86 532.567 1386.59 532.656L1386.11 532.812L1386.68 534.444L1385.86 534.711Z" fill="#1A1417"/>
<path d="M1205.4 266.612C1205.63 266.699 1206.26 266.96 1207.11 267.387C1207.66 267.644 1208.09 267.858 1208.32 267.945C1208.75 268.159 1209.31 268.021 1210.08 267.533C1210.97 266.931 1212.2 265.945 1213.71 264.534L1227.49 251.716C1229.79 249.58 1230.99 248.157 1231.21 247.491C1230.31 245.953 1229.76 244.784 1229.51 243.943L1231.05 243.048L1239.94 252.6C1242 254.814 1243.31 256.961 1243.91 259.004C1244.33 260.604 1244.35 262.11 1243.98 263.682C1243.57 265.212 1242.72 266.608 1241.33 267.905C1239.73 269.393 1237.99 270.4 1236.15 270.889C1234.31 271.377 1232.45 271.429 1230.64 270.968C1228.44 270.492 1226.5 269.392 1224.81 267.747C1223.52 266.353 1222.15 264.639 1220.68 262.566L1214.9 267.944C1213.51 269.241 1212.31 270.427 1211.36 271.542C1212.46 272.968 1213.51 274.67 1214.43 276.645L1213.13 277.39L1204.44 268.043L1205.4 266.612ZM1230.72 268.831C1233.44 269.206 1236.05 268.23 1238.55 265.903C1240.52 264.072 1241.34 262.16 1241.06 260.129C1240.77 258.098 1239.74 256.08 1237.87 254.071C1236.03 252.103 1234.81 251.028 1234.18 250.689C1233.42 250.939 1231.91 252.113 1229.66 254.211L1222.65 260.734C1223.27 262.144 1224.44 263.731 1226.08 265.494C1227.68 267.216 1229.23 268.381 1230.72 268.831Z" fill="#1A1417"/>
<path d="M1264.58 280.887C1266.6 283.358 1267.81 285.549 1268.22 287.381C1268.62 288.934 1268.55 290.439 1268.09 291.904C1267.59 293.327 1266.7 294.631 1265.36 295.73C1263.58 297.183 1261.55 297.975 1259.3 298.227C1257.01 298.435 1254.85 298.1 1252.8 297.178L1249.11 308.509C1248.84 309.238 1248.63 310.133 1248.36 311.22C1248.1 312.307 1247.93 313.166 1247.91 313.761C1248.25 314.79 1248.47 315.688 1248.55 316.492L1247.06 317.138L1243.69 313.02C1244.14 312.07 1244.87 309.955 1245.99 306.724C1245.93 306.917 1246.29 305.68 1247.15 303.099C1247.84 300.94 1248.47 299.053 1248.94 297.508C1249.42 295.964 1249.68 294.955 1249.67 294.597C1248.15 292.654 1246.86 290.893 1245.85 289.399L1239.74 294.398C1237.75 296.029 1236.27 297.313 1235.41 298.302C1235.61 298.72 1235.9 299.347 1236.33 300.225C1236.72 301.139 1237.01 301.845 1237.12 302.333L1235.57 303.094L1228.51 294.468L1229.57 293.1C1229.79 293.203 1230.4 293.502 1231.23 293.983C1231.71 294.31 1232.09 294.507 1232.43 294.661C1232.85 294.823 1233.42 294.72 1234.18 294.319C1235.11 293.775 1236.35 292.904 1237.91 291.628L1252.56 279.644C1254.99 277.659 1256.28 276.315 1256.54 275.665C1255.75 273.995 1255.28 272.793 1255.11 272.06L1256.67 271.221L1264.58 280.887ZM1255.26 295.594C1256.2 295.768 1257.32 295.721 1258.7 295.461C1260.03 295.237 1261.37 294.575 1262.67 293.511C1264.54 291.987 1265.31 290.194 1265.12 288.184C1264.89 286.132 1263.9 284.043 1262.2 281.962C1260.85 280.315 1259.87 279.381 1259.27 279.003C1258.58 279.133 1257.25 280.074 1255.17 281.776L1248.15 287.52C1248.63 288.722 1249.53 290.085 1250.87 291.732C1252.5 293.726 1253.93 295.023 1255.26 295.594Z" fill="#1A1417"/>
<path d="M1257.65 329.103C1257.44 326.094 1258.05 323.265 1259.48 320.539C1260.89 317.766 1263.01 315.441 1265.85 313.438C1268.82 311.338 1271.79 309.999 1274.76 309.546C1277.7 309.048 1280.6 309.187 1283.39 310.028C1285.12 310.526 1286.72 311.244 1288.21 312.183C1289.69 313.121 1290.95 314.222 1291.99 315.405C1293.86 318.058 1294.9 320.889 1295.11 323.898C1295.31 326.907 1294.71 329.735 1293.31 332.508C1291.87 335.234 1289.78 337.606 1286.99 339.576C1283.97 341.709 1280.97 343.001 1278.03 343.5C1275.06 343.953 1272.2 343.782 1269.44 342.986C1267.69 342.443 1266.08 341.725 1264.6 340.786C1263.11 339.847 1261.81 338.779 1260.81 337.563C1258.94 334.91 1257.85 332.111 1257.65 329.103ZM1270.26 340.555C1272.17 340.924 1274.36 340.818 1276.86 340.284C1279.28 339.737 1281.68 338.663 1284.06 336.983C1286.44 335.303 1288.26 333.327 1289.57 331.101C1290.84 328.829 1291.48 326.528 1291.42 324.106C1291.35 321.684 1290.51 319.33 1288.93 317.088C1287.44 314.984 1285.3 313.411 1282.57 312.459C1280.59 312.077 1278.4 312.183 1275.98 312.73C1273.47 313.263 1271.11 314.383 1268.78 316.031C1266.4 317.711 1264.54 319.641 1263.27 321.913C1261.96 324.139 1261.35 326.486 1261.42 328.908C1261.48 331.33 1262.29 333.639 1263.91 335.926C1265.39 338.03 1267.5 339.558 1270.26 340.555Z" fill="#1A1417"/>
<path d="M1316.63 354.814C1318.33 357.648 1319.2 360.52 1319.37 363.421C1319.5 366.35 1318.82 369.039 1317.41 371.583C1315.92 374.108 1313.75 376.259 1310.87 377.987C1305.97 380.924 1301.36 382.055 1297.02 381.458C1292.65 380.813 1288.99 378.632 1286.09 374.885L1277.65 360.812L1278.89 359.612C1279.21 359.814 1279.69 360.179 1280.41 360.727C1280.89 361.092 1281.26 361.39 1281.48 361.524C1281.85 361.822 1282.43 361.803 1283.28 361.486C1284.28 361.083 1285.63 360.402 1287.36 359.366L1303.65 349.604C1306.29 348.021 1307.76 346.878 1308.11 346.273C1307.52 344.41 1307.22 343.152 1307.19 342.451L1308.88 341.894L1316.63 354.814ZM1292.9 377.529C1294.7 378.144 1297.05 378.241 1299.89 377.973C1302.73 377.705 1305.4 376.822 1307.95 375.296C1310.54 373.742 1312.58 371.802 1314.07 369.604C1315.51 367.434 1316.28 365.014 1316.31 362.449C1316.34 359.885 1315.59 357.33 1314.06 354.785C1313.69 354.16 1313.15 353.373 1312.45 352.422C1311.75 351.47 1311.16 350.587 1310.6 349.876C1309.71 350.02 1308.51 350.538 1307.07 351.402L1289.01 362.228C1287.38 363.207 1285.68 364.292 1284.07 365.52C1284.3 366.884 1285.08 368.632 1286.38 370.794C1288.22 373.868 1290.35 376.116 1292.9 377.529Z" fill="#1A1417"/>
<path d="M1331.74 380.948L1336.7 390.862L1335.3 391.94C1334.75 391.59 1333.85 390.664 1332.62 389.212C1332.07 389.237 1331.34 389.413 1330.52 389.764C1329.67 390.065 1328.56 390.617 1327.21 391.294L1315.39 397.212C1313.39 398.216 1311.79 399.143 1310.64 400.096C1309.41 401.023 1308.56 402.075 1308.11 403.178C1307.56 404.33 1307.41 405.532 1307.66 406.91C1307.86 408.312 1308.49 409.939 1309.49 411.942C1310.1 413.144 1310.87 414.32 1311.85 415.397C1312.8 416.423 1313.81 417.174 1314.86 417.649C1316.26 417.948 1317.69 417.922 1319.14 417.571C1320.59 417.219 1322.62 416.391 1325.27 415.062L1336.44 409.47C1339.19 408.091 1340.8 407.038 1341.25 406.437C1340.79 404.534 1340.59 403.256 1340.62 402.555L1342.35 402.128L1347.13 411.692L1345.73 412.77C1345.18 412.42 1344.28 411.493 1343.03 409.992C1342.45 409.967 1341.77 410.118 1341.05 410.419C1340.25 410.695 1339.25 411.196 1337.94 411.848L1325.03 418.318C1321.07 420.299 1317.79 421.003 1315.21 420.478C1311.35 419.78 1308.27 417.002 1305.91 412.295C1304.91 410.292 1304.31 408.339 1304.16 406.411C1303.98 404.433 1304.3 402.704 1305.08 401.251C1305.65 400.024 1306.58 398.871 1307.88 397.843C1309.18 396.816 1310.86 395.788 1312.86 394.785L1325.88 388.265C1328.59 386.911 1330.19 385.858 1330.61 385.206C1330.16 383.303 1329.96 382.026 1330.01 381.375L1331.74 380.948Z" fill="#1A1417"/>
<path d="M1323.17 444.072C1323.53 441.134 1324.74 438.508 1326.68 436.184C1328.63 433.86 1331.27 432.037 1334.53 430.683C1341.09 427.955 1347.08 428.199 1352.57 431.496C1353.94 432.32 1355.21 433.313 1356.41 434.451C1357.55 435.611 1358.48 436.806 1359.17 438.034C1359.85 439.689 1360.41 441.46 1360.95 443.356C1361.5 445.252 1361.84 446.808 1361.96 447.971L1361.2 449.926C1360.68 450.14 1359.6 450.467 1357.96 450.904C1356.33 451.342 1354.93 451.62 1353.81 451.843C1353.46 451.442 1353.17 450.894 1352.97 450.127C1353.57 449.818 1354.46 449.328 1355.58 448.679C1356.71 448.029 1357.58 447.488 1358.24 447.032C1358.2 446.075 1357.98 444.955 1357.69 443.68C1357.4 442.404 1357.04 441.224 1356.56 440.086C1355.34 437.138 1353.46 434.948 1351 433.545C1349.27 432.746 1347.09 432.317 1344.48 432.31C1341.87 432.303 1339.35 432.804 1336.87 433.835C1334.18 434.952 1331.91 436.5 1330.06 438.48C1328.22 440.459 1327.01 442.659 1326.46 445.131C1325.89 447.551 1326.14 450.054 1327.17 452.537C1328.24 455.122 1329.32 456.98 1330.54 458.171C1332.63 458.393 1335 458.382 1337.63 458.015C1337.79 458.678 1337.87 459.312 1337.79 460.009C1334.63 460.717 1331.99 461.209 1329.91 461.465C1327.57 459.042 1325.81 456.257 1324.47 453.051C1323.18 449.948 1322.74 446.979 1323.17 444.072Z" fill="#1A1417"/>
<path d="M1367.4 459.869C1367.59 460.752 1367.95 461.989 1368.43 463.543C1368.9 465.097 1369.45 466.686 1370.01 468.328L1372.99 477.015C1373.54 478.604 1374.12 480.298 1374.75 481.975C1375.39 483.652 1375.82 484.746 1376.07 485.133L1375.29 486.823C1374.53 487.024 1373.33 487.318 1371.81 487.722C1370.22 488.09 1368.86 488.439 1367.71 488.715C1367.5 488.433 1367.24 487.869 1366.95 487.021C1369.25 486.115 1371.08 485.249 1372.56 484.386C1372.61 483.836 1372.52 483.217 1372.38 482.492C1372.18 481.733 1371.84 480.549 1371.29 478.96L1370.04 475.305C1369.1 475.332 1367.05 475.917 1363.98 476.971L1345.33 483.372C1343.21 484.099 1341.48 484.752 1340.21 485.365C1340.5 487.399 1340.57 489.152 1340.49 490.658L1339.11 490.777L1334.89 478.489L1336.06 477.734C1336.99 478.718 1337.83 479.791 1338.71 480.969C1339.04 481.267 1339.61 481.368 1340.39 481.22C1341.73 480.995 1343.25 480.592 1345 479.992L1362.9 473.846C1366.08 472.755 1368.04 471.905 1368.71 471.439C1367.54 468.049 1366.75 465.896 1366.35 464.908C1365.95 463.919 1365.52 463.179 1365.12 462.723C1363.43 462.95 1361.45 463.393 1359.08 464.087C1358.75 463.134 1358.61 462.533 1358.64 462.285C1359.71 461.797 1360.98 461.183 1362.48 460.55C1363.97 459.864 1365.04 459.376 1365.78 459.122L1367.4 459.869Z" fill="#1A1417"/>
</svg>
