<svg width="1440" height="1440" viewBox="0 0 1440 1440" fill="none" xmlns="http://www.w3.org/2000/svg">
<mask id="mask0_2273_3013" style="mask-type:alpha" maskUnits="userSpaceOnUse" x="160" y="164" width="1121" height="1121">
<circle cx="720.5" cy="724.5" r="560" fill="#D9D9D9" stroke="#14100E"/>
</mask>
<g mask="url(#mask0_2273_3013)">
<circle cx="720.5" cy="724.5" r="560" fill="white" stroke="#1A1417"/>
<line x1="719.5" y1="1440" x2="719.5" y2="-2.18556e-08" stroke="#1A1417"/>
<path d="M1415.34 906.838L335 617.361" stroke="#1A1417"/>
<line x1="210.531" y1="1228.76" x2="1228.77" y2="210.526" stroke="#1A1417"/>
<line x1="1003.65" y1="1004.36" x2="325.647" y2="326.357" stroke="#1A1417"/>
<line x1="20.7672" y1="891.655" x2="1419" y2="547.364" stroke="#1A1417"/>
<path d="M722 167C722 166.333 720.9 165 716.5 165L715.5 322.5H722V167Z" fill="white"/>
</g>
<path d="M369.854 312.194C370.713 311.662 371.867 311.012 373.313 310.244L375.06 310.139C375.448 310.597 376.019 311.424 376.778 312.55C377.531 313.748 378.09 314.716 378.481 315.564C378.197 316.002 377.81 316.396 377.287 316.707C376.861 316.282 376.3 315.775 375.577 315.077C374.815 314.411 374.151 313.86 373.557 313.315C372.862 313.577 372.122 313.942 371.269 314.404C370.409 314.936 369.658 315.442 369.01 315.992C366.951 317.738 365.872 319.636 365.819 321.583C365.888 322.901 366.397 324.043 367.27 325.072C368.046 325.987 368.89 326.518 369.871 326.669C370.884 326.859 371.882 326.799 372.968 326.534C374.054 326.268 375.369 325.809 376.983 325.161C379.026 324.477 380.737 323.944 382.078 323.593C383.414 323.312 384.797 323.32 386.259 323.653C387.684 324.018 389.03 324.909 390.259 326.358C391.455 327.769 392.071 329.345 392.175 331.092C392.28 332.838 392.038 334.486 391.412 336.066C390.786 337.647 390.047 338.863 389.158 339.748C386.871 341.688 383.922 343.468 380.35 345.055C379.951 344.738 379.169 343.894 377.961 342.624C376.785 341.392 375.841 340.356 375.232 339.561C375.37 339.183 375.73 338.68 376.243 338.048C377.043 338.681 377.945 339.359 378.956 340.009C379.961 340.73 380.739 341.185 381.286 341.442C382.084 341.224 383.041 340.806 384.118 340.221C385.195 339.635 386.098 339 386.937 338.288C388.386 337.059 389.321 335.611 389.78 333.91C389.805 332.316 389.027 330.549 387.475 328.719C386.634 327.727 385.688 327.153 384.642 326.925C383.591 326.768 382.561 326.79 381.475 327.055C380.388 327.321 379.003 327.774 377.319 328.417C375.449 329.15 373.917 329.662 372.69 329.916C371.425 330.203 370.183 330.207 368.894 329.924C367.604 329.64 366.464 328.837 365.365 327.541C364.589 326.626 364.035 325.587 363.743 324.392C363.484 323.236 363.473 322.064 363.642 320.872C364.033 318.705 365.02 316.622 366.603 314.623C367.9 313.524 368.994 312.727 369.854 312.194Z" fill="#1A1417"/>
<path d="M385.539 299.35C387.058 300.29 389.13 301.418 391.683 302.728L412.015 313.019L404.843 290.648L404.395 289.192C403.749 287.117 403.231 285.656 402.813 284.699L407.656 280.592L408.893 281.509C408.503 282.364 407.853 283.375 406.979 284.509C407.188 284.987 407.603 285.554 408.261 286.175L422.644 300.66C424.214 302.279 425.434 303.408 426.336 304.085C426.706 303.903 427.299 303.597 428.076 303.199C428.886 302.84 429.511 302.572 429.946 302.466L430.649 303.836L423.023 310.305L421.824 309.355C422.055 308.7 422.629 307.754 423.438 306.543C423.214 305.815 422.617 304.879 421.57 303.8L406.649 288.526L413.96 311.369C414.264 312.423 414.552 313.227 414.832 313.711C415.073 314.228 415.488 314.794 416.038 315.442L414.443 317.581L388.079 304.276L399.847 319.93L402.961 323.91C403.331 323.728 403.924 323.422 404.701 323.025C405.473 322.698 406.098 322.43 406.533 322.324L407.236 323.694L400.067 329.774L398.83 328.857C399.099 328.169 399.559 327.32 400.178 326.271C400.353 325.86 400.323 325.361 400.023 324.698C399.658 323.958 398.846 322.615 397.446 320.655L387.883 307.524C387.404 306.882 386.827 306.125 386.116 305.286C385.404 304.447 384.919 303.875 384.596 303.494C384.15 303.741 383.557 304.047 382.823 304.341C382.084 304.706 381.573 304.877 381.285 304.924L380.544 303.586L385.539 299.35Z" fill="#1A1417"/>
<path d="M1060.02 312.189C1059.83 311.547 1059.83 310.884 1060.01 310.202C1060.2 309.519 1060.59 308.892 1061.15 308.283C1061.7 307.688 1062.35 307.241 1063.13 306.98C1063.91 306.719 1064.7 306.637 1065.48 306.771C1066.25 306.892 1066.91 307.21 1067.47 307.722C1068.02 308.235 1068.4 308.831 1068.6 309.473C1068.79 310.115 1068.79 310.777 1068.6 311.46C1068.41 312.142 1068.04 312.782 1067.49 313.377C1066.93 313.986 1066.26 314.42 1065.48 314.681C1064.7 314.942 1063.93 315.011 1063.16 314.89C1062.38 314.756 1061.71 314.438 1061.17 313.938C1060.6 313.413 1060.21 312.83 1060.02 312.189ZM1063.47 314.125C1064.05 314.191 1064.6 314.092 1065.18 313.84C1065.73 313.588 1066.23 313.237 1066.67 312.761C1067.34 312.033 1067.7 311.267 1067.74 310.475C1067.79 309.684 1067.45 308.958 1066.71 308.275C1066.24 307.836 1065.7 307.59 1065.13 307.524C1064.54 307.471 1063.98 307.57 1063.43 307.821C1062.88 308.073 1062.4 308.436 1061.97 308.899C1061.29 309.64 1060.93 310.381 1060.88 311.173C1060.82 311.952 1061.16 312.677 1061.9 313.361C1062.38 313.8 1062.9 314.059 1063.47 314.125Z" fill="#1A1417"/>
<path d="M1067.31 318.91C1067.11 318.268 1067.11 317.606 1067.3 316.923C1067.49 316.24 1067.87 315.614 1068.43 315.005C1068.98 314.409 1069.64 313.963 1070.42 313.702C1071.2 313.441 1071.99 313.358 1072.77 313.492C1073.54 313.614 1074.2 313.931 1074.76 314.444C1075.31 314.956 1075.69 315.552 1075.88 316.194C1076.07 316.836 1076.08 317.499 1075.89 318.181C1075.7 318.864 1075.33 319.503 1074.78 320.099C1074.22 320.707 1073.55 321.142 1072.77 321.403C1071.99 321.663 1071.22 321.733 1070.45 321.611C1069.66 321.477 1069 321.16 1068.46 320.66C1067.89 320.135 1067.5 319.552 1067.31 318.91ZM1070.76 320.847C1071.34 320.913 1071.89 320.814 1072.47 320.561C1073.02 320.31 1073.51 319.959 1073.95 319.482C1074.62 318.755 1074.99 317.988 1075.03 317.197C1075.08 316.405 1074.74 315.68 1074 314.997C1073.52 314.557 1072.99 314.311 1072.42 314.245C1071.83 314.193 1071.27 314.292 1070.72 314.543C1070.17 314.795 1069.69 315.158 1069.26 315.621C1068.58 316.362 1068.21 317.103 1068.17 317.894C1068.11 318.674 1068.45 319.399 1069.19 320.083C1069.66 320.522 1070.18 320.781 1070.76 320.847Z" fill="#1A1417"/>
<path d="M1082.72 322.055L1082.63 322.785L1075.12 325.852C1075 325.883 1074.49 326.146 1073.56 326.616C1073.26 326.756 1072.95 326.908 1072.63 327.074C1072.3 327.24 1071.98 327.406 1071.63 327.573L1071.1 326.474L1081.67 322.238L1079.72 320.444C1079.54 320.273 1078.86 319.727 1077.7 318.78L1078.38 318.053L1082.72 322.055Z" fill="#1A1417"/>
<path d="M345.908 1058.51C345.703 1058.42 345.157 1058.16 344.413 1057.74C343.938 1057.49 343.566 1057.28 343.361 1057.19C342.989 1056.98 342.483 1057.08 341.774 1057.48C340.951 1057.98 339.814 1058.8 338.398 1059.99L325.536 1070.8C323.392 1072.6 322.257 1073.81 322.029 1074.4C322.758 1075.81 323.198 1076.88 323.38 1077.64L321.968 1078.37L314.474 1069.45C312.737 1067.38 311.666 1065.41 311.224 1063.56C310.923 1062.11 310.969 1060.77 311.373 1059.38C311.809 1058.04 312.624 1056.83 313.926 1055.74C315.419 1054.48 317.016 1053.66 318.679 1053.31C320.342 1052.96 322.006 1052.99 323.596 1053.49C325.538 1054.01 327.22 1055.08 328.647 1056.62C329.741 1057.93 330.88 1059.51 332.098 1061.43L337.496 1056.9C338.797 1055.8 339.913 1054.8 340.812 1053.85C339.898 1052.53 339.04 1050.96 338.309 1049.16L339.498 1048.55L346.831 1057.28L345.908 1058.51ZM323.431 1055.39C321.022 1054.93 318.65 1055.68 316.315 1057.65C314.477 1059.19 313.658 1060.86 313.819 1062.68C313.98 1064.51 314.814 1066.35 316.39 1068.23C317.934 1070.07 318.981 1071.08 319.52 1071.41C320.211 1071.22 321.609 1070.24 323.714 1068.47L330.26 1062.97C329.769 1061.69 328.796 1060.22 327.413 1058.57C326.062 1056.97 324.739 1055.86 323.431 1055.39Z" fill="#1A1417"/>
<path d="M295.789 1047.21C293.891 1044.95 292.716 1042.54 292.155 1040.01C291.633 1037.44 291.847 1034.98 292.733 1032.53C293.69 1030.1 295.301 1027.9 297.598 1025.97C301.502 1022.68 305.407 1021.04 309.319 1020.95C313.262 1020.9 316.795 1022.31 319.88 1025.2L329.304 1036.42L328.381 1037.65C328.073 1037.52 327.598 1037.27 326.886 1036.88C326.411 1036.63 326.039 1036.42 325.834 1036.33C325.462 1036.12 324.956 1036.22 324.247 1036.62C323.423 1037.12 322.326 1037.91 320.947 1039.07L307.97 1049.97C305.865 1051.74 304.73 1052.95 304.502 1053.54C305.289 1055.1 305.729 1056.16 305.853 1056.78L304.441 1057.51L295.789 1047.21ZM313.504 1023.83C311.826 1023.55 309.746 1023.79 307.278 1024.43C304.809 1025.07 302.58 1026.22 300.551 1027.93C298.483 1029.66 296.961 1031.66 295.959 1033.81C294.994 1035.92 294.658 1038.17 294.993 1040.43C295.329 1042.7 296.349 1044.84 298.054 1046.87C298.472 1047.37 299.057 1047.99 299.809 1048.73C300.561 1049.47 301.211 1050.16 301.802 1050.71C302.569 1050.46 303.546 1049.83 304.694 1048.87L319.088 1036.77C320.39 1035.68 321.735 1034.48 322.985 1033.17C322.59 1032 321.649 1030.57 320.202 1028.85C318.143 1026.4 315.947 1024.72 313.504 1023.83Z" fill="#1A1417"/>
<path d="M211.904 882.375C211.776 883.033 211.47 883.62 210.985 884.137C210.501 884.655 209.872 885.033 209.092 885.311C208.33 885.584 207.54 885.675 206.729 885.545C205.918 885.415 205.183 885.123 204.551 884.642C203.926 884.177 203.487 883.589 203.232 882.877C202.977 882.165 202.917 881.46 203.045 880.803C203.173 880.145 203.479 879.558 203.963 879.041C204.447 878.523 205.07 878.128 205.833 877.856C206.613 877.577 207.408 877.502 208.219 877.633C209.031 877.763 209.749 878.061 210.374 878.525C211.005 879.007 211.445 879.595 211.693 880.29C211.954 881.019 212.032 881.718 211.904 882.375ZM209.742 879.057C209.262 878.732 208.724 878.561 208.096 878.518C207.492 878.486 206.89 878.567 206.28 878.785C205.348 879.119 204.67 879.629 204.264 880.309C203.857 880.99 203.818 881.788 204.157 882.737C204.375 883.347 204.733 883.812 205.212 884.138C205.709 884.457 206.248 884.627 206.852 884.66C207.456 884.692 208.052 884.594 208.645 884.382C209.594 884.042 210.261 883.555 210.668 882.875C211.08 882.211 211.12 881.413 210.78 880.464C210.562 879.854 210.222 879.383 209.742 879.057Z" fill="#1A1417"/>
<path d="M200.414 875.21L203.166 874.302L206.81 872.999C206.98 872.938 207.584 872.703 208.617 872.276L208.98 873.293C207.917 873.635 207.295 873.819 207.126 873.88L202.329 875.595C202.278 875.614 202.251 875.643 202.229 875.689C202.224 875.729 202.231 875.803 202.251 875.91L202.647 877.661L202.359 877.764L200.414 875.21Z" fill="#1A1417"/>
<path d="M205.427 863.357L206.008 864.984L206.992 864.632C207.161 864.572 207.765 864.337 208.798 863.91L209.376 864.831C208.313 865.173 207.69 865.357 207.521 865.418L206.318 865.848L207.857 870.153L207.444 870.76L200.656 869.689C200.61 869.667 200.28 869.652 199.67 869.603L197.799 869.45L197.94 868.348L206.784 869.772L206.896 869.656L205.555 866.121L204.606 866.461C204.436 866.521 203.771 866.798 202.596 867.256L202.001 866.341C203.562 865.84 204.483 865.53 204.754 865.433L205.229 865.263L204.613 863.648L205.427 863.357Z" fill="#1A1417"/>
<path d="M1229.76 899.595C1229.2 899.361 1228.23 898.939 1226.76 898.298C1225.29 897.657 1224.24 897.157 1223.7 896.875C1223.68 896.606 1223.73 896.306 1223.84 895.973C1223.9 895.625 1223.99 895.34 1224.12 895.118C1224.33 895.133 1225.05 895.319 1226.23 895.597C1227.4 895.876 1228.38 896.092 1229.2 896.151C1229.55 895.738 1229.86 895.104 1230.2 894.217C1230.56 893.282 1231.15 891.635 1231.93 889.259C1232.79 886.646 1233.19 884.936 1233.2 884.098C1232.54 883.564 1231.47 883.111 1230.14 882.675L1221.31 879.779C1221.13 879.986 1220.87 880.635 1220.51 881.728L1219.89 883.629C1219.67 884.294 1219.4 885.102 1219.2 886.036C1218.96 886.954 1218.83 887.65 1218.79 888.109C1219.6 888.69 1220.66 889.301 1221.94 890.038C1221.82 890.418 1221.57 890.862 1221.27 891.29C1219.83 890.713 1218.4 890.246 1216.98 889.779C1215.36 889.249 1213.84 888.751 1212.38 888.379C1212.32 887.937 1212.43 887.446 1212.58 886.971C1214.21 887.136 1215.45 887.225 1216.32 887.3C1216.57 886.855 1216.83 886.206 1217.21 885.382C1217.55 884.495 1217.86 883.702 1218.08 883.037C1218.81 880.804 1219.19 879.505 1219.22 879.094L1211.23 876.479C1210 876.074 1208.56 875.655 1206.93 875.331C1206.85 875.568 1206.49 876.187 1205.88 877.249C1205.23 878.249 1204.81 878.899 1204.54 879.233L1203.23 878.433L1206.54 868.312L1208.08 868.447C1208.13 868.779 1208.16 869.316 1208.21 870.122C1208.25 870.66 1208.26 871.087 1208.3 871.308C1208.36 871.75 1208.76 872.143 1209.38 872.504C1210.23 872.942 1211.53 873.473 1213.29 874.049L1229.26 879.28C1231.92 880.152 1233.55 880.475 1234.16 880.361C1235.07 878.871 1235.75 877.934 1236.2 877.505L1237.57 878.32L1233.58 890.484C1233.1 891.957 1232.57 893.572 1232.09 895.362C1231.56 897.135 1231.24 898.291 1231.18 898.797L1229.76 899.595Z" fill="#1A1417"/>
<path d="M1199.58 894.385C1199.61 894.606 1199.68 895.207 1199.71 896.06C1199.75 896.598 1199.77 897.025 1199.8 897.246C1199.82 897.673 1200.17 898.05 1200.88 898.442C1201.74 898.88 1203.04 899.411 1204.79 899.987L1220.76 905.218C1223.42 906.09 1225.05 906.414 1225.67 906.3C1226.48 904.936 1227.16 903.999 1227.71 903.443L1229.07 904.258L1225.44 915.329C1224.6 917.895 1223.49 919.846 1222.15 921.196C1221.08 922.214 1219.92 922.884 1218.53 923.271C1217.15 923.61 1215.7 923.554 1214.08 923.025C1212.23 922.417 1210.69 921.492 1209.51 920.265C1208.34 919.038 1207.49 917.603 1207.07 915.993C1206.49 914.067 1206.52 912.074 1207.07 910.048C1207.6 908.432 1208.35 906.626 1209.34 904.581L1202.64 902.386C1201.02 901.857 1199.58 901.437 1198.3 901.175C1197.66 902.649 1196.78 904.203 1195.64 905.774L1194.49 905.084L1198.04 894.251L1199.58 894.385ZM1208.78 915.13C1209.66 917.418 1211.55 919.037 1214.45 919.987C1216.73 920.734 1218.58 920.551 1220.04 919.452C1221.51 918.354 1222.64 916.672 1223.4 914.344C1224.15 912.063 1224.45 910.638 1224.45 910.006C1223.93 909.518 1222.36 908.847 1219.74 907.99L1211.62 905.328C1210.79 906.423 1210.05 908.024 1209.38 910.067C1208.73 912.063 1208.48 913.772 1208.78 915.13Z" fill="#1A1417"/>
<path d="M758.006 1256.91C758.616 1257.18 759.116 1257.62 759.507 1258.21C759.898 1258.8 760.12 1259.5 760.21 1260.32C760.299 1261.13 760.204 1261.92 759.889 1262.68C759.574 1263.43 759.12 1264.08 758.505 1264.58C757.908 1265.08 757.234 1265.38 756.483 1265.46C755.731 1265.54 755.032 1265.44 754.422 1265.16C753.812 1264.88 753.312 1264.45 752.921 1263.86C752.53 1263.27 752.29 1262.57 752.202 1261.76C752.111 1260.94 752.223 1260.15 752.538 1259.39C752.853 1258.63 753.309 1258 753.906 1257.5C754.521 1257 755.195 1256.71 755.929 1256.63C756.698 1256.54 757.396 1256.63 758.006 1256.91ZM754.277 1258.24C753.849 1258.63 753.558 1259.12 753.371 1259.72C753.199 1260.3 753.139 1260.9 753.21 1261.54C753.318 1262.53 753.657 1263.31 754.225 1263.86C754.792 1264.41 755.559 1264.64 756.561 1264.53C757.206 1264.46 757.741 1264.22 758.168 1263.82C758.594 1263.42 758.885 1262.93 759.057 1262.35C759.228 1261.77 759.271 1261.17 759.202 1260.54C759.092 1259.54 758.773 1258.78 758.205 1258.22C757.655 1257.67 756.888 1257.45 755.886 1257.56C755.242 1257.63 754.705 1257.85 754.277 1258.24Z" fill="#1A1417"/>
<path d="M748.372 1266.42L748.126 1263.53L747.704 1259.69C747.684 1259.51 747.595 1258.87 747.42 1257.76L748.493 1257.64C748.579 1258.76 748.614 1259.41 748.634 1259.58L749.191 1264.65C749.196 1264.7 749.218 1264.74 749.258 1264.77C749.296 1264.78 749.369 1264.79 749.479 1264.8L751.274 1264.82L751.307 1265.12L748.372 1266.42Z" fill="#1A1417"/>
<path d="M745.945 1265.64C745.143 1266.09 744.527 1266.41 744.113 1266.6C743.699 1266.79 743.242 1266.91 742.777 1266.96C742.007 1267.05 741.36 1266.92 740.853 1266.6C740.345 1266.25 740.031 1265.71 739.947 1264.94C739.842 1263.99 740.104 1263.08 740.711 1262.18C741.319 1261.28 742.31 1260.24 743.699 1259.04L743.611 1258.91L739.13 1259.65L739.06 1258.68L744.892 1258.04L745.236 1258.69C745.17 1258.75 745.088 1258.83 744.989 1258.92C744.889 1259 744.792 1259.1 744.66 1259.22C743.737 1260.05 743.035 1260.74 742.531 1261.27C742.028 1261.8 741.619 1262.37 741.321 1262.94C741.022 1263.52 740.89 1264.13 740.957 1264.74C741.01 1265.22 741.194 1265.58 741.492 1265.82C741.808 1266.06 742.217 1266.16 742.718 1266.1C742.987 1266.07 743.267 1265.99 743.559 1265.85C743.87 1265.7 744.347 1265.43 744.993 1265.05C745.097 1265.01 745.198 1264.94 745.266 1264.9C745.351 1264.85 745.419 1264.81 745.489 1264.78L745.945 1265.64Z" fill="#1A1417"/>
</svg>
