<svg width="1440" height="1440" viewBox="0 0 1440 1440" fill="none" xmlns="http://www.w3.org/2000/svg">
<mask id="mask0_2304_5377" style="mask-type:alpha" maskUnits="userSpaceOnUse" x="160" y="164" width="1121" height="1121">
<circle cx="720.5" cy="724.5" r="560" fill="#D9D9D9" stroke="#14100E"/>
</mask>
<g mask="url(#mask0_2304_5377)">
<circle cx="720.5" cy="724.5" r="560" fill="white" stroke="#1A1417" vector-effect="non-scaling-stroke"/>
<line x1="719.5" y1="1440" x2="719.5" y2="-2.18556e-08" stroke="#1A1417" vector-effect="non-scaling-stroke"/>
<path d="M1415.34 906.837L335 617.361" stroke="#1A1417" vector-effect="non-scaling-stroke"/>
<line x1="210.531" y1="1228.76" x2="1228.77" y2="210.526" stroke="#1A1417" vector-effect="non-scaling-stroke"/>
<line x1="1003.65" y1="1004.36" x2="325.647" y2="326.357" stroke="#1A1417" vector-effect="non-scaling-stroke"/>
<line x1="20.7672" y1="891.655" x2="1419" y2="547.364" stroke="#1A1417" vector-effect="non-scaling-stroke"/>
<path d="M722 167C722 166.333 720.9 165 716.5 165L715.5 322.5H722V167Z" fill="white"/>
</g>
<path d="M1060.02 312.189C1059.83 311.547 1059.83 310.884 1060.01 310.202C1060.2 309.519 1060.59 308.892 1061.15 308.283C1061.7 307.688 1062.35 307.241 1063.13 306.98C1063.91 306.719 1064.7 306.637 1065.48 306.771C1066.25 306.892 1066.91 307.21 1067.47 307.722C1068.02 308.235 1068.4 308.831 1068.6 309.473C1068.79 310.115 1068.79 310.777 1068.6 311.46C1068.41 312.143 1068.04 312.782 1067.49 313.377C1066.93 313.986 1066.26 314.42 1065.48 314.681C1064.7 314.942 1063.93 315.011 1063.16 314.89C1062.38 314.756 1061.71 314.438 1061.17 313.938C1060.6 313.413 1060.21 312.831 1060.02 312.189ZM1063.47 314.125C1064.05 314.191 1064.6 314.092 1065.18 313.84C1065.73 313.588 1066.23 313.237 1066.66 312.761C1067.34 312.033 1067.7 311.267 1067.74 310.475C1067.79 309.684 1067.45 308.958 1066.71 308.275C1066.24 307.836 1065.7 307.59 1065.13 307.524C1064.54 307.471 1063.98 307.57 1063.43 307.822C1062.88 308.073 1062.4 308.436 1061.97 308.9C1061.29 309.64 1060.93 310.381 1060.88 311.173C1060.82 311.952 1061.16 312.678 1061.9 313.361C1062.38 313.8 1062.9 314.06 1063.47 314.125Z" fill="#1A1417"/>
<path d="M1067.31 318.91C1067.11 318.268 1067.11 317.606 1067.3 316.923C1067.49 316.24 1067.87 315.614 1068.43 315.005C1068.98 314.41 1069.64 313.963 1070.42 313.702C1071.2 313.441 1071.99 313.358 1072.77 313.492C1073.54 313.614 1074.2 313.931 1074.76 314.444C1075.31 314.956 1075.69 315.552 1075.88 316.194C1076.07 316.836 1076.08 317.499 1075.89 318.181C1075.7 318.864 1075.33 319.503 1074.78 320.099C1074.22 320.707 1073.55 321.142 1072.77 321.403C1071.99 321.664 1071.22 321.733 1070.45 321.611C1069.66 321.477 1069 321.16 1068.46 320.66C1067.89 320.135 1067.5 319.552 1067.31 318.91ZM1070.76 320.847C1071.34 320.913 1071.89 320.814 1072.47 320.561C1073.02 320.31 1073.51 319.959 1073.95 319.482C1074.62 318.755 1074.99 317.988 1075.03 317.197C1075.08 316.405 1074.74 315.68 1074 314.997C1073.52 314.557 1072.99 314.311 1072.42 314.245C1071.83 314.193 1071.27 314.292 1070.72 314.543C1070.17 314.795 1069.69 315.158 1069.26 315.621C1068.58 316.362 1068.21 317.103 1068.17 317.894C1068.11 318.674 1068.45 319.399 1069.19 320.083C1069.66 320.522 1070.18 320.781 1070.76 320.847Z" fill="#1A1417"/>
<path d="M1082.72 322.055L1082.63 322.785L1075.12 325.852C1075 325.883 1074.49 326.146 1073.56 326.616C1073.26 326.756 1072.95 326.908 1072.63 327.074C1072.3 327.24 1071.98 327.406 1071.63 327.573L1071.1 326.474L1081.67 322.238L1079.72 320.444C1079.54 320.273 1078.86 319.727 1077.7 318.78L1078.38 318.053L1082.72 322.055Z" fill="#1A1417"/>
<path d="M365.134 316.626C366.642 317.585 368.7 318.737 371.237 320.077L391.446 330.609L384.54 308.155L384.109 306.694C383.489 304.611 382.988 303.144 382.581 302.182L387.472 298.133L388.699 299.065C388.299 299.915 387.636 300.918 386.749 302.042C386.953 302.523 387.36 303.094 388.011 303.723L402.221 318.378C403.771 320.016 404.978 321.159 405.872 321.847C406.244 321.669 406.84 321.37 407.622 320.982C408.436 320.632 409.065 320.372 409.5 320.271L410.187 321.65L402.484 328.027L401.297 327.062C401.536 326.41 402.121 325.471 402.945 324.27C402.729 323.54 402.143 322.597 401.11 321.505L386.371 306.055L393.41 328.983C393.701 330.04 393.98 330.848 394.254 331.335C394.489 331.855 394.897 332.426 395.439 333.081L393.819 335.201L367.615 321.583L379.196 337.375L382.263 341.392C382.634 341.214 383.231 340.915 384.013 340.527C384.789 340.21 385.417 339.949 385.853 339.848L386.54 341.227L379.299 347.221L378.073 346.289C378.35 345.605 378.82 344.762 379.451 343.72C379.632 343.311 379.608 342.811 379.315 342.145C378.959 341.401 378.163 340.048 376.787 338.071L367.38 324.828C366.909 324.179 366.341 323.416 365.64 322.568C364.939 321.721 364.46 321.143 364.141 320.758C363.692 321 363.096 321.299 362.359 321.585C361.615 321.941 361.103 322.106 360.814 322.15L360.089 320.803L365.134 316.626Z" fill="#1A1417"/>
<path d="M433.973 296.307C435.892 297.648 437.257 298.461 438.208 298.771C439.682 298.347 440.619 298.116 440.951 298.066L441.486 299.524L433.956 304.811L432.931 303.698C433.119 303.444 433.454 302.964 433.912 302.398C434.37 301.832 434.746 301.324 435.098 300.954C433.99 299.899 431.489 297.99 427.483 295.243L416.844 302.713L417.284 304.298L417.68 305.731C418.446 308.737 419.104 310.718 419.601 311.774C420.862 311.133 422.127 310.673 423.437 310.364L424.013 311.792L416.688 316.936L415.47 315.897C415.666 315.393 416.148 314.688 416.847 313.769C417.117 313.457 417.055 312.585 416.659 311.152L410.353 286.682C409.912 285.098 409.411 283.861 408.807 283.002L410.704 280.57L433.973 296.307ZM412.058 284.935L416.251 300.564L425.58 294.013L412.058 284.935Z" fill="#1A1417"/>
<path d="M441.281 261.313C443.717 259.834 445.805 259.034 447.476 258.896C448.899 258.734 450.221 258.984 451.459 259.578C452.654 260.198 453.696 261.144 454.501 262.469C455.565 264.221 456.013 266.114 455.955 268.138C455.854 270.188 455.29 272.052 454.218 273.755L463.779 278.42C464.389 278.752 465.154 279.048 466.082 279.42C467.01 279.792 467.749 280.046 468.272 280.137C469.223 279.969 470.046 279.879 470.767 279.909L471.151 281.314L467.091 283.779C466.308 283.26 464.528 282.352 461.811 280.961C461.975 281.037 460.926 280.562 458.751 279.485C456.928 278.603 455.338 277.814 454.031 277.203C452.724 276.593 451.865 276.237 451.547 276.196C449.641 277.295 447.922 278.222 446.477 278.924L450.136 284.95C451.33 286.916 452.281 288.386 453.049 289.265C453.443 289.143 454.034 288.96 454.864 288.689C455.72 288.462 456.38 288.295 456.825 288.259L457.305 289.723L448.8 294.887L447.722 293.787C447.841 293.597 448.182 293.098 448.71 292.427C449.059 292.039 449.281 291.729 449.459 291.445C449.654 291.092 449.635 290.578 449.373 289.859C449.009 288.969 448.393 287.764 447.459 286.225L438.687 271.78C437.233 269.387 436.206 268.08 435.664 267.766C434.089 268.254 432.967 268.526 432.299 268.581L431.75 267.101L441.281 261.313ZM453.125 271.377C453.395 270.57 453.493 269.574 453.435 268.323C453.402 267.114 452.984 265.847 452.206 264.565C451.09 262.727 449.601 261.818 447.8 261.741C445.956 261.691 443.987 262.302 441.936 263.548C440.312 264.534 439.364 265.285 438.955 265.767C438.984 266.393 439.651 267.684 440.897 269.736L445.101 276.659C446.223 276.387 447.54 275.763 449.164 274.777C451.13 273.583 452.454 272.487 453.125 271.377Z" fill="#1A1417"/>
<path d="M464.508 247.752L473.296 243.194L474.365 244.386C474.191 244.701 473.794 245.132 473.265 245.632C472.736 246.132 472.272 246.541 471.874 246.86C471.909 247.687 472.558 249.265 473.755 251.573L478.152 260.051L482.716 243.547C482.969 242.514 483.135 241.64 483.191 240.879C481.743 241.235 480.673 241.452 479.958 241.485L479.51 239.971L487.145 236.012L488.169 237.227C488.016 237.475 487.686 237.816 487.245 238.269C486.76 238.746 486.341 239.132 485.988 239.428L482.064 253.911L495.496 260.913C495.7 261.089 496.399 261.459 497.503 262.069C498.631 262.723 499.486 263.068 500.07 263.216C501.318 262.907 502.299 262.736 503.016 262.815L503.351 264.331L498.957 266.609C497.421 265.603 495.753 264.666 494.04 263.752L481.15 257.144L479.602 262.847C481.904 267.286 483.444 270.148 484.267 271.299C484.668 271.204 485.314 271.037 486.16 270.824C486.986 270.677 487.61 270.579 488.058 270.572L488.526 272.019L479.604 276.645L478.648 275.452C478.779 275.271 479.152 274.796 479.724 274.161C480.076 273.754 480.362 273.436 480.494 273.255C480.78 272.938 480.794 272.424 480.559 271.644C480.255 270.732 479.699 269.443 478.848 267.801L471.114 252.887C469.871 250.49 468.91 249.073 468.368 248.679C467.878 248.82 467.321 248.94 466.607 249.085C465.894 249.229 465.313 249.305 464.911 249.289L464.508 247.752Z" fill="#1A1417"/>
<path d="M531.321 243.785C531.716 244.813 532.099 246.064 532.465 247.651C532.83 249.237 533.082 250.437 533.219 251.25C531.713 251.799 529.245 252.768 525.854 254.25L512.522 260.076L511.6 258.842C511.672 258.756 512.05 258.373 512.689 257.711L513.588 256.773C513.9 256.364 513.949 255.851 513.76 255.17C513.197 253.506 512.748 252.229 512.348 251.313L505.58 235.827C504.459 233.261 503.615 231.829 503.12 231.445C501.402 231.759 500.254 231.879 499.63 231.825L499.33 230.264L511.38 224.998C512.8 224.378 514.404 223.677 516.105 222.824C517.826 222.018 518.951 221.471 519.369 221.18L520.909 221.707C521.104 222.277 521.432 223.279 521.936 224.805C522.393 226.351 522.716 227.465 522.819 228.075C522.303 228.519 521.774 228.805 521.275 228.913C520.323 226.983 519.459 225.506 518.663 224.435C518.125 224.452 517.444 224.64 516.507 224.995C515.571 225.349 513.902 226.024 511.565 227.045C508.816 228.247 507.181 229.125 506.548 229.674C506.593 230.528 506.962 231.621 507.543 232.95L511.087 241.06C511.402 241.031 511.88 240.877 512.567 240.576C513.254 240.276 514.125 239.896 515.224 239.415C515.866 239.135 516.599 238.815 517.475 238.322C518.326 237.896 518.927 237.524 519.299 237.252C519.254 236.399 519.028 235.134 518.662 233.547C519.075 233.367 519.527 233.279 520.045 233.216C520.915 235.455 521.49 236.896 521.73 237.445C522.391 238.957 523.031 240.423 523.764 241.849C523.431 242.213 523.059 242.485 522.607 242.573C521.645 241.247 520.89 240.268 520.34 239.635C519.527 239.772 518.067 240.301 516.005 241.202C513.623 242.243 512.314 242.87 511.988 243.121L515.051 250.131C515.912 252.101 516.724 253.711 517.488 254.959C518.021 255.054 518.696 254.977 519.561 254.708C520.446 254.485 522.069 253.83 524.543 252.749C525.826 252.189 526.88 251.728 527.711 251.256C528.561 250.83 529.28 250.352 529.801 249.797C529.882 249.107 529.928 248.214 529.946 247.005C529.937 245.863 529.858 244.807 529.726 243.882C530.021 243.807 530.56 243.791 531.321 243.785Z" fill="#1A1417"/>
<path d="M531.419 216.358C532.205 216.178 533.303 215.831 534.682 215.382C536.062 214.933 537.471 214.42 538.928 213.889L546.633 211.083C548.042 210.57 549.546 210.022 551.032 209.428C552.518 208.833 553.488 208.427 553.829 208.196L555.35 208.866C555.543 209.541 555.825 210.609 556.21 211.958C556.566 213.372 556.9 214.581 557.165 215.602C556.917 215.798 556.418 216.034 555.666 216.307C554.819 214.274 554.015 212.651 553.22 211.345C552.729 211.311 552.178 211.405 551.533 211.533C550.858 211.726 549.807 212.055 548.398 212.569L545.156 213.749C545.195 214.587 545.751 216.406 546.743 219.131L552.766 235.668C553.451 237.548 554.062 239.081 554.631 240.204C556.442 239.917 558.005 239.827 559.351 239.869L559.48 241.099L548.58 245.068L547.888 244.044C548.75 243.197 549.694 242.428 550.731 241.624C550.992 241.317 551.073 240.808 550.927 240.116C550.704 238.92 550.319 237.571 549.755 236.02L543.972 220.141C542.945 217.322 542.154 215.588 541.726 214.998C538.72 216.093 536.81 216.842 535.935 217.214C535.059 217.586 534.406 217.984 534.005 218.343C534.236 219.855 534.664 221.615 535.323 223.716C534.477 224.024 533.943 224.165 533.721 224.14C533.268 223.187 532.699 222.064 532.109 220.736C531.472 219.425 531.019 218.472 530.779 217.815L531.419 216.358Z" fill="#1A1417"/>
<path d="M574.823 234.377C574.985 234.223 575.438 233.823 576.115 233.301C576.534 232.963 576.873 232.703 577.034 232.548C577.373 232.288 577.48 231.784 577.389 230.975C577.254 230.023 576.939 228.655 576.396 226.887L571.47 210.825C570.678 208.244 569.989 206.677 569.526 206.192C567.941 206.311 566.787 206.299 566.015 206.17L565.895 204.585L575.408 201.668L576.149 203.062C575.921 203.341 575.454 203.693 574.843 204.09C574.233 204.486 573.703 204.806 573.302 205.033C573.202 205.901 573.528 207.474 574.232 209.769L579.495 226.93C579.964 228.46 580.467 229.927 581.098 231.302C581.509 231.281 582.175 231.233 582.998 231.19C583.836 231.194 584.516 231.195 584.957 231.269L585.111 232.791L575.598 235.709L574.823 234.377Z" fill="#1A1417"/>
<path d="M595.775 195.953L621.105 218.44L616.415 198.998C615.77 196.324 615.165 194.67 614.709 194.06C613.217 194.06 612.115 193.966 611.438 193.718L611.377 192.189L620.029 190.102L620.624 191.501C620.135 192.031 619.245 192.606 617.868 193.298C617.743 193.842 617.749 194.51 617.888 195.299C617.99 196.149 618.248 197.218 618.553 198.482L622.212 213.647C623.267 218.021 624.141 220.794 624.812 221.866L622.505 223.606L596.485 201.028L601.163 220.422C601.656 222.463 602.091 224.055 602.567 225.175C604.459 225.13 605.757 225.177 606.422 225.377L606.531 226.893L597.441 229.086L596.749 227.71C596.92 227.566 597.14 227.41 597.445 227.182C597.75 226.954 598.018 226.787 598.189 226.643C598.555 226.452 598.872 226.272 599.116 226.007C599.41 225.731 599.547 225.235 599.529 224.519C599.487 223.706 599.209 222.128 598.658 219.843L594.894 204.241C594.706 203.463 594.423 202.503 594.068 201.457C593.713 200.411 593.44 199.705 593.177 199.254C591.333 199.288 590.121 199.168 589.614 198.982L589.505 197.466L595.775 195.953Z" fill="#1A1417"/>
<path d="M644.688 217.208C642.103 216.258 640.023 214.67 638.349 212.458C636.683 210.296 635.636 207.578 635.126 204.419C634.616 201.26 634.753 198.351 635.555 195.79C636.357 193.23 637.774 191.026 639.699 189.145C640.838 188.049 642.052 187.093 643.338 186.278C644.624 185.462 645.909 184.951 647.127 184.653C648.855 184.374 650.656 184.235 652.563 184.129C654.43 184.081 655.95 184.089 657.125 184.152L658.665 185.22C658.64 185.376 658.693 186.33 658.774 188.089C658.864 189.898 658.824 191.221 658.755 192.043C658.334 192.263 657.799 192.4 657.142 192.405C656.447 189.985 655.913 188.248 655.499 187.251C654.661 187.082 653.585 187.003 652.27 187.013C650.954 187.023 649.655 187.131 648.47 187.323C645.41 187.817 643.02 189.013 641.186 190.829C640.094 192.221 639.23 194.083 638.676 196.299C638.081 198.573 637.996 200.866 638.371 203.186C638.801 205.852 639.686 208.191 641.024 210.203C642.362 212.215 644.121 213.704 646.204 214.684C648.287 215.665 650.563 215.955 653.13 215.541C655.598 215.142 657.582 214.568 658.967 213.737C659.381 213.164 659.43 211.586 659.015 209.019C658.576 206.304 658.1 204.608 657.692 203.965C657.034 203.97 656.312 203.884 655.49 203.814C654.668 203.744 653.945 203.659 653.37 203.549L653.421 201.667L663.589 200.024L664.23 201.795C663.867 202.056 663.034 202.545 661.74 203.311C661.571 204.149 661.662 205.654 661.997 207.727L662.34 209.849C662.611 211.528 662.85 213.008 663.156 214.276C659.81 216.133 656.557 217.317 653.299 217.843C650.091 218.361 647.223 218.166 644.688 217.208Z" fill="#1A1417"/>
<path d="M211.904 882.375C211.776 883.033 211.47 883.62 210.985 884.137C210.501 884.655 209.872 885.033 209.092 885.311C208.33 885.584 207.54 885.675 206.729 885.545C205.918 885.415 205.183 885.123 204.551 884.642C203.926 884.177 203.487 883.589 203.232 882.877C202.977 882.165 202.917 881.46 203.045 880.803C203.173 880.145 203.479 879.558 203.963 879.041C204.447 878.523 205.07 878.128 205.833 877.856C206.613 877.577 207.408 877.502 208.219 877.633C209.031 877.763 209.749 878.061 210.374 878.525C211.005 879.007 211.445 879.595 211.693 880.29C211.954 881.019 212.032 881.718 211.904 882.375ZM209.742 879.057C209.262 878.732 208.724 878.561 208.096 878.518C207.492 878.486 206.89 878.567 206.28 878.785C205.348 879.119 204.67 879.629 204.264 880.309C203.857 880.99 203.818 881.788 204.157 882.737C204.375 883.347 204.733 883.812 205.212 884.138C205.709 884.457 206.248 884.627 206.852 884.66C207.456 884.692 208.052 884.594 208.645 884.382C209.594 884.042 210.261 883.555 210.668 882.875C211.08 882.211 211.12 881.413 210.78 880.464C210.562 879.854 210.222 879.383 209.742 879.057Z" fill="#1A1417"/>
<path d="M200.414 875.21L203.166 874.302L206.81 872.999C206.98 872.938 207.584 872.703 208.617 872.276L208.98 873.293C207.917 873.635 207.295 873.819 207.126 873.88L202.329 875.595C202.278 875.614 202.251 875.643 202.229 875.689C202.224 875.729 202.231 875.803 202.251 875.91L202.647 877.661L202.359 877.764L200.414 875.21Z" fill="#1A1417"/>
<path d="M205.427 863.357L206.008 864.984L206.992 864.632C207.161 864.572 207.765 864.337 208.798 863.91L209.376 864.831C208.313 865.173 207.69 865.357 207.521 865.418L206.318 865.848L207.857 870.153L207.444 870.76L200.656 869.689C200.61 869.667 200.28 869.652 199.67 869.603L197.799 869.45L197.94 868.348L206.784 869.772L206.896 869.656L205.555 866.121L204.606 866.461C204.436 866.521 203.771 866.798 202.596 867.256L202.001 866.341C203.562 865.84 204.483 865.53 204.754 865.433L205.229 865.263L204.613 863.648L205.427 863.357Z" fill="#1A1417"/>
<path d="M345.029 1057.86C344.814 1057.8 344.242 1057.6 343.452 1057.28C342.95 1057.08 342.555 1056.92 342.34 1056.86C341.946 1056.69 341.456 1056.85 340.801 1057.34C340.043 1057.93 339.015 1058.88 337.754 1060.24L326.298 1072.53C324.389 1074.57 323.41 1075.92 323.255 1076.52C324.15 1077.84 324.716 1078.84 324.989 1079.58L323.676 1080.47L315.155 1072.53C313.18 1070.69 311.877 1068.86 311.213 1067.08C310.74 1065.68 310.622 1064.34 310.855 1062.92C311.125 1061.53 311.787 1060.23 312.946 1058.99C314.276 1057.56 315.762 1056.55 317.37 1056C318.978 1055.45 320.634 1055.28 322.272 1055.58C324.263 1055.86 326.062 1056.72 327.666 1058.08C328.91 1059.24 330.234 1060.68 331.675 1062.43L336.483 1057.28C337.642 1056.03 338.628 1054.9 339.405 1053.85C338.337 1052.65 337.295 1051.2 336.351 1049.5L337.457 1048.75L345.796 1056.52L345.029 1057.86ZM322.339 1057.49C319.892 1057.33 317.629 1058.36 315.55 1060.59C313.913 1062.35 313.302 1064.1 313.684 1065.89C314.065 1067.68 315.116 1069.42 316.908 1071.09C318.664 1072.72 319.827 1073.6 320.402 1073.87C321.065 1073.59 322.334 1072.45 324.209 1070.44L330.039 1064.19C329.395 1062.97 328.251 1061.63 326.678 1060.17C325.142 1058.73 323.694 1057.8 322.339 1057.49Z" fill="#1A1417"/>
<path d="M290.318 1046.14C288.5 1043.95 287.404 1042 287.025 1040.36C286.658 1038.98 286.713 1037.63 287.121 1036.32C287.56 1035.05 288.344 1033.88 289.538 1032.89C291.117 1031.58 292.924 1030.87 294.935 1030.63C296.978 1030.43 298.904 1030.72 300.745 1031.53L303.97 1021.39C304.209 1020.74 304.391 1019.94 304.624 1018.97C304.858 1018 305.001 1017.23 305.015 1016.7C304.711 1015.78 304.502 1014.98 304.427 1014.26L305.76 1013.68L308.79 1017.34C308.391 1018.19 307.751 1020.08 306.77 1022.97C306.821 1022.8 306.504 1023.9 305.755 1026.21C305.147 1028.14 304.598 1029.83 304.184 1031.21C303.77 1032.6 303.543 1033.5 303.549 1033.82C304.914 1035.54 306.081 1037.11 306.986 1038.44L312.415 1033.94C314.186 1032.47 315.502 1031.32 316.26 1030.43C316.082 1030.06 315.815 1029.5 315.427 1028.72C315.077 1027.91 314.817 1027.28 314.716 1026.84L316.094 1026.15L322.441 1033.82L321.509 1035.04C321.304 1034.95 320.761 1034.69 320.02 1034.26C319.585 1033.97 319.246 1033.8 318.939 1033.67C318.562 1033.52 318.056 1033.62 317.383 1033.98C316.556 1034.47 315.452 1035.26 314.066 1036.4L301.05 1047.18C298.894 1048.97 297.751 1050.18 297.519 1050.76C298.231 1052.25 298.663 1053.32 298.815 1053.97L297.43 1054.73L290.318 1046.14ZM298.552 1032.96C297.713 1032.81 296.715 1032.86 295.485 1033.1C294.293 1033.3 293.101 1033.9 291.946 1034.86C290.29 1036.23 289.606 1037.83 289.793 1039.63C290.012 1041.46 290.902 1043.32 292.433 1045.17C293.645 1046.63 294.526 1047.46 295.063 1047.79C295.678 1047.67 296.858 1046.83 298.707 1045.29L304.945 1040.13C304.513 1039.06 303.703 1037.85 302.491 1036.38C301.024 1034.61 299.747 1033.46 298.552 1032.96Z" fill="#1A1417"/>
<path d="M299.408 1006.79C299.214 1006.67 298.703 1006.35 298.013 1005.85C297.571 1005.54 297.226 1005.29 297.033 1005.18C296.688 1004.93 296.174 1004.96 295.423 1005.28C294.547 1005.67 293.322 1006.36 291.777 1007.38L277.739 1016.61C275.483 1018.09 274.173 1019.19 273.836 1019.77C274.396 1021.26 274.707 1022.37 274.8 1023.15L273.312 1023.71L267.846 1015.39L268.976 1014.29C269.308 1014.43 269.777 1014.78 270.329 1015.26C270.88 1015.73 271.335 1016.15 271.666 1016.47C272.527 1016.32 273.946 1015.57 275.952 1014.25L290.95 1004.39C292.287 1003.51 293.554 1002.62 294.698 1001.63C294.561 1001.24 294.33 1000.61 294.057 999.833C293.827 999.027 293.637 998.374 293.584 997.93L295.002 997.356L300.469 1005.67L299.408 1006.79Z" fill="#1A1417"/>
<path d="M256.179 995.572L272.542 965.916L254.608 974.769C252.142 975.986 250.662 976.94 250.167 977.519C250.495 978.974 250.646 980.07 250.553 980.785L249.075 981.18L245.135 973.199L246.37 972.311C246.994 972.672 247.75 973.414 248.728 974.604C249.287 974.607 249.937 974.454 250.676 974.145C251.482 973.858 252.469 973.371 253.635 972.796L267.623 965.891C271.658 963.899 274.17 962.436 275.069 961.546L277.273 963.413L260.973 993.763L278.863 984.933C280.746 984.003 282.203 983.228 283.191 982.518C282.731 980.682 282.491 979.406 282.539 978.713L283.995 978.273L288.134 986.657L286.944 987.635C286.765 987.5 286.565 987.32 286.276 987.073C285.986 986.825 285.764 986.6 285.585 986.465C285.319 986.151 285.074 985.881 284.762 985.701C284.428 985.476 283.914 985.451 283.22 985.626C282.436 985.845 280.957 986.464 278.85 987.504L264.457 994.608C263.74 994.963 262.865 995.45 261.923 996.027C260.981 996.603 260.353 997.025 259.971 997.381C260.409 999.172 260.559 1000.38 260.49 1000.92L259.034 1001.36L256.179 995.572Z" fill="#1A1417"/>
<path d="M239.814 960.142C239.66 959.351 239.349 958.242 238.945 956.849C238.541 955.456 238.074 954.03 237.591 952.557L235.037 944.765C234.57 943.34 234.072 941.819 233.526 940.315C232.98 938.81 232.605 937.827 232.386 937.479L233.105 935.98C233.785 935.81 234.862 935.562 236.223 935.221C237.648 934.912 238.867 934.617 239.896 934.385C240.084 934.639 240.303 935.146 240.552 935.907C238.493 936.687 236.845 937.438 235.513 938.19C235.463 938.68 235.539 939.234 235.647 939.882C235.817 940.563 236.112 941.624 236.579 943.049L237.654 946.328C238.492 946.316 240.329 945.819 243.084 944.916L259.809 939.434C261.709 938.811 263.262 938.25 264.403 937.718C264.175 935.899 264.135 934.333 264.221 932.99L265.455 932.901L269.068 943.924L268.021 944.583C267.203 943.693 266.465 942.725 265.696 941.662C265.396 941.391 264.891 941.294 264.195 941.417C262.992 941.601 261.631 941.942 260.063 942.456L244.003 947.719C241.153 948.654 239.394 949.388 238.791 949.796C239.788 952.837 240.474 954.77 240.817 955.657C241.16 956.544 241.537 957.21 241.882 957.623C243.401 957.441 245.174 957.07 247.296 956.48C247.576 957.335 247.7 957.873 247.667 958.094C246.7 958.516 245.559 959.048 244.213 959.595C242.881 960.189 241.915 960.611 241.25 960.829L239.814 960.142Z" fill="#1A1417"/>
<path d="M758.006 1256.91C758.616 1257.18 759.116 1257.62 759.507 1258.21C759.898 1258.8 760.12 1259.5 760.21 1260.32C760.299 1261.13 760.204 1261.92 759.889 1262.68C759.574 1263.43 759.12 1264.08 758.505 1264.58C757.908 1265.08 757.234 1265.38 756.483 1265.46C755.731 1265.54 755.032 1265.44 754.422 1265.16C753.812 1264.88 753.312 1264.45 752.921 1263.86C752.53 1263.27 752.29 1262.57 752.202 1261.76C752.111 1260.94 752.223 1260.15 752.538 1259.39C752.853 1258.63 753.309 1258 753.906 1257.5C754.521 1257 755.195 1256.71 755.929 1256.63C756.698 1256.54 757.396 1256.63 758.006 1256.91ZM754.277 1258.24C753.849 1258.63 753.558 1259.12 753.371 1259.72C753.199 1260.3 753.139 1260.9 753.21 1261.54C753.318 1262.53 753.657 1263.31 754.225 1263.86C754.792 1264.41 755.559 1264.64 756.561 1264.53C757.206 1264.45 757.741 1264.21 758.168 1263.82C758.594 1263.41 758.885 1262.93 759.057 1262.35C759.228 1261.77 759.271 1261.17 759.202 1260.54C759.092 1259.54 758.773 1258.78 758.205 1258.22C757.655 1257.67 756.888 1257.45 755.886 1257.56C755.242 1257.63 754.705 1257.85 754.277 1258.24Z" fill="#1A1417"/>
<path d="M748.372 1266.42L748.126 1263.53L747.704 1259.69C747.684 1259.51 747.595 1258.87 747.42 1257.76L748.493 1257.64C748.579 1258.76 748.614 1259.41 748.634 1259.58L749.191 1264.65C749.196 1264.7 749.218 1264.74 749.258 1264.77C749.296 1264.78 749.369 1264.79 749.479 1264.8L751.274 1264.82L751.307 1265.12L748.372 1266.42Z" fill="#1A1417"/>
<path d="M745.945 1265.64C745.143 1266.09 744.527 1266.41 744.113 1266.6C743.699 1266.79 743.242 1266.91 742.777 1266.96C742.007 1267.05 741.36 1266.92 740.853 1266.6C740.345 1266.25 740.031 1265.71 739.947 1264.94C739.842 1263.99 740.104 1263.07 740.711 1262.18C741.319 1261.28 742.31 1260.24 743.699 1259.04L743.611 1258.9L739.13 1259.65L739.06 1258.68L744.892 1258.04L745.236 1258.69C745.17 1258.75 745.088 1258.83 744.989 1258.92C744.889 1259 744.792 1259.1 744.66 1259.22C743.737 1260.05 743.035 1260.74 742.531 1261.27C742.028 1261.8 741.619 1262.37 741.321 1262.94C741.022 1263.52 740.89 1264.13 740.957 1264.74C741.01 1265.22 741.194 1265.58 741.492 1265.82C741.808 1266.06 742.217 1266.16 742.718 1266.1C742.987 1266.07 743.267 1265.99 743.559 1265.85C743.87 1265.7 744.347 1265.43 744.993 1265.05C745.097 1265.01 745.198 1264.94 745.266 1264.9C745.351 1264.85 745.419 1264.81 745.489 1264.78L745.945 1265.64Z" fill="#1A1417"/>
<path d="M1233.92 890.084C1232.92 892.752 1231.77 894.671 1230.54 895.812C1229.53 896.818 1228.33 897.438 1226.99 897.736C1225.67 897.987 1224.26 897.887 1222.81 897.342C1220.89 896.621 1219.37 895.409 1218.17 893.782C1216.98 892.108 1216.27 890.293 1216.06 888.292L1205.66 890.529C1204.98 890.645 1204.19 890.885 1203.23 891.166C1202.28 891.446 1201.54 891.703 1201.07 891.955C1200.43 892.674 1199.83 893.253 1199.25 893.674L1198.08 892.808L1199.75 888.361C1200.68 888.285 1202.65 887.9 1205.64 887.316C1205.47 887.357 1206.58 887.082 1208.96 886.586C1210.94 886.154 1212.68 885.791 1214.08 885.464C1215.49 885.137 1216.38 884.886 1216.66 884.722C1217.48 882.68 1218.26 880.89 1218.96 879.445L1212.36 876.966C1210.21 876.158 1208.55 875.59 1207.4 875.373C1207.17 875.712 1206.82 876.221 1206.33 876.946C1205.8 877.654 1205.38 878.192 1205.05 878.497L1203.77 877.642L1207.27 868.327L1208.8 868.526C1208.82 868.749 1208.86 869.351 1208.86 870.206C1208.83 870.727 1208.84 871.107 1208.88 871.441C1208.94 871.839 1209.28 872.231 1209.93 872.635C1210.76 873.109 1211.99 873.677 1213.68 874.31L1229.5 880.251C1232.12 881.235 1233.73 881.628 1234.35 881.54C1235.29 880.183 1236.01 879.276 1236.5 878.82L1237.84 879.646L1233.92 890.084ZM1218.39 889.487C1218.68 890.288 1219.22 891.131 1220.04 892.08C1220.81 893.011 1221.92 893.748 1223.32 894.276C1225.34 895.031 1227.07 894.827 1228.53 893.775C1230.01 892.675 1231.18 890.978 1232.03 888.732C1232.7 886.953 1232.98 885.777 1233 885.145C1232.59 884.671 1231.27 884.067 1229.02 883.224L1221.44 880.376C1220.73 881.283 1220.07 882.588 1219.41 884.366C1218.6 886.52 1218.23 888.199 1218.39 889.487Z" fill="#1A1417"/>
<path d="M1191.37 926.471C1190.39 925.977 1189.26 925.311 1187.93 924.385C1186.59 923.459 1185.59 922.741 1184.94 922.232C1185.69 920.812 1186.86 918.433 1188.37 915.054L1194.3 901.767L1195.81 902.059C1195.81 902.171 1195.79 902.709 1195.77 903.628L1195.73 904.927C1195.78 905.44 1196.09 905.852 1196.69 906.228C1198.22 907.079 1199.41 907.72 1200.33 908.128L1215.76 915.015C1218.32 916.157 1219.91 916.646 1220.53 916.597C1221.59 915.207 1222.36 914.345 1222.85 913.965L1224.13 914.917L1218.77 926.925C1218.14 928.34 1217.42 929.939 1216.74 931.714C1216.01 933.47 1215.55 934.632 1215.43 935.129L1213.94 935.776C1213.41 935.486 1212.5 934.967 1211.1 934.178C1209.72 933.343 1208.73 932.738 1208.24 932.356C1208.32 931.681 1208.52 931.113 1208.82 930.697C1210.82 931.482 1212.45 931.992 1213.76 932.248C1214.15 931.873 1214.53 931.274 1214.98 930.382C1215.43 929.489 1216.21 927.865 1217.25 925.537C1218.47 922.797 1219.09 921.047 1219.19 920.214C1218.58 919.614 1217.57 919.054 1216.25 918.463L1208.17 914.856C1207.95 915.09 1207.7 915.526 1207.4 916.211C1207.09 916.896 1206.7 917.763 1206.22 918.859C1205.93 919.498 1205.6 920.229 1205.29 921.183C1204.95 922.071 1204.75 922.751 1204.66 923.202C1205.27 923.802 1206.29 924.586 1207.63 925.512C1207.44 925.923 1207.17 926.293 1206.83 926.688C1204.68 925.619 1203.28 924.941 1202.73 924.697C1201.23 924.024 1199.77 923.372 1198.26 922.812C1198.26 922.319 1198.36 921.867 1198.63 921.497C1200.24 921.83 1201.45 922.045 1202.29 922.143C1202.79 921.494 1203.52 920.119 1204.43 918.064C1205.49 915.69 1206.04 914.345 1206.11 913.939L1199.13 910.822C1197.16 909.945 1195.48 909.303 1194.07 908.895C1193.61 909.183 1193.17 909.696 1192.71 910.477C1192.21 911.237 1191.45 912.815 1190.35 915.281C1189.78 916.559 1189.31 917.609 1189.01 918.518C1188.67 919.405 1188.46 920.243 1188.45 921.004C1188.85 921.568 1189.42 922.26 1190.22 923.165C1191 924.003 1191.77 924.731 1192.49 925.326C1192.32 925.579 1191.93 925.954 1191.37 926.471Z" fill="#1A1417"/>
<path d="M1205.8 954.11L1172.18 958.224L1189.86 967.571C1192.29 968.857 1193.93 969.498 1194.69 969.56C1195.68 968.441 1196.48 967.677 1197.11 967.333L1198.3 968.3L1194.14 976.168L1192.7 975.688C1192.62 974.97 1192.78 973.923 1193.17 972.433C1192.85 971.978 1192.34 971.542 1191.66 971.124C1190.96 970.638 1189.98 970.124 1188.83 969.516L1175.04 962.225C1171.06 960.122 1168.41 958.943 1167.16 958.736L1167.38 955.856L1201.53 951.285L1183.89 941.96C1182.03 940.979 1180.55 940.252 1179.4 939.868C1178.18 941.316 1177.28 942.258 1176.69 942.625L1175.49 941.703L1179.86 933.437L1181.35 933.828C1181.34 934.052 1181.31 934.32 1181.28 934.699C1181.25 935.079 1181.2 935.391 1181.19 935.614C1181.09 936.015 1181.02 936.371 1181.06 936.73C1181.07 937.132 1181.35 937.564 1181.9 938.024C1182.54 938.53 1183.9 939.366 1185.98 940.465L1200.17 947.966C1200.88 948.34 1201.78 948.763 1202.8 949.189C1203.82 949.615 1204.53 949.877 1205.05 949.978C1206.24 948.574 1207.13 947.744 1207.61 947.486L1208.82 948.408L1205.8 954.11Z" fill="#1A1417"/>
<path d="M1180.06 999.56C1178.5 1002.06 1176.57 1003.93 1174.34 1005.24C1172.06 1006.54 1169.65 1007.1 1167.05 1007.01C1164.44 1006.85 1161.85 1006 1159.3 1004.42C1154.97 1001.72 1152.2 998.519 1150.9 994.827C1149.64 991.092 1149.88 987.297 1151.68 983.468L1159.42 971.033L1160.88 971.529C1160.85 971.863 1160.75 972.393 1160.61 973.188C1160.52 973.719 1160.43 974.137 1160.41 974.36C1160.33 974.779 1160.58 975.229 1161.18 975.779C1161.91 976.409 1163 977.208 1164.53 978.159L1178.91 987.122C1181.25 988.576 1182.75 989.279 1183.38 989.315C1184.62 988.084 1185.5 987.335 1186.04 987.027L1187.17 988.144L1180.06 999.56ZM1152.35 989.954C1152.59 991.639 1153.47 993.54 1154.84 995.69C1156.21 997.84 1158 999.602 1160.25 1001C1162.54 1002.43 1164.91 1003.26 1167.27 1003.55C1169.58 1003.81 1171.81 1003.44 1173.86 1002.41C1175.91 1001.39 1177.64 999.759 1179.04 997.51C1179.38 996.958 1179.79 996.21 1180.26 995.266C1180.73 994.322 1181.19 993.489 1181.53 992.757C1181.05 992.106 1180.15 991.371 1178.88 990.578L1162.92 980.637C1161.48 979.738 1159.93 978.829 1158.29 978.047C1157.3 978.785 1156.23 980.122 1155.04 982.032C1153.35 984.748 1152.43 987.357 1152.35 989.954Z" fill="#1A1417"/>
<path d="M1130.17 1028.19C1129.3 1027.51 1128.33 1026.63 1127.2 1025.45C1126.08 1024.28 1125.25 1023.38 1124.71 1022.75C1125.73 1021.5 1127.35 1019.41 1129.5 1016.4L1137.97 1004.57L1139.39 1005.15C1139.38 1005.27 1139.25 1005.79 1139.04 1006.68L1138.75 1007.95C1138.69 1008.46 1138.91 1008.93 1139.42 1009.42C1140.75 1010.56 1141.79 1011.42 1142.61 1012L1156.35 1021.84C1158.63 1023.47 1160.09 1024.27 1160.71 1024.34C1162.02 1023.19 1162.95 1022.5 1163.51 1022.23L1164.57 1023.42L1156.92 1034.11C1156.01 1035.37 1154.99 1036.79 1153.97 1038.4C1152.91 1039.97 1152.22 1041.02 1152.01 1041.48L1150.42 1041.82C1149.96 1041.43 1149.16 1040.74 1147.95 1039.68C1146.76 1038.59 1145.91 1037.8 1145.51 1037.33C1145.73 1036.68 1146.04 1036.16 1146.41 1035.82C1148.22 1036.99 1149.72 1037.81 1150.95 1038.32C1151.4 1038.03 1151.89 1037.52 1152.51 1036.74C1153.14 1035.96 1154.22 1034.52 1155.71 1032.45C1157.45 1030.01 1158.41 1028.42 1158.67 1027.62C1158.19 1026.91 1157.32 1026.16 1156.14 1025.32L1148.94 1020.17C1148.69 1020.35 1148.35 1020.73 1147.92 1021.34C1147.48 1021.95 1146.93 1022.72 1146.23 1023.7C1145.82 1024.27 1145.36 1024.92 1144.86 1025.79C1144.34 1026.59 1144.02 1027.22 1143.84 1027.64C1144.31 1028.35 1145.16 1029.32 1146.28 1030.5C1146.02 1030.86 1145.68 1031.17 1145.26 1031.49C1143.37 1030.01 1142.14 1029.07 1141.65 1028.72C1140.31 1027.76 1139.01 1026.83 1137.65 1025.98C1137.75 1025.5 1137.93 1025.07 1138.27 1024.76C1139.78 1025.41 1140.93 1025.87 1141.72 1026.13C1142.35 1025.59 1143.33 1024.39 1144.64 1022.56C1146.16 1020.45 1146.96 1019.24 1147.11 1018.86L1140.89 1014.4C1139.14 1013.15 1137.62 1012.19 1136.32 1011.5C1135.82 1011.7 1135.28 1012.11 1134.67 1012.78C1134.03 1013.43 1132.97 1014.82 1131.4 1017.02C1130.58 1018.16 1129.91 1019.09 1129.44 1019.92C1128.93 1020.72 1128.56 1021.5 1128.39 1022.24C1128.68 1022.88 1129.09 1023.67 1129.7 1024.72C1130.29 1025.69 1130.9 1026.56 1131.49 1027.29C1131.27 1027.5 1130.82 1027.79 1130.17 1028.19Z" fill="#1A1417"/>
<path d="M1135.83 1061.72C1134.03 1063.93 1132.33 1065.39 1130.81 1066.08C1129.52 1066.71 1128.19 1066.92 1126.83 1066.78C1125.49 1066.59 1124.19 1066.05 1122.99 1065.08C1121.4 1063.79 1120.34 1062.15 1119.71 1060.23C1119.12 1058.26 1119.02 1056.32 1119.46 1054.36L1108.88 1053.18C1108.2 1053.07 1107.38 1053.05 1106.38 1053.01C1105.38 1052.98 1104.6 1052.99 1104.07 1053.08C1103.23 1053.55 1102.49 1053.92 1101.8 1054.13L1100.97 1052.94L1103.96 1049.25C1104.87 1049.47 1106.85 1049.73 1109.88 1050.13C1109.7 1050.11 1110.85 1050.2 1113.26 1050.49C1115.27 1050.7 1117.04 1050.91 1118.47 1051.05C1119.91 1051.18 1120.84 1051.23 1121.15 1051.16C1122.57 1049.48 1123.88 1048.03 1125.01 1046.88L1119.53 1042.44C1117.75 1040.99 1116.36 1039.93 1115.34 1039.36C1115.01 1039.6 1114.51 1039.98 1113.82 1040.51C1113.09 1041.01 1112.53 1041.39 1112.12 1041.58L1111.17 1040.36L1117.44 1032.63L1118.83 1033.31C1118.78 1033.52 1118.63 1034.11 1118.36 1034.92C1118.16 1035.4 1118.06 1035.77 1117.98 1036.1C1117.92 1036.49 1118.11 1036.97 1118.6 1037.56C1119.24 1038.28 1120.23 1039.2 1121.62 1040.34L1134.75 1050.99C1136.92 1052.75 1138.33 1053.64 1138.94 1053.75C1140.26 1052.76 1141.23 1052.13 1141.84 1051.85L1142.85 1053.06L1135.83 1061.72ZM1121.29 1056.23C1121.3 1057.08 1121.55 1058.05 1122.02 1059.21C1122.46 1060.33 1123.28 1061.39 1124.45 1062.33C1126.11 1063.69 1127.82 1064.04 1129.54 1063.51C1131.3 1062.93 1132.95 1061.7 1134.46 1059.83C1135.66 1058.36 1136.29 1057.33 1136.52 1056.74C1136.28 1056.16 1135.22 1055.17 1133.35 1053.66L1127.06 1048.55C1126.1 1049.19 1125.07 1050.22 1123.87 1051.69C1122.42 1053.48 1121.54 1054.96 1121.29 1056.23Z" fill="#1A1417"/>
<path d="M1095.81 1060.94C1095.75 1061.16 1095.57 1061.74 1095.25 1062.53C1095.07 1063.04 1094.91 1063.44 1094.85 1063.65C1094.7 1064.05 1094.87 1064.54 1095.36 1065.18C1095.97 1065.93 1096.94 1066.94 1098.32 1068.18L1110.81 1079.4C1112.82 1081.21 1114.22 1082.2 1114.87 1082.37C1116.16 1081.46 1117.16 1080.87 1117.89 1080.58L1118.81 1081.88L1112.15 1089.28L1110.8 1088.47C1110.85 1088.11 1111.07 1087.57 1111.39 1086.91C1111.71 1086.26 1112 1085.71 1112.23 1085.31C1111.86 1084.52 1110.77 1083.34 1108.99 1081.73L1095.64 1069.73C1094.45 1068.67 1093.26 1067.67 1092.01 1066.81C1091.67 1067.04 1091.13 1067.43 1090.44 1067.89C1089.72 1068.32 1089.14 1068.67 1088.72 1068.83L1087.81 1067.6L1094.46 1060.2L1095.81 1060.94Z" fill="#1A1417"/>
<path d="M1097.76 1104.6L1064.44 1098.52L1078.54 1112.71C1080.48 1114.66 1081.85 1115.76 1082.56 1116.04C1083.84 1115.27 1084.83 1114.78 1085.53 1114.64L1086.38 1115.91L1080.07 1122.19L1078.83 1121.3C1078.98 1120.59 1079.44 1119.64 1080.26 1118.34C1080.08 1117.8 1079.73 1117.24 1079.2 1116.64C1078.67 1115.96 1077.9 1115.18 1076.98 1114.26L1065.98 1103.2C1062.81 1100 1060.62 1098.09 1059.49 1097.52L1060.56 1094.84L1094.52 1100.63L1080.46 1086.48C1078.98 1084.99 1077.78 1083.86 1076.79 1083.15C1075.2 1084.17 1074.06 1084.8 1073.39 1084.97L1072.51 1083.73L1079.14 1077.14L1080.45 1077.96C1080.38 1078.17 1080.27 1078.42 1080.13 1078.77C1079.98 1079.13 1079.84 1079.41 1079.77 1079.62C1079.56 1079.97 1079.38 1080.29 1079.31 1080.64C1079.2 1081.03 1079.34 1081.53 1079.73 1082.13C1080.18 1082.8 1081.24 1084.01 1082.9 1085.68L1094.21 1097.06C1094.78 1097.63 1095.52 1098.3 1096.36 1099.01C1097.21 1099.72 1097.81 1100.18 1098.27 1100.43C1099.83 1099.44 1100.93 1098.92 1101.46 1098.81L1102.34 1100.05L1097.76 1104.6Z" fill="#1A1417"/>
<path d="M1044.97 1111.88C1047.66 1111.33 1050.27 1111.6 1052.85 1112.6C1055.41 1113.57 1057.72 1115.34 1059.81 1117.76C1061.9 1120.18 1063.31 1122.73 1063.97 1125.34C1064.62 1127.94 1064.57 1130.56 1063.92 1133.17C1063.52 1134.7 1062.99 1136.15 1062.32 1137.52C1061.65 1138.88 1060.83 1139.99 1059.94 1140.89C1058.62 1142.03 1057.16 1143.09 1055.59 1144.18C1054.02 1145.2 1052.72 1145.99 1051.69 1146.55L1049.82 1146.45C1049.76 1146.3 1049.21 1145.52 1048.22 1144.06C1047.2 1142.57 1046.54 1141.42 1046.17 1140.68C1046.41 1140.28 1046.8 1139.88 1047.35 1139.53C1049.21 1141.23 1050.58 1142.43 1051.45 1143.06C1052.25 1142.76 1053.21 1142.27 1054.33 1141.57C1055.44 1140.87 1056.49 1140.1 1057.4 1139.32C1059.75 1137.29 1061.16 1135.02 1061.77 1132.51C1061.97 1130.75 1061.73 1128.72 1061.04 1126.54C1060.36 1124.29 1059.23 1122.29 1057.69 1120.51C1055.93 1118.47 1053.95 1116.94 1051.76 1115.93C1049.56 1114.91 1047.28 1114.57 1045 1114.82C1042.71 1115.08 1040.62 1116.02 1038.65 1117.72C1036.76 1119.35 1035.37 1120.88 1034.62 1122.32C1034.57 1123.02 1035.36 1124.39 1037.05 1126.36C1038.85 1128.44 1040.14 1129.64 1040.83 1129.97C1041.38 1129.62 1042.05 1129.32 1042.78 1128.95C1043.52 1128.57 1044.18 1128.27 1044.73 1128.06L1045.67 1129.69L1037.87 1136.42L1036.4 1135.25C1036.57 1134.83 1037.02 1133.98 1037.72 1132.65C1037.43 1131.85 1036.56 1130.61 1035.19 1129.02L1033.79 1127.39C1032.68 1126.11 1031.7 1124.97 1030.77 1124.05C1032.65 1120.72 1034.8 1118 1037.3 1115.85C1039.76 1113.73 1042.3 1112.39 1044.97 1111.88Z" fill="#1A1417"/>
<path d="M1027.57 1166.67C1026.68 1167.16 1025.49 1167.75 1024.01 1168.44L1022.26 1168.45C1021.9 1167.97 1021.37 1167.11 1020.67 1165.95C1019.98 1164.71 1019.48 1163.72 1019.13 1162.85C1019.44 1162.43 1019.85 1162.05 1020.38 1161.77C1020.79 1162.22 1021.32 1162.75 1022.01 1163.49C1022.73 1164.2 1023.36 1164.78 1023.93 1165.36C1024.64 1165.13 1025.39 1164.81 1026.27 1164.39C1027.16 1163.91 1027.94 1163.44 1028.61 1162.93C1030.76 1161.29 1031.94 1159.45 1032.1 1157.51C1032.1 1156.19 1031.65 1155.03 1030.83 1153.95C1030.11 1153 1029.29 1152.42 1028.32 1152.22C1027.32 1151.97 1026.32 1151.98 1025.22 1152.19C1024.12 1152.4 1022.78 1152.78 1021.14 1153.35C1019.06 1153.92 1017.33 1154.36 1015.97 1154.64C1014.62 1154.85 1013.24 1154.77 1011.79 1154.36C1010.39 1153.92 1009.1 1152.96 1007.95 1151.44C1006.83 1149.97 1006.29 1148.36 1006.28 1146.61C1006.27 1144.86 1006.6 1143.23 1007.31 1141.69C1008.02 1140.14 1008.82 1138.97 1009.76 1138.13C1012.14 1136.32 1015.18 1134.7 1018.83 1133.3C1019.22 1133.64 1019.95 1134.52 1021.09 1135.86C1022.2 1137.15 1023.09 1138.23 1023.65 1139.06C1023.5 1139.43 1023.11 1139.91 1022.56 1140.52C1021.8 1139.84 1020.93 1139.12 1019.96 1138.41C1018.99 1137.64 1018.24 1137.14 1017.71 1136.86C1016.9 1137.03 1015.92 1137.4 1014.82 1137.93C1013.71 1138.46 1012.77 1139.04 1011.9 1139.71C1010.38 1140.86 1009.37 1142.25 1008.83 1143.93C1008.72 1145.52 1009.4 1147.32 1010.85 1149.23C1011.64 1150.27 1012.55 1150.89 1013.58 1151.18C1014.63 1151.39 1015.66 1151.42 1016.75 1151.21C1017.85 1151.01 1019.26 1150.63 1020.98 1150.08C1022.88 1149.44 1024.44 1149.01 1025.68 1148.83C1026.96 1148.61 1028.2 1148.67 1029.47 1149.02C1030.74 1149.37 1031.84 1150.23 1032.87 1151.59C1033.59 1152.54 1034.09 1153.61 1034.32 1154.82C1034.52 1155.99 1034.46 1157.16 1034.23 1158.34C1033.73 1160.48 1032.63 1162.51 1030.94 1164.42C1029.59 1165.45 1028.45 1166.19 1027.57 1166.67Z" fill="#1A1417"/>
</svg>
