<svg width="483" height="484" viewBox="0 0 483 484" fill="none" xmlns="http://www.w3.org/2000/svg">
<path d="M241.5 483C374.324 483 482 375.101 482 242C482 108.899 374.324 1 241.5 1C108.676 1 1 108.899 1 242C1 375.101 108.676 483 241.5 483Z" fill="white" stroke="#1A1417" stroke-miterlimit="10" vector-effect="non-scaling-stroke"/>
<path d="M170.039 272H146.639L145.439 267.56C155.039 261.08 163.199 254.96 169.679 249.08C176.159 243.2 179.399 237.44 179.399 231.68C179.399 228.32 178.199 225.8 176.039 223.88C173.759 222.08 170.879 221.12 167.399 221.12C165.119 221.12 162.839 221.6 160.439 222.32C158.039 223.16 155.759 224.36 153.839 225.92C153.479 228.08 152.999 231.92 152.519 237.32C152.159 237.44 151.679 237.44 151.199 237.44C150.359 237.44 149.639 237.32 149.039 237.08C147.599 232.16 146.759 227.96 146.759 224.36C150.719 221.84 154.439 219.68 157.799 217.88C161.159 216.2 164.639 215 168.239 214.4C173.639 214.4 178.079 215.72 181.679 218.24C185.159 220.76 186.959 224.6 186.959 229.76C186.959 235.88 183.959 242 178.079 248C172.079 254 165.479 259.64 158.159 264.68C161.159 265.64 165.239 266 170.399 266C173.159 266 175.439 266 177.359 265.76C179.159 265.64 180.959 265.28 182.879 264.68C184.319 262.04 185.639 258.68 186.599 254.72C188.159 254.96 189.479 255.32 190.439 255.92C190.319 257.36 189.839 260.24 188.999 264.44C188.039 268.64 187.439 271.28 187.199 272.48C184.079 272.24 178.319 272 170.039 272ZM213.687 269.72C209.607 267.32 206.367 264.08 204.087 259.76C201.807 255.44 200.727 250.52 200.727 244.88C200.727 239.96 201.567 235.52 203.487 231.44C205.407 227.36 207.927 224 211.287 221.12C215.967 217.16 221.607 214.88 228.087 214.4C233.607 214.4 238.407 215.6 242.487 218C246.567 220.4 249.807 223.76 252.087 228.08C254.367 232.4 255.567 237.32 255.567 242.84C255.567 247.88 254.607 252.32 252.687 256.4C250.767 260.48 248.247 263.84 245.007 266.6C240.207 270.68 234.687 272.84 228.207 273.32C222.687 273.32 217.767 272.12 213.687 269.72ZM235.287 265.64C237.207 265.04 238.767 264.2 240.207 263C245.247 257.96 247.887 251.12 247.887 242.48C247.887 236.24 245.967 231.08 242.247 227.12C238.407 223.16 233.367 221.12 227.007 221.12C224.847 221.12 222.927 221.48 221.007 222.08C219.087 222.8 217.407 223.64 216.087 224.72C210.927 229.88 208.407 236.72 208.407 245.24C208.407 251.6 210.207 256.76 214.047 260.72C217.767 264.68 222.807 266.6 229.287 266.6C231.327 266.6 233.367 266.36 235.287 265.64ZM264.022 268.16C264.982 267.8 266.902 267.32 269.542 266.84C272.182 266.36 274.222 266 275.902 265.76C276.622 265.28 277.102 264.2 277.462 262.52C277.942 260 278.182 253.16 278.182 241.88C278.182 237.56 278.062 233.84 278.062 230.48C277.942 227.12 277.822 224.84 277.822 223.4C272.902 224.24 268.462 224.84 264.502 225.08L263.302 221.96L283.102 212.96L286.102 214.76C285.022 219.32 284.542 226.04 284.542 234.92V255.08C284.542 258.92 284.662 262.4 285.022 265.76C286.222 265.88 288.622 266.24 292.102 266.72C295.462 267.32 297.862 267.8 299.182 268.16L298.462 272H264.742L264.022 268.16ZM306.092 268.16C307.052 267.8 308.972 267.32 311.612 266.84C314.252 266.36 316.292 266 317.972 265.76C318.692 265.28 319.172 264.2 319.532 262.52C320.012 260 320.252 253.16 320.252 241.88C320.252 237.56 320.132 233.84 320.132 230.48C320.012 227.12 319.892 224.84 319.892 223.4C314.972 224.24 310.532 224.84 306.572 225.08L305.372 221.96L325.172 212.96L328.172 214.76C327.092 219.32 326.612 226.04 326.612 234.92V255.08C326.612 258.92 326.732 262.4 327.092 265.76C328.292 265.88 330.692 266.24 334.172 266.72C337.532 267.32 339.932 267.8 341.252 268.16L340.532 272H306.812L306.092 268.16Z" fill="#1A1417"/>
<path d="M98.6806 236.088C99.2613 235.745 99.975 235.745 100.556 236.088C101.681 236.753 103.554 237.935 104.666 239.048C105.779 240.16 106.961 242.033 107.626 243.158C107.969 243.739 107.969 244.453 107.626 245.033C106.961 246.158 105.779 248.032 104.666 249.144C103.554 250.256 101.681 251.439 100.556 252.104C99.975 252.447 99.2613 252.447 98.6806 252.104C97.5556 251.439 95.6823 250.256 94.5701 249.144C93.4578 248.032 92.2751 246.158 91.6103 245.033C91.2672 244.453 91.2672 243.739 91.6103 243.158C92.2751 242.033 93.4578 240.16 94.5701 239.048C95.6823 237.935 97.5556 236.753 98.6806 236.088Z" fill="#721444"/>
<path d="M378.64 236.088C379.22 235.745 379.934 235.745 380.515 236.088C381.64 236.753 383.513 237.935 384.625 239.048C385.737 240.16 386.92 242.033 387.585 243.158C387.928 243.739 387.928 244.453 387.585 245.033C386.92 246.158 385.737 248.032 384.625 249.144C383.513 250.256 381.64 251.439 380.515 252.104C379.934 252.447 379.22 252.447 378.64 252.104C377.515 251.439 375.641 250.256 374.529 249.144C373.417 248.032 372.234 246.158 371.569 245.033C371.226 244.453 371.226 243.739 371.569 243.158C372.234 242.033 373.417 240.16 374.529 239.048C375.641 237.935 377.515 236.753 378.64 236.088Z" fill="#721444"/>
<path d="M226.892 181.596C226.118 181.38 225.488 181.218 224.984 181.11C224.48 181.002 224.084 180.948 223.76 180.948C223.13 180.948 222.608 181.128 222.176 181.488C221.744 181.848 221.528 182.334 221.528 182.946C221.528 183.396 221.6 183.756 221.78 184.026C221.96 184.314 222.176 184.53 222.464 184.692C222.734 184.854 223.112 185.034 223.616 185.232L223.994 185.394C224.138 185.466 224.336 185.556 224.552 185.628C225.236 185.934 225.776 186.204 226.172 186.42C226.568 186.654 226.892 186.978 227.18 187.374C227.45 187.77 227.594 188.274 227.594 188.868C227.594 189.966 227.198 190.812 226.424 191.388C225.632 191.964 224.642 192.252 223.418 192.252C222.446 192.252 221.366 192.054 220.214 191.622L220.574 190.524L220.934 190.632C221.672 190.884 222.266 191.064 222.716 191.172C223.166 191.298 223.544 191.352 223.868 191.352C224.66 191.352 225.29 191.154 225.758 190.74C226.226 190.344 226.46 189.732 226.46 188.94C226.46 188.508 226.352 188.166 226.136 187.878C225.92 187.59 225.65 187.374 225.326 187.194C225.002 187.014 224.57 186.816 224.012 186.582C223.922 186.546 223.832 186.51 223.76 186.474C223.688 186.438 223.616 186.42 223.544 186.384C223.436 186.348 223.058 186.186 222.41 185.898C221.762 185.61 221.276 185.25 220.952 184.8C220.628 184.35 220.466 183.81 220.466 183.198C220.466 182.55 220.628 181.992 220.988 181.506C221.348 181.038 221.816 180.66 222.428 180.408C223.022 180.156 223.688 180.012 224.408 180.012C225.308 180.012 226.262 180.21 227.252 180.588L226.892 181.596ZM230.436 192L230.526 189.552V182.712L230.436 180.264H231.678C231.606 181.578 231.588 182.388 231.588 182.712V189.552C231.588 189.876 231.606 190.704 231.678 192H230.436ZM243.112 182.712C243.112 182.388 243.076 181.578 243.022 180.264H244.192L244.102 182.712V189.336L244.192 191.712L243.148 192.162L236.74 181.812H236.596V189.552C236.596 189.876 236.614 190.704 236.686 192H235.516L235.606 189.552V182.712L235.516 180.264H236.848L242.968 190.182H243.112V182.712ZM249.201 191.55C248.481 191.1 247.923 190.434 247.527 189.57C247.131 188.706 246.933 187.662 246.933 186.456C246.933 185.286 247.149 184.206 247.581 183.216C248.013 182.244 248.643 181.452 249.435 180.876C250.227 180.3 251.145 180.012 252.189 180.012C253.017 180.012 253.953 180.246 254.961 180.714L254.601 181.722C253.773 181.452 253.161 181.272 252.783 181.164C252.387 181.074 252.045 181.02 251.721 181.02C250.947 181.02 250.281 181.272 249.741 181.74C249.201 182.208 248.787 182.856 248.499 183.648C248.211 184.44 248.085 185.304 248.085 186.24C248.085 187.896 248.409 189.156 249.057 190.002C249.705 190.866 250.605 191.28 251.793 191.28C252.621 191.28 253.485 191.082 254.421 190.668L254.709 191.514C253.701 192 252.693 192.234 251.685 192.234C250.749 192.234 249.921 192.018 249.201 191.55ZM258.148 181.11V185.61H260.074L262.324 185.52V186.528C261.046 186.492 260.29 186.456 260.074 186.456H258.166V191.154H261.208C261.352 191.154 261.586 191.154 261.928 191.118L263.818 191.01V192H257.014L257.104 189.552V182.712L257.014 180.264H263.818V181.254L261.928 181.146C261.586 181.128 261.352 181.11 261.208 181.11H258.148Z" fill="#1A1417"/>
</svg>
