<svg width="482" height="483" viewBox="0 0 482 483" fill="none" xmlns="http://www.w3.org/2000/svg">
<path d="M241 482.5C373.824 482.5 481.5 374.601 481.5 241.5C481.5 108.399 373.824 0.5 241 0.5C108.176 0.5 0.5 108.399 0.5 241.5C0.5 374.601 108.176 482.5 241 482.5Z" fill="white" stroke="#1A1417" stroke-miterlimit="10"/>
<path d="M151.231 271.499H127.831L126.631 267.059C136.231 260.579 144.391 254.459 150.871 248.579C157.351 242.699 160.591 236.939 160.591 231.179C160.591 227.819 159.391 225.299 157.231 223.379C154.951 221.579 152.071 220.619 148.591 220.619C146.311 220.619 144.031 221.099 141.631 221.819C139.231 222.659 136.951 223.859 135.031 225.419C134.671 227.579 134.191 231.419 133.711 236.819C133.351 236.939 132.871 236.939 132.391 236.939C131.551 236.939 130.831 236.819 130.231 236.579C128.791 231.659 127.951 227.459 127.951 223.859C131.911 221.339 135.631 219.179 138.991 217.379C142.351 215.699 145.831 214.499 149.431 213.899C154.831 213.899 159.271 215.219 162.871 217.739C166.351 220.259 168.151 224.099 168.151 229.259C168.151 235.379 165.151 241.499 159.271 247.499C153.271 253.499 146.671 259.139 139.351 264.179C142.351 265.139 146.431 265.499 151.591 265.499C154.351 265.499 156.631 265.499 158.551 265.259C160.351 265.139 162.151 264.779 164.071 264.179C165.511 261.539 166.831 258.179 167.791 254.219C169.351 254.459 170.671 254.819 171.631 255.419C171.511 256.859 171.031 259.739 170.191 263.939C169.231 268.139 168.631 270.779 168.391 271.979C165.271 271.739 159.511 271.499 151.231 271.499ZM194.878 269.219C190.798 266.819 187.558 263.579 185.278 259.259C182.998 254.939 181.918 250.019 181.918 244.379C181.918 239.459 182.758 235.019 184.678 230.939C186.598 226.859 189.118 223.499 192.478 220.619C197.158 216.659 202.798 214.379 209.278 213.899C214.798 213.899 219.598 215.099 223.678 217.499C227.758 219.899 230.998 223.259 233.278 227.579C235.558 231.899 236.758 236.819 236.758 242.339C236.758 247.379 235.798 251.819 233.878 255.899C231.958 259.979 229.438 263.339 226.198 266.099C221.398 270.179 215.878 272.339 209.398 272.819C203.878 272.819 198.958 271.619 194.878 269.219ZM216.478 265.139C218.398 264.539 219.958 263.699 221.398 262.499C226.438 257.459 229.078 250.619 229.078 241.979C229.078 235.739 227.158 230.579 223.438 226.619C219.598 222.659 214.558 220.619 208.198 220.619C206.038 220.619 204.118 220.979 202.198 221.579C200.278 222.299 198.598 223.139 197.278 224.219C192.118 229.379 189.598 236.219 189.598 244.739C189.598 251.099 191.398 256.259 195.238 260.219C198.958 264.179 203.998 266.099 210.478 266.099C212.518 266.099 214.558 265.859 216.478 265.139ZM257.573 269.219C253.493 266.819 250.253 263.579 247.973 259.259C245.693 254.939 244.613 250.019 244.613 244.379C244.613 239.459 245.453 235.019 247.373 230.939C249.293 226.859 251.813 223.499 255.173 220.619C259.853 216.659 265.493 214.379 271.973 213.899C277.493 213.899 282.293 215.099 286.373 217.499C290.453 219.899 293.693 223.259 295.973 227.579C298.253 231.899 299.453 236.819 299.453 242.339C299.453 247.379 298.493 251.819 296.573 255.899C294.653 259.979 292.133 263.339 288.893 266.099C284.093 270.179 278.573 272.339 272.093 272.819C266.573 272.819 261.653 271.619 257.573 269.219ZM279.173 265.139C281.093 264.539 282.653 263.699 284.093 262.499C289.133 257.459 291.773 250.619 291.773 241.979C291.773 235.739 289.853 230.579 286.133 226.619C282.293 222.659 277.253 220.619 270.893 220.619C268.733 220.619 266.813 220.979 264.893 221.579C262.973 222.299 261.293 223.139 259.973 224.219C254.813 229.379 252.293 236.219 252.293 244.739C252.293 251.099 254.093 256.259 257.933 260.219C261.653 264.179 266.693 266.099 273.173 266.099C275.213 266.099 277.253 265.859 279.173 265.139ZM315.949 263.939C311.869 257.939 309.829 250.139 309.829 240.419C309.829 231.539 311.509 223.499 314.989 216.419C318.469 209.339 323.509 203.699 329.989 199.379C336.469 195.179 344.029 192.779 352.669 192.299L353.629 194.339C353.629 195.059 353.629 196.019 353.389 196.979C353.149 198.059 352.789 198.899 352.429 199.619C347.869 200.219 344.389 200.819 341.749 201.419C339.109 202.019 336.349 202.979 333.229 204.179C329.149 206.939 325.789 210.659 323.149 215.339C320.509 220.139 318.829 225.659 318.109 231.899L320.989 230.459C323.869 229.019 326.389 227.699 328.549 226.739C330.709 225.779 332.509 225.299 334.069 225.179C341.509 225.179 347.269 227.099 351.589 230.699C355.909 234.419 358.069 239.819 358.069 246.779C358.069 255.299 355.429 261.899 350.149 266.459C346.069 270.059 341.029 272.099 335.149 272.819C326.389 272.819 320.029 269.939 315.949 263.939ZM341.029 265.739C343.189 265.019 344.989 263.819 346.669 262.139C348.949 258.059 350.149 253.259 350.149 247.619C350.149 242.459 348.469 238.499 345.229 235.739C341.869 232.979 337.549 231.539 332.029 231.539C330.229 231.779 326.509 233.219 320.869 235.859C319.909 236.459 318.829 236.939 317.629 237.419C317.629 245.819 318.829 252.779 321.349 258.419C323.869 264.059 328.309 266.819 334.669 266.819C336.709 266.819 338.869 266.459 341.029 265.739Z" fill="#1A1417"/>
<path d="M98.1806 235.587C98.7613 235.244 99.475 235.244 100.056 235.587C101.181 236.252 103.054 237.435 104.166 238.547C105.279 239.659 106.461 241.533 107.126 242.658C107.469 243.238 107.469 243.952 107.126 244.533C106.461 245.658 105.279 247.531 104.166 248.643C103.054 249.756 101.181 250.938 100.056 251.603C99.475 251.946 98.7613 251.946 98.1806 251.603C97.0556 250.938 95.1823 249.756 94.0701 248.643C92.9578 247.531 91.7751 245.658 91.1103 244.533C90.7672 243.952 90.7672 243.238 91.1103 242.658C91.7751 241.533 92.9578 239.659 94.0701 238.547C95.1823 237.435 97.0556 236.252 98.1806 235.587Z" fill="#F26722"/>
<path d="M378.14 235.587C378.72 235.244 379.434 235.244 380.015 235.587C381.14 236.252 383.013 237.435 384.125 238.547C385.237 239.659 386.42 241.533 387.085 242.658C387.428 243.238 387.428 243.952 387.085 244.533C386.42 245.658 385.237 247.531 384.125 248.643C383.013 249.756 381.14 250.938 380.015 251.603C379.434 251.946 378.72 251.946 378.14 251.603C377.015 250.938 375.141 249.756 374.029 248.643C372.917 247.531 371.734 245.658 371.069 244.533C370.726 243.952 370.726 243.238 371.069 242.658C371.734 241.533 372.917 239.659 374.029 238.547C375.141 237.435 377.015 236.252 378.14 235.587Z" fill="#F26722"/>
<path d="M226.392 181.095C225.618 180.879 224.988 180.717 224.484 180.609C223.98 180.501 223.584 180.447 223.26 180.447C222.63 180.447 222.108 180.627 221.676 180.987C221.244 181.347 221.028 181.833 221.028 182.445C221.028 182.895 221.1 183.255 221.28 183.525C221.46 183.813 221.676 184.029 221.964 184.191C222.234 184.353 222.612 184.533 223.116 184.731L223.494 184.893C223.638 184.965 223.836 185.055 224.052 185.127C224.736 185.433 225.276 185.703 225.672 185.919C226.068 186.153 226.392 186.477 226.68 186.873C226.95 187.269 227.094 187.773 227.094 188.367C227.094 189.465 226.698 190.311 225.924 190.887C225.132 191.463 224.142 191.751 222.918 191.751C221.946 191.751 220.866 191.553 219.714 191.121L220.074 190.023L220.434 190.131C221.172 190.383 221.766 190.563 222.216 190.671C222.666 190.797 223.044 190.851 223.368 190.851C224.16 190.851 224.79 190.653 225.258 190.239C225.726 189.843 225.96 189.231 225.96 188.439C225.96 188.007 225.852 187.665 225.636 187.377C225.42 187.089 225.15 186.873 224.826 186.693C224.502 186.513 224.07 186.315 223.512 186.081C223.422 186.045 223.332 186.009 223.26 185.973C223.188 185.937 223.116 185.919 223.044 185.883C222.936 185.847 222.558 185.685 221.91 185.397C221.262 185.109 220.776 184.749 220.452 184.299C220.128 183.849 219.966 183.309 219.966 182.697C219.966 182.049 220.128 181.491 220.488 181.005C220.848 180.537 221.316 180.159 221.928 179.907C222.522 179.655 223.188 179.511 223.908 179.511C224.808 179.511 225.762 179.709 226.752 180.087L226.392 181.095ZM229.936 191.499L230.026 189.051V182.211L229.936 179.763H231.178C231.106 181.077 231.088 181.887 231.088 182.211V189.051C231.088 189.375 231.106 190.203 231.178 191.499H229.936ZM242.612 182.211C242.612 181.887 242.576 181.077 242.522 179.763H243.692L243.602 182.211V188.835L243.692 191.211L242.648 191.661L236.24 181.311H236.096V189.051C236.096 189.375 236.114 190.203 236.186 191.499H235.016L235.106 189.051V182.211L235.016 179.763H236.348L242.468 189.681H242.612V182.211ZM248.701 191.049C247.981 190.599 247.423 189.933 247.027 189.069C246.631 188.205 246.433 187.161 246.433 185.955C246.433 184.785 246.649 183.705 247.081 182.715C247.513 181.743 248.143 180.951 248.935 180.375C249.727 179.799 250.645 179.511 251.689 179.511C252.517 179.511 253.453 179.745 254.461 180.213L254.101 181.221C253.273 180.951 252.661 180.771 252.283 180.663C251.887 180.573 251.545 180.519 251.221 180.519C250.447 180.519 249.781 180.771 249.241 181.239C248.701 181.707 248.287 182.355 247.999 183.147C247.711 183.939 247.585 184.803 247.585 185.739C247.585 187.395 247.909 188.655 248.557 189.501C249.205 190.365 250.105 190.779 251.293 190.779C252.121 190.779 252.985 190.581 253.921 190.167L254.209 191.013C253.201 191.499 252.193 191.733 251.185 191.733C250.249 191.733 249.421 191.517 248.701 191.049ZM257.648 180.609V185.109H259.574L261.824 185.019V186.027C260.546 185.991 259.79 185.955 259.574 185.955H257.666V190.653H260.708C260.852 190.653 261.086 190.653 261.428 190.617L263.318 190.509V191.499H256.514L256.604 189.051V182.211L256.514 179.763H263.318V180.753L261.428 180.645C261.086 180.627 260.852 180.609 260.708 180.609H257.648Z" fill="#1A1417"/>
</svg>
