<svg width="1440" height="1440" viewBox="0 0 1440 1440" fill="none" xmlns="http://www.w3.org/2000/svg">
      <mask id="mask0_2273_2990" style="mask-type:alpha" maskUnits="userSpaceOnUse" x="0" y="0" width="1440" height="1440">
            <circle cx="720" cy="720" r="719.5" fill="#F4EBD0" stroke="#D3CAB3"/>
      </mask>
      <g mask="url(#mask0_2273_2990)">
            <circle cx="720" cy="720" r="719.5" fill="white" stroke="#1A1417" vector-effect="non-scaling-stroke"/>
            <line x1="719.5" y1="1285" x2="719.5" y2="-2.18556e-08" stroke="#1A1417"  vector-effect="non-scaling-stroke"/>
            <line x1="1415.34" y1="906.837" x2="24.4081" y2="534.138" stroke="#1A1417" vector-effect="non-scaling-stroke"/>
            <line x1="210.531" y1="1228.76" x2="1228.77" y2="210.526" stroke="#1A1417" vector-effect="non-scaling-stroke"/>
            <line x1="1228.76" y1="1229.47" x2="210.531" y2="211.24" stroke="#1A1417" vector-effect="non-scaling-stroke"/>
            <line x1="20.7672" y1="891.655" x2="1419" y2="547.364" stroke="#1A1417" vector-effect="non-scaling-stroke"/>
      </g>
      <path d="M266.632 234.813C266.885 234.279 267.191 233.621 267.587 232.886C267.639 232.762 267.737 232.599 267.88 232.397C268.023 232.196 268.081 231.987 268.185 231.74C268.289 231.493 268.354 231.2 268.295 230.855C268.191 230.549 268.047 230.198 267.859 229.885C266.627 228.175 265.624 226.822 264.843 225.911L251.635 210.522C249.447 207.972 247.975 206.626 247.272 206.359C246.739 206.659 246.121 206.952 245.327 207.317C244.533 207.682 243.876 207.93 243.401 208.021L242.508 206.336L252.616 197.661C254.893 195.708 257.072 194.47 259.161 193.863C262.726 192.859 265.766 193.729 268.111 196.461C270.533 199.284 271.069 202.856 269.725 207.094C271.924 206.155 274.162 205.815 276.271 206.061C278.38 206.307 280.3 207.347 281.863 209.168C283.348 210.899 284.267 212.798 284.587 214.737C284.862 216.716 284.635 218.571 283.862 220.341C283.355 221.409 282.861 222.307 282.334 223.076C281.762 223.883 281.066 224.638 280.325 225.433L268.123 235.905L266.632 234.813ZM267.661 206.255C267.882 205.038 267.888 203.847 267.718 202.728C267.502 201.648 266.87 200.451 265.815 199.221C264.174 197.309 262.273 196.568 260.126 196.83C257.933 197.131 255.766 198.2 253.626 200.036C252.943 200.622 252.345 201.215 251.747 201.807C251.187 202.446 250.817 202.843 250.583 203.123C250.739 203.858 251.742 205.211 253.54 207.306L259.675 214.454C260.664 213.763 261.659 212.988 262.752 212.05C265.028 210.097 266.706 208.182 267.661 206.255ZM279.38 222.765C280.212 221.892 280.784 221.085 281.142 220.304C281.557 219.314 281.654 218.045 281.51 216.588C281.366 215.13 280.669 213.673 279.379 212.17C277.66 210.167 275.518 209.237 273 209.343C270.436 209.488 268.015 210.537 265.648 212.569C263.827 214.132 262.448 215.474 261.433 216.503L267.256 223.287C269.327 225.7 270.942 227.397 272.14 228.425C273.779 227.571 275.353 226.458 276.902 225.129C277.721 224.426 278.547 223.638 279.38 222.765Z" fill="#1A1417"/>
      <path d="M280.887 172.844C281.915 172.199 283.294 171.411 285.025 170.479L287.12 170.341C287.589 170.888 288.28 171.876 289.198 173.223C290.11 174.654 290.788 175.812 291.264 176.827C290.926 177.354 290.464 177.83 289.839 178.208C289.325 177.7 288.648 177.096 287.775 176.263C286.857 175.47 286.056 174.813 285.34 174.163C284.507 174.482 283.622 174.925 282.601 175.485C281.573 176.13 280.675 176.743 279.901 177.407C277.443 179.517 276.162 181.802 276.111 184.139C276.203 185.72 276.823 187.086 277.878 188.315C278.815 189.408 279.831 190.039 281.009 190.214C282.226 190.434 283.424 190.355 284.725 190.029C286.026 189.703 287.601 189.142 289.533 188.354C291.98 187.519 294.029 186.867 295.637 186.436C297.237 186.091 298.897 186.09 300.654 186.479C302.366 186.907 303.987 187.967 305.472 189.697C306.918 191.382 307.667 193.269 307.805 195.364C307.943 197.46 307.665 199.438 306.924 201.339C306.183 203.24 305.306 204.705 304.246 205.773C301.514 208.117 297.988 210.273 293.713 212.203C293.232 211.825 292.287 210.817 290.829 209.302C289.409 207.832 288.269 206.596 287.533 205.646C287.696 205.191 288.125 204.585 288.736 203.823C289.7 204.578 290.787 205.384 292.005 206.158C293.216 207.016 294.153 207.556 294.811 207.861C295.767 207.594 296.912 207.085 298.2 206.375C299.488 205.665 300.568 204.896 301.57 204.037C303.3 202.552 304.412 200.807 304.951 198.763C304.969 196.85 304.024 194.735 302.148 192.55C301.132 191.366 299.993 190.683 298.737 190.417C297.474 190.236 296.238 190.269 294.936 190.595C293.635 190.922 291.976 191.476 289.959 192.258C287.721 193.151 285.886 193.777 284.415 194.09C282.899 194.443 281.409 194.457 279.86 194.126C278.311 193.795 276.937 192.839 275.608 191.291C274.67 190.198 273.999 188.956 273.64 187.524C273.321 186.138 273.3 184.733 273.495 183.301C273.948 180.697 275.118 178.191 277.004 175.782C278.552 174.453 279.86 173.489 280.887 172.844Z" fill="#1A1417"/>
      <path d="M676.298 29.064C675.578 28.308 675.236 27.318 675.236 26.058C675.236 25.266 675.434 24.51 675.848 23.79C676.262 23.07 676.802 22.476 677.486 22.026C678.17 21.576 678.872 21.342 679.592 21.342C680.798 21.342 681.752 21.72 682.472 22.476C683.174 23.232 683.534 24.24 683.534 25.482C683.534 26.274 683.318 27.048 682.904 27.768C682.49 28.488 681.95 29.082 681.266 29.532C680.582 29.982 679.898 30.198 679.178 30.198C677.954 30.198 677 29.82 676.298 29.064ZM680.87 28.542C681.302 28.236 681.626 27.822 681.86 27.3C682.076 26.778 682.202 26.22 682.202 25.608C682.202 24.654 681.968 23.898 681.5 23.358C681.032 22.818 680.33 22.53 679.412 22.53C678.818 22.53 678.314 22.692 677.882 22.998C677.45 23.322 677.126 23.736 676.91 24.258C676.676 24.78 676.568 25.338 676.568 25.932C676.568 26.904 676.802 27.66 677.27 28.2C677.738 28.74 678.422 29.01 679.34 29.01C679.916 29.01 680.438 28.866 680.87 28.542Z" fill="#1A1417"/>
      <path d="M686.388 29.064C685.668 28.308 685.326 27.318 685.326 26.058C685.326 25.266 685.524 24.51 685.938 23.79C686.352 23.07 686.892 22.476 687.576 22.026C688.26 21.576 688.962 21.342 689.682 21.342C690.888 21.342 691.842 21.72 692.562 22.476C693.264 23.232 693.624 24.24 693.624 25.482C693.624 26.274 693.408 27.048 692.994 27.768C692.58 28.488 692.04 29.082 691.356 29.532C690.672 29.982 689.988 30.198 689.268 30.198C688.044 30.198 687.09 29.82 686.388 29.064ZM690.96 28.542C691.392 28.236 691.716 27.822 691.95 27.3C692.166 26.778 692.292 26.22 692.292 25.608C692.292 24.654 692.058 23.898 691.59 23.358C691.122 22.818 690.42 22.53 689.502 22.53C688.908 22.53 688.404 22.692 687.972 22.998C687.54 23.322 687.216 23.736 687 24.258C686.766 24.78 686.658 25.338 686.658 25.932C686.658 26.904 686.892 27.66 687.36 28.2C687.828 28.74 688.512 29.01 689.43 29.01C690.006 29.01 690.528 28.866 690.96 28.542Z" fill="#1A1417"/>
      <path d="M698.368 21.234L698.278 24.24V28.056C698.278 28.272 698.296 28.92 698.368 30H696.982C697.036 28.92 697.072 28.272 697.072 28.056V23.322C697.072 23.268 697.036 23.232 697 23.196C696.946 23.16 696.874 23.142 696.766 23.106L694.894 22.8V22.404L698.368 21.234Z" fill="#1A1417"/>
      <path d="M72.8223 863.172C72.6614 862.957 72.2484 862.361 71.7229 861.481C71.3797 860.934 71.1169 860.493 70.956 860.279C70.6932 859.839 70.1083 859.64 69.1316 859.634C67.9778 859.66 66.3033 859.842 64.119 860.238L44.2827 863.836C40.9766 864.436 39.0712 865.026 38.4861 865.498C38.4048 867.403 38.2271 868.777 37.9638 869.678L36.0587 869.597L33.5636 855.841C32.9853 852.653 33.0455 849.959 33.685 847.77C34.2331 846.085 35.0816 844.712 36.3271 843.51C37.5834 842.367 39.1507 841.595 41.158 841.231C43.4604 840.814 45.6123 840.911 47.5548 841.534C49.4972 842.158 51.2087 843.189 52.5712 844.649C54.2825 846.351 55.3978 848.466 55.9657 850.924C56.3298 852.931 56.5703 855.266 56.698 857.987L65.0221 856.477C67.0294 856.113 68.7898 855.732 70.2926 855.277C70.127 853.355 70.1655 851.214 70.4777 848.901L72.0769 848.977L74.5185 862.438L72.8223 863.172ZM51.2664 846.532C49.0293 844.621 46.1102 843.992 42.5089 844.645C39.6752 845.159 37.8285 846.409 36.91 848.405C35.9915 850.4 35.7598 852.821 36.2845 855.714C36.7985 858.547 37.2862 860.227 37.6508 860.893C38.4825 861.108 40.5219 860.921 43.7689 860.332L53.8642 858.501C54.1171 856.869 53.9784 854.76 53.518 852.222C53.0682 849.742 52.3499 847.799 51.2664 846.532Z" fill="#1A1417"/>
      <path d="M30.2233 837.426L28.0923 825.678L29.8475 824.933C30.1479 825.244 30.5018 825.851 30.8879 826.634C31.2846 827.477 31.5903 828.154 31.8047 828.663C32.8243 828.905 34.8636 828.718 37.9335 828.161L45.8444 826.727L41.9572 805.296L35.286 806.506C33.3969 806.849 31.8726 807.186 30.6436 807.47C29.4145 807.754 28.5611 808.092 28.1316 808.414C28.1368 808.779 28.0668 809.401 28.002 810.389C27.9372 811.376 27.8188 812.068 27.6093 812.594L25.7042 812.513L23.5625 800.706L25.3284 800.019C25.7199 800.497 26.0846 801.163 26.4921 802.065C26.8996 802.966 27.1838 803.525 27.2856 803.75C27.8705 803.949 28.6111 803.997 29.5073 803.896C30.4036 803.794 31.5253 803.591 32.9422 803.334L54.2544 799.468C56.7339 799.018 58.5534 798.627 59.6913 798.177C59.7237 797.683 59.7616 796.883 59.8157 795.837C59.9395 794.839 60.0364 794.029 60.1869 793.513L62.0223 793.546L64.164 805.354L62.4572 806.029C62.1246 805.541 61.7116 804.945 61.2773 804.231L60.6015 803.195C60.2797 802.765 59.6358 802.577 58.7771 802.55C57.6823 802.566 55.8308 802.78 53.1741 803.262L44.4958 804.836L48.383 826.266L58.4192 824.446C60.3675 824.092 62.3049 823.68 64.2103 823.09C64.2427 822.597 64.2806 821.797 64.3454 820.81C64.4693 819.811 64.5662 819.001 64.706 818.427L66.552 818.519L68.6831 830.267L66.9869 831.002C66.826 830.787 66.413 830.191 65.8875 829.311C65.5443 828.763 65.2815 828.323 65.1206 828.108C64.8578 827.668 64.2729 827.469 63.2962 827.464C62.1424 827.49 60.4679 827.672 58.2836 828.068L38.4473 831.666C35.2593 832.244 33.2949 832.845 32.6507 833.327C32.5694 835.232 32.3917 836.606 32.1284 837.508L30.2233 837.426Z" fill="#1A1417"/>
      <path d="M41.9454 581.054C41.0507 581.592 40.01 581.71 38.7802 581.435C38.0072 581.263 37.3125 580.905 36.7 580.344C36.0874 579.783 35.6253 579.127 35.3351 578.361C35.0448 577.596 34.9693 576.86 35.1261 576.157C35.3888 574.98 35.9655 574.131 36.8602 573.593C37.7509 573.073 38.8131 572.941 40.0253 573.211C40.7983 573.384 41.5067 573.763 42.1192 574.324C42.7318 574.885 43.1939 575.541 43.4841 576.307C43.7744 577.072 43.8362 577.787 43.6794 578.49C43.4128 579.684 42.8361 580.533 41.9454 581.054ZM42.4316 576.478C42.2271 575.989 41.8936 575.583 41.4351 575.241C40.9726 574.916 40.4555 574.672 39.8582 574.539C38.9271 574.331 38.1383 574.395 37.5093 574.734C36.8803 575.073 36.4464 575.695 36.2464 576.591C36.1171 577.171 36.1654 577.698 36.37 578.187C36.5921 578.679 36.9256 579.085 37.388 579.41C37.8465 579.752 38.3676 579.979 38.9474 580.108C39.896 580.32 40.6848 580.256 41.3138 579.917C41.9428 579.578 42.3553 578.969 42.5552 578.073C42.6806 577.511 42.6538 576.97 42.4316 576.478Z" fill="#1A1417"/>
      <path d="M36.9124 567.656L39.8267 568.399L43.5511 569.23C43.7619 569.277 44.3983 569.4 45.468 569.565L45.1662 570.918C44.1238 570.63 43.4992 570.454 43.2884 570.407L38.6681 569.376C38.6154 569.364 38.5724 569.391 38.5294 569.419C38.4825 569.463 38.4493 569.53 38.3906 569.627L37.6842 571.388L37.2977 571.301L36.9124 567.656Z" fill="#1A1417"/>
      <path d="M43.2232 565.492C43.2279 564.645 43.1933 563.973 43.1547 563.485C43.1161 562.997 42.9134 562.583 42.5466 562.243C42.176 561.92 41.6588 561.676 41.0264 561.535C40.0777 561.323 39.48 561.688 39.2722 562.619C39.2173 562.865 39.2346 563.2 39.2928 563.601C39.3471 564.019 39.4831 564.731 39.6794 565.753L38.4395 565.937C38.2569 564.937 38.1638 564.197 38.1213 563.727C38.0748 563.274 38.1065 562.801 38.2162 562.309C38.3926 561.519 38.727 560.929 39.2233 560.524C39.7156 560.136 40.3678 560.023 41.1408 560.195C41.7732 560.337 42.2865 560.599 42.6884 560.947C43.0863 561.312 43.3866 561.785 43.6067 562.369L43.7551 562.365C44.0855 561.793 44.49 561.385 44.9822 561.163C45.4744 560.941 46.0719 560.909 46.7921 561.069C47.9868 561.336 48.814 561.926 49.2818 562.805C49.7633 563.706 49.86 564.76 49.5856 565.99C49.3856 566.886 49.0569 567.698 48.5779 568.439L47.4559 567.765L47.8547 567.134C48.1949 566.602 48.4081 566.225 48.5293 566.012C48.6505 565.8 48.7191 565.575 48.7661 565.364C48.9386 564.591 48.8259 563.939 48.3891 563.417C47.9483 562.913 47.3453 562.557 46.5372 562.377C45.2899 562.099 44.528 562.537 44.2693 563.697C44.1713 564.136 44.1513 564.722 44.1877 565.468L43.2232 565.492Z" fill="#1A1417"/>
      <path d="M745.113 57.9317C742.335 56.1412 740.317 53.7353 738.936 50.7067C737.553 47.738 737.04 44.2808 737.271 40.4478C737.502 36.6147 738.427 33.2443 740.038 30.4563C741.649 27.6682 743.886 25.4589 746.633 23.7613C748.255 22.7772 749.927 21.9764 751.647 21.3588C753.367 20.7413 755.006 20.4795 756.51 20.4501C758.607 20.5765 760.752 20.8863 763.013 21.2632C765.211 21.6963 766.99 22.1042 768.349 22.4867L769.872 24.1414C769.802 24.3175 769.613 25.4482 769.247 27.5299C768.878 29.6716 768.484 31.2107 768.187 32.1545C767.637 32.3016 766.974 32.3218 766.203 32.155C766.024 29.1388 765.855 26.9646 765.631 25.6889C764.695 25.2717 763.455 24.8964 761.913 24.5629C760.37 24.2293 758.82 24.0156 757.382 23.9289C753.669 23.7049 750.557 24.4789 747.933 26.1238C746.289 27.4673 744.789 29.4205 743.559 31.8709C742.266 34.3775 741.564 37.0401 741.394 39.855C741.199 43.0891 741.621 46.0599 742.66 48.7674C743.699 51.4749 745.369 53.6794 747.551 55.3739C749.733 57.0684 752.321 58.006 755.436 58.1938C758.43 58.3745 760.904 58.2232 762.744 57.6129C763.379 57.0501 763.85 55.2152 764.038 52.1008C764.237 48.8068 764.124 46.6962 763.815 45.836C763.044 45.6693 762.22 45.3791 761.276 45.0817C760.332 44.7844 759.508 44.4942 758.864 44.2149L759.416 42.0242L771.754 42.7686L772.04 45.0098C771.546 45.2205 770.443 45.5747 768.726 46.1323C768.309 47.0689 768.021 48.8548 767.869 51.3702L767.714 53.9455C767.591 55.9818 767.482 57.7786 767.508 59.343C763.102 60.64 758.983 61.1729 755.03 60.9344C751.137 60.6995 747.83 59.7186 745.113 57.9317Z" fill="#1A1417"/>
      <path d="M797.287 23.6314C800.821 23.8446 803.888 24.8111 806.556 26.4147C809.221 28.0782 811.191 30.3008 812.585 33.0899C813.916 35.9352 814.503 39.1564 814.287 42.7499C813.918 48.8588 812.128 53.6196 808.973 57.0959C805.758 60.5686 801.615 62.4826 796.548 62.778L779 61.7193L778.689 59.8973C779.06 59.7393 779.673 59.5359 780.593 59.2307C781.206 59.0273 781.696 58.8765 781.943 58.7712C782.433 58.6204 782.765 58.0995 783.002 57.1521C783.251 56.025 783.468 54.4151 783.598 52.259L784.823 31.956C785.022 28.6619 784.902 26.6711 784.582 25.9906C782.575 25.3886 781.282 24.8899 780.645 24.4908L781.176 22.6595L797.287 23.6314ZM803.006 58.3589C804.643 57.1352 806.147 55.1221 807.631 52.4466C809.114 49.7711 809.95 46.8762 810.142 43.702C810.337 40.4679 809.855 37.4935 808.813 34.8459C807.767 32.2582 806.093 30.1135 803.844 28.5352C801.595 26.9569 798.883 26.072 795.709 25.8805C794.93 25.8335 793.908 25.832 792.643 25.8759C791.379 25.9198 790.237 25.911 789.271 25.973C788.858 26.8497 788.595 28.2163 788.487 30.0131L787.128 52.5321C787.005 54.5684 786.935 56.7281 787.045 58.8986C788.39 59.5208 790.411 59.8832 793.107 60.0458C796.94 60.277 800.217 59.7534 803.006 58.3589Z" fill="#1A1417"/>
      <path d="M1167.72 194.899C1167.52 194.257 1167.52 193.595 1167.71 192.912C1167.9 192.229 1168.28 191.602 1168.84 190.994C1169.39 190.398 1170.05 189.951 1170.83 189.69C1171.61 189.43 1172.4 189.347 1173.18 189.481C1173.95 189.603 1174.61 189.92 1175.17 190.432C1175.72 190.945 1176.1 191.541 1176.29 192.183C1176.49 192.825 1176.49 193.487 1176.3 194.17C1176.11 194.853 1175.74 195.492 1175.19 196.087C1174.63 196.696 1173.96 197.131 1173.18 197.391C1172.4 197.652 1171.63 197.722 1170.86 197.6C1170.07 197.466 1169.41 197.149 1168.87 196.648C1168.3 196.124 1167.91 195.541 1167.72 194.899ZM1171.17 196.836C1171.75 196.902 1172.3 196.803 1172.88 196.55C1173.43 196.299 1173.92 195.947 1174.36 195.471C1175.03 194.743 1175.4 193.977 1175.44 193.185C1175.49 192.394 1175.15 191.669 1174.41 190.985C1173.93 190.546 1173.4 190.3 1172.83 190.234C1172.24 190.181 1171.68 190.28 1171.13 190.532C1170.58 190.783 1170.1 191.147 1169.67 191.61C1168.99 192.351 1168.62 193.092 1168.58 193.883C1168.52 194.662 1168.86 195.388 1169.6 196.071C1170.07 196.511 1170.59 196.77 1171.17 196.836Z" fill="#1A1417"/>
      <path d="M1175 201.62C1174.81 200.979 1174.81 200.316 1175 199.633C1175.19 198.951 1175.57 198.324 1176.13 197.715C1176.68 197.12 1177.34 196.673 1178.12 196.412C1178.9 196.151 1179.68 196.069 1180.47 196.203C1181.24 196.324 1181.9 196.641 1182.45 197.154C1183.01 197.667 1183.39 198.263 1183.58 198.905C1183.77 199.546 1183.77 200.209 1183.59 200.892C1183.4 201.574 1183.03 202.213 1182.48 202.809C1181.92 203.417 1181.25 203.852 1180.47 204.113C1179.69 204.374 1178.91 204.443 1178.14 204.321C1177.36 204.187 1176.7 203.87 1176.16 203.37C1175.59 202.845 1175.2 202.262 1175 201.62ZM1178.46 203.557C1179.03 203.623 1179.59 203.524 1180.17 203.272C1180.72 203.02 1181.21 202.669 1181.65 202.193C1182.32 201.465 1182.69 200.699 1182.73 199.907C1182.77 199.116 1182.44 198.39 1181.7 197.707C1181.22 197.267 1180.69 197.021 1180.11 196.956C1179.53 196.903 1178.97 197.002 1178.42 197.253C1177.87 197.505 1177.39 197.868 1176.96 198.331C1176.28 199.072 1175.91 199.813 1175.87 200.605C1175.81 201.384 1176.14 202.109 1176.89 202.793C1177.36 203.232 1177.88 203.491 1178.46 203.557Z" fill="#1A1417"/>
      <path d="M1185.79 201.551C1186.65 201.86 1187.3 202.114 1187.72 202.301C1188.13 202.489 1188.52 202.753 1188.87 203.07C1189.44 203.595 1189.77 204.168 1189.85 204.763C1189.93 205.371 1189.72 205.965 1189.2 206.534C1188.55 207.236 1187.69 207.64 1186.61 207.773C1185.53 207.905 1184.1 207.836 1182.29 207.578L1182.24 207.733L1185.75 210.623L1185.06 211.313L1180.75 207.334L1181.01 206.649C1181.1 206.658 1181.22 206.666 1181.35 206.686C1181.47 206.706 1181.61 206.713 1181.79 206.732C1183.02 206.886 1184.01 206.961 1184.73 206.995C1185.46 207.029 1186.16 206.963 1186.79 206.81C1187.42 206.657 1187.97 206.355 1188.38 205.905C1188.71 205.548 1188.86 205.172 1188.85 204.791C1188.82 204.397 1188.63 204.023 1188.26 203.681C1188.06 203.498 1187.81 203.342 1187.51 203.214C1187.2 203.074 1186.68 202.891 1185.97 202.652C1185.87 202.605 1185.75 202.572 1185.67 202.55C1185.58 202.515 1185.51 202.493 1185.44 202.457L1185.79 201.551Z" fill="#1A1417"/>
      <path d="M1183.14 1240.29C1180.4 1242.53 1177.49 1243.89 1174.44 1244.52C1171.35 1245.11 1168.4 1244.81 1165.48 1243.7C1162.57 1242.51 1159.96 1240.54 1157.68 1237.75C1153.81 1233.01 1151.9 1228.3 1151.87 1223.6C1151.88 1218.87 1153.63 1214.65 1157.15 1211L1170.77 1199.89L1172.24 1201.02C1172.07 1201.38 1171.76 1201.95 1171.29 1202.8C1170.97 1203.36 1170.72 1203.81 1170.61 1204.05C1170.35 1204.49 1170.46 1205.1 1170.92 1205.96C1171.51 1206.96 1172.44 1208.29 1173.8 1209.96L1186.66 1225.72C1188.75 1228.28 1190.19 1229.66 1190.88 1229.94C1192.77 1229.02 1194.06 1228.51 1194.79 1228.38L1195.64 1230.08L1183.14 1240.29ZM1155.4 1218.63C1155.02 1220.64 1155.28 1223.14 1156.01 1226.11C1156.73 1229.08 1158.07 1231.78 1160.09 1234.24C1162.13 1236.75 1164.5 1238.61 1167.07 1239.85C1169.59 1241.05 1172.27 1241.49 1175 1241.13C1177.72 1240.76 1180.31 1239.57 1182.78 1237.56C1183.38 1237.07 1184.13 1236.38 1185.03 1235.49C1185.93 1234.6 1186.78 1233.83 1187.45 1233.13C1187.16 1232.21 1186.42 1231.02 1185.29 1229.63L1171.02 1212.15C1169.73 1210.57 1168.32 1208.94 1166.77 1207.41C1165.36 1207.87 1163.63 1208.97 1161.53 1210.68C1158.56 1213.11 1156.5 1215.71 1155.4 1218.63Z" fill="#1A1417"/>
      <path d="M1124.39 1248.51C1121.97 1247.07 1120.27 1246.21 1119.1 1245.92C1117.38 1246.56 1116.27 1246.92 1115.88 1247L1115.12 1245.31L1123.67 1238.33L1124.99 1239.57C1124.79 1239.89 1124.43 1240.49 1123.93 1241.21C1123.43 1241.93 1123.03 1242.57 1122.64 1243.04C1124.05 1244.21 1127.21 1246.28 1132.25 1249.22L1144.33 1239.35L1143.67 1237.49L1143.07 1235.81C1141.89 1232.28 1140.93 1229.97 1140.25 1228.75C1138.79 1229.62 1137.32 1230.28 1135.78 1230.77L1134.97 1229.11L1143.29 1222.32L1144.83 1223.46C1144.64 1224.08 1144.13 1224.96 1143.37 1226.12C1143.07 1226.52 1143.22 1227.56 1143.82 1229.24L1153.49 1257.98C1154.16 1259.84 1154.86 1261.27 1155.66 1262.25L1153.6 1265.32L1124.39 1248.51ZM1151.6 1260.22L1145.23 1241.87L1134.63 1250.52L1151.6 1260.22Z" fill="#1A1417"/>
      <path d="M254.138 1235.47C254.321 1236.11 254.314 1236.78 254.116 1237.46C253.918 1238.14 253.527 1238.76 252.958 1239.36C252.401 1239.95 251.738 1240.39 250.956 1240.64C250.173 1240.89 249.385 1240.96 248.605 1240.81C247.837 1240.68 247.179 1240.36 246.63 1239.84C246.081 1239.32 245.708 1238.72 245.525 1238.07C245.342 1237.43 245.35 1236.77 245.548 1236.08C245.746 1235.4 246.123 1234.77 246.68 1234.18C247.249 1233.58 247.925 1233.16 248.708 1232.9C249.49 1232.65 250.266 1232.6 251.033 1232.73C251.814 1232.87 252.472 1233.2 253.008 1233.7C253.57 1234.24 253.955 1234.82 254.138 1235.47ZM250.71 1233.49C250.135 1233.41 249.577 1233.51 248.998 1233.75C248.445 1233.99 247.945 1234.34 247.499 1234.81C246.818 1235.53 246.444 1236.29 246.39 1237.08C246.335 1237.87 246.66 1238.6 247.392 1239.29C247.863 1239.74 248.392 1239.99 248.966 1240.07C249.554 1240.13 250.112 1240.04 250.665 1239.79C251.219 1239.55 251.706 1239.19 252.139 1238.73C252.832 1238 253.207 1237.26 253.261 1236.47C253.329 1235.69 253.004 1234.97 252.272 1234.27C251.801 1233.83 251.285 1233.56 250.71 1233.49Z" fill="#1A1417"/>
      <path d="M240.65 1234.27L242.695 1232.22L245.356 1229.41C245.48 1229.28 245.912 1228.79 246.64 1227.95L247.424 1228.69C246.631 1229.48 246.159 1229.92 246.035 1230.05L242.533 1233.75C242.496 1233.79 242.484 1233.83 242.485 1233.88C242.499 1233.92 242.539 1233.98 242.605 1234.07L243.75 1235.45L243.54 1235.67L240.65 1234.27Z" fill="#1A1417"/>
      <path d="M243.264 1225.17C243.447 1225.82 243.439 1226.48 243.241 1227.16C243.044 1227.84 242.653 1228.46 242.084 1229.06C241.527 1229.65 240.864 1230.09 240.081 1230.34C239.299 1230.59 238.511 1230.66 237.731 1230.52C236.963 1230.38 236.305 1230.06 235.756 1229.54C235.207 1229.02 234.834 1228.42 234.651 1227.77C234.468 1227.13 234.475 1226.47 234.673 1225.79C234.871 1225.11 235.249 1224.47 235.806 1223.88C236.375 1223.28 237.051 1222.86 237.834 1222.61C238.616 1222.36 239.391 1222.3 240.159 1222.43C240.939 1222.57 241.598 1222.9 242.133 1223.41C242.695 1223.94 243.081 1224.53 243.264 1225.17ZM239.836 1223.19C239.261 1223.12 238.703 1223.21 238.124 1223.45C237.57 1223.7 237.07 1224.04 236.625 1224.51C235.944 1225.23 235.57 1225.99 235.515 1226.78C235.46 1227.57 235.786 1228.3 236.518 1229C236.988 1229.44 237.517 1229.69 238.092 1229.77C238.68 1229.83 239.237 1229.74 239.791 1229.49C240.344 1229.25 240.831 1228.89 241.264 1228.43C241.958 1227.7 242.332 1226.97 242.387 1226.18C242.455 1225.4 242.13 1224.67 241.398 1223.97C240.927 1223.53 240.411 1223.26 239.836 1223.19Z" fill="#1A1417"/>
      <path d="M1203.62 265.839C1203.86 265.945 1204.52 266.255 1205.42 266.755C1205.99 267.058 1206.43 267.308 1206.68 267.413C1207.13 267.663 1207.73 267.543 1208.58 267.06C1209.57 266.461 1210.93 265.467 1212.62 264.033L1228.01 251.006C1230.57 248.835 1231.93 247.372 1232.2 246.671C1231.32 244.98 1230.79 243.701 1230.56 242.789L1232.26 241.907L1241.29 252.577C1243.38 255.049 1244.68 257.413 1245.22 259.629C1245.58 261.362 1245.53 262.976 1245.06 264.639C1244.54 266.257 1243.57 267.709 1242.01 269.027C1240.22 270.539 1238.31 271.529 1236.32 271.96C1234.32 272.39 1232.32 272.352 1230.41 271.768C1228.08 271.149 1226.06 269.874 1224.34 268.028C1223.02 266.471 1221.65 264.569 1220.18 262.276L1213.72 267.742C1212.16 269.061 1210.83 270.269 1209.75 271.415C1210.86 272.997 1211.89 274.871 1212.78 277.03L1211.36 277.763L1202.52 267.323L1203.62 265.839ZM1230.6 269.485C1233.5 270.023 1236.34 269.11 1239.13 266.745C1241.33 264.884 1242.31 262.878 1242.11 260.691C1241.9 258.503 1240.9 256.29 1239 254.047C1237.13 251.849 1235.87 250.637 1235.22 250.242C1234.4 250.472 1232.72 251.653 1230.2 253.785L1222.37 260.415C1222.97 261.954 1224.14 263.712 1225.81 265.681C1227.44 267.604 1229.03 268.929 1230.6 269.485Z" fill="#1A1417"/>
      <path d="M1224.74 290.792C1224.99 290.898 1225.65 291.208 1226.54 291.708C1227.11 292.01 1227.56 292.26 1227.81 292.366C1228.25 292.616 1228.86 292.496 1229.71 292.013C1230.7 291.414 1232.06 290.42 1233.75 288.985L1249.14 275.958C1251.7 273.787 1253.06 272.325 1253.33 271.623C1252.45 269.933 1251.91 268.654 1251.69 267.741L1253.38 266.86L1262.42 277.529C1264.51 280.002 1265.8 282.366 1266.34 284.582C1266.71 286.315 1266.66 287.929 1266.18 289.592C1265.66 291.209 1264.69 292.661 1263.14 293.979C1261.35 295.492 1259.44 296.482 1257.44 296.913C1255.45 297.343 1253.45 297.305 1251.54 296.721C1249.21 296.101 1247.19 294.826 1245.47 292.981C1244.15 291.424 1242.77 289.522 1241.3 287.228L1234.85 292.695C1233.29 294.013 1231.95 295.222 1230.88 296.368C1231.98 297.949 1233.02 299.823 1233.91 301.983L1232.48 302.716L1223.64 292.276L1224.74 290.792ZM1251.73 294.437C1254.62 294.976 1257.47 294.062 1260.26 291.697C1262.46 289.836 1263.43 287.831 1263.23 285.643C1263.03 283.455 1262.02 281.243 1260.12 278.999C1258.26 276.801 1257 275.59 1256.35 275.195C1255.52 275.424 1253.85 276.605 1251.33 278.738L1243.5 285.367C1244.1 286.907 1245.27 288.665 1246.94 290.634C1248.57 292.557 1250.16 293.881 1251.73 294.437Z" fill="#1A1417"/>
      <path d="M1378.59 511.347C1378.74 510.694 1379.06 510.116 1379.56 509.613C1380.06 509.11 1380.7 508.751 1381.49 508.495C1382.26 508.245 1383.05 508.177 1383.86 508.331C1384.67 508.485 1385.39 508.798 1386.01 509.298C1386.62 509.781 1387.04 510.382 1387.28 511.101C1387.51 511.82 1387.55 512.526 1387.4 513.18C1387.25 513.833 1386.93 514.411 1386.43 514.914C1385.93 515.417 1385.3 515.793 1384.53 516.043C1383.74 516.299 1382.94 516.35 1382.14 516.196C1381.33 516.042 1380.62 515.723 1380.01 515.24C1379.39 514.74 1378.97 514.139 1378.74 513.438C1378.5 512.701 1378.45 512.001 1378.59 511.347ZM1380.66 514.727C1381.13 515.067 1381.66 515.253 1382.28 515.315C1382.89 515.365 1383.49 515.301 1384.11 515.101C1385.05 514.795 1385.74 514.305 1386.17 513.637C1386.59 512.968 1386.66 512.172 1386.35 511.213C1386.15 510.597 1385.8 510.122 1385.33 509.782C1384.85 509.449 1384.31 509.262 1383.71 509.212C1383.11 509.162 1382.51 509.243 1381.91 509.437C1380.95 509.749 1380.27 510.216 1379.84 510.884C1379.41 511.536 1379.35 512.332 1379.66 513.291C1379.86 513.907 1380.19 514.388 1380.66 514.727Z" fill="#1A1417"/>
      <path d="M1381.66 520.776C1381.8 520.123 1382.13 519.545 1382.63 519.042C1383.12 518.539 1383.76 518.18 1384.55 517.924C1385.32 517.674 1386.11 517.606 1386.92 517.76C1387.73 517.914 1388.45 518.227 1389.07 518.727C1389.68 519.21 1390.1 519.811 1390.34 520.53C1390.57 521.249 1390.61 521.955 1390.46 522.609C1390.32 523.262 1389.99 523.84 1389.49 524.343C1389 524.846 1388.36 525.222 1387.59 525.473C1386.8 525.728 1386.01 525.779 1385.2 525.625C1384.39 525.471 1383.68 525.152 1383.07 524.669C1382.45 524.169 1382.03 523.568 1381.8 522.867C1381.57 522.13 1381.51 521.43 1381.66 520.776ZM1383.72 524.156C1384.19 524.496 1384.72 524.682 1385.35 524.744C1385.95 524.794 1386.55 524.73 1387.17 524.53C1388.11 524.224 1388.81 523.734 1389.23 523.066C1389.66 522.397 1389.72 521.601 1389.41 520.642C1389.21 520.026 1388.87 519.551 1388.4 519.212C1387.91 518.878 1387.38 518.691 1386.77 518.641C1386.17 518.591 1385.57 518.672 1384.97 518.866C1384.01 519.178 1383.33 519.645 1382.91 520.314C1382.47 520.965 1382.41 521.761 1382.72 522.72C1382.92 523.336 1383.25 523.817 1383.72 524.156Z" fill="#1A1417"/>
      <path d="M1385.86 534.711L1385.33 533.067L1384.33 533.39C1384.16 533.445 1383.55 533.663 1382.51 534.059L1381.96 533.121C1383.03 532.81 1383.66 532.644 1383.83 532.589L1385.04 532.194L1383.63 527.846L1384.06 527.251L1390.81 528.521C1390.86 528.544 1391.19 528.57 1391.8 528.637L1393.66 528.845L1393.49 529.942L1384.69 528.258L1384.58 528.371L1385.81 531.944L1386.77 531.632C1386.94 531.577 1387.62 531.32 1388.8 530.897L1389.37 531.829C1387.8 532.283 1386.87 532.567 1386.59 532.656L1386.11 532.811L1386.68 534.444L1385.86 534.711Z" fill="#1A1417"/>
</svg>
