<svg width="195" height="192" viewBox="0 0 195 192" fill="none" xmlns="http://www.w3.org/2000/svg">
<path d="M100.326 0.5C117.615 0.5 133.009 4.31212 147.235 11.5684L148.608 12.2812L148.615 12.2852L148.623 12.2891C162.382 20.1609 173.482 30.7073 181.547 43.9268L182.318 45.2148L182.321 45.2207L183.07 46.5596C190.692 60.4437 194.5 75.8614 194.5 93.1699C194.5 111.847 190.039 128.914 181.512 143.55L181.51 143.553C172.584 158.582 160.812 170.371 145.387 178.905C129.964 187.439 113.324 191.5 94.6738 191.5C76.8409 191.5 60.6072 187.847 46.3916 180.122C31.7695 172.395 20.8009 161.413 12.6816 147.189C4.55524 133.358 0.500048 117.098 0.5 99.2344C0.5 80.5626 4.55525 63.897 13.4902 48.8516C22.0139 33.8188 33.7881 22.032 49.21 13.499C64.6282 4.9681 81.6696 0.500029 100.326 0.5ZM96.6924 16.0527C81.8372 16.0527 68.1995 19.6701 56.1699 26.8965C44.1329 34.1275 34.5023 44.1702 27.6797 56.2246L27.6777 56.2295C20.4596 68.6757 17.2471 82.3319 17.2471 96.8086C17.2471 112.504 20.4619 126.16 27.2764 138.2C34.0963 150.25 43.7194 159.883 55.7441 166.304C67.7727 172.727 81.8207 175.947 97.9033 175.947C112.364 175.947 126 172.73 138.022 165.508C150.061 158.276 159.691 148.636 166.916 136.584C173.736 124.534 177.35 110.874 177.35 96C177.35 80.3126 173.734 66.2501 166.916 54.2041C160.1 42.1615 150.478 32.9261 138.438 26.0947H138.437C126.402 19.6709 112.355 16.0527 96.6924 16.0527ZM94.6738 46.1807C105.627 46.1807 114.032 48.3108 119.708 52.6504C125.409 57.0089 128.282 63.5389 128.282 72.1494C128.282 79.5291 126.231 85.2839 122.949 90.2129L122.942 90.2246L122.934 90.2363C119.404 94.9482 115.474 98.9289 111.505 101.422L125.386 124.852L125.391 124.858C128.589 130.462 131.759 133.614 134.479 135.175C134.844 135.355 135.403 135.545 136.167 135.8C136.924 136.052 137.845 136.359 138.87 136.77C139.867 137.169 140.759 137.467 141.627 137.773C142.489 138.078 143.321 138.39 144.157 138.809L144.502 138.98L144.422 139.358L142.808 147.039L142.724 147.437H120.154L120.04 147.094C118.851 143.523 115.657 137.916 110.805 130.225V130.224L94.3994 104.583C91.2855 104.577 88.7334 104.478 86.7012 104.279C85.0237 104.115 83.6795 103.88 82.6572 103.571V120.255C82.6572 124.501 82.6567 127.932 82.707 130.604C82.7532 133.055 82.8431 134.841 83.0068 136.024C87.691 137.21 91.2738 138.408 93.3164 139.635L93.6289 139.823L93.5449 140.179L91.9307 147.051L91.8398 147.437H54.2559L54.2041 146.994L53.3965 140.122L53.3555 139.773L53.6699 139.617C54.5153 139.194 55.7659 138.776 58.1533 137.979C59.1633 137.575 60.1049 137.261 60.8848 136.968C61.6847 136.667 62.3466 136.381 62.9023 136.01L62.9287 135.992L62.9561 135.979C63.2138 135.849 63.455 135.566 63.75 135.024C64.0472 134.479 64.3165 133.84 64.7324 133.004C65.1113 131.85 65.4088 129.991 65.6084 127.442C65.8089 124.883 65.9102 121.663 65.9102 117.83V74.5742C65.9101 66.0918 65.1701 60.977 64.4229 58.4902C63.6947 58.4661 62.1569 58.3425 59.8125 57.6719C56.9916 56.8649 54.8522 56.0296 53.5391 54.7148L53.3594 54.5352L53.3994 54.2842L54.6104 46.6025L54.6777 46.1807H94.6738ZM95.0771 56.8828C91.855 56.8828 89.3509 56.9841 87.458 57.1836C85.6773 57.3713 84.4823 57.6448 83.7432 57.9746C83.4181 58.7315 83.1464 60.1135 82.958 62.1885C82.7581 64.3905 82.6572 67.3052 82.6572 70.9365V92.4287C85.3466 93.5047 88.7845 93.8828 92.6553 93.8828C95.6649 93.8828 98.1514 93.682 100.074 93.2871C102.013 92.8889 103.309 92.3076 104.011 91.6045L104.025 91.5898L104.041 91.5762C109.175 87.2268 111.939 81.3034 111.939 74.1699C111.939 68.6228 110.362 64.3087 107.642 61.1836C104.516 58.4553 100.605 56.8828 95.0771 56.8828Z" fill="white" stroke="#D7D9DA"/>
</svg>
