<svg width="1906" height="1906" viewBox="0 0 1906 1906" fill="none" xmlns="http://www.w3.org/2000/svg">
<path d="M153.723 1215.15C153.229 1214.63 151.949 1213.18 150.282 1211.02C149.201 1209.67 148.368 1208.59 147.874 1208.07C147.041 1206.99 145.43 1206.65 142.841 1206.94C139.794 1207.37 135.416 1208.37 129.756 1210.11L78.351 1225.84C70.0895 1228.37 65.0752 1230.58 63.5204 1232.06C63.9015 1237.13 63.861 1240.82 63.4458 1243.29L58.3752 1243.67L49.0542 1213.23L53.5159 1210.86C54.4089 1211.59 55.5361 1213.08 56.8038 1215.04C58.0715 1216.99 59.0925 1218.69 59.8201 1219.97C62.5958 1220.29 67.632 1219.25 74.9756 1217L129.899 1200.19C134.795 1198.69 139.491 1197.09 143.893 1195.07C143.824 1193.75 143.674 1191.62 143.537 1188.99C143.552 1186.3 143.556 1184.13 143.793 1182.72L148.664 1182.23L157.985 1212.67L153.723 1215.15Z" fill="#1A1417"/>
<path d="M70.0306 1169.65L72.417 1166.07L78.5986 1165.98L76.2468 1162.37C69.8496 1153.21 66.2436 1147.4 65.4602 1145.11C64.0199 1137.89 66.0622 1131.77 71.4615 1126.94C69.1723 1123.65 66.3814 1119.47 63.1202 1114.58C60.0159 1109.65 58.0405 1106.29 57.2884 1104.16C55.9107 1097.25 56.7291 1091.54 59.7747 1087.18C62.8204 1082.82 67.7795 1079.87 74.6834 1078.5L99.7884 1073.49C105.751 1072.3 111.054 1071.08 115.668 1069.67C115.574 1068.38 115.638 1066.25 115.764 1063.61C115.891 1060.97 116.3 1058.94 116.646 1057.4L121.133 1057.81L127.207 1088.25L123.472 1089.97C122.437 1088.87 121.308 1087.3 120.242 1085.23C119.207 1083.32 118.486 1082.16 118.235 1081.72C117.451 1081.06 116.228 1080.65 114.596 1080.65C112.274 1080.46 107.787 1080.87 101.51 1082.12L77.3468 1086.94C74.5225 1087.5 72.2629 1088.44 70.5365 1089.6C68.8415 1090.92 67.3973 1092.68 66.5178 1094.81C65.4497 1097.63 65.4795 1101.05 66.6074 1105.07C67.6734 1107.14 71.1537 1113.14 77.2368 1123.18C78.7432 1122.55 81.2224 1121.9 84.6744 1121.21L108.367 1116.48C115.271 1115.1 120.575 1113.88 124.372 1112.47C124.247 1111.03 124.311 1108.89 124.406 1106.1C124.502 1103.31 124.879 1101.11 125.382 1099.54L129.524 1099.86L135.723 1130.93L131.988 1132.65C131.141 1131.68 130.044 1130.26 128.978 1128.19C127.943 1126.28 127.191 1124.96 126.752 1124.4C125.622 1123.64 124.085 1123.3 122.077 1123.04C120.131 1123.11 115.989 1123.61 110.027 1124.8L85.8631 1129.62C80.2144 1130.74 76.6675 1133.41 75.034 1137.49C74.0602 1139.97 73.9961 1142.92 74.8105 1146.18C75.4061 1147.53 76.9111 1150.17 79.1686 1154.12C81.4262 1158.08 83.6211 1161.72 85.5651 1164.92L117.26 1158.59C123.85 1157.28 128.997 1156.09 132.794 1154.68C132.67 1153.24 132.733 1151.1 132.829 1148.31C132.924 1145.52 133.301 1143.32 133.836 1141.91L137.946 1142.07L144.02 1172.51L140.348 1174.54C139.47 1173.41 137.651 1170.84 135.205 1166.76C134.233 1165.98 132.695 1165.63 130.405 1165.6C128.459 1165.66 124.474 1166.13 118.512 1167.32L96.7016 1171.67C90.4253 1172.92 85.5925 1174.05 82.3601 1175.02C82.7358 1176.9 82.829 1179.01 82.7966 1181.3C82.7642 1183.59 82.6379 1185.41 82.3864 1186.6L77.8677 1186.85L70.0306 1169.65Z" fill="#1A1417"/>
<path d="M68.6721 1011.36L94.1688 1009.06C101.977 1008.36 107.352 1007.39 110.106 1005.86L109.23 996.138L112.519 995.199C113.966 996.996 115.456 999.272 116.844 1002.2C118.406 1005.27 119.476 1008.23 120.213 1011.05C118.705 1012.15 115.633 1013.71 110.648 1015.45L112.529 1018.49C118.678 1027.9 121.947 1033.87 122.481 1036.23C123.056 1042.6 121.589 1047.72 117.892 1051.26C115.413 1054.06 111.848 1055.5 107.068 1055.93C104.359 1056.18 101.592 1055.78 98.9275 1054.74C96.263 1053.69 94.0191 1051.97 92.3838 1049.87C90.5763 1045.85 86.6008 1035.61 80.2693 1018.83L67.2022 1020.01C63.059 1020.38 60.3055 1021.91 58.5943 1024.32C57.0424 1026.7 56.3592 1029.82 56.6751 1033.32C57.0628 1037.63 58.5516 1041.67 61.156 1045.61C63.4731 1046.37 66.7033 1046.56 70.8752 1046.5C71.5988 1047.4 72.2061 1048.79 72.8421 1050.5C73.4781 1052.21 73.9117 1053.46 73.9979 1054.42L71.678 1057.19C66.2025 1057.05 62.1181 1056.29 59.2511 1054.78C57.3847 1051.9 55.2728 1048.07 52.7704 1043.48C50.4274 1038.87 48.996 1035.46 48.4906 1033.42C47.2843 1020.03 54.0115 1012.68 68.6721 1011.36ZM86.6434 1018.25C92.4408 1032.67 96.1421 1041.66 97.7329 1045.05C99.7313 1045.83 102.165 1046.09 105.033 1045.83C108.22 1045.55 110.553 1044.69 112.322 1042.93C114.09 1041.16 114.672 1038.7 114.356 1035.2C113.893 1033.63 112.679 1030.85 110.741 1027.17C108.802 1023.49 106.719 1019.98 104.81 1016.62L86.6434 1018.25Z" fill="#1A1417"/>
<path d="M148.341 987.813C144.587 993.946 137.59 997.085 127.671 997.224C123.119 992.168 119.701 988.056 117.414 984.728C115.735 990.512 112.256 993.441 106.817 993.518L98.0831 986.92L93.714 983.461C91.517 986.532 88.511 988.975 84.8562 990.786C81.3635 992.756 77.3752 993.612 73.2156 993.67C68.5761 993.736 64.2407 992.677 60.3696 990.491C56.4985 988.305 53.4137 985.148 50.8 981.345C47.5327 976.59 45.7009 971.495 44.9799 965.745C44.9529 963.825 45.2458 961.901 45.5365 959.816C45.9872 957.73 46.6024 955.961 47.2198 954.352L43.5449 932.002L47.0331 929.712C48.4797 930.172 49.6063 930.636 50.4153 931.265C51.3842 931.891 52.1976 932.84 53.1733 933.946L52.7157 946.914C57.1345 942.532 62.7024 940.213 69.4217 940.118C74.5412 940.046 79.0388 941.263 83.2299 943.444C87.4232 945.786 90.8279 948.938 93.4417 952.742C96.7134 957.816 98.3853 962.913 98.4619 968.353C98.4889 970.272 98.3514 971.875 98.0495 973.159C97.7497 974.603 97.2946 976.37 96.6839 978.459C99.9286 981.613 102.669 983.015 104.908 982.983C106.668 982.959 107.941 982.461 108.725 981.329C109.51 980.198 109.965 978.432 110.091 976.03C110.377 973.625 110.325 969.946 110.258 965.146L110.166 958.587C109.891 939.069 115.671 929.067 127.35 928.902C135.029 928.794 141.158 932.228 145.414 939.049C149.671 945.87 152.498 953.511 153.735 961.814C153.893 973.013 152.095 981.679 148.341 987.813ZM89.8746 960.793C89.3677 958.88 88.703 957.129 87.7228 955.702C86.0959 953.805 83.8337 952.237 80.9359 950.997C78.0382 949.758 74.8295 949.163 71.1499 949.215C65.5504 949.294 61.0911 950.797 57.932 953.721C54.7728 956.646 53.076 961.151 53.1593 967.07C53.1863 968.99 53.5333 970.905 54.0425 972.978C54.554 975.211 55.2165 976.802 55.8744 978.073C57.5013 979.97 59.9236 981.536 62.8213 982.776C65.879 984.013 69.0877 984.608 72.2874 984.563C77.7268 984.486 82.1839 982.823 85.6585 979.574C89.1331 976.325 90.6722 971.983 90.5956 966.543C90.5709 964.783 90.3839 962.866 89.8746 960.793ZM134.547 940.002C133.258 939.38 131.811 938.92 129.891 938.947C126.372 938.997 123.825 939.993 122.253 941.935C120.68 943.878 119.594 946.293 119.156 949.34C118.879 952.384 118.616 956.388 118.685 961.347L118.915 977.666C120.56 980.843 122.676 983.373 124.938 984.942C127.36 986.508 129.611 987.276 131.691 987.247C136.651 987.177 140.303 985.206 142.487 981.174C144.832 977.301 145.876 971.846 145.781 965.126C145.646 955.527 143.46 948.037 138.909 942.981C137.291 941.724 135.835 940.624 134.547 940.002Z" fill="#1A1417"/>
<path d="M114.399 915.988C110.912 920.584 106.545 923.844 100.959 926.067C95.5323 928.3 89.555 929.056 83.0072 928.656C76.6191 928.265 70.948 926.636 65.8439 923.599C60.7398 920.561 56.4927 916.615 53.1028 911.759C49.2827 906.075 47.0595 900.489 46.7528 895.02C47.2411 887.035 49.8676 880.784 54.6322 876.266C59.3969 871.748 65.6218 869.564 73.2973 869.873C75.8134 870.668 78.2905 872.102 80.5493 874.485L80.1188 918.22C89.0621 918.767 96.1964 917.44 101.691 914.089C107.176 910.898 110.083 905.305 110.552 897.639C110.952 891.091 108.837 883.749 104.205 875.611L109.651 873.058C111.971 877.047 114.403 881.845 116.636 887.271C119.029 892.707 120.212 896.948 120.017 900.142C119.646 906.21 117.876 911.552 114.399 915.988ZM73.5098 879.504C68.0702 879.332 63.6508 880.825 60.5808 883.843C57.5011 887.021 55.8196 890.926 55.5364 895.557C55.2629 900.029 56.1269 904.249 57.9881 907.89C59.947 909.933 62.5643 911.696 65.6607 913.489C68.757 915.281 71.8827 916.594 75.0572 917.109L73.5098 879.504Z" fill="#1A1417"/>
<path d="M58.7217 814.717L62.7485 812.345C64.6308 812.757 67.264 813.59 70.6693 814.687C74.2332 815.806 76.8454 816.798 78.3474 817.642C78.5174 818.795 78.4866 820.243 78.2342 822.147C73.4127 821.991 68.5703 821.995 63.7067 822.157C62.883 823.5 62.1757 825.182 61.4054 827.339C60.7936 829.517 60.2029 831.537 59.9504 833.441C59.2352 838.833 59.8195 842.946 61.5238 845.916C63.4498 848.431 65.7027 849.698 68.5577 850.077C71.8886 850.519 74.5736 849.745 76.4963 847.418C78.419 845.09 80.8483 841.377 83.488 836.078C85.6631 831.848 87.7541 828.251 89.5603 825.586C91.3665 822.92 93.744 820.814 96.7139 819.11C99.6627 817.564 103.299 816.917 107.423 817.464C114.244 818.369 119.162 821.442 122.02 826.663C124.879 831.884 125.803 838.302 124.814 845.756C123.952 852.259 121.799 858.753 118.019 865.353C116.729 865.343 113.535 865.081 108.756 864.609C103.977 864.136 100.487 863.673 98.2877 863.22C97.8216 861.867 97.7358 860.08 98.0303 857.86C105.812 857.601 110.718 857.121 112.906 856.443C114.068 854.983 115.113 853.185 116.084 850.732C117.055 848.278 117.551 845.761 117.908 843.065C118.581 837.989 118.135 834.056 116.589 831.108C115.901 830.209 114.875 829.428 113.352 828.741C111.988 828.076 110.602 827.57 109.175 827.38C106.32 827.002 103.677 827.458 101.563 828.792C99.4493 830.125 97.7904 831.681 96.3856 833.754C95.1394 835.848 93.4497 838.852 91.5173 842.47C89.5008 846.721 87.6315 849.863 86.026 852.232C84.4205 854.602 82.3812 856.591 79.7707 858.02C77.1601 859.449 74.0413 859.843 70.2346 859.338C64.2074 858.538 59.6691 855.031 56.3447 848.457C54.0577 843.796 52.7645 838.944 52.8033 833.784C53.9183 825.378 55.8911 819.022 58.7217 814.717Z" fill="#1A1417"/>
<path d="M62.7561 641.812L75.1405 613.35L80.0717 614.449C80.2755 615.584 80.3707 617.371 80.1277 619.533C79.8846 621.696 79.6226 623.501 79.1309 625.032C84.9613 626.871 92.2018 628.277 100.642 629.332L162.445 638.077L104.251 588.152L95.3904 587.263C94.7521 588.73 93.5459 590.299 91.8547 592.181C90.3103 594.126 89.0212 595.485 87.9875 596.256L83.9501 593.104L96.9091 563.321L101.84 564.42C102.044 565.555 101.993 567.278 101.558 569.88C101.123 572.483 100.734 574.582 100.325 576.323C107.584 578.086 114.953 579.198 122.723 579.788L185.171 585.847L136.499 546.522C128.406 539.859 122.378 535.666 118.691 533.713C116.234 537.355 113.803 540.136 111.48 542.266L107.187 539.7L118.614 513.438L123.819 514.307C123.877 515.379 123.825 517.102 123.582 519.264C123.339 521.427 123.141 523.086 122.777 524.323C123.65 525.925 125.175 527.635 127.267 529.243C129.505 530.915 130.634 531.93 130.928 532.058L187.987 578.173C188.446 578.722 189.492 579.526 191.061 580.732C192.566 582.085 194.052 583.08 195.392 584.012C196.731 584.944 198.198 585.582 199.959 586.348L197.857 597.997L118.107 589.994L165.05 630.486C167.601 632.643 169.483 634.334 171.116 635.393C172.685 636.599 174.675 637.64 177.169 638.725L174.875 650.814L90.8209 638.669C82.0875 637.486 76.3971 636.929 73.6857 637.146C73.175 638.319 72.0326 639.742 70.6797 641.247C69.263 642.899 67.891 644.047 66.7935 644.965L62.7561 641.812Z" fill="#1A1417"/>
<path d="M182.546 481.047C187.678 478.306 193.209 477.098 199.139 477.422C205.208 477.828 211.181 479.661 217.116 483.141C222.637 486.378 226.877 490.534 230.056 495.551C233.235 500.568 235.238 506.009 236.009 511.654C236.903 518.67 235.897 525.129 233.212 530.973C229.813 536.77 225.657 541.011 220.526 543.752C215.452 546.712 209.921 547.92 203.852 547.515C197.922 547.19 192.029 545.219 185.956 541.658C180.574 538.502 176.252 534.484 173.073 529.467C169.895 524.45 167.891 519.009 167.064 513.145C166.227 506.348 167.094 499.808 169.86 493.826C173.178 488.167 177.472 484.007 182.546 481.047ZM173.309 511.984C174.222 515.488 176.207 519.062 179.181 522.847C182.155 526.631 185.891 529.749 190.17 532.258C197.209 536.385 204.058 537.99 210.717 537.073C217.514 536.236 222.555 532.7 226.278 526.351C228.868 521.934 230.03 517.422 229.764 512.815C228.769 509.449 226.785 505.875 223.811 502.09C220.836 498.306 217.319 495.131 212.903 492.541C206.001 488.494 199.152 486.889 192.355 487.726C185.696 488.644 180.437 492.237 176.795 498.448C174.124 503.003 172.962 507.515 173.309 511.984Z" fill="#1A1417"/>
<path d="M248.169 495.297L248.965 487.895C248.846 486.651 248.109 485.178 246.44 483.65C245.432 482.573 243.805 481.267 241.691 479.823C239.578 478.378 236.762 476.26 233.063 473.732L219.061 464.162C213.777 460.551 209.46 457.794 206.373 456.072C205.29 457.657 203.852 459.194 202.192 460.772C200.531 462.351 199.142 463.533 198.114 464.187L194.331 461.214L201.238 443.453L205.553 442.527L213.417 449.452C212.507 436.039 212.461 428.45 213.148 426.594C215.676 422.895 218.99 420.315 223.18 418.721L227.072 419.831C227.942 421.394 228.631 423.222 228.875 425.133C229.161 427.267 229.232 428.865 228.996 430.061C227.127 430.527 225.209 431.348 223.201 432.301C221.234 433.477 219.713 434.569 218.81 435.89C218.088 436.947 217.755 438.851 217.861 441.249C218.008 443.869 218.114 446.266 218.309 448.532C218.547 451.02 218.707 452.486 218.833 453.153L246.045 471.752C250.007 474.46 253.268 476.495 256.007 477.591C257.174 476.451 259.056 474.831 261.3 472.682C263.544 470.533 265.246 469.177 266.497 468.482L269.257 471.531L252.013 496.761L248.169 495.297Z" fill="#1A1417"/>
<path d="M286.305 443.478C281.261 445.187 275.814 445.349 270.189 443.936C264.689 442.623 259.36 439.81 254.104 435.623C248.973 431.535 245.015 426.746 242.43 421.004C239.969 415.362 238.733 409.467 238.845 403.42C239.032 397.023 240.969 390.997 244.655 385.342C249.142 379.71 253.356 375.704 257.149 372.997L241.506 360.535C236.25 356.348 232.521 353.582 230.544 352.212C229.123 353.739 227.377 355.417 225.282 357.02C223.186 358.624 221.489 359.727 220.291 360.204L217.336 357.237L228.22 339.723L232.867 339.538C235.147 342.582 238.377 345.974 242.683 349.813C246.989 353.652 252.37 357.939 258.628 362.924L298.549 394.726C304.555 399.512 308.984 402.426 311.909 403.12L317.991 395.486L321.017 397.079C320.523 399.754 319.83 402.679 318.937 405.854C318.044 409.029 316.974 411.655 315.729 413.732C312.28 413.439 308.755 412.472 305.503 410.904C304.466 416.828 303.552 421.828 302.735 425.678C301.919 429.527 300.975 432.253 299.778 433.755C295.99 438.51 291.474 441.868 286.305 443.478ZM297.15 419.592C298.143 416.292 298.934 412.217 299.874 407.442L264.333 379.129C259.242 382.438 254.777 386.246 250.989 391.001C247.201 395.756 245.41 400.058 245.168 403.957C245.576 407.554 247.033 411.374 249.315 415.443C251.597 419.511 254.603 422.928 258.357 425.919C264.615 430.904 270.293 433.79 275.267 434.48C279.091 435.072 282.589 434.79 285.86 433.509C289.156 432.452 291.975 430.198 294.367 427.194C295.313 425.493 296.283 422.992 297.15 419.592Z" fill="#1A1417"/>
<path d="M305.754 320.694L310.409 321.095C311.705 322.521 313.368 324.726 315.508 327.594C317.764 330.57 319.318 332.893 320.053 334.452C319.523 335.489 318.659 336.652 317.35 338.057C313.511 335.136 309.562 332.333 305.505 329.646C304.055 330.264 302.504 331.224 300.626 332.536C298.865 333.957 297.213 335.261 295.905 336.666C292.197 340.646 290.29 344.337 289.958 347.745C290.07 350.911 291.172 353.249 293.279 355.212C295.737 357.502 298.374 358.428 301.29 357.645C304.205 356.862 308.337 355.244 313.559 352.455C317.783 350.268 321.571 348.549 324.588 347.423C327.605 346.297 330.762 345.959 334.17 346.291C337.469 346.74 340.808 348.32 343.852 351.155C348.886 355.845 351.114 361.2 350.418 367.112C349.722 373.023 346.756 378.789 341.63 384.291C337.159 389.091 331.642 393.136 324.736 396.324C323.69 395.568 321.24 393.504 317.619 390.349C313.997 387.195 311.422 384.795 309.892 383.152C310.296 381.779 311.261 380.273 312.788 378.634C319.28 382.932 323.556 385.384 325.732 386.1C327.525 385.583 329.419 384.724 331.633 383.287C333.846 381.85 335.708 380.086 337.562 378.095C341.052 374.349 342.967 370.885 343.416 367.586C343.376 366.455 342.992 365.224 342.149 363.782C341.422 362.449 340.587 361.233 339.533 360.252C337.426 358.289 335.007 357.129 332.512 356.991C330.016 356.853 327.763 357.16 325.417 358.035C323.188 359.02 320.07 360.489 316.399 362.317C312.291 364.614 308.948 366.091 306.266 367.091C303.584 368.092 300.77 368.531 297.814 368.183C294.858 367.835 292.089 366.348 289.279 363.731C284.83 359.587 283.164 354.099 284.264 346.814C285.102 341.69 286.859 336.986 289.881 332.804C295.661 326.599 300.952 322.562 305.754 320.694Z" fill="#1A1417"/>
<path d="M471.111 263.006C471.475 262.39 472.519 260.763 474.149 258.567C475.145 257.162 475.96 256.064 476.324 255.448C477.139 254.35 477.029 252.706 476.043 250.296C474.797 247.482 472.635 243.545 469.422 238.572L440.25 193.415C435.388 185.889 431.986 181.802 430.224 180.844C425.45 182.595 421.886 183.564 419.397 183.839L417.646 179.065L448.96 158.836C456.217 154.147 462.912 151.537 468.958 150.869C473.667 150.494 477.918 151.176 482.152 153.013C486.252 154.936 489.758 158.004 492.71 162.574C496.096 167.815 498.059 173.214 498.514 178.635C498.968 184.056 498.182 189.326 495.982 194.176C493.543 200.132 489.478 205.044 484.007 208.959C479.438 211.911 473.936 214.894 467.367 217.994L479.609 236.944C482.561 241.514 485.3 245.459 487.96 248.692C492.522 246.317 497.833 244.219 503.848 242.62L505.299 246.635L474.656 266.43L471.111 263.006ZM490.009 192.891C492.424 185.426 490.984 177.594 485.688 169.396C481.521 162.945 476.553 159.678 470.698 159.46C464.842 159.242 458.646 161.15 452.061 165.404C445.61 169.572 441.973 172.493 440.707 174.072C441.029 176.34 443.578 181.17 448.353 188.562L463.2 211.543C467.475 210.496 472.527 207.995 478.306 204.261C483.95 200.615 487.999 196.856 490.009 192.891Z" fill="#1A1417"/>
<path d="M535.867 223.36L539.977 217.152C540.443 215.993 540.466 214.346 539.686 212.222C539.286 210.802 538.442 208.894 537.229 206.64C536.017 204.385 534.49 201.209 532.368 197.264L524.335 182.327C521.303 176.69 518.737 172.257 516.788 169.309C515.097 170.218 513.113 170.921 510.913 171.56C508.713 172.198 506.936 172.609 505.722 172.717L503.73 168.338L518.03 155.742L522.288 156.903L526.087 166.669C531.446 154.339 534.895 147.579 536.359 146.247C540.304 144.125 544.433 143.357 548.887 143.869L551.833 146.644C551.887 148.433 551.658 150.372 550.996 152.182C550.269 154.208 549.597 155.659 548.838 156.613C546.963 156.167 544.883 156.015 542.661 155.938C540.374 156.078 538.521 156.348 537.112 157.106C535.985 157.712 534.814 159.25 533.805 161.428C532.731 163.822 531.722 166 530.854 168.102C529.921 170.42 529.389 171.796 529.194 172.446L544.806 201.474C547.08 205.701 549.04 209.008 550.968 211.241C552.528 210.765 554.945 210.192 557.926 209.315C560.906 208.439 563.041 208.017 564.472 207.975L565.521 211.952L538.607 226.428L535.867 223.36Z" fill="#1A1417"/>
<path d="M599.602 121.543C605.37 122.294 610.574 124.523 615.213 128.233C619.916 132.089 623.713 137.051 626.522 143.332C629.134 149.174 630.171 155.02 629.844 160.951C629.516 166.881 627.985 172.473 625.333 177.515C621.984 183.745 617.414 188.418 611.832 191.615C605.698 194.358 599.852 195.395 594.083 194.645C588.233 194.106 583.03 191.876 578.326 188.02C573.687 184.31 570.037 179.283 567.163 172.856C564.616 167.16 563.433 161.379 563.76 155.448C564.088 149.518 565.618 143.926 568.352 138.673C571.62 132.654 576.125 127.835 581.852 124.573C587.841 121.895 593.752 121.004 599.602 121.543ZM574.109 141.356C572.817 144.738 572.355 148.801 572.577 153.609C572.8 158.417 574.029 163.125 576.054 167.653C579.385 175.102 584.027 180.388 589.98 183.51C595.998 186.777 602.155 186.828 608.874 183.824C613.548 181.734 617.115 178.736 619.576 174.832C620.721 171.515 621.183 167.453 620.961 162.644C620.739 157.836 619.721 153.209 617.631 148.535C614.365 141.232 609.723 135.946 603.705 132.678C597.752 129.556 591.383 129.425 584.81 132.364C579.99 134.52 576.423 137.517 574.109 141.356Z" fill="#1A1417"/>
<path d="M657.108 168.005C651.925 166.781 647.22 164.031 643.199 159.852C639.23 155.824 636.203 150.615 633.964 144.279C631.78 138.093 630.961 131.934 631.812 125.695C632.715 119.606 634.791 113.952 638.091 108.883C641.64 103.557 646.476 99.4733 652.599 96.6316C659.388 94.2336 665.085 93.0694 669.736 92.7842L663.074 73.9261C660.836 67.5898 659.14 63.268 658.19 61.0584C656.175 61.6003 653.806 62.0979 651.179 62.3471C648.552 62.5963 646.528 62.6323 645.259 62.4019L644.326 58.3195L662.837 49.2354L666.876 51.5419C667.197 55.3315 668.139 59.9197 669.755 65.4574C671.372 70.9951 673.664 77.4823 676.328 85.0255L693.328 133.151C695.886 140.393 698.097 145.211 700.21 147.35L709.413 144.099L711.135 147.054C709.298 149.06 707.16 151.173 704.72 153.393C702.28 155.612 699.982 157.272 697.825 158.373C695.056 156.297 692.579 153.609 690.652 150.556C686.633 155.03 683.208 158.786 680.475 161.617C677.742 164.449 675.497 166.261 673.687 166.9C667.954 168.925 662.345 169.379 657.108 168.005ZM678.964 153.497C681.555 151.224 684.386 148.188 687.713 144.637L672.578 101.792C666.508 101.9 660.703 102.762 654.971 104.787C649.238 106.812 645.44 109.511 643.169 112.689C641.607 115.956 640.819 119.968 640.598 124.627C640.377 129.287 641.115 133.777 642.714 138.303C645.378 145.847 648.664 151.304 652.516 154.525C655.446 157.053 658.561 158.668 662.014 159.315C665.369 160.166 668.955 159.748 672.575 158.469C674.279 157.528 676.426 155.921 678.964 153.497Z" fill="#1A1417"/>
<path d="M716.623 80.2713C716.786 84.1904 718.47 92.181 721.443 103.972L726.332 123.365C727.74 128.95 729.105 132.401 730.506 134.028C732.918 137.051 736.761 137.897 741.881 136.606C742.967 136.332 743.898 136.097 744.634 135.747C747.078 134.966 752.969 131.5 762.503 125.466L753.898 91.3344C752.021 83.8874 750.692 79.2722 750.146 77.7598C745.529 78.4287 741.261 78.5148 737.496 77.979L736.633 73.2465L754.431 66.6141L759.133 69.5539C759.297 74.1327 760.825 81.5028 763.446 91.8975L768.491 111.911C769.587 116.255 770.447 119.669 771.15 121.801C771.892 124.089 772.827 125.834 773.993 127.19L783.612 124.765L785.211 128.487C783.662 130.197 781.493 132.064 778.547 134.127C775.447 136.229 772.85 137.708 770.601 138.605C768.463 136.669 766.363 134.229 764.339 131.439L760.464 134.396C757.442 136.808 754.381 139.065 751.281 141.166C748.22 143.423 745.933 144.825 744.692 145.138C736.314 147.25 729.793 146.254 724.973 142.189C722.952 140.718 721.55 138.431 720.497 135.562C719.483 132.847 718.35 129.008 717.137 124.198L711.465 101.702C709.627 94.4105 708.338 89.9504 707.791 88.4381C703.562 88.6793 699.759 88.6481 696.343 88.1892L695.519 83.6118L712.077 77.2923L716.623 80.2713Z" fill="#1A1417"/>
<path d="M800.925 127.853C795.837 125.642 791.664 122.138 788.378 117.183C784.961 112.412 782.855 106.768 781.717 100.144C780.688 94.1522 781.002 88.4164 782.762 82.5944C784.364 76.7996 787.232 71.7613 791.182 67.349C795.997 62.3011 801.399 58.7759 807.413 56.9312C816.402 55.3874 823.426 55.642 828.59 57.3526L830.578 60.4203C830.061 62.1326 829.2 63.7414 827.998 65.2467C826.822 66.9097 825.696 67.9148 824.62 68.2621C819.397 65.263 813.395 64.3457 806.614 65.5103C804.722 65.8353 802.911 66.6334 801.127 67.5892C799.343 68.5449 797.744 69.6313 796.617 70.6364C794.397 73.7776 792.812 77.7837 791.705 82.6817C790.626 87.7375 790.65 92.6036 791.462 97.3344C792.979 106.165 796.009 112.463 800.867 116.174C805.753 120.043 811.336 121.357 817.801 120.247C823.162 119.326 829.406 115.98 836.375 110.238L839.422 114.747C836.359 117.708 832.508 120.805 828.183 123.983C823.859 127.161 820.291 129.072 817.637 129.691C811.487 130.747 805.882 130.248 800.925 127.853Z" fill="#1A1417"/>
<path d="M850.079 34.9277L852.112 52.893L872.144 50.6251L873.497 55.4636L872.177 58.0284L852.94 60.2062L857.89 103.927C858.25 107.107 858.697 109.632 859.354 111.168C860.011 112.704 860.932 113.727 862.117 114.237C863.302 114.747 864.927 114.885 866.835 114.669C868.902 114.435 871.551 113.652 874.604 112.179C877.676 110.865 879.512 110.013 880.271 109.605L883.106 113.31C880.124 115.419 876.824 117.564 873.048 119.762C869.271 121.961 866.499 123.08 864.75 123.278C861.412 123.656 858.637 123.326 856.408 122.129C854.02 120.95 852.356 119.045 851.273 116.592C850.652 115.374 850.136 113.661 849.92 111.753C849.545 109.863 849.365 108.274 849.221 107.002L848.879 103.981L845.783 76.6357C844.883 68.6864 843.989 63.6349 843.401 61.2862L833.067 62.4561L831.114 58.0075L842.129 52.896C842.939 51.5161 843.623 49.0234 844.376 45.7177C844.97 42.43 845.423 39.3193 845.735 36.3856L850.079 34.9277Z" fill="#1A1417"/>
<path d="M928.226 48.573L931.293 52.0987C931.232 54.0244 930.894 56.7656 930.438 60.3141C929.989 64.0223 929.491 66.7718 928.935 68.4029C927.833 68.7805 926.404 69.015 924.486 69.1146C923.758 64.346 922.87 59.5856 921.822 54.8336C920.351 54.2691 918.568 53.8811 916.306 53.5179C914.053 53.3145 911.959 53.1028 910.041 53.2024C904.609 53.4846 900.672 54.8106 898.064 57.0289C895.943 59.382 895.109 61.8286 895.258 64.7047C895.432 68.0602 896.684 70.5587 899.323 72.0237C901.963 73.4888 906.057 75.1987 911.749 76.8257C916.306 78.1911 920.224 79.5898 923.175 80.8785C926.125 82.1672 928.63 84.1199 930.848 86.7283C932.907 89.3451 934.208 92.8022 934.424 96.9566C934.78 103.827 932.658 109.225 928.047 112.989C923.436 116.753 917.295 118.835 909.785 119.225C903.234 119.565 896.457 118.635 889.277 116.124C889.051 114.854 888.725 111.667 888.316 106.882C887.908 102.096 887.725 98.5811 887.769 96.3358C889.014 95.6302 890.755 95.2194 892.992 95.1032C894.668 102.706 896.036 107.442 897.102 109.469C898.75 110.345 900.709 111.044 903.299 111.551C905.888 112.057 908.453 112.084 911.17 111.943C916.283 111.677 920.068 110.52 922.685 108.461C923.442 107.621 924.023 106.469 924.419 104.846C924.824 103.383 925.069 101.929 924.994 100.49C924.845 97.6144 923.913 95.0993 922.216 93.2649C920.518 91.4305 918.686 90.0837 916.391 89.0814C914.104 88.2389 910.842 87.1266 906.932 85.8877C902.384 84.682 898.954 83.4182 896.331 82.2727C893.708 81.1272 891.379 79.4858 889.497 77.1803C887.615 74.8748 886.659 71.8804 886.459 68.0456C886.144 61.9738 888.763 56.8711 894.619 52.4013C898.784 49.3011 903.318 47.143 908.398 46.2383C916.866 45.7985 923.476 46.5767 928.226 48.573Z" fill="#1A1417"/>
<path d="M1147.81 31.7875C1150.86 32.8777 1154.78 34.4676 1159.59 36.5571L1163.34 40.7206C1162.96 42.6043 1162.03 45.6819 1160.72 49.8273C1159.23 54.0988 1157.92 57.4284 1156.58 60.0992C1154.92 60.2605 1153.16 60.0769 1151.34 59.3914C1151.55 57.4767 1151.7 55.0602 1152.01 51.8587C1152.15 48.6263 1152.21 45.8649 1152.39 43.2913C1150.35 42.073 1147.96 40.9497 1145.1 39.7335C1142.06 38.6434 1139.29 37.7721 1136.62 37.2458C1128.15 35.5739 1121.25 36.6591 1116.27 40.4064C1113.11 43.2075 1111.26 46.7582 1110.43 50.9966C1109.68 54.764 1110.04 57.9323 1111.61 60.6894C1113.16 63.6035 1115.3 65.9826 1118.13 68.1716C1120.96 70.3606 1124.73 72.7353 1129.57 75.4838C1135.35 79.2339 1140.1 82.4532 1143.65 85.111C1147.02 87.8947 1149.76 91.3705 1151.84 95.6952C1153.77 99.989 1154.22 105.134 1153.04 111.099C1151.9 116.907 1149.18 121.59 1145.02 125.335C1140.85 129.08 1136.25 131.759 1131.04 133.342C1125.84 134.925 1121.32 135.502 1117.33 135.042C1107.92 133.184 1097.58 129.352 1086.49 123.576C1086.49 121.945 1087.04 118.303 1087.81 112.747C1088.55 107.348 1089.26 102.922 1090.04 99.8133C1091.26 99.4021 1093.23 99.3027 1095.84 99.3272C1095.85 102.591 1095.95 106.199 1096.34 110.026C1096.54 113.979 1096.95 116.834 1097.4 118.715C1099.54 120.278 1102.49 121.839 1106.1 123.367C1109.71 124.895 1113.11 125.89 1116.56 126.572C1122.52 127.748 1128.01 127.2 1133.19 124.958C1137.23 121.841 1140.1 116.374 1141.58 108.839C1142.39 104.757 1141.94 101.244 1140.43 98.1731C1138.72 95.228 1136.61 92.692 1133.78 90.503C1130.95 88.314 1127.06 85.7513 1122.09 82.8149C1116.53 79.5977 1112.19 76.7852 1109.11 74.2203C1105.87 71.6245 1103.38 68.5246 1101.52 64.7327C1099.66 60.9409 1099.4 56.4858 1100.45 51.1486C1101.19 47.3812 1102.69 43.9256 1105.1 40.8127C1107.47 37.8568 1110.39 35.4956 1113.71 33.5413C1119.91 30.1987 1127.09 28.5165 1135.25 28.4948C1140.59 29.5475 1144.76 30.6974 1147.81 31.7875Z" fill="#1A1417"/>
<path d="M1169.66 142.463C1165.92 138.064 1163.69 133.095 1162.72 127.161C1161.72 121.38 1162.27 115.38 1164.08 109.074C1165.84 102.922 1168.66 97.7377 1172.73 93.4117C1176.8 89.0857 1181.57 85.7933 1187.05 83.5345C1193.42 81.0347 1199.36 80.073 1204.76 80.9569C1212.45 83.1615 1217.99 87.0784 1221.37 92.7077C1224.75 98.337 1225.53 104.887 1223.57 112.314C1222.25 114.598 1220.31 116.706 1217.5 118.396L1174.89 108.512C1172.43 117.125 1172.18 124.378 1174.26 130.467C1176.19 136.513 1181.02 140.561 1188.4 142.678C1194.71 144.485 1202.33 144.009 1211.28 141.248L1212.6 147.117C1208.2 148.519 1202.99 149.855 1197.21 150.861C1191.38 152.021 1186.99 152.259 1183.91 151.377C1178.07 149.701 1173.23 146.818 1169.66 142.463ZM1214.12 110.437C1215.47 105.164 1214.97 100.526 1212.68 96.8758C1210.25 93.1814 1206.8 90.6948 1202.34 89.4161C1198.03 88.1816 1193.73 88.1118 1189.77 89.1412C1187.35 90.6116 1185.06 92.7853 1182.64 95.4205C1180.22 98.0557 1178.26 100.823 1177.07 103.811L1214.12 110.437Z" fill="#1A1417"/>
<path d="M1216.96 155.354L1224.33 154.259C1225.5 153.831 1226.74 152.746 1227.8 150.746C1228.59 149.499 1229.44 147.596 1230.31 145.187C1231.17 142.777 1232.51 139.519 1234.03 135.303L1239.76 119.341C1241.93 113.318 1243.51 108.446 1244.4 105.025C1242.59 104.376 1240.74 103.371 1238.79 102.162C1236.85 100.953 1235.35 99.9063 1234.46 99.0759L1236.39 94.6667L1255.31 96.8765L1257.3 100.819L1252.58 110.174C1265.33 105.915 1272.66 103.959 1274.63 104.156C1278.85 105.671 1282.18 108.228 1284.78 111.881L1284.68 115.928C1283.39 117.163 1281.79 118.29 1280 119.008C1278.01 119.822 1276.48 120.293 1275.27 120.366C1274.34 118.675 1273.07 117.026 1271.64 115.322C1270.01 113.716 1268.57 112.518 1267.06 111.977C1265.86 111.544 1263.93 111.702 1261.63 112.408C1259.14 113.211 1256.84 113.917 1254.7 114.677C1252.35 115.534 1250.97 116.058 1250.36 116.348L1239.21 147.367C1237.59 151.884 1236.44 155.552 1236.07 158.479C1237.47 159.321 1239.51 160.735 1242.16 162.365C1244.8 163.995 1246.54 165.3 1247.53 166.336L1245.27 169.775L1216.51 159.443L1216.96 155.354Z" fill="#1A1417"/>
<path d="M1308.66 124.437C1305.74 124.726 1302.36 124.464 1298.75 123.926L1295.41 176.463L1332.73 138.86C1329.9 136.565 1327.57 134.317 1325.8 131.969L1328.22 128.839L1348.73 137.851L1348.21 141.817C1345.52 142.381 1343.02 142.505 1340.5 142.272C1339.02 142.847 1336.27 145.133 1332.03 149.212L1300.08 180.959C1298.98 181.874 1298.02 182.853 1297.21 183.896C1296.41 184.939 1295.81 185.9 1295.29 187.072C1294.91 187.95 1294.59 188.683 1294.48 189.333L1286.48 188.441L1289 138.166C1289.03 137.305 1289 135.372 1289.22 132.495C1289.43 129.619 1289.37 126.971 1289.4 124.534C1289.35 122.244 1289.05 120.539 1288.58 119.631C1286.75 117.43 1285.44 115.632 1284.79 113.945L1287.06 110.751L1309.48 120.6L1308.66 124.437Z" fill="#1A1417"/>
<path d="M1374.37 127.941C1373.81 126.933 1373.32 125.782 1373.05 124.562C1372.44 122.265 1372.53 120.334 1373.34 118.769C1373.7 118.058 1374.29 117.278 1375.29 116.718C1376.16 116.084 1377.24 115.74 1378.46 115.468C1380.76 114.852 1382.69 114.947 1384.25 115.753C1385.67 116.486 1386.8 118.146 1387.48 120.659C1388.09 123.314 1388.14 125.318 1387.41 126.74C1386.53 128.447 1384.73 129.499 1382.29 130.041C1379.77 130.726 1377.7 130.558 1376.28 129.825C1375.57 129.459 1374.93 128.95 1374.37 127.941ZM1324.05 199.389C1325.99 199.127 1329.06 199.45 1333.2 200.145C1333.63 200.007 1334.28 199.8 1335.15 199.167C1335.8 198.602 1336.52 197.895 1337.1 197.115C1338.71 194.702 1341.41 190.155 1344.86 183.47L1354.24 165.265L1359.96 153.456C1358.26 152.576 1356.55 151.339 1354.78 149.886C1352.94 148.576 1351.59 147.343 1350.67 146.33L1352.94 142.636L1370.56 146.858L1372.01 151.026C1369.47 154.216 1365.45 161.323 1359.81 172.274L1350.42 190.479C1347.2 196.737 1344.85 201.646 1343.59 205.495C1344.72 206.439 1346.35 207.818 1348.33 209.56C1350.31 211.302 1351.65 212.892 1352.5 214.047L1349.81 217.163L1323.07 203.385L1324.05 199.389Z" fill="#1A1417"/>
<path d="M1368.51 224.336C1366.05 219.367 1365.12 213.998 1365.8 208.091C1366.26 202.241 1368.29 196.568 1371.69 190.771C1374.76 185.526 1378.7 181.343 1383.8 178.026C1388.76 174.628 1394.2 172.625 1400.06 171.797C1407 171.042 1413.4 171.828 1419.19 174.294C1427.05 178.907 1432.26 183.629 1435.11 188.266L1434.65 191.892C1433.15 192.868 1431.45 193.544 1429.57 193.92C1427.59 194.433 1426.09 194.476 1425.04 194.047C1422.98 188.388 1418.98 183.818 1413.05 180.338C1411.39 179.367 1409.49 178.81 1407.51 178.391C1405.53 177.971 1403.61 177.771 1402.1 177.814C1398.38 178.785 1394.58 180.826 1390.58 183.857C1386.5 187.027 1383.38 190.763 1380.95 194.904C1376.42 202.633 1374.67 209.401 1376 215.37C1377.24 221.477 1380.66 226.08 1386.32 229.398C1391.01 232.15 1397.94 233.616 1406.97 233.717L1406.39 239.129C1402.14 239.419 1397.2 239.304 1391.85 238.946C1386.49 238.589 1382.53 237.751 1380.11 236.513C1374.72 233.356 1370.76 229.363 1368.51 224.336Z" fill="#1A1417"/>
<path d="M1415.93 253.426C1413.77 248.075 1413.21 242.655 1414.17 236.719C1415.03 230.915 1417.45 225.396 1421.15 219.98C1424.76 214.696 1429.07 210.663 1434.29 207.838C1439.52 205.014 1445.08 203.392 1450.99 202.972C1457.83 202.607 1463.76 203.563 1468.62 206.104C1475.22 210.618 1479.24 216.079 1480.68 222.486C1482.11 228.893 1480.79 235.357 1476.59 241.788C1474.62 243.54 1472.12 244.932 1468.91 245.649L1431.59 222.852C1426.53 230.249 1424.01 237.054 1424.07 243.49C1424 249.835 1427.31 255.199 1433.65 259.532C1439.07 263.234 1446.46 265.183 1455.82 265.38L1455.22 271.364C1450.6 271.311 1445.24 270.938 1439.43 270.073C1433.54 269.339 1429.29 268.18 1426.65 266.375C1421.63 262.944 1417.95 258.686 1415.93 253.426ZM1468.22 237.032C1471.15 232.45 1472.14 227.89 1471.12 223.707C1469.97 219.433 1467.48 215.988 1463.65 213.369C1459.95 210.841 1455.89 209.419 1451.81 209.15C1449.05 209.784 1446.19 211.127 1443.06 212.866C1439.94 214.605 1437.21 216.615 1435.14 219.076L1468.22 237.032Z" fill="#1A1417"/>
<path d="M1530.85 257.122L1530.83 261.795C1529.51 263.202 1527.45 265.038 1524.76 267.402C1521.98 269.892 1519.79 271.629 1518.3 272.487C1517.22 272.043 1515.99 271.276 1514.49 270.085C1517.09 266.022 1519.56 261.86 1521.91 257.598C1521.18 256.203 1520.09 254.735 1518.64 252.969C1517.08 251.329 1515.64 249.788 1514.14 248.597C1509.87 245.223 1506.04 243.621 1502.61 243.565C1499.47 243.933 1497.23 245.22 1495.44 247.479C1493.36 250.115 1492.65 252.818 1493.66 255.661C1494.68 258.504 1496.62 262.491 1499.83 267.47C1502.35 271.504 1504.37 275.14 1505.73 278.056C1507.1 280.972 1507.69 284.092 1507.64 287.516C1507.46 290.84 1506.15 294.296 1503.57 297.559C1499.31 302.956 1494.15 305.609 1488.2 305.394C1482.25 305.178 1476.26 302.688 1470.37 298.024C1465.22 293.956 1460.74 288.784 1457.01 282.158C1457.67 281.055 1459.53 278.445 1462.39 274.581C1465.24 270.716 1467.42 267.955 1468.93 266.297C1470.34 266.589 1471.91 267.43 1473.67 268.819C1469.91 275.637 1467.81 280.097 1467.28 282.324C1467.94 284.07 1468.95 285.888 1470.56 287.978C1472.17 290.068 1474.08 291.781 1476.21 293.468C1480.23 296.643 1483.84 298.272 1487.16 298.453C1488.28 298.321 1489.48 297.84 1490.85 296.882C1492.12 296.051 1493.26 295.119 1494.16 293.99C1495.94 291.731 1496.9 289.226 1496.84 286.728C1496.77 284.229 1496.29 282.008 1495.22 279.74C1494.06 277.598 1492.35 274.609 1490.23 271.098C1487.61 267.19 1485.86 263.977 1484.65 261.385C1483.44 258.793 1482.77 256.023 1482.88 253.049C1482.99 250.075 1484.24 247.194 1486.62 244.181C1490.4 239.412 1495.73 237.308 1503.08 237.815C1508.26 238.235 1513.09 239.607 1517.5 242.281C1524.15 247.54 1528.6 252.487 1530.85 257.122Z" fill="#1A1417"/>
<path d="M1601.5 416.797C1602.14 417.111 1603.84 418.023 1606.16 419.473C1607.64 420.355 1608.8 421.08 1609.44 421.394C1610.6 422.119 1612.23 421.879 1614.56 420.705C1617.26 419.24 1621.02 416.772 1625.72 413.175L1668.42 380.512C1675.54 375.068 1679.34 371.351 1680.15 369.519C1678.03 364.899 1676.78 361.423 1676.31 358.964L1680.93 356.84L1703.58 386.45C1708.83 393.312 1711.96 399.778 1713.11 405.752C1713.86 410.417 1713.51 414.708 1712.02 419.075C1710.43 423.314 1707.65 427.053 1703.33 430.358C1698.37 434.149 1693.14 436.535 1687.78 437.418C1682.41 438.301 1677.09 437.936 1672.08 436.127C1665.95 434.169 1660.73 430.507 1656.4 425.364C1653.09 421.043 1649.68 415.795 1646.07 409.493L1628.15 423.2C1623.83 426.505 1620.11 429.549 1617.1 432.458C1619.83 436.816 1622.34 441.944 1624.42 447.813L1620.53 449.578L1598.36 420.603L1601.5 416.797ZM1672.89 430.071C1680.52 431.887 1688.22 429.83 1695.97 423.9C1702.07 419.233 1704.93 414.022 1704.68 408.168C1704.44 402.314 1702.04 396.289 1697.28 390.062C1692.61 383.962 1689.41 380.568 1687.74 379.432C1685.5 379.933 1680.89 382.857 1673.9 388.204L1652.17 404.827C1653.55 409.006 1656.45 413.843 1660.63 419.307C1664.71 424.645 1668.78 428.382 1672.89 430.071Z" fill="#1A1417"/>
<path d="M1652.75 490.03C1652.88 484.263 1654.51 479.061 1657.72 473.983C1660.81 468.991 1665.2 464.871 1670.74 461.353C1676.14 457.921 1681.69 455.913 1687.61 455.378C1693.52 454.842 1699.28 455.546 1704.87 457.489C1711.3 459.85 1716.38 463.069 1719.84 467.318C1724.13 474.071 1725.67 480.674 1724.46 487.128C1723.25 493.582 1719.49 499.003 1713.1 503.256C1710.59 504.088 1707.74 504.381 1704.52 503.777L1679.2 468.109C1671.64 472.914 1666.64 478.174 1664.16 484.112C1661.59 489.914 1662.52 496.149 1666.64 502.631C1670.15 508.168 1676.18 512.873 1684.7 516.745L1681.79 522.007C1677.57 520.139 1672.79 517.681 1667.79 514.597C1662.67 511.599 1659.22 508.86 1657.5 506.159C1654.24 501.027 1652.54 495.663 1652.75 490.03ZM1707.27 495.582C1711.78 492.53 1714.48 488.728 1715.2 484.482C1715.83 480.102 1714.9 475.953 1712.41 472.037C1710.01 468.255 1706.83 465.345 1703.19 463.489C1700.4 462.984 1697.25 463.092 1693.69 463.457C1690.13 463.822 1686.83 464.593 1683.95 466.039L1707.27 495.582Z" fill="#1A1417"/>
<path d="M1757.64 542.529C1757.29 548.336 1755.43 553.681 1752.05 558.565C1748.53 563.524 1743.84 567.654 1737.77 570.889C1732.12 573.899 1726.36 575.337 1720.42 575.42C1714.48 575.503 1708.8 574.362 1703.58 572.064C1697.14 569.154 1692.16 564.917 1688.58 559.57C1685.42 553.639 1683.99 547.879 1684.34 542.072C1684.47 536.199 1686.34 530.854 1689.86 525.895C1693.24 521.011 1698 517.022 1704.21 513.711C1709.72 510.777 1715.41 509.197 1721.34 509.115C1727.28 509.032 1732.97 510.173 1738.4 512.537C1744.63 515.381 1749.75 519.543 1753.4 525.031C1756.48 530.82 1757.78 536.656 1757.64 542.529ZM1736.12 518.465C1732.65 517.41 1728.57 517.23 1723.79 517.784C1719.01 518.337 1714.4 519.889 1710.02 522.222C1702.82 526.059 1697.86 531.055 1695.16 537.21C1692.32 543.439 1692.69 549.585 1696.15 556.081C1698.56 560.599 1701.8 563.951 1705.86 566.135C1709.25 567.05 1713.33 567.23 1718.12 566.676C1722.9 566.122 1727.44 564.787 1731.96 562.379C1739.02 558.617 1743.97 553.621 1746.82 547.391C1749.52 541.237 1749.21 534.874 1745.83 528.52C1743.34 523.861 1740.11 520.509 1736.12 518.465Z" fill="#1A1417"/>
<path d="M1788.97 622.871C1785.23 630.393 1778.66 636.172 1768.95 640.334C1762.63 643.046 1756.33 644.182 1750.19 643.679C1743.91 643.239 1738.13 641.539 1733 638.514C1730.23 636.918 1727.83 634.986 1725.4 632.549C1722.96 630.113 1721.24 627.718 1719.95 625.135C1718.95 622.782 1717.89 619.925 1717.1 616.437C1716.23 612.803 1715.62 609.757 1715.27 607.299C1700.56 613.605 1691.95 617.472 1689.43 618.902C1691.32 625.75 1692.56 631.485 1693 636.17L1688.15 637.033L1674.97 606.299L1679.09 603.315C1680.47 604.113 1682.47 605.52 1684.72 607.516C1685.6 608.356 1687.24 608.524 1689.7 608.166C1691.29 607.829 1693.42 607.094 1696.42 605.979C1699.36 604.718 1703.98 602.91 1710.16 600.262L1752.95 581.912C1755.6 580.777 1760.24 578.612 1766.58 575.543C1765.36 571.888 1764.5 568.253 1764.16 564.22L1768.7 562.622L1779.99 577.977L1778.45 582.116L1771.69 583.798C1772.24 584.26 1773.81 585.5 1776.63 587.6C1779.3 589.763 1781.97 591.927 1784.28 594.069C1786.59 596.211 1788.12 598.165 1788.9 599.572C1792.37 607.66 1792.41 615.475 1788.97 622.871ZM1731.64 628.83C1733.11 630.636 1734.96 632.106 1736.89 633.366C1740.04 634.626 1744.1 635.15 1749.2 634.876C1754.24 634.455 1759.18 633.382 1764.18 631.238C1771.24 628.212 1776.36 623.925 1779.41 618.441C1782.31 613.02 1782.52 607.011 1779.87 600.835C1778.37 598.167 1773.56 593.441 1765.37 586.51L1724.78 603.914C1724.43 606.33 1724.61 609.209 1724.99 612.528C1725.37 615.847 1726.59 619.503 1728.23 623.326C1728.99 625.09 1730.17 627.023 1731.64 628.83Z" fill="#1A1417"/>
<path d="M1845.13 640.998C1841.34 641.333 1836.76 642.292 1831.58 643.973C1826.35 645.504 1819.72 647.874 1811.58 650.783L1762.62 668.292C1756.59 670.447 1751.98 672.267 1748.88 674.055C1749.01 675.368 1749.26 677.488 1749.52 680.114C1749.78 682.74 1749.67 684.818 1749.5 686.238L1745.35 686.531L1735.01 657.604L1738.45 655.354C1739.43 656.193 1740.73 657.43 1741.97 659.022C1743.22 660.615 1744.11 661.658 1744.62 662.153C1745.85 662.734 1747.32 663.056 1749.09 662.765C1751.61 662.204 1754.43 661.536 1757.74 660.351L1763.77 658.196L1822.68 637.132C1829 634.869 1833.32 633.156 1835.47 632.047C1834.19 626.558 1833.8 622.619 1834.55 619.971L1838.48 619.076L1847.37 636.799L1845.13 640.998Z" fill="#1A1417"/>
<path d="M1754.66 706.08C1756.4 700.58 1759.42 696.042 1763.93 692.071C1768.29 688.144 1773.67 685.423 1779.97 683.6C1786.12 681.821 1792 681.449 1797.83 682.594C1803.66 683.74 1808.99 686.029 1813.81 689.464C1819.32 693.533 1823.29 698.047 1825.42 703.095C1827.64 710.78 1827.27 717.55 1824.3 723.406C1821.33 729.262 1816.2 733.411 1808.87 735.7C1806.23 735.796 1803.42 735.278 1800.49 733.794L1786.2 692.458C1777.59 694.948 1771.32 698.596 1767.27 703.598C1763.17 708.447 1762.31 714.692 1764.45 722.069C1766.27 728.37 1770.73 734.575 1777.83 740.683L1773.56 744.917C1770.03 741.94 1766.13 738.239 1762.2 733.879C1758.12 729.563 1755.58 725.967 1754.69 722.893C1753 717.053 1752.87 711.427 1754.66 706.08ZM1805.43 726.7C1810.61 725.035 1814.27 722.143 1816.15 718.269C1817.98 714.241 1818.25 709.998 1816.96 705.541C1815.72 701.237 1813.49 697.553 1810.51 694.749C1807.98 693.483 1804.92 692.702 1801.4 692.055C1797.88 691.407 1794.5 691.221 1791.34 691.803L1805.43 726.7Z" fill="#1A1417"/>
<path d="M1792.54 895.823C1792.87 896.454 1793.73 898.19 1794.76 900.721C1795.45 902.301 1795.96 903.567 1796.3 904.197C1796.82 905.463 1798.28 906.22 1800.85 906.625C1803.91 907.016 1808.39 907.206 1814.31 907.033L1868.05 905.464C1877.01 905.203 1882.26 904.409 1884 903.398C1884.97 898.408 1885.99 894.856 1887.04 892.585L1892.03 893.56L1893.12 930.824C1893.37 939.46 1892.14 946.539 1889.58 952.056C1887.46 956.28 1884.67 959.562 1880.91 962.233C1877.14 964.744 1872.7 966.154 1867.26 966.313C1861.03 966.495 1855.39 965.379 1850.52 962.96C1845.65 960.541 1841.55 957.14 1838.54 952.746C1834.7 947.575 1832.61 941.554 1832.09 934.846C1831.93 929.408 1832.23 923.157 1832.98 915.932L1810.43 916.59C1804.99 916.749 1800.2 917.049 1796.05 917.65C1795.72 922.782 1794.77 928.412 1793.02 934.386L1788.84 933.548L1787.77 897.083L1792.54 895.823ZM1842.73 948.301C1847.86 954.234 1855.31 957.058 1865.07 956.773C1872.74 956.549 1878.11 953.992 1881.33 949.096C1884.55 944.2 1886.12 937.911 1885.9 930.074C1885.67 922.397 1885.06 917.773 1884.36 915.873C1882.25 914.974 1876.8 914.653 1868.01 914.91L1840.66 915.708C1839.34 919.908 1838.86 925.524 1839.06 932.402C1839.26 939.119 1840.38 944.528 1842.73 948.301Z" fill="#1A1417"/>
<path d="M1897.2 999.748C1893.57 998.633 1888.96 997.797 1883.53 997.407C1878.11 996.857 1871.07 996.558 1862.44 996.193L1810.49 993.991C1804.09 993.72 1799.13 993.67 1795.59 994.16C1795.21 995.425 1794.65 997.483 1793.9 1000.01C1793.15 1002.54 1792.27 1004.43 1791.58 1005.68L1787.63 1004.39L1788.93 973.7L1792.97 972.91C1793.56 974.056 1794.29 975.689 1794.85 977.634C1795.41 979.579 1795.83 980.878 1796.12 981.531C1797.04 982.531 1798.29 983.385 1800.03 983.779C1802.58 984.207 1805.44 984.649 1808.96 984.798L1815.35 985.069L1877.85 987.718C1884.57 988.002 1889.21 988.039 1891.62 987.821C1892.5 982.253 1893.62 978.457 1895.31 976.287L1899.29 976.936L1900.85 996.7L1897.2 999.748Z" fill="#1A1417"/>
<path d="M1832.49 1058.87L1807.02 1056.35C1799.22 1055.58 1793.76 1055.52 1790.76 1056.51L1789.8 1066.23L1786.4 1066.53C1785.31 1064.5 1784.27 1061.98 1783.46 1058.85C1782.5 1055.54 1782 1052.43 1781.81 1049.52C1783.49 1048.72 1786.8 1047.76 1792.03 1046.99L1790.75 1043.65C1786.47 1033.26 1784.37 1026.78 1784.29 1024.36C1784.92 1017.99 1787.32 1013.25 1791.61 1010.45C1794.57 1008.17 1798.34 1007.42 1803.12 1007.89C1805.83 1008.16 1808.47 1009.06 1810.89 1010.59C1813.31 1012.11 1815.2 1014.23 1816.41 1016.6C1817.43 1020.88 1819.42 1031.69 1822.5 1049.36L1835.56 1050.65C1839.7 1051.06 1842.69 1050.06 1844.82 1048.02C1846.79 1045.97 1848.04 1043.04 1848.39 1039.53C1848.82 1035.23 1848.11 1030.98 1846.29 1026.62C1844.15 1025.45 1841.02 1024.66 1836.91 1023.93C1836.37 1022.91 1836.03 1021.43 1835.72 1019.63C1835.42 1017.83 1835.23 1016.53 1835.32 1015.57L1838.12 1013.28C1843.47 1014.45 1847.34 1015.96 1849.88 1017.98C1851.17 1021.16 1852.53 1025.31 1854.13 1030.29C1855.57 1035.26 1856.33 1038.87 1856.45 1040.97C1855.13 1054.35 1847.14 1060.31 1832.49 1058.87ZM1816.13 1048.73C1813.13 1033.48 1811.18 1023.96 1810.25 1020.33C1808.44 1019.19 1806.09 1018.48 1803.23 1018.19C1800.04 1017.88 1797.59 1018.28 1795.53 1019.68C1793.46 1021.09 1792.43 1023.4 1792.08 1026.9C1792.24 1028.52 1792.91 1031.48 1794.13 1035.46C1795.34 1039.44 1796.73 1043.28 1797.98 1046.94L1816.13 1048.73Z" fill="#1A1417"/>
<path d="M1782.2 1080.74C1785.98 1076.68 1790.67 1073.91 1796.44 1072.46C1802.08 1070.82 1808.1 1070.71 1814.72 1071.84C1820.72 1072.87 1826.02 1075.07 1830.93 1078.67C1835.86 1082.1 1839.66 1086.48 1842.51 1091.68C1845.66 1097.9 1847.19 1104.16 1846.93 1110.45C1845.4 1119.44 1842.82 1125.98 1839.49 1130.28L1835.94 1131.13C1834.5 1130.08 1833.26 1128.73 1832.25 1127.1C1831.07 1125.43 1830.49 1124.04 1830.52 1122.91C1835.09 1118.98 1837.95 1113.62 1839.11 1106.84C1839.43 1104.95 1839.28 1102.98 1838.97 1100.97C1838.66 1098.97 1838.17 1097.11 1837.6 1095.71C1835.37 1092.57 1832.12 1089.74 1827.87 1087.07C1823.46 1084.37 1818.86 1082.78 1814.13 1081.97C1805.3 1080.46 1798.35 1081.23 1793.24 1084.57C1787.96 1087.89 1784.87 1092.72 1783.77 1099.19C1782.85 1104.55 1783.93 1111.55 1787.03 1120.03L1781.76 1121.41C1779.99 1117.54 1778.35 1112.87 1776.79 1107.74C1775.23 1102.6 1774.61 1098.6 1774.91 1095.89C1775.96 1089.74 1778.3 1084.62 1782.2 1080.74Z" fill="#1A1417"/>
<path d="M1771.86 1135.66C1776.1 1131.76 1780.98 1129.32 1786.87 1128.12C1792.61 1126.88 1798.62 1127.2 1805 1128.75C1811.22 1130.26 1816.51 1132.87 1821 1136.76C1825.48 1140.65 1828.96 1145.29 1831.44 1150.67C1834.2 1156.94 1835.4 1162.83 1834.73 1168.27C1832.84 1176.04 1829.15 1181.73 1823.66 1185.33C1818.17 1188.93 1811.66 1189.98 1804.16 1188.32C1801.82 1187.09 1799.64 1185.24 1797.84 1182.5L1805.99 1139.53C1797.29 1137.41 1790.03 1137.45 1784.03 1139.78C1778.07 1141.95 1774.22 1146.94 1772.4 1154.4C1770.85 1160.78 1771.63 1168.38 1774.75 1177.21L1768.94 1178.76C1767.36 1174.42 1765.82 1169.27 1764.58 1163.53C1763.19 1157.76 1762.77 1153.38 1763.53 1150.27C1764.97 1144.36 1767.65 1139.42 1771.86 1135.66ZM1805.65 1178.8C1810.97 1179.94 1815.59 1179.25 1819.14 1176.82C1822.74 1174.24 1825.08 1170.69 1826.18 1166.18C1827.24 1161.83 1827.14 1157.52 1825.95 1153.61C1824.38 1151.25 1822.12 1149.06 1819.39 1146.74C1816.66 1144.43 1813.81 1142.59 1810.78 1141.52L1805.65 1178.8Z" fill="#1A1417"/>
<path d="M1809.12 1244.54L1804.74 1246.17C1802.96 1245.43 1800.51 1244.15 1797.35 1242.47C1794.04 1240.75 1791.64 1239.31 1790.31 1238.21C1790.35 1237.05 1790.63 1235.63 1791.21 1233.8C1795.93 1234.8 1800.7 1235.65 1805.52 1236.34C1806.56 1235.16 1807.56 1233.63 1808.69 1231.64C1809.68 1229.61 1810.61 1227.72 1811.2 1225.89C1812.85 1220.71 1813 1216.56 1811.84 1213.34C1810.38 1210.52 1808.39 1208.88 1805.65 1208C1802.44 1206.98 1799.66 1207.27 1797.36 1209.23C1795.06 1211.18 1792.02 1214.41 1788.49 1219.16C1785.6 1222.94 1782.91 1226.12 1780.67 1228.42C1778.42 1230.73 1775.71 1232.39 1772.49 1233.54C1769.31 1234.55 1765.62 1234.55 1761.66 1233.28C1755.1 1231.19 1750.8 1227.3 1748.9 1221.66C1747 1216.02 1747.22 1209.54 1749.5 1202.38C1751.5 1196.13 1754.76 1190.11 1759.64 1184.28C1760.9 1184.51 1764 1185.33 1768.62 1186.64C1773.25 1187.94 1776.6 1189.01 1778.69 1189.84C1778.91 1191.26 1778.68 1193.03 1778 1195.17C1770.29 1194.05 1765.38 1193.66 1763.11 1193.95C1761.7 1195.18 1760.36 1196.77 1758.97 1199.01C1757.59 1201.26 1756.66 1203.65 1755.83 1206.24C1754.28 1211.12 1754.03 1215.07 1755.03 1218.24C1755.55 1219.25 1756.42 1220.2 1757.8 1221.14C1759.03 1222.03 1760.3 1222.78 1761.67 1223.21C1764.42 1224.09 1767.1 1224.1 1769.41 1223.16C1771.73 1222.22 1773.64 1220.98 1775.38 1219.18C1776.98 1217.34 1779.17 1214.68 1781.71 1211.46C1784.44 1207.63 1786.83 1204.86 1788.83 1202.81C1790.82 1200.76 1793.18 1199.16 1796 1198.21C1798.82 1197.27 1801.96 1197.43 1805.62 1198.59C1811.41 1200.44 1815.27 1204.69 1817.38 1211.74C1818.82 1216.73 1819.24 1221.74 1818.29 1226.81C1815.72 1234.89 1812.66 1240.8 1809.12 1244.54Z" fill="#1A1417"/>
</svg>
